M48
; DRILL file KiCad 10.0.0 date 2026-04-03T15:27:13
; FORMAT={-:-/ absolute / inch / decimal}
; #@! TF.CreationDate,2026-04-03T15:27:13-04:00
; #@! TF.GenerationSoftware,Kicad,Pcbnew,10.0.0
; #@! TF.FileFunction,Plated,1,2,PTH
FMAT,2
INCH
; #@! TA.AperFunction,Plated,PTH,ViaDrill
T1C0.0118
; #@! TA.AperFunction,Plated,PTH,ComponentDrill
T2C0.0118
; #@! TA.AperFunction,Plated,PTH,ComponentDrill
T3C0.0394
; #@! TA.AperFunction,Plated,PTH,ComponentDrill
T4C0.1260
%
G90
G05
T1
X4.6132Y-3.3516
X4.8268Y-2.5283
X4.9953Y-2.9925
T2
X5.1417Y-1.9567
X5.1417Y-3.8071
X5.1677Y-1.8941
X5.1677Y-2.0193
X5.1677Y-3.7444
X5.1677Y-3.8697
X5.2303Y-1.8681
X5.2303Y-2.0453
X5.2303Y-3.7185
X5.2303Y-3.8957
X5.293Y-1.8941
X5.293Y-2.0193
X5.293Y-3.7444
X5.293Y-3.8697
X5.3189Y-1.9567
X5.3189Y-3.8071
T3
X4.7776Y-1.9911
X4.7776Y-2.1171
X4.7776Y-2.1959
X4.7776Y-2.2982
X4.787Y-3.1175
X4.787Y-3.2077
X4.787Y-3.2978
X4.787Y-3.388
X4.787Y-3.4781
X4.876Y-1.9911
X4.876Y-2.0659
X4.876Y-2.1447
X4.876Y-2.2234
X4.876Y-2.2982
X4.887Y-3.0724
X4.887Y-3.1626
X4.887Y-3.2528
X4.887Y-3.3429
X4.887Y-3.4331
X4.987Y-3.1175
X4.987Y-3.2077
X4.987Y-3.2978
X4.987Y-3.388
X4.987Y-3.4781
T4
X4.887Y-2.7953
X4.887Y-3.7795
X5.2303Y-1.9567
X5.2303Y-3.8071
T3
G00X4.628Y-2.1742
M15
G01X4.628Y-2.1152
M16
G05
G00X4.7205Y-1.8593
M15
G01X4.6614Y-1.8593
M16
G05
G00X4.7205Y-2.4301
M15
G01X4.6614Y-2.4301
M16
G05
M30
