M48
; DRILL file KiCad 10.0.0 date 2026-04-03T13:38:23
; FORMAT={-:-/ absolute / metric / decimal}
; #@! TF.CreationDate,2026-04-03T13:38:23-04:00
; #@! TF.GenerationSoftware,Kicad,Pcbnew,10.0.0
; #@! TF.FileFunction,Plated,1,2,PTH
FMAT,2
METRIC
; #@! TA.AperFunction,Plated,PTH,ViaDrill
T1C0.300
; #@! TA.AperFunction,Plated,PTH,ComponentDrill
T2C0.300
; #@! TA.AperFunction,Plated,PTH,ComponentDrill
T3C1.000
; #@! TA.AperFunction,Plated,PTH,ComponentDrill
T4C3.200
%
G90
G05
T1
X117.175Y-85.13
X122.6Y-64.22
X126.88Y-76.01
T2
X130.6Y-49.7
X130.6Y-96.7
X131.259Y-48.109
X131.259Y-51.291
X131.259Y-95.109
X131.259Y-98.291
X132.85Y-47.45
X132.85Y-51.95
X132.85Y-94.45
X132.85Y-98.95
X134.441Y-48.109
X134.441Y-51.291
X134.441Y-95.109
X134.441Y-98.291
X135.1Y-49.7
X135.1Y-96.7
T3
X121.35Y-50.575
X121.35Y-53.775
X121.35Y-55.725
X121.35Y-58.375
X121.59Y-79.185
X121.59Y-81.475
X121.59Y-83.765
X121.59Y-86.055
X121.59Y-88.345
X123.85Y-50.575
X123.85Y-52.525
X123.85Y-54.475
X123.85Y-56.425
X123.85Y-58.375
X124.13Y-78.04
X124.13Y-80.33
X124.13Y-82.62
X124.13Y-84.91
X124.13Y-87.2
X126.67Y-79.185
X126.67Y-81.475
X126.67Y-83.765
X126.67Y-86.055
X126.67Y-88.345
T4
X124.13Y-71.0
X124.13Y-96.0
X132.85Y-49.7
X132.85Y-96.7
T3
G00X117.6Y-55.225
M15
G01X117.6Y-53.725
M16
G05
G00X119.9Y-47.175
M15
G01X118.4Y-47.175
M16
G05
G00X119.9Y-61.775
M15
G01X118.4Y-61.775
M16
G05
M30
