%TF.GenerationSoftware,KiCad,Pcbnew,10.0.0*%
%TF.CreationDate,2026-04-03T13:38:21-04:00*%
%TF.ProjectId,miroHISCORE Adapter,6d69726f-4849-4534-934f-524520416461,rev?*%
%TF.SameCoordinates,Original*%
%TF.FileFunction,Legend,Top*%
%TF.FilePolarity,Positive*%
%FSLAX46Y46*%
G04 Gerber Fmt 4.6, Leading zero omitted, Abs format (unit mm)*
G04 Created by KiCad (PCBNEW 10.0.0) date 2026-04-03 13:38:21*
%MOMM*%
%LPD*%
G01*
G04 APERTURE LIST*
%ADD10C,0.300000*%
%ADD11C,0.375000*%
%ADD12C,0.150000*%
%ADD13C,0.152000*%
%ADD14C,0.120000*%
G04 APERTURE END LIST*
D10*
X131121671Y-64782144D02*
X130050242Y-64782144D01*
X130050242Y-64782144D02*
X129835957Y-64710715D01*
X129835957Y-64710715D02*
X129693100Y-64567858D01*
X129693100Y-64567858D02*
X129621671Y-64353572D01*
X129621671Y-64353572D02*
X129621671Y-64210715D01*
X129693100Y-66067858D02*
X129621671Y-65925001D01*
X129621671Y-65925001D02*
X129621671Y-65639287D01*
X129621671Y-65639287D02*
X129693100Y-65496429D01*
X129693100Y-65496429D02*
X129835957Y-65425001D01*
X129835957Y-65425001D02*
X130407385Y-65425001D01*
X130407385Y-65425001D02*
X130550242Y-65496429D01*
X130550242Y-65496429D02*
X130621671Y-65639287D01*
X130621671Y-65639287D02*
X130621671Y-65925001D01*
X130621671Y-65925001D02*
X130550242Y-66067858D01*
X130550242Y-66067858D02*
X130407385Y-66139287D01*
X130407385Y-66139287D02*
X130264528Y-66139287D01*
X130264528Y-66139287D02*
X130121671Y-65425001D01*
X130621671Y-66567858D02*
X130621671Y-67139286D01*
X129621671Y-66782143D02*
X130907385Y-66782143D01*
X130907385Y-66782143D02*
X131050242Y-66853572D01*
X131050242Y-66853572D02*
X131121671Y-66996429D01*
X131121671Y-66996429D02*
X131121671Y-67139286D01*
X130621671Y-67425001D02*
X130621671Y-67996429D01*
X129621671Y-67639286D02*
X130907385Y-67639286D01*
X130907385Y-67639286D02*
X131050242Y-67710715D01*
X131050242Y-67710715D02*
X131121671Y-67853572D01*
X131121671Y-67853572D02*
X131121671Y-67996429D01*
X129764528Y-70496429D02*
X129693100Y-70425001D01*
X129693100Y-70425001D02*
X129621671Y-70210715D01*
X129621671Y-70210715D02*
X129621671Y-70067858D01*
X129621671Y-70067858D02*
X129693100Y-69853572D01*
X129693100Y-69853572D02*
X129835957Y-69710715D01*
X129835957Y-69710715D02*
X129978814Y-69639286D01*
X129978814Y-69639286D02*
X130264528Y-69567858D01*
X130264528Y-69567858D02*
X130478814Y-69567858D01*
X130478814Y-69567858D02*
X130764528Y-69639286D01*
X130764528Y-69639286D02*
X130907385Y-69710715D01*
X130907385Y-69710715D02*
X131050242Y-69853572D01*
X131050242Y-69853572D02*
X131121671Y-70067858D01*
X131121671Y-70067858D02*
X131121671Y-70210715D01*
X131121671Y-70210715D02*
X131050242Y-70425001D01*
X131050242Y-70425001D02*
X130978814Y-70496429D01*
X129621671Y-71139286D02*
X131121671Y-71139286D01*
X129621671Y-71782144D02*
X130407385Y-71782144D01*
X130407385Y-71782144D02*
X130550242Y-71710715D01*
X130550242Y-71710715D02*
X130621671Y-71567858D01*
X130621671Y-71567858D02*
X130621671Y-71353572D01*
X130621671Y-71353572D02*
X130550242Y-71210715D01*
X130550242Y-71210715D02*
X130478814Y-71139286D01*
X129693100Y-73067858D02*
X129621671Y-72925001D01*
X129621671Y-72925001D02*
X129621671Y-72639287D01*
X129621671Y-72639287D02*
X129693100Y-72496429D01*
X129693100Y-72496429D02*
X129835957Y-72425001D01*
X129835957Y-72425001D02*
X130407385Y-72425001D01*
X130407385Y-72425001D02*
X130550242Y-72496429D01*
X130550242Y-72496429D02*
X130621671Y-72639287D01*
X130621671Y-72639287D02*
X130621671Y-72925001D01*
X130621671Y-72925001D02*
X130550242Y-73067858D01*
X130550242Y-73067858D02*
X130407385Y-73139287D01*
X130407385Y-73139287D02*
X130264528Y-73139287D01*
X130264528Y-73139287D02*
X130121671Y-72425001D01*
X130621671Y-73782143D02*
X129621671Y-73782143D01*
X130478814Y-73782143D02*
X130550242Y-73853572D01*
X130550242Y-73853572D02*
X130621671Y-73996429D01*
X130621671Y-73996429D02*
X130621671Y-74210715D01*
X130621671Y-74210715D02*
X130550242Y-74353572D01*
X130550242Y-74353572D02*
X130407385Y-74425001D01*
X130407385Y-74425001D02*
X129621671Y-74425001D01*
X129693100Y-75210715D02*
X129621671Y-75210715D01*
X129621671Y-75210715D02*
X129478814Y-75139286D01*
X129478814Y-75139286D02*
X129407385Y-75067858D01*
X130978814Y-76925001D02*
X131050242Y-76996429D01*
X131050242Y-76996429D02*
X131121671Y-77139287D01*
X131121671Y-77139287D02*
X131121671Y-77496429D01*
X131121671Y-77496429D02*
X131050242Y-77639287D01*
X131050242Y-77639287D02*
X130978814Y-77710715D01*
X130978814Y-77710715D02*
X130835957Y-77782144D01*
X130835957Y-77782144D02*
X130693100Y-77782144D01*
X130693100Y-77782144D02*
X130478814Y-77710715D01*
X130478814Y-77710715D02*
X129621671Y-76853572D01*
X129621671Y-76853572D02*
X129621671Y-77782144D01*
X131121671Y-78710715D02*
X131121671Y-78853572D01*
X131121671Y-78853572D02*
X131050242Y-78996429D01*
X131050242Y-78996429D02*
X130978814Y-79067858D01*
X130978814Y-79067858D02*
X130835957Y-79139286D01*
X130835957Y-79139286D02*
X130550242Y-79210715D01*
X130550242Y-79210715D02*
X130193100Y-79210715D01*
X130193100Y-79210715D02*
X129907385Y-79139286D01*
X129907385Y-79139286D02*
X129764528Y-79067858D01*
X129764528Y-79067858D02*
X129693100Y-78996429D01*
X129693100Y-78996429D02*
X129621671Y-78853572D01*
X129621671Y-78853572D02*
X129621671Y-78710715D01*
X129621671Y-78710715D02*
X129693100Y-78567858D01*
X129693100Y-78567858D02*
X129764528Y-78496429D01*
X129764528Y-78496429D02*
X129907385Y-78425000D01*
X129907385Y-78425000D02*
X130193100Y-78353572D01*
X130193100Y-78353572D02*
X130550242Y-78353572D01*
X130550242Y-78353572D02*
X130835957Y-78425000D01*
X130835957Y-78425000D02*
X130978814Y-78496429D01*
X130978814Y-78496429D02*
X131050242Y-78567858D01*
X131050242Y-78567858D02*
X131121671Y-78710715D01*
X130978814Y-79782143D02*
X131050242Y-79853571D01*
X131050242Y-79853571D02*
X131121671Y-79996429D01*
X131121671Y-79996429D02*
X131121671Y-80353571D01*
X131121671Y-80353571D02*
X131050242Y-80496429D01*
X131050242Y-80496429D02*
X130978814Y-80567857D01*
X130978814Y-80567857D02*
X130835957Y-80639286D01*
X130835957Y-80639286D02*
X130693100Y-80639286D01*
X130693100Y-80639286D02*
X130478814Y-80567857D01*
X130478814Y-80567857D02*
X129621671Y-79710714D01*
X129621671Y-79710714D02*
X129621671Y-80639286D01*
X131121671Y-81925000D02*
X131121671Y-81639285D01*
X131121671Y-81639285D02*
X131050242Y-81496428D01*
X131050242Y-81496428D02*
X130978814Y-81425000D01*
X130978814Y-81425000D02*
X130764528Y-81282142D01*
X130764528Y-81282142D02*
X130478814Y-81210714D01*
X130478814Y-81210714D02*
X129907385Y-81210714D01*
X129907385Y-81210714D02*
X129764528Y-81282142D01*
X129764528Y-81282142D02*
X129693100Y-81353571D01*
X129693100Y-81353571D02*
X129621671Y-81496428D01*
X129621671Y-81496428D02*
X129621671Y-81782142D01*
X129621671Y-81782142D02*
X129693100Y-81925000D01*
X129693100Y-81925000D02*
X129764528Y-81996428D01*
X129764528Y-81996428D02*
X129907385Y-82067857D01*
X129907385Y-82067857D02*
X130264528Y-82067857D01*
X130264528Y-82067857D02*
X130407385Y-81996428D01*
X130407385Y-81996428D02*
X130478814Y-81925000D01*
X130478814Y-81925000D02*
X130550242Y-81782142D01*
X130550242Y-81782142D02*
X130550242Y-81496428D01*
X130550242Y-81496428D02*
X130478814Y-81353571D01*
X130478814Y-81353571D02*
X130407385Y-81282142D01*
X130407385Y-81282142D02*
X130264528Y-81210714D01*
D11*
X136008029Y-64174999D02*
X137008029Y-64174999D01*
X136865172Y-64174999D02*
X136936600Y-64246428D01*
X136936600Y-64246428D02*
X137008029Y-64389285D01*
X137008029Y-64389285D02*
X137008029Y-64603571D01*
X137008029Y-64603571D02*
X136936600Y-64746428D01*
X136936600Y-64746428D02*
X136793743Y-64817857D01*
X136793743Y-64817857D02*
X136008029Y-64817857D01*
X136793743Y-64817857D02*
X136936600Y-64889285D01*
X136936600Y-64889285D02*
X137008029Y-65032142D01*
X137008029Y-65032142D02*
X137008029Y-65246428D01*
X137008029Y-65246428D02*
X136936600Y-65389285D01*
X136936600Y-65389285D02*
X136793743Y-65460714D01*
X136793743Y-65460714D02*
X136008029Y-65460714D01*
X136008029Y-66174999D02*
X137008029Y-66174999D01*
X137508029Y-66174999D02*
X137436600Y-66103571D01*
X137436600Y-66103571D02*
X137365172Y-66174999D01*
X137365172Y-66174999D02*
X137436600Y-66246428D01*
X137436600Y-66246428D02*
X137508029Y-66174999D01*
X137508029Y-66174999D02*
X137365172Y-66174999D01*
X136008029Y-66889285D02*
X137008029Y-66889285D01*
X136722315Y-66889285D02*
X136865172Y-66960714D01*
X136865172Y-66960714D02*
X136936600Y-67032143D01*
X136936600Y-67032143D02*
X137008029Y-67175000D01*
X137008029Y-67175000D02*
X137008029Y-67317857D01*
X136008029Y-68032142D02*
X136079458Y-67889285D01*
X136079458Y-67889285D02*
X136150886Y-67817856D01*
X136150886Y-67817856D02*
X136293743Y-67746428D01*
X136293743Y-67746428D02*
X136722315Y-67746428D01*
X136722315Y-67746428D02*
X136865172Y-67817856D01*
X136865172Y-67817856D02*
X136936600Y-67889285D01*
X136936600Y-67889285D02*
X137008029Y-68032142D01*
X137008029Y-68032142D02*
X137008029Y-68246428D01*
X137008029Y-68246428D02*
X136936600Y-68389285D01*
X136936600Y-68389285D02*
X136865172Y-68460714D01*
X136865172Y-68460714D02*
X136722315Y-68532142D01*
X136722315Y-68532142D02*
X136293743Y-68532142D01*
X136293743Y-68532142D02*
X136150886Y-68460714D01*
X136150886Y-68460714D02*
X136079458Y-68389285D01*
X136079458Y-68389285D02*
X136008029Y-68246428D01*
X136008029Y-68246428D02*
X136008029Y-68032142D01*
X136008029Y-69174999D02*
X137508029Y-69174999D01*
X136793743Y-69174999D02*
X136793743Y-70032142D01*
X136008029Y-70032142D02*
X137508029Y-70032142D01*
X136008029Y-70746428D02*
X137508029Y-70746428D01*
X136079458Y-71389286D02*
X136008029Y-71603572D01*
X136008029Y-71603572D02*
X136008029Y-71960714D01*
X136008029Y-71960714D02*
X136079458Y-72103572D01*
X136079458Y-72103572D02*
X136150886Y-72175000D01*
X136150886Y-72175000D02*
X136293743Y-72246429D01*
X136293743Y-72246429D02*
X136436600Y-72246429D01*
X136436600Y-72246429D02*
X136579458Y-72175000D01*
X136579458Y-72175000D02*
X136650886Y-72103572D01*
X136650886Y-72103572D02*
X136722315Y-71960714D01*
X136722315Y-71960714D02*
X136793743Y-71675000D01*
X136793743Y-71675000D02*
X136865172Y-71532143D01*
X136865172Y-71532143D02*
X136936600Y-71460714D01*
X136936600Y-71460714D02*
X137079458Y-71389286D01*
X137079458Y-71389286D02*
X137222315Y-71389286D01*
X137222315Y-71389286D02*
X137365172Y-71460714D01*
X137365172Y-71460714D02*
X137436600Y-71532143D01*
X137436600Y-71532143D02*
X137508029Y-71675000D01*
X137508029Y-71675000D02*
X137508029Y-72032143D01*
X137508029Y-72032143D02*
X137436600Y-72246429D01*
X136150886Y-73746428D02*
X136079458Y-73675000D01*
X136079458Y-73675000D02*
X136008029Y-73460714D01*
X136008029Y-73460714D02*
X136008029Y-73317857D01*
X136008029Y-73317857D02*
X136079458Y-73103571D01*
X136079458Y-73103571D02*
X136222315Y-72960714D01*
X136222315Y-72960714D02*
X136365172Y-72889285D01*
X136365172Y-72889285D02*
X136650886Y-72817857D01*
X136650886Y-72817857D02*
X136865172Y-72817857D01*
X136865172Y-72817857D02*
X137150886Y-72889285D01*
X137150886Y-72889285D02*
X137293743Y-72960714D01*
X137293743Y-72960714D02*
X137436600Y-73103571D01*
X137436600Y-73103571D02*
X137508029Y-73317857D01*
X137508029Y-73317857D02*
X137508029Y-73460714D01*
X137508029Y-73460714D02*
X137436600Y-73675000D01*
X137436600Y-73675000D02*
X137365172Y-73746428D01*
X137508029Y-74675000D02*
X137508029Y-74960714D01*
X137508029Y-74960714D02*
X137436600Y-75103571D01*
X137436600Y-75103571D02*
X137293743Y-75246428D01*
X137293743Y-75246428D02*
X137008029Y-75317857D01*
X137008029Y-75317857D02*
X136508029Y-75317857D01*
X136508029Y-75317857D02*
X136222315Y-75246428D01*
X136222315Y-75246428D02*
X136079458Y-75103571D01*
X136079458Y-75103571D02*
X136008029Y-74960714D01*
X136008029Y-74960714D02*
X136008029Y-74675000D01*
X136008029Y-74675000D02*
X136079458Y-74532143D01*
X136079458Y-74532143D02*
X136222315Y-74389285D01*
X136222315Y-74389285D02*
X136508029Y-74317857D01*
X136508029Y-74317857D02*
X137008029Y-74317857D01*
X137008029Y-74317857D02*
X137293743Y-74389285D01*
X137293743Y-74389285D02*
X137436600Y-74532143D01*
X137436600Y-74532143D02*
X137508029Y-74675000D01*
X136008029Y-76817857D02*
X136722315Y-76317857D01*
X136008029Y-75960714D02*
X137508029Y-75960714D01*
X137508029Y-75960714D02*
X137508029Y-76532143D01*
X137508029Y-76532143D02*
X137436600Y-76675000D01*
X137436600Y-76675000D02*
X137365172Y-76746429D01*
X137365172Y-76746429D02*
X137222315Y-76817857D01*
X137222315Y-76817857D02*
X137008029Y-76817857D01*
X137008029Y-76817857D02*
X136865172Y-76746429D01*
X136865172Y-76746429D02*
X136793743Y-76675000D01*
X136793743Y-76675000D02*
X136722315Y-76532143D01*
X136722315Y-76532143D02*
X136722315Y-75960714D01*
X136793743Y-77460714D02*
X136793743Y-77960714D01*
X136008029Y-78175000D02*
X136008029Y-77460714D01*
X136008029Y-77460714D02*
X137508029Y-77460714D01*
X137508029Y-77460714D02*
X137508029Y-78175000D01*
X137508029Y-79817857D02*
X137508029Y-80746429D01*
X137508029Y-80746429D02*
X136936600Y-80246429D01*
X136936600Y-80246429D02*
X136936600Y-80460714D01*
X136936600Y-80460714D02*
X136865172Y-80603572D01*
X136865172Y-80603572D02*
X136793743Y-80675000D01*
X136793743Y-80675000D02*
X136650886Y-80746429D01*
X136650886Y-80746429D02*
X136293743Y-80746429D01*
X136293743Y-80746429D02*
X136150886Y-80675000D01*
X136150886Y-80675000D02*
X136079458Y-80603572D01*
X136079458Y-80603572D02*
X136008029Y-80460714D01*
X136008029Y-80460714D02*
X136008029Y-80032143D01*
X136008029Y-80032143D02*
X136079458Y-79889286D01*
X136079458Y-79889286D02*
X136150886Y-79817857D01*
X136008029Y-81389285D02*
X137508029Y-81389285D01*
X137508029Y-81389285D02*
X137508029Y-81746428D01*
X137508029Y-81746428D02*
X137436600Y-81960714D01*
X137436600Y-81960714D02*
X137293743Y-82103571D01*
X137293743Y-82103571D02*
X137150886Y-82175000D01*
X137150886Y-82175000D02*
X136865172Y-82246428D01*
X136865172Y-82246428D02*
X136650886Y-82246428D01*
X136650886Y-82246428D02*
X136365172Y-82175000D01*
X136365172Y-82175000D02*
X136222315Y-82103571D01*
X136222315Y-82103571D02*
X136079458Y-81960714D01*
X136079458Y-81960714D02*
X136008029Y-81746428D01*
X136008029Y-81746428D02*
X136008029Y-81389285D01*
X133593113Y-57389285D02*
X135093113Y-57389285D01*
X135093113Y-57389285D02*
X134021684Y-57889285D01*
X134021684Y-57889285D02*
X135093113Y-58389285D01*
X135093113Y-58389285D02*
X133593113Y-58389285D01*
X133593113Y-59103571D02*
X134593113Y-59103571D01*
X135093113Y-59103571D02*
X135021684Y-59032143D01*
X135021684Y-59032143D02*
X134950256Y-59103571D01*
X134950256Y-59103571D02*
X135021684Y-59175000D01*
X135021684Y-59175000D02*
X135093113Y-59103571D01*
X135093113Y-59103571D02*
X134950256Y-59103571D01*
X134593113Y-59817857D02*
X133593113Y-59817857D01*
X134450256Y-59817857D02*
X134521684Y-59889286D01*
X134521684Y-59889286D02*
X134593113Y-60032143D01*
X134593113Y-60032143D02*
X134593113Y-60246429D01*
X134593113Y-60246429D02*
X134521684Y-60389286D01*
X134521684Y-60389286D02*
X134378827Y-60460715D01*
X134378827Y-60460715D02*
X133593113Y-60460715D01*
X133593113Y-61175000D02*
X134593113Y-61175000D01*
X135093113Y-61175000D02*
X135021684Y-61103572D01*
X135021684Y-61103572D02*
X134950256Y-61175000D01*
X134950256Y-61175000D02*
X135021684Y-61246429D01*
X135021684Y-61246429D02*
X135093113Y-61175000D01*
X135093113Y-61175000D02*
X134950256Y-61175000D01*
X133593113Y-63032143D02*
X135093113Y-63032143D01*
X135093113Y-63032143D02*
X135093113Y-63389286D01*
X135093113Y-63389286D02*
X135021684Y-63603572D01*
X135021684Y-63603572D02*
X134878827Y-63746429D01*
X134878827Y-63746429D02*
X134735970Y-63817858D01*
X134735970Y-63817858D02*
X134450256Y-63889286D01*
X134450256Y-63889286D02*
X134235970Y-63889286D01*
X134235970Y-63889286D02*
X133950256Y-63817858D01*
X133950256Y-63817858D02*
X133807399Y-63746429D01*
X133807399Y-63746429D02*
X133664542Y-63603572D01*
X133664542Y-63603572D02*
X133593113Y-63389286D01*
X133593113Y-63389286D02*
X133593113Y-63032143D01*
X133593113Y-64532143D02*
X135093113Y-64532143D01*
X133593113Y-65246429D02*
X135093113Y-65246429D01*
X135093113Y-65246429D02*
X133593113Y-66103572D01*
X133593113Y-66103572D02*
X135093113Y-66103572D01*
X133593113Y-68032144D02*
X133593113Y-68317858D01*
X133593113Y-68317858D02*
X133664542Y-68460715D01*
X133664542Y-68460715D02*
X133735970Y-68532144D01*
X133735970Y-68532144D02*
X133950256Y-68675001D01*
X133950256Y-68675001D02*
X134235970Y-68746430D01*
X134235970Y-68746430D02*
X134807399Y-68746430D01*
X134807399Y-68746430D02*
X134950256Y-68675001D01*
X134950256Y-68675001D02*
X135021684Y-68603573D01*
X135021684Y-68603573D02*
X135093113Y-68460715D01*
X135093113Y-68460715D02*
X135093113Y-68175001D01*
X135093113Y-68175001D02*
X135021684Y-68032144D01*
X135021684Y-68032144D02*
X134950256Y-67960715D01*
X134950256Y-67960715D02*
X134807399Y-67889287D01*
X134807399Y-67889287D02*
X134450256Y-67889287D01*
X134450256Y-67889287D02*
X134307399Y-67960715D01*
X134307399Y-67960715D02*
X134235970Y-68032144D01*
X134235970Y-68032144D02*
X134164542Y-68175001D01*
X134164542Y-68175001D02*
X134164542Y-68460715D01*
X134164542Y-68460715D02*
X134235970Y-68603573D01*
X134235970Y-68603573D02*
X134307399Y-68675001D01*
X134307399Y-68675001D02*
X134450256Y-68746430D01*
X135093113Y-70317858D02*
X135093113Y-71175001D01*
X133593113Y-70746429D02*
X135093113Y-70746429D01*
X133593113Y-71889286D02*
X133664542Y-71746429D01*
X133664542Y-71746429D02*
X133735970Y-71675000D01*
X133735970Y-71675000D02*
X133878827Y-71603572D01*
X133878827Y-71603572D02*
X134307399Y-71603572D01*
X134307399Y-71603572D02*
X134450256Y-71675000D01*
X134450256Y-71675000D02*
X134521684Y-71746429D01*
X134521684Y-71746429D02*
X134593113Y-71889286D01*
X134593113Y-71889286D02*
X134593113Y-72103572D01*
X134593113Y-72103572D02*
X134521684Y-72246429D01*
X134521684Y-72246429D02*
X134450256Y-72317858D01*
X134450256Y-72317858D02*
X134307399Y-72389286D01*
X134307399Y-72389286D02*
X133878827Y-72389286D01*
X133878827Y-72389286D02*
X133735970Y-72317858D01*
X133735970Y-72317858D02*
X133664542Y-72246429D01*
X133664542Y-72246429D02*
X133593113Y-72103572D01*
X133593113Y-72103572D02*
X133593113Y-71889286D01*
X133593113Y-74175000D02*
X135093113Y-74175000D01*
X134378827Y-74175000D02*
X134378827Y-75032143D01*
X133593113Y-75032143D02*
X135093113Y-75032143D01*
X133593113Y-75746429D02*
X135093113Y-75746429D01*
X135093113Y-75746429D02*
X135093113Y-76103572D01*
X135093113Y-76103572D02*
X135021684Y-76317858D01*
X135021684Y-76317858D02*
X134878827Y-76460715D01*
X134878827Y-76460715D02*
X134735970Y-76532144D01*
X134735970Y-76532144D02*
X134450256Y-76603572D01*
X134450256Y-76603572D02*
X134235970Y-76603572D01*
X134235970Y-76603572D02*
X133950256Y-76532144D01*
X133950256Y-76532144D02*
X133807399Y-76460715D01*
X133807399Y-76460715D02*
X133664542Y-76317858D01*
X133664542Y-76317858D02*
X133593113Y-76103572D01*
X133593113Y-76103572D02*
X133593113Y-75746429D01*
X133593113Y-78032144D02*
X133593113Y-77175001D01*
X133593113Y-77603572D02*
X135093113Y-77603572D01*
X135093113Y-77603572D02*
X134878827Y-77460715D01*
X134878827Y-77460715D02*
X134735970Y-77317858D01*
X134735970Y-77317858D02*
X134664542Y-77175001D01*
X135093113Y-79389286D02*
X135093113Y-78675000D01*
X135093113Y-78675000D02*
X134378827Y-78603572D01*
X134378827Y-78603572D02*
X134450256Y-78675000D01*
X134450256Y-78675000D02*
X134521684Y-78817858D01*
X134521684Y-78817858D02*
X134521684Y-79175000D01*
X134521684Y-79175000D02*
X134450256Y-79317858D01*
X134450256Y-79317858D02*
X134378827Y-79389286D01*
X134378827Y-79389286D02*
X134235970Y-79460715D01*
X134235970Y-79460715D02*
X133878827Y-79460715D01*
X133878827Y-79460715D02*
X133735970Y-79389286D01*
X133735970Y-79389286D02*
X133664542Y-79317858D01*
X133664542Y-79317858D02*
X133593113Y-79175000D01*
X133593113Y-79175000D02*
X133593113Y-78817858D01*
X133593113Y-78817858D02*
X133664542Y-78675000D01*
X133664542Y-78675000D02*
X133735970Y-78603572D01*
X134021684Y-81175000D02*
X134021684Y-81889286D01*
X133593113Y-81032143D02*
X135093113Y-81532143D01*
X135093113Y-81532143D02*
X133593113Y-82032143D01*
X133593113Y-83175000D02*
X135093113Y-83175000D01*
X133664542Y-83175000D02*
X133593113Y-83032142D01*
X133593113Y-83032142D02*
X133593113Y-82746428D01*
X133593113Y-82746428D02*
X133664542Y-82603571D01*
X133664542Y-82603571D02*
X133735970Y-82532142D01*
X133735970Y-82532142D02*
X133878827Y-82460714D01*
X133878827Y-82460714D02*
X134307399Y-82460714D01*
X134307399Y-82460714D02*
X134450256Y-82532142D01*
X134450256Y-82532142D02*
X134521684Y-82603571D01*
X134521684Y-82603571D02*
X134593113Y-82746428D01*
X134593113Y-82746428D02*
X134593113Y-83032142D01*
X134593113Y-83032142D02*
X134521684Y-83175000D01*
X133593113Y-84532143D02*
X134378827Y-84532143D01*
X134378827Y-84532143D02*
X134521684Y-84460714D01*
X134521684Y-84460714D02*
X134593113Y-84317857D01*
X134593113Y-84317857D02*
X134593113Y-84032143D01*
X134593113Y-84032143D02*
X134521684Y-83889285D01*
X133664542Y-84532143D02*
X133593113Y-84389285D01*
X133593113Y-84389285D02*
X133593113Y-84032143D01*
X133593113Y-84032143D02*
X133664542Y-83889285D01*
X133664542Y-83889285D02*
X133807399Y-83817857D01*
X133807399Y-83817857D02*
X133950256Y-83817857D01*
X133950256Y-83817857D02*
X134093113Y-83889285D01*
X134093113Y-83889285D02*
X134164542Y-84032143D01*
X134164542Y-84032143D02*
X134164542Y-84389285D01*
X134164542Y-84389285D02*
X134235970Y-84532143D01*
X134593113Y-85246428D02*
X133093113Y-85246428D01*
X134521684Y-85246428D02*
X134593113Y-85389286D01*
X134593113Y-85389286D02*
X134593113Y-85675000D01*
X134593113Y-85675000D02*
X134521684Y-85817857D01*
X134521684Y-85817857D02*
X134450256Y-85889286D01*
X134450256Y-85889286D02*
X134307399Y-85960714D01*
X134307399Y-85960714D02*
X133878827Y-85960714D01*
X133878827Y-85960714D02*
X133735970Y-85889286D01*
X133735970Y-85889286D02*
X133664542Y-85817857D01*
X133664542Y-85817857D02*
X133593113Y-85675000D01*
X133593113Y-85675000D02*
X133593113Y-85389286D01*
X133593113Y-85389286D02*
X133664542Y-85246428D01*
X134593113Y-86389286D02*
X134593113Y-86960714D01*
X135093113Y-86603571D02*
X133807399Y-86603571D01*
X133807399Y-86603571D02*
X133664542Y-86675000D01*
X133664542Y-86675000D02*
X133593113Y-86817857D01*
X133593113Y-86817857D02*
X133593113Y-86960714D01*
X133664542Y-88032143D02*
X133593113Y-87889286D01*
X133593113Y-87889286D02*
X133593113Y-87603572D01*
X133593113Y-87603572D02*
X133664542Y-87460714D01*
X133664542Y-87460714D02*
X133807399Y-87389286D01*
X133807399Y-87389286D02*
X134378827Y-87389286D01*
X134378827Y-87389286D02*
X134521684Y-87460714D01*
X134521684Y-87460714D02*
X134593113Y-87603572D01*
X134593113Y-87603572D02*
X134593113Y-87889286D01*
X134593113Y-87889286D02*
X134521684Y-88032143D01*
X134521684Y-88032143D02*
X134378827Y-88103572D01*
X134378827Y-88103572D02*
X134235970Y-88103572D01*
X134235970Y-88103572D02*
X134093113Y-87389286D01*
X133593113Y-88746428D02*
X134593113Y-88746428D01*
X134307399Y-88746428D02*
X134450256Y-88817857D01*
X134450256Y-88817857D02*
X134521684Y-88889286D01*
X134521684Y-88889286D02*
X134593113Y-89032143D01*
X134593113Y-89032143D02*
X134593113Y-89175000D01*
D12*
X117364819Y-84238094D02*
X116364819Y-84238094D01*
X116364819Y-84238094D02*
X116364819Y-83857142D01*
X116364819Y-83857142D02*
X116412438Y-83761904D01*
X116412438Y-83761904D02*
X116460057Y-83714285D01*
X116460057Y-83714285D02*
X116555295Y-83666666D01*
X116555295Y-83666666D02*
X116698152Y-83666666D01*
X116698152Y-83666666D02*
X116793390Y-83714285D01*
X116793390Y-83714285D02*
X116841009Y-83761904D01*
X116841009Y-83761904D02*
X116888628Y-83857142D01*
X116888628Y-83857142D02*
X116888628Y-84238094D01*
X117364819Y-82714285D02*
X117364819Y-83285713D01*
X117364819Y-82999999D02*
X116364819Y-82999999D01*
X116364819Y-82999999D02*
X116507676Y-83095237D01*
X116507676Y-83095237D02*
X116602914Y-83190475D01*
X116602914Y-83190475D02*
X116650533Y-83285713D01*
D13*
X119254715Y-54808333D02*
X119969000Y-54808333D01*
X119969000Y-54808333D02*
X120111857Y-54855952D01*
X120111857Y-54855952D02*
X120207096Y-54951190D01*
X120207096Y-54951190D02*
X120254715Y-55094047D01*
X120254715Y-55094047D02*
X120254715Y-55189285D01*
X120254715Y-53808333D02*
X120254715Y-54379761D01*
X120254715Y-54094047D02*
X119254715Y-54094047D01*
X119254715Y-54094047D02*
X119397572Y-54189285D01*
X119397572Y-54189285D02*
X119492810Y-54284523D01*
X119492810Y-54284523D02*
X119540429Y-54379761D01*
%TO.C,P1*%
D14*
X128500000Y-68015000D02*
X128500000Y-98985000D01*
X113300000Y-68015000D02*
X128500000Y-68015000D01*
X129394338Y-78935000D02*
X129394338Y-79435000D01*
X128961325Y-79185000D02*
X129394338Y-78935000D01*
X129394338Y-79435000D02*
X128961325Y-79185000D01*
X128500000Y-98985000D02*
X113300000Y-98985000D01*
%TO.C,J1*%
D12*
X112849999Y-54475000D02*
X112849999Y-61475000D01*
X112849999Y-47475000D02*
X112849999Y-54475000D01*
X112849999Y-47175000D02*
X125849999Y-47175000D01*
X125849999Y-61775000D01*
X112849999Y-61775000D01*
X112849999Y-47175000D01*
%TD*%
M02*
