%TF.GenerationSoftware,KiCad,Pcbnew,10.0.0*%
%TF.CreationDate,2026-04-03T13:38:21-04:00*%
%TF.ProjectId,miroHISCORE Adapter,6d69726f-4849-4534-934f-524520416461,rev?*%
%TF.SameCoordinates,Original*%
%TF.FileFunction,Copper,L1,Top*%
%TF.FilePolarity,Positive*%
%FSLAX46Y46*%
G04 Gerber Fmt 4.6, Leading zero omitted, Abs format (unit mm)*
G04 Created by KiCad (PCBNEW 10.0.0) date 2026-04-03 13:38:21*
%MOMM*%
%LPD*%
G01*
G04 APERTURE LIST*
%TA.AperFunction,ComponentPad*%
%ADD10C,0.600000*%
%TD*%
%TA.AperFunction,ComponentPad*%
%ADD11C,6.000000*%
%TD*%
%TA.AperFunction,ComponentPad*%
%ADD12R,1.600000X1.600000*%
%TD*%
%TA.AperFunction,ComponentPad*%
%ADD13C,1.600000*%
%TD*%
%TA.AperFunction,ComponentPad*%
%ADD14C,4.000000*%
%TD*%
%TA.AperFunction,ComponentPad*%
%ADD15C,1.500000*%
%TD*%
%TA.AperFunction,ComponentPad*%
%ADD16O,3.500000X2.000000*%
%TD*%
%TA.AperFunction,ComponentPad*%
%ADD17O,2.000000X3.500000*%
%TD*%
%TA.AperFunction,ViaPad*%
%ADD18C,0.600000*%
%TD*%
%TA.AperFunction,Conductor*%
%ADD19C,0.300000*%
%TD*%
G04 APERTURE END LIST*
D10*
%TO.P,REF\u002A\u002A,*%
%TO.N,*%
X130600000Y-49700000D03*
X131259010Y-48109010D03*
X131259010Y-51290990D03*
X132850000Y-47450000D03*
D11*
X132850000Y-49700000D03*
D10*
X132850000Y-51950000D03*
X134440990Y-48109010D03*
X134440990Y-51290990D03*
X135100000Y-49700000D03*
%TD*%
D12*
%TO.P,P1,1,Red_1*%
%TO.N,Net-(P1-Red)*%
X126670000Y-79185000D03*
D13*
%TO.P,P1,2,Green_2*%
%TO.N,Net-(P1-Green)*%
X126670000Y-81475000D03*
%TO.P,P1,3,Blue_3*%
%TO.N,Net-(P1-Blue)*%
X126670000Y-83765000D03*
%TO.P,P1,4,ID2/RES_4*%
%TO.N,unconnected-(P1-ID2{slash}RES-Pad4)*%
X126670000Y-86055000D03*
%TO.P,P1,5,HSYNC_GND_5*%
%TO.N,GNDD*%
X126670000Y-88345000D03*
%TO.P,P1,6,Red_GND_6*%
%TO.N,GNDA*%
X124130000Y-78040000D03*
%TO.P,P1,7,Green_GND_7*%
X124130000Y-80330000D03*
%TO.P,P1,8,Blue_GND_8*%
X124130000Y-82620000D03*
%TO.P,P1,9,+5V_9*%
%TO.N,unconnected-(P1-+5V-Pad9)*%
X124130000Y-84910000D03*
%TO.P,P1,10,VSYNC_GND_10*%
%TO.N,GNDD*%
X124130000Y-87200000D03*
%TO.P,P1,11,ID0/RES_11*%
%TO.N,unconnected-(P1-ID0{slash}RES-Pad11)*%
X121590000Y-79185000D03*
%TO.P,P1,12,ID1/SDA_12*%
%TO.N,Net-(P1-ID1{slash}SDA)*%
X121590000Y-81475000D03*
%TO.P,P1,13,HSYNC_13*%
%TO.N,Net-(P1-HSYNC)*%
X121590000Y-83765000D03*
%TO.P,P1,14,VSYNC_14*%
%TO.N,Net-(P1-VSYNC)*%
X121590000Y-86055000D03*
%TO.P,P1,15,ID3/SCL_15*%
%TO.N,Net-(P1-ID3{slash}SCL)*%
X121590000Y-88345000D03*
D14*
%TO.P,P1,SH,SHIELD_SH*%
%TO.N,GND*%
X124130000Y-71000000D03*
X124130000Y-96000000D03*
%TD*%
D10*
%TO.P,REF\u002A\u002A,*%
%TO.N,*%
X130600000Y-96700000D03*
X131259010Y-95109010D03*
X131259010Y-98290990D03*
X132850000Y-94450000D03*
D11*
X132850000Y-96700000D03*
D10*
X132850000Y-98950000D03*
X134440990Y-95109010D03*
X134440990Y-98290990D03*
X135100000Y-96700000D03*
%TD*%
D15*
%TO.P,J1,1*%
%TO.N,Net-(P1-ID1{slash}SDA)*%
X121349999Y-53775000D03*
%TO.P,J1,2*%
%TO.N,GNDD*%
X121349999Y-55725000D03*
%TO.P,J1,3*%
%TO.N,Net-(P1-ID3{slash}SCL)*%
X121349999Y-50575000D03*
%TO.P,J1,4*%
%TO.N,GNDA*%
X123849999Y-54475000D03*
%TO.P,J1,5*%
%TO.N,Net-(P1-Blue)*%
X123849999Y-56425000D03*
%TO.P,J1,6*%
%TO.N,Net-(P1-Red)*%
X121349999Y-58375000D03*
%TO.P,J1,7*%
%TO.N,Net-(P1-VSYNC)*%
X123849999Y-50575000D03*
%TO.P,J1,8*%
%TO.N,Net-(P1-HSYNC)*%
X123849999Y-52525000D03*
%TO.P,J1,9*%
%TO.N,Net-(P1-Green)*%
X123849999Y-58375000D03*
D16*
%TO.P,J1,SH*%
%TO.N,GND*%
X119149999Y-61775000D03*
D17*
X117599999Y-54475000D03*
D16*
X119149999Y-47175000D03*
%TD*%
D18*
%TO.N,GNDD*%
X122600000Y-64220000D03*
X126880000Y-76010000D03*
%TO.N,GND*%
X117175000Y-85130000D03*
%TD*%
%TO.N,Net-(P1-ID1{slash}SDA)*%
D19*
X121730000Y-62331573D02*
G75*
G02*
X121144227Y-63745801I-2000000J-27D01*
G01*
X121730000Y-61783427D02*
G75*
G03*
X121144228Y-60369200I-2000000J27D01*
G01*
X119025000Y-66693427D02*
G75*
G02*
X119610772Y-65279200I2000000J27D01*
G01*
X119789214Y-80889214D02*
G75*
G03*
X121203427Y-81474981I1414186J1414214D01*
G01*
X121203427Y-81475000D02*
X121590000Y-81475000D01*
X121349999Y-53200000D02*
X120335786Y-54214213D01*
X119750000Y-58146573D02*
G75*
G03*
X120335773Y-59560801I2000000J-27D01*
G01*
X119025000Y-79296573D02*
G75*
G03*
X119610773Y-80710801I2000000J-27D01*
G01*
X120335786Y-54214213D02*
G75*
G03*
X119750018Y-55628426I1414214J-1414187D01*
G01*
X119750000Y-55628426D02*
X119750000Y-58146573D01*
X120335787Y-59560787D02*
X121144214Y-60369214D01*
X121144213Y-63745787D02*
X119610786Y-65279214D01*
X121730000Y-61783427D02*
X121730000Y-62331573D01*
X119610787Y-80710787D02*
X119789214Y-80889214D01*
X119025000Y-66693427D02*
X119025000Y-79296573D01*
%TO.N,GND*%
X118142892Y-60767893D02*
G75*
G02*
X117850009Y-60060786I707108J707093D01*
G01*
%TO.N,GNDD*%
X126670000Y-88345000D02*
X126103427Y-88345000D01*
X122600000Y-64220000D02*
X122600000Y-64270000D01*
X126880000Y-69378427D02*
X126880000Y-76010000D01*
X124689213Y-87759213D02*
X124130000Y-87200000D01*
X122600000Y-64270000D02*
X126294214Y-67964214D01*
X126294214Y-67964214D02*
G75*
G02*
X126879981Y-69378427I-1414214J-1414186D01*
G01*
X124689213Y-87759213D02*
G75*
G03*
X126103427Y-88344981I1414187J1414213D01*
G01*
%TO.N,Net-(P1-Blue)*%
X128640787Y-57010787D02*
X132214214Y-60584214D01*
X130346573Y-83765000D02*
X126670000Y-83765000D01*
X132800000Y-61998427D02*
X132800000Y-81311573D01*
X132214213Y-82725787D02*
X131760786Y-83179214D01*
X123849999Y-56425000D02*
X127226573Y-56425000D01*
X132214214Y-60584214D02*
G75*
G02*
X132799981Y-61998427I-1414214J-1414186D01*
G01*
X127226573Y-56425000D02*
G75*
G02*
X128640801Y-57010773I27J-2000000D01*
G01*
X132214213Y-82725787D02*
G75*
G03*
X132799981Y-81311573I-1414213J1414187D01*
G01*
X131760786Y-83179214D02*
G75*
G02*
X130346573Y-83764981I-1414186J1414214D01*
G01*
%TO.N,Net-(P1-Red)*%
X121349999Y-58375000D02*
X128339214Y-65364215D01*
X128925000Y-66778428D02*
X128925000Y-76101573D01*
X128339213Y-77515787D02*
X126670000Y-79185000D01*
X128339214Y-65364215D02*
G75*
G02*
X128924980Y-66778428I-1414214J-1414185D01*
G01*
X128339213Y-77515787D02*
G75*
G03*
X128924981Y-76101573I-1414213J1414187D01*
G01*
%TO.N,Net-(P1-HSYNC)*%
X115490000Y-54313427D02*
X115490000Y-79511573D01*
X122396572Y-51900000D02*
X117903427Y-51900000D01*
X116075787Y-80925787D02*
X118329214Y-83179214D01*
X116489213Y-52485787D02*
X116075786Y-52899214D01*
X123849999Y-52525000D02*
X123810785Y-52485786D01*
X119743427Y-83765000D02*
X121590000Y-83765000D01*
X116075787Y-80925787D02*
G75*
G02*
X115490019Y-79511573I1414213J1414187D01*
G01*
X116075786Y-52899214D02*
G75*
G03*
X115490019Y-54313427I1414214J-1414186D01*
G01*
X123810785Y-52485786D02*
G75*
G03*
X122396572Y-51900020I-1414185J-1414214D01*
G01*
X116489213Y-52485787D02*
G75*
G02*
X117903427Y-51900019I1414187J-1414213D01*
G01*
X118329214Y-83179214D02*
G75*
G03*
X119743427Y-83764981I1414186J1414214D01*
G01*
%TO.N,Net-(P1-Green)*%
X128666573Y-81475000D02*
X126670000Y-81475000D01*
X130800000Y-64228427D02*
X130800000Y-79341573D01*
X130214213Y-80755787D02*
X130080786Y-80889214D01*
X123849999Y-58375000D02*
X124946573Y-58375000D01*
X126360787Y-58960787D02*
X130214214Y-62814214D01*
X128666573Y-81475000D02*
G75*
G03*
X130080800Y-80889228I27J2000000D01*
G01*
X130800000Y-79341573D02*
G75*
G02*
X130214227Y-80755801I-2000000J-27D01*
G01*
X130800000Y-64228427D02*
G75*
G03*
X130214228Y-62814200I-2000000J27D01*
G01*
X124946573Y-58375000D02*
G75*
G02*
X126360801Y-58960773I27J-2000000D01*
G01*
%TO.N,GND*%
X117760787Y-90210787D02*
X123550000Y-96000000D01*
X117175000Y-85130000D02*
X117175000Y-88796573D01*
X118142892Y-60767893D02*
X118349999Y-60975000D01*
X117849999Y-54475000D02*
X117849999Y-60060786D01*
X117175000Y-88796573D02*
G75*
G03*
X117760773Y-90210801I2000000J-27D01*
G01*
%TD*%
%TA.AperFunction,Conductor*%
%TO.N,GNDA*%
G36*
X132849099Y-45200518D02*
G01*
X132850832Y-45200555D01*
X132852573Y-45200611D01*
X133237030Y-45217397D01*
X133240422Y-45217619D01*
X133243882Y-45217922D01*
X133247248Y-45218291D01*
X133626210Y-45268182D01*
X133629621Y-45268707D01*
X133633004Y-45269304D01*
X133636378Y-45269975D01*
X134009528Y-45352702D01*
X134012823Y-45353508D01*
X134015835Y-45354314D01*
X134016168Y-45354404D01*
X134019466Y-45355365D01*
X134384034Y-45470312D01*
X134387266Y-45471409D01*
X134390486Y-45472581D01*
X134393663Y-45473817D01*
X134746836Y-45620106D01*
X134749926Y-45621465D01*
X134753087Y-45622939D01*
X134756119Y-45624435D01*
X134940584Y-45720462D01*
X135095163Y-45800931D01*
X135098173Y-45802582D01*
X135101159Y-45804306D01*
X135104104Y-45806093D01*
X135426454Y-46011452D01*
X135429308Y-46013359D01*
X135432143Y-46015344D01*
X135434904Y-46017368D01*
X135738141Y-46250051D01*
X135740803Y-46252187D01*
X135742921Y-46253965D01*
X135743434Y-46254395D01*
X135746023Y-46256665D01*
X136027838Y-46514901D01*
X136030327Y-46517285D01*
X136032713Y-46519671D01*
X136035097Y-46522160D01*
X136261425Y-46769153D01*
X136261425Y-46769154D01*
X136293322Y-46803964D01*
X136295584Y-46806542D01*
X136297801Y-46809183D01*
X136299958Y-46811870D01*
X136416296Y-46963485D01*
X136532627Y-47115091D01*
X136534667Y-47117873D01*
X136536633Y-47120681D01*
X136538546Y-47123544D01*
X136743905Y-47445894D01*
X136745692Y-47448839D01*
X136747408Y-47451811D01*
X136749067Y-47454835D01*
X136925546Y-47793846D01*
X136927070Y-47796938D01*
X136928516Y-47800039D01*
X136929904Y-47803193D01*
X137076167Y-48156302D01*
X137077411Y-48159499D01*
X137077987Y-48161080D01*
X137078589Y-48162734D01*
X137079697Y-48165998D01*
X137194632Y-48530527D01*
X137195599Y-48533847D01*
X137196487Y-48537163D01*
X137197303Y-48540500D01*
X137280019Y-48913604D01*
X137280691Y-48916982D01*
X137281294Y-48920401D01*
X137281819Y-48923811D01*
X137331701Y-49302707D01*
X137332075Y-49306116D01*
X137332376Y-49309548D01*
X137332603Y-49313004D01*
X137349388Y-49697432D01*
X137349444Y-49699155D01*
X137349481Y-49700851D01*
X137349500Y-49702574D01*
X137349500Y-96697424D01*
X137349481Y-96699156D01*
X137349444Y-96700843D01*
X137349388Y-96702557D01*
X137332603Y-97086994D01*
X137332376Y-97090450D01*
X137332075Y-97093882D01*
X137331701Y-97097291D01*
X137281819Y-97476187D01*
X137281294Y-97479597D01*
X137280691Y-97483016D01*
X137280019Y-97486394D01*
X137197303Y-97859498D01*
X137196487Y-97862835D01*
X137195599Y-97866151D01*
X137194632Y-97869471D01*
X137079697Y-98234002D01*
X137078579Y-98237292D01*
X137077413Y-98240492D01*
X137076173Y-98243678D01*
X136929903Y-98596805D01*
X136928521Y-98599947D01*
X136927071Y-98603058D01*
X136925541Y-98606162D01*
X136749067Y-98945163D01*
X136747408Y-98948187D01*
X136745692Y-98951159D01*
X136743905Y-98954104D01*
X136538546Y-99276454D01*
X136536633Y-99279317D01*
X136534667Y-99282125D01*
X136532627Y-99284907D01*
X136299965Y-99588119D01*
X136297809Y-99590805D01*
X136295604Y-99593433D01*
X136293330Y-99596027D01*
X136035106Y-99877829D01*
X136032722Y-99880318D01*
X136030318Y-99882722D01*
X136027829Y-99885106D01*
X135746027Y-100143330D01*
X135743433Y-100145604D01*
X135740805Y-100147809D01*
X135738119Y-100149965D01*
X135434907Y-100382627D01*
X135432125Y-100384667D01*
X135429317Y-100386633D01*
X135426454Y-100388546D01*
X135104104Y-100593905D01*
X135101159Y-100595692D01*
X135098187Y-100597408D01*
X135095163Y-100599067D01*
X134756162Y-100775541D01*
X134753058Y-100777071D01*
X134749947Y-100778521D01*
X134746805Y-100779903D01*
X134393678Y-100926173D01*
X134390492Y-100927413D01*
X134387292Y-100928579D01*
X134384002Y-100929697D01*
X134019471Y-101044632D01*
X134016151Y-101045599D01*
X134012835Y-101046487D01*
X134009498Y-101047303D01*
X133636394Y-101130019D01*
X133633016Y-101130691D01*
X133629597Y-101131294D01*
X133626187Y-101131819D01*
X133247291Y-101181701D01*
X133243882Y-101182075D01*
X133240450Y-101182376D01*
X133236994Y-101182603D01*
X132852558Y-101199388D01*
X132850844Y-101199444D01*
X132849130Y-101199481D01*
X132847426Y-101199500D01*
X116844396Y-101199500D01*
X116841569Y-101199449D01*
X116838748Y-101199348D01*
X116835939Y-101199198D01*
X116635178Y-101184839D01*
X116629583Y-101184238D01*
X116626214Y-101183754D01*
X116624011Y-101183437D01*
X116618457Y-101182435D01*
X116603771Y-101179240D01*
X116603771Y-101179239D01*
X116425923Y-101140550D01*
X116420453Y-101139154D01*
X116415060Y-101137570D01*
X116409716Y-101135791D01*
X116225116Y-101066940D01*
X116219897Y-101064778D01*
X116214779Y-101062440D01*
X116209744Y-101059920D01*
X116036807Y-100965489D01*
X116031957Y-100962611D01*
X116027226Y-100959570D01*
X116022601Y-100956359D01*
X115864860Y-100838276D01*
X115860470Y-100834738D01*
X115859696Y-100834068D01*
X115856214Y-100831050D01*
X115852096Y-100827215D01*
X115712783Y-100687902D01*
X115708949Y-100683785D01*
X115705260Y-100679528D01*
X115701722Y-100675138D01*
X115583639Y-100517397D01*
X115580432Y-100512778D01*
X115577379Y-100508028D01*
X115574509Y-100503191D01*
X115480078Y-100330254D01*
X115477555Y-100325213D01*
X115475217Y-100320094D01*
X115473058Y-100314882D01*
X115430396Y-100200500D01*
X115430396Y-100200499D01*
X115404207Y-100130283D01*
X115402426Y-100124931D01*
X115400842Y-100119536D01*
X115399447Y-100114073D01*
X115396318Y-100099690D01*
X115357557Y-99921513D01*
X115356560Y-99915980D01*
X115356170Y-99913266D01*
X115355761Y-99910423D01*
X115355161Y-99904851D01*
X115342392Y-99726299D01*
X115340798Y-99704020D01*
X115340650Y-99701223D01*
X115340550Y-99698401D01*
X115340500Y-99695603D01*
X115340500Y-85069371D01*
X116714500Y-85069371D01*
X116714500Y-85190628D01*
X116715389Y-85193949D01*
X116715166Y-85195688D01*
X116715176Y-85195759D01*
X116715157Y-85195761D01*
X116715059Y-85196523D01*
X116716321Y-85206802D01*
X116716573Y-85206782D01*
X116716886Y-85210652D01*
X116731363Y-85290701D01*
X116733151Y-85299279D01*
X116733441Y-85300509D01*
X116735761Y-85309254D01*
X116756630Y-85380081D01*
X116759765Y-85389637D01*
X116759773Y-85389660D01*
X116759775Y-85389665D01*
X116760260Y-85391004D01*
X116760484Y-85391569D01*
X116763982Y-85400377D01*
X116804202Y-85493325D01*
X116805028Y-85495306D01*
X116842186Y-85588009D01*
X116846429Y-85602449D01*
X116853771Y-85640540D01*
X116855081Y-85651177D01*
X116855178Y-85652953D01*
X116859074Y-85724182D01*
X116859081Y-85724303D01*
X116859149Y-85725530D01*
X116862774Y-85740491D01*
X116863158Y-85742547D01*
X116862931Y-85743912D01*
X116864500Y-85757047D01*
X116864500Y-88926327D01*
X116867988Y-88957284D01*
X116893554Y-89184204D01*
X116893557Y-89184222D01*
X116951298Y-89437198D01*
X116951302Y-89437209D01*
X117037012Y-89682155D01*
X117105839Y-89825077D01*
X117105838Y-89825077D01*
X117149800Y-89916363D01*
X117150785Y-89917837D01*
X117287678Y-90135700D01*
X117449479Y-90338593D01*
X117512325Y-90401439D01*
X121511746Y-94400860D01*
X121515036Y-94404355D01*
X121519467Y-94409360D01*
X121530439Y-94427025D01*
X121617391Y-94519972D01*
X121618108Y-94520782D01*
X121618157Y-94520907D01*
X121620225Y-94523276D01*
X121693344Y-94613104D01*
X121698349Y-94619977D01*
X121822348Y-94811093D01*
X121828069Y-94821566D01*
X121913284Y-95010183D01*
X121917423Y-95021621D01*
X121970758Y-95214176D01*
X121973062Y-95225846D01*
X121997079Y-95425863D01*
X121997626Y-95436867D01*
X121993304Y-95652141D01*
X121992962Y-95658067D01*
X121992929Y-95658402D01*
X121985786Y-95727245D01*
X121986058Y-95730337D01*
X121985406Y-95737168D01*
X121985261Y-95737471D01*
X121985088Y-95739966D01*
X121969500Y-95858383D01*
X121969500Y-96111875D01*
X121966624Y-96119775D01*
X122006461Y-96422377D01*
X122006463Y-96422390D01*
X122006464Y-96422393D01*
X122006466Y-96422402D01*
X122060623Y-96624519D01*
X122079764Y-96695951D01*
X122079766Y-96695958D01*
X122079771Y-96695973D01*
X122186092Y-96952652D01*
X122186096Y-96952661D01*
X122188146Y-96957609D01*
X122188147Y-96957612D01*
X122188149Y-96957615D01*
X122190735Y-96962095D01*
X122190737Y-96962098D01*
X122329752Y-97202880D01*
X122329755Y-97202885D01*
X122502165Y-97427573D01*
X122502167Y-97427575D01*
X122502172Y-97427581D01*
X122502172Y-97427582D01*
X122702405Y-97627815D01*
X122702421Y-97627830D01*
X122702424Y-97627832D01*
X122702427Y-97627835D01*
X122927115Y-97800245D01*
X123172385Y-97941851D01*
X123172390Y-97941853D01*
X123431470Y-98049169D01*
X123434030Y-98050229D01*
X123434040Y-98050233D01*
X123434045Y-98050234D01*
X123434047Y-98050235D01*
X123707597Y-98123533D01*
X123707606Y-98123535D01*
X123707620Y-98123536D01*
X123707621Y-98123537D01*
X123988385Y-98160500D01*
X124271610Y-98160500D01*
X124271613Y-98160500D01*
X124492793Y-98131381D01*
X124552393Y-98123535D01*
X124552402Y-98123533D01*
X124744683Y-98072010D01*
X124825960Y-98050233D01*
X125087615Y-97941851D01*
X125332885Y-97800245D01*
X125557573Y-97627835D01*
X125757835Y-97427573D01*
X125930245Y-97202885D01*
X126071851Y-96957615D01*
X126180233Y-96695960D01*
X126199375Y-96624518D01*
X126225229Y-96528031D01*
X129349500Y-96528031D01*
X129349500Y-96871967D01*
X129383209Y-97214240D01*
X129425645Y-97427582D01*
X129450309Y-97551577D01*
X129473442Y-97627835D01*
X129550147Y-97880700D01*
X129550148Y-97880701D01*
X129550162Y-97880740D01*
X129681244Y-98197196D01*
X129681576Y-98198037D01*
X129681767Y-98198460D01*
X129843387Y-98500829D01*
X129843750Y-98501530D01*
X129843905Y-98501797D01*
X130034970Y-98787746D01*
X130034975Y-98787753D01*
X130253166Y-99053621D01*
X130253185Y-99053641D01*
X130496358Y-99296814D01*
X130496378Y-99296833D01*
X130762246Y-99515024D01*
X131048207Y-99706097D01*
X131048213Y-99706100D01*
X131048462Y-99706245D01*
X131049169Y-99706611D01*
X131351536Y-99868230D01*
X131351544Y-99868234D01*
X131460261Y-99913266D01*
X131460265Y-99913267D01*
X131669269Y-99999840D01*
X131669277Y-99999842D01*
X131669290Y-99999848D01*
X131669306Y-99999854D01*
X131998422Y-100099690D01*
X132335750Y-100166789D01*
X132678031Y-100200500D01*
X132678032Y-100200500D01*
X133021968Y-100200500D01*
X133021969Y-100200500D01*
X133364250Y-100166789D01*
X133701578Y-100099690D01*
X134030705Y-99999850D01*
X134030722Y-99999842D01*
X134030730Y-99999840D01*
X134120698Y-99962573D01*
X134348462Y-99868231D01*
X134651787Y-99706100D01*
X134651788Y-99706098D01*
X134651790Y-99706097D01*
X134651792Y-99706097D01*
X134651794Y-99706095D01*
X134652128Y-99705917D01*
X134653370Y-99705042D01*
X134937753Y-99515024D01*
X134937755Y-99515022D01*
X134937760Y-99515019D01*
X135203627Y-99296828D01*
X135446828Y-99053627D01*
X135665019Y-98787760D01*
X135787386Y-98604625D01*
X135856097Y-98501792D01*
X135856098Y-98501789D01*
X135856100Y-98501787D01*
X135856104Y-98501777D01*
X135856219Y-98501607D01*
X135856746Y-98500578D01*
X135994062Y-98243678D01*
X136018231Y-98198462D01*
X136149850Y-97880705D01*
X136249690Y-97551578D01*
X136316789Y-97214250D01*
X136350500Y-96871969D01*
X136350500Y-96528031D01*
X136316789Y-96185750D01*
X136249690Y-95848422D01*
X136216033Y-95737471D01*
X136149855Y-95519309D01*
X136149851Y-95519298D01*
X136149850Y-95519295D01*
X136149848Y-95519291D01*
X136149680Y-95518845D01*
X136149353Y-95518092D01*
X136069129Y-95324419D01*
X136069128Y-95324415D01*
X136052163Y-95283458D01*
X136018231Y-95201538D01*
X135856611Y-94899169D01*
X135856245Y-94898462D01*
X135856100Y-94898213D01*
X135856097Y-94898207D01*
X135665024Y-94612246D01*
X135446833Y-94346378D01*
X135446814Y-94346358D01*
X135203641Y-94103185D01*
X135203621Y-94103166D01*
X134937753Y-93884975D01*
X134925020Y-93876467D01*
X134651797Y-93693905D01*
X134651530Y-93693750D01*
X134650829Y-93693387D01*
X134348460Y-93531767D01*
X134348037Y-93531576D01*
X134347196Y-93531244D01*
X134030740Y-93400162D01*
X134030701Y-93400148D01*
X134030700Y-93400147D01*
X133790858Y-93327393D01*
X133750473Y-93315142D01*
X133702611Y-93300623D01*
X133701506Y-93300271D01*
X133700192Y-93300034D01*
X133364240Y-93233209D01*
X133077592Y-93204978D01*
X133069804Y-93204211D01*
X133021969Y-93199500D01*
X133021968Y-93199500D01*
X132678031Y-93199500D01*
X132630182Y-93204211D01*
X132630183Y-93204212D01*
X132335758Y-93233209D01*
X131998425Y-93300308D01*
X131669298Y-93400147D01*
X131669297Y-93400148D01*
X131669258Y-93400162D01*
X131352802Y-93531244D01*
X131351962Y-93531575D01*
X131351538Y-93531767D01*
X131049169Y-93693387D01*
X131048479Y-93693743D01*
X131048201Y-93693905D01*
X130762252Y-93884970D01*
X130496387Y-94103158D01*
X130496340Y-94103202D01*
X130253202Y-94346340D01*
X130253158Y-94346387D01*
X130034970Y-94612252D01*
X129843905Y-94898201D01*
X129843743Y-94898479D01*
X129843387Y-94899169D01*
X129681767Y-95201538D01*
X129681575Y-95201962D01*
X129681244Y-95202802D01*
X129550162Y-95519258D01*
X129550148Y-95519297D01*
X129550147Y-95519298D01*
X129450308Y-95848425D01*
X129383209Y-96185758D01*
X129349500Y-96528031D01*
X126225229Y-96528031D01*
X126231228Y-96505645D01*
X126253533Y-96422402D01*
X126253535Y-96422393D01*
X126284688Y-96185758D01*
X126290500Y-96141613D01*
X126290500Y-95858385D01*
X126253537Y-95577621D01*
X126253536Y-95577620D01*
X126253535Y-95577606D01*
X126253533Y-95577597D01*
X126180235Y-95304047D01*
X126180234Y-95304044D01*
X126180233Y-95304040D01*
X126138298Y-95202802D01*
X126071853Y-95042390D01*
X126071851Y-95042385D01*
X125930245Y-94797115D01*
X125757835Y-94572427D01*
X125757834Y-94572426D01*
X125757831Y-94572422D01*
X125757821Y-94572411D01*
X125557595Y-94372185D01*
X125557577Y-94372168D01*
X125523917Y-94346340D01*
X125332885Y-94199755D01*
X125298017Y-94179624D01*
X125092098Y-94060737D01*
X125092095Y-94060735D01*
X125087615Y-94058149D01*
X125087612Y-94058147D01*
X125087609Y-94058146D01*
X125082661Y-94056096D01*
X125082652Y-94056092D01*
X124825973Y-93949771D01*
X124825958Y-93949766D01*
X124825955Y-93949765D01*
X124825952Y-93949764D01*
X124552402Y-93876466D01*
X124552393Y-93876464D01*
X124552390Y-93876463D01*
X124552377Y-93876461D01*
X124271613Y-93839500D01*
X124271610Y-93839500D01*
X124271607Y-93839500D01*
X123988393Y-93839500D01*
X123988390Y-93839500D01*
X123988387Y-93839500D01*
X123707621Y-93876461D01*
X123707601Y-93876465D01*
X123707593Y-93876467D01*
X123434047Y-93949764D01*
X123434040Y-93949766D01*
X123289171Y-94009772D01*
X123282762Y-94012426D01*
X123279730Y-94013067D01*
X123234746Y-94032315D01*
X123234315Y-94032494D01*
X123234276Y-94032511D01*
X123229591Y-94034451D01*
X123228286Y-94034978D01*
X122949280Y-94144729D01*
X122941640Y-94147292D01*
X122792753Y-94188935D01*
X122783603Y-94190918D01*
X122630255Y-94214745D01*
X122617691Y-94215681D01*
X122460381Y-94214814D01*
X122448931Y-94213916D01*
X122380952Y-94203571D01*
X122372492Y-94201805D01*
X122367393Y-94200446D01*
X122367387Y-94200442D01*
X122367387Y-94200444D01*
X122324216Y-94188935D01*
X122300069Y-94182497D01*
X122291362Y-94179624D01*
X122219349Y-94151138D01*
X122210803Y-94147152D01*
X122138520Y-94108022D01*
X122130531Y-94103060D01*
X122057377Y-94051349D01*
X122050261Y-94045677D01*
X121974390Y-93977698D01*
X121974383Y-93977693D01*
X121962982Y-93970735D01*
X121948275Y-93959162D01*
X117983098Y-89993984D01*
X117981297Y-89992124D01*
X117979512Y-89990218D01*
X117977800Y-89988329D01*
X117839723Y-89830884D01*
X117836486Y-89826939D01*
X117833316Y-89822807D01*
X117830329Y-89818639D01*
X117716165Y-89647781D01*
X117713438Y-89643397D01*
X117710846Y-89638908D01*
X117708415Y-89634359D01*
X117617539Y-89450079D01*
X117615405Y-89445369D01*
X117613426Y-89440591D01*
X117611606Y-89435754D01*
X117545568Y-89241213D01*
X117544069Y-89236272D01*
X117542728Y-89231269D01*
X117541552Y-89226228D01*
X117533194Y-89184209D01*
X117514668Y-89091071D01*
X117501463Y-89024688D01*
X117500629Y-89019637D01*
X117499948Y-89014466D01*
X117499447Y-89009376D01*
X117496033Y-88957283D01*
X117485750Y-88800398D01*
X117485627Y-88797896D01*
X117485540Y-88795231D01*
X117485500Y-88792685D01*
X117485500Y-88250399D01*
X120629500Y-88250399D01*
X120629500Y-88439599D01*
X120666410Y-88625167D01*
X120666736Y-88626118D01*
X120667480Y-88627748D01*
X120696912Y-88698804D01*
X120738813Y-88799963D01*
X120738814Y-88799964D01*
X120738818Y-88799971D01*
X120843927Y-88957279D01*
X120843936Y-88957289D01*
X120843946Y-88957300D01*
X120977705Y-89091059D01*
X120977710Y-89091063D01*
X120977711Y-89091064D01*
X120977717Y-89091069D01*
X121135033Y-89196184D01*
X121151747Y-89203107D01*
X121213699Y-89228769D01*
X121213702Y-89228769D01*
X121213706Y-89228771D01*
X121307263Y-89267524D01*
X121308880Y-89268261D01*
X121309829Y-89268586D01*
X121309830Y-89268587D01*
X121309832Y-89268588D01*
X121309834Y-89268588D01*
X121309836Y-89268589D01*
X121495399Y-89305500D01*
X121684601Y-89305500D01*
X121870162Y-89268589D01*
X121870162Y-89268588D01*
X121870167Y-89268588D01*
X121870169Y-89268587D01*
X121870174Y-89268584D01*
X121871122Y-89268260D01*
X121872736Y-89267523D01*
X122044967Y-89196184D01*
X122202283Y-89091069D01*
X122336069Y-88957283D01*
X122441184Y-88799967D01*
X122513588Y-88625167D01*
X122550500Y-88439601D01*
X122550500Y-88250399D01*
X122516544Y-88079693D01*
X122513588Y-88064832D01*
X122513587Y-88064830D01*
X122507934Y-88051183D01*
X122447754Y-87905894D01*
X122441184Y-87890033D01*
X122336069Y-87732717D01*
X122336064Y-87732711D01*
X122336062Y-87732709D01*
X122336059Y-87732705D01*
X122202300Y-87598946D01*
X122202289Y-87598936D01*
X122202279Y-87598927D01*
X122051437Y-87498139D01*
X122051437Y-87498138D01*
X122044605Y-87493574D01*
X122042385Y-87492746D01*
X122011214Y-87479835D01*
X121872748Y-87422480D01*
X121871118Y-87421736D01*
X121870167Y-87421410D01*
X121684601Y-87384500D01*
X121495399Y-87384500D01*
X121309831Y-87421410D01*
X121308877Y-87421737D01*
X121307239Y-87422484D01*
X121288626Y-87430195D01*
X121135035Y-87493813D01*
X121135034Y-87493814D01*
X121135027Y-87493818D01*
X120977719Y-87598927D01*
X120977709Y-87598936D01*
X120977698Y-87598946D01*
X120843946Y-87732698D01*
X120843936Y-87732709D01*
X120843927Y-87732719D01*
X120738818Y-87890027D01*
X120738814Y-87890034D01*
X120738813Y-87890035D01*
X120715604Y-87946069D01*
X120669522Y-88057323D01*
X120667488Y-88062233D01*
X120666737Y-88063877D01*
X120666410Y-88064831D01*
X120629500Y-88250399D01*
X117485500Y-88250399D01*
X117485500Y-87105399D01*
X123169500Y-87105399D01*
X123169500Y-87294599D01*
X123206410Y-87480167D01*
X123206738Y-87481124D01*
X123207487Y-87482765D01*
X123221514Y-87516629D01*
X123263075Y-87616965D01*
X123278816Y-87654967D01*
X123278818Y-87654971D01*
X123299129Y-87685368D01*
X123299131Y-87685370D01*
X123383927Y-87812279D01*
X123383936Y-87812289D01*
X123383946Y-87812300D01*
X123517705Y-87946059D01*
X123517710Y-87946063D01*
X123517711Y-87946064D01*
X123517717Y-87946069D01*
X123675033Y-88051184D01*
X123698332Y-88060835D01*
X123707984Y-88064833D01*
X123707985Y-88064833D01*
X123849830Y-88123587D01*
X123849832Y-88123588D01*
X123856051Y-88124824D01*
X123859832Y-88125980D01*
X123860332Y-88126356D01*
X123864118Y-88127425D01*
X123867704Y-88128749D01*
X123867709Y-88128751D01*
X123867713Y-88128752D01*
X124125147Y-88195983D01*
X124125149Y-88195984D01*
X124151231Y-88202795D01*
X124151231Y-88202796D01*
X124251407Y-88228959D01*
X124253961Y-88229578D01*
X124257017Y-88230320D01*
X124257179Y-88230356D01*
X124257843Y-88230505D01*
X124263706Y-88231708D01*
X124500979Y-88275947D01*
X124501071Y-88275964D01*
X124501070Y-88275964D01*
X124501904Y-88276118D01*
X124623240Y-88297969D01*
X124651351Y-88303031D01*
X124655235Y-88303832D01*
X124805766Y-88338829D01*
X124811331Y-88340339D01*
X124992726Y-88396739D01*
X124997615Y-88398437D01*
X125050935Y-88418932D01*
X125100662Y-88438046D01*
X125111589Y-88443239D01*
X125186136Y-88485962D01*
X125415997Y-88618785D01*
X125418813Y-88620493D01*
X125474675Y-88656011D01*
X125593190Y-88731365D01*
X125597632Y-88734407D01*
X125785754Y-88872869D01*
X125788439Y-88874936D01*
X126049729Y-89085107D01*
X126049736Y-89085111D01*
X126049739Y-89085114D01*
X126049742Y-89085115D01*
X126049861Y-89085194D01*
X126057135Y-89090583D01*
X126057703Y-89091056D01*
X126057711Y-89091064D01*
X126057717Y-89091069D01*
X126215033Y-89196184D01*
X126231747Y-89203107D01*
X126293699Y-89228769D01*
X126293702Y-89228769D01*
X126293706Y-89228771D01*
X126387263Y-89267524D01*
X126388880Y-89268261D01*
X126389829Y-89268586D01*
X126389830Y-89268587D01*
X126389832Y-89268588D01*
X126389834Y-89268588D01*
X126389836Y-89268589D01*
X126575399Y-89305500D01*
X126764601Y-89305500D01*
X126950162Y-89268589D01*
X126950162Y-89268588D01*
X126950167Y-89268588D01*
X126950169Y-89268587D01*
X126950174Y-89268584D01*
X126951122Y-89268260D01*
X126952736Y-89267523D01*
X127124967Y-89196184D01*
X127282283Y-89091069D01*
X127416069Y-88957283D01*
X127521184Y-88799967D01*
X127593588Y-88625167D01*
X127630500Y-88439601D01*
X127630500Y-88250399D01*
X127596544Y-88079693D01*
X127593588Y-88064832D01*
X127593587Y-88064830D01*
X127587934Y-88051183D01*
X127527754Y-87905894D01*
X127521184Y-87890033D01*
X127416069Y-87732717D01*
X127416064Y-87732711D01*
X127416062Y-87732709D01*
X127416059Y-87732705D01*
X127282300Y-87598946D01*
X127282289Y-87598936D01*
X127282279Y-87598927D01*
X127131437Y-87498139D01*
X127131437Y-87498138D01*
X127124605Y-87493574D01*
X127122385Y-87492746D01*
X127091214Y-87479835D01*
X126952748Y-87422480D01*
X126951118Y-87421736D01*
X126950167Y-87421410D01*
X126764601Y-87384500D01*
X126575399Y-87384500D01*
X126389831Y-87421410D01*
X126388872Y-87421739D01*
X126387237Y-87422485D01*
X126379145Y-87425837D01*
X126368806Y-87428883D01*
X126368877Y-87429129D01*
X126365147Y-87430194D01*
X126365144Y-87430194D01*
X126365144Y-87430195D01*
X126177459Y-87504368D01*
X126165543Y-87509628D01*
X126165537Y-87509631D01*
X126163893Y-87510435D01*
X126152395Y-87516635D01*
X125968788Y-87625202D01*
X125961749Y-87629605D01*
X125960810Y-87630225D01*
X125954197Y-87634830D01*
X125815806Y-87736332D01*
X125814973Y-87736935D01*
X125674406Y-87837244D01*
X125665719Y-87842630D01*
X125621204Y-87866392D01*
X125609228Y-87871564D01*
X125573559Y-87883583D01*
X125557183Y-87887222D01*
X125524638Y-87890891D01*
X125506956Y-87890893D01*
X125463348Y-87885987D01*
X125448119Y-87882729D01*
X125394625Y-87865624D01*
X125377963Y-87858072D01*
X125331913Y-87830370D01*
X125323880Y-87824835D01*
X125287253Y-87796106D01*
X125279185Y-87788827D01*
X125260525Y-87769501D01*
X125249947Y-87755818D01*
X125214873Y-87698404D01*
X125206346Y-87678981D01*
X125192376Y-87630225D01*
X125182886Y-87597104D01*
X125180356Y-87584443D01*
X125169850Y-87493814D01*
X125162023Y-87426294D01*
X125161889Y-87425035D01*
X125161562Y-87421739D01*
X125148520Y-87290454D01*
X125147875Y-87284914D01*
X125147773Y-87284150D01*
X125146984Y-87278882D01*
X125122428Y-87131330D01*
X125120626Y-87122122D01*
X125120334Y-87120826D01*
X125118002Y-87111698D01*
X125072383Y-86952178D01*
X125068801Y-86941133D01*
X125068240Y-86939590D01*
X125063885Y-86928807D01*
X124991831Y-86767024D01*
X124989347Y-86761704D01*
X124988983Y-86760959D01*
X124988982Y-86760958D01*
X124988879Y-86760746D01*
X124982894Y-86749163D01*
X124982248Y-86747602D01*
X124981627Y-86745937D01*
X124981185Y-86745036D01*
X124981184Y-86745033D01*
X124876069Y-86587717D01*
X124876064Y-86587711D01*
X124876062Y-86587709D01*
X124876059Y-86587705D01*
X124742300Y-86453946D01*
X124742289Y-86453936D01*
X124742279Y-86453927D01*
X124591437Y-86353139D01*
X124591437Y-86353138D01*
X124584605Y-86348574D01*
X124582385Y-86347746D01*
X124551214Y-86334835D01*
X124412748Y-86277480D01*
X124411118Y-86276736D01*
X124410167Y-86276410D01*
X124224601Y-86239500D01*
X124035399Y-86239500D01*
X123849831Y-86276410D01*
X123848877Y-86276737D01*
X123847239Y-86277484D01*
X123818094Y-86289557D01*
X123675035Y-86348813D01*
X123675034Y-86348814D01*
X123675027Y-86348818D01*
X123517719Y-86453927D01*
X123517709Y-86453936D01*
X123517698Y-86453946D01*
X123383946Y-86587698D01*
X123383936Y-86587709D01*
X123383927Y-86587719D01*
X123278818Y-86745027D01*
X123278814Y-86745034D01*
X123278813Y-86745035D01*
X123219557Y-86888094D01*
X123212065Y-86906184D01*
X123207488Y-86917233D01*
X123206737Y-86918877D01*
X123206410Y-86919831D01*
X123169500Y-87105399D01*
X117485500Y-87105399D01*
X117485500Y-85960399D01*
X120629500Y-85960399D01*
X120629500Y-86149599D01*
X120666410Y-86335167D01*
X120666736Y-86336118D01*
X120667480Y-86337748D01*
X120696912Y-86408804D01*
X120738813Y-86509963D01*
X120738814Y-86509964D01*
X120738818Y-86509971D01*
X120843927Y-86667279D01*
X120843936Y-86667289D01*
X120843946Y-86667300D01*
X120977705Y-86801059D01*
X120977710Y-86801063D01*
X120977711Y-86801064D01*
X120977717Y-86801069D01*
X121135033Y-86906184D01*
X121158332Y-86915835D01*
X121167984Y-86919833D01*
X121167985Y-86919833D01*
X121307251Y-86977518D01*
X121308875Y-86978260D01*
X121309829Y-86978586D01*
X121309830Y-86978587D01*
X121309832Y-86978588D01*
X121309834Y-86978588D01*
X121309836Y-86978589D01*
X121495399Y-87015500D01*
X121684601Y-87015500D01*
X121870162Y-86978589D01*
X121870162Y-86978588D01*
X121870167Y-86978588D01*
X121870169Y-86978587D01*
X121870174Y-86978584D01*
X121871122Y-86978260D01*
X121872736Y-86977523D01*
X122044967Y-86906184D01*
X122202283Y-86801069D01*
X122336069Y-86667283D01*
X122441184Y-86509967D01*
X122513588Y-86335167D01*
X122550500Y-86149601D01*
X122550500Y-85960399D01*
X125709500Y-85960399D01*
X125709500Y-86149599D01*
X125746410Y-86335167D01*
X125746736Y-86336118D01*
X125747480Y-86337748D01*
X125776912Y-86408804D01*
X125818813Y-86509963D01*
X125818814Y-86509964D01*
X125818818Y-86509971D01*
X125923927Y-86667279D01*
X125923936Y-86667289D01*
X125923946Y-86667300D01*
X126057705Y-86801059D01*
X126057710Y-86801063D01*
X126057711Y-86801064D01*
X126057717Y-86801069D01*
X126215033Y-86906184D01*
X126238332Y-86915835D01*
X126247984Y-86919833D01*
X126247985Y-86919833D01*
X126387251Y-86977518D01*
X126388875Y-86978260D01*
X126389829Y-86978586D01*
X126389830Y-86978587D01*
X126389832Y-86978588D01*
X126389834Y-86978588D01*
X126389836Y-86978589D01*
X126575399Y-87015500D01*
X126764601Y-87015500D01*
X126950162Y-86978589D01*
X126950162Y-86978588D01*
X126950167Y-86978588D01*
X126950169Y-86978587D01*
X126950174Y-86978584D01*
X126951122Y-86978260D01*
X126952736Y-86977523D01*
X127124967Y-86906184D01*
X127282283Y-86801069D01*
X127416069Y-86667283D01*
X127521184Y-86509967D01*
X127593588Y-86335167D01*
X127630500Y-86149601D01*
X127630500Y-85960399D01*
X127593588Y-85774833D01*
X127592511Y-85772233D01*
X127587934Y-85761182D01*
X127587933Y-85761182D01*
X127572743Y-85724510D01*
X127522252Y-85602612D01*
X127521628Y-85600940D01*
X127521185Y-85600036D01*
X127521184Y-85600033D01*
X127434797Y-85470746D01*
X127416070Y-85442718D01*
X127416068Y-85442715D01*
X127416062Y-85442709D01*
X127416052Y-85442698D01*
X127282300Y-85308946D01*
X127282289Y-85308936D01*
X127282279Y-85308927D01*
X127131437Y-85208139D01*
X127131437Y-85208138D01*
X127124605Y-85203574D01*
X127122385Y-85202746D01*
X127091214Y-85189835D01*
X126952748Y-85132480D01*
X126951118Y-85131736D01*
X126950167Y-85131410D01*
X126764601Y-85094500D01*
X126575399Y-85094500D01*
X126389831Y-85131410D01*
X126388877Y-85131737D01*
X126387239Y-85132484D01*
X126358094Y-85144557D01*
X126215035Y-85203813D01*
X126215034Y-85203814D01*
X126215027Y-85203818D01*
X126057719Y-85308927D01*
X126057709Y-85308936D01*
X126057698Y-85308946D01*
X125923946Y-85442698D01*
X125923936Y-85442709D01*
X125923927Y-85442719D01*
X125818818Y-85600027D01*
X125818814Y-85600034D01*
X125818813Y-85600035D01*
X125769445Y-85719223D01*
X125752065Y-85761184D01*
X125747488Y-85772233D01*
X125746737Y-85773877D01*
X125746410Y-85774831D01*
X125709500Y-85960399D01*
X122550500Y-85960399D01*
X122513588Y-85774833D01*
X122512511Y-85772233D01*
X122507934Y-85761182D01*
X122507933Y-85761182D01*
X122492743Y-85724510D01*
X122442252Y-85602612D01*
X122441628Y-85600940D01*
X122441185Y-85600036D01*
X122441184Y-85600033D01*
X122354797Y-85470746D01*
X122336070Y-85442718D01*
X122336068Y-85442715D01*
X122336062Y-85442709D01*
X122336052Y-85442698D01*
X122202300Y-85308946D01*
X122202289Y-85308936D01*
X122202279Y-85308927D01*
X122051437Y-85208139D01*
X122051437Y-85208138D01*
X122044605Y-85203574D01*
X122042385Y-85202746D01*
X122011214Y-85189835D01*
X121872748Y-85132480D01*
X121871118Y-85131736D01*
X121870167Y-85131410D01*
X121684601Y-85094500D01*
X121495399Y-85094500D01*
X121309831Y-85131410D01*
X121308877Y-85131737D01*
X121307239Y-85132484D01*
X121278094Y-85144557D01*
X121135035Y-85203813D01*
X121135034Y-85203814D01*
X121135027Y-85203818D01*
X120977719Y-85308927D01*
X120977709Y-85308936D01*
X120977698Y-85308946D01*
X120843946Y-85442698D01*
X120843936Y-85442709D01*
X120843927Y-85442719D01*
X120738818Y-85600027D01*
X120738814Y-85600034D01*
X120738813Y-85600035D01*
X120689445Y-85719223D01*
X120672065Y-85761184D01*
X120667488Y-85772233D01*
X120666737Y-85773877D01*
X120666410Y-85774831D01*
X120629500Y-85960399D01*
X117485500Y-85960399D01*
X117485500Y-85755583D01*
X117485822Y-85748453D01*
X117486377Y-85742322D01*
X117490849Y-85724510D01*
X117494300Y-85654896D01*
X117494443Y-85653321D01*
X117494615Y-85652953D01*
X117495275Y-85647001D01*
X117501431Y-85611409D01*
X117505312Y-85597117D01*
X117536612Y-85513770D01*
X117539329Y-85507404D01*
X117541677Y-85502506D01*
X117541702Y-85502454D01*
X117543200Y-85499239D01*
X117543413Y-85498769D01*
X117544925Y-85495331D01*
X117589133Y-85391583D01*
X117594407Y-85377451D01*
X117595059Y-85375427D01*
X117599015Y-85360921D01*
X117631123Y-85217846D01*
X117632534Y-85210853D01*
X117632713Y-85209856D01*
X117632713Y-85209855D01*
X117633004Y-85205625D01*
X117635482Y-85190761D01*
X117635500Y-85190629D01*
X117635500Y-85069376D01*
X117635499Y-85069371D01*
X117618144Y-85004600D01*
X117604118Y-84952253D01*
X117543492Y-84847246D01*
X117543491Y-84847245D01*
X117543490Y-84847243D01*
X117543489Y-84847242D01*
X117543488Y-84847240D01*
X117457758Y-84761510D01*
X117352747Y-84700881D01*
X117352709Y-84700865D01*
X117352119Y-84700713D01*
X117235630Y-84669500D01*
X117235628Y-84669500D01*
X117235626Y-84669500D01*
X117114374Y-84669500D01*
X117114371Y-84669500D01*
X117114368Y-84669500D01*
X116997879Y-84700713D01*
X116997291Y-84700865D01*
X116997251Y-84700881D01*
X116892240Y-84761510D01*
X116806510Y-84847240D01*
X116746684Y-84950861D01*
X116746683Y-84950862D01*
X116745882Y-84952251D01*
X116745881Y-84952255D01*
X116714500Y-85069371D01*
X115340500Y-85069371D01*
X115340500Y-80721590D01*
X115351280Y-80691970D01*
X115356841Y-80669562D01*
X115400523Y-80637750D01*
X115454435Y-80641459D01*
X115477198Y-80656776D01*
X115479446Y-80658942D01*
X115491523Y-80673800D01*
X115548223Y-80764036D01*
X115595076Y-80838602D01*
X115602681Y-80850704D01*
X115602684Y-80850708D01*
X115628908Y-80883592D01*
X115628909Y-80883593D01*
X115740026Y-81022932D01*
X115764477Y-81053591D01*
X115764479Y-81053593D01*
X115827325Y-81116439D01*
X118107818Y-83396932D01*
X118109657Y-83398771D01*
X118201408Y-83490522D01*
X118404301Y-83652323D01*
X118624034Y-83790391D01*
X118857844Y-83902988D01*
X119102791Y-83988698D01*
X119355794Y-84046445D01*
X119613672Y-84075500D01*
X119702549Y-84075500D01*
X119968122Y-84075500D01*
X119986002Y-84077549D01*
X119999891Y-84080777D01*
X120132371Y-84085010D01*
X120138607Y-84085457D01*
X120147798Y-84086482D01*
X120245854Y-84097424D01*
X120253270Y-84098613D01*
X120328719Y-84114430D01*
X120336782Y-84116571D01*
X120391716Y-84134324D01*
X120403507Y-84139220D01*
X120517578Y-84197816D01*
X120528093Y-84204305D01*
X120549521Y-84219968D01*
X120674936Y-84311646D01*
X120675404Y-84311991D01*
X120858485Y-84447903D01*
X120864694Y-84452294D01*
X120865575Y-84452888D01*
X120872069Y-84457045D01*
X121116356Y-84605540D01*
X121120278Y-84607850D01*
X121120822Y-84608161D01*
X121120904Y-84608197D01*
X121133016Y-84614836D01*
X121135033Y-84616184D01*
X121157001Y-84625283D01*
X121167984Y-84629833D01*
X121167985Y-84629833D01*
X121307251Y-84687518D01*
X121308875Y-84688260D01*
X121309829Y-84688586D01*
X121309830Y-84688587D01*
X121309832Y-84688588D01*
X121309834Y-84688588D01*
X121309836Y-84688589D01*
X121495399Y-84725500D01*
X121684601Y-84725500D01*
X121870162Y-84688589D01*
X121870162Y-84688588D01*
X121870167Y-84688588D01*
X121870169Y-84688587D01*
X121870174Y-84688584D01*
X121871122Y-84688260D01*
X121872736Y-84687523D01*
X122044967Y-84616184D01*
X122202283Y-84511069D01*
X122336069Y-84377283D01*
X122441184Y-84219967D01*
X122513588Y-84045167D01*
X122550500Y-83859601D01*
X122550500Y-83670399D01*
X122514720Y-83490522D01*
X122513588Y-83484832D01*
X122513587Y-83484830D01*
X122513584Y-83484824D01*
X122513258Y-83483870D01*
X122512510Y-83482230D01*
X122501024Y-83454500D01*
X122442257Y-83312624D01*
X122441629Y-83310942D01*
X122441185Y-83310036D01*
X122441184Y-83310033D01*
X122336069Y-83152717D01*
X122336064Y-83152711D01*
X122336062Y-83152709D01*
X122336059Y-83152705D01*
X122202300Y-83018946D01*
X122202289Y-83018936D01*
X122202279Y-83018927D01*
X122092151Y-82945343D01*
X122044607Y-82913575D01*
X122042383Y-82912745D01*
X121988194Y-82890299D01*
X121872748Y-82842480D01*
X121871118Y-82841736D01*
X121870167Y-82841410D01*
X121684601Y-82804500D01*
X121495399Y-82804500D01*
X121309831Y-82841410D01*
X121308877Y-82841737D01*
X121307239Y-82842484D01*
X121280401Y-82853602D01*
X121135037Y-82913813D01*
X121135026Y-82913820D01*
X121130393Y-82916915D01*
X121119757Y-82922313D01*
X121119950Y-82922715D01*
X121116450Y-82924394D01*
X120874523Y-83071266D01*
X120868072Y-83075392D01*
X120867200Y-83075978D01*
X120860963Y-83080384D01*
X120674848Y-83218421D01*
X120674753Y-83218491D01*
X120536873Y-83320434D01*
X120530823Y-83324490D01*
X120477012Y-83357070D01*
X120469750Y-83360964D01*
X120428807Y-83380239D01*
X120413618Y-83387390D01*
X120404921Y-83390870D01*
X120340210Y-83412412D01*
X120331488Y-83414771D01*
X120249783Y-83431923D01*
X120242146Y-83433139D01*
X120136523Y-83444697D01*
X120130411Y-83445127D01*
X119999985Y-83449224D01*
X119984903Y-83452597D01*
X119967667Y-83454500D01*
X119747315Y-83454500D01*
X119744736Y-83454458D01*
X119742534Y-83454386D01*
X119742134Y-83454373D01*
X119739555Y-83454246D01*
X119530646Y-83440553D01*
X119525496Y-83440045D01*
X119520379Y-83439371D01*
X119515284Y-83438530D01*
X119313766Y-83398445D01*
X119308736Y-83397272D01*
X119303745Y-83395935D01*
X119298793Y-83394433D01*
X119104240Y-83328391D01*
X119099410Y-83326574D01*
X119094638Y-83324598D01*
X119089921Y-83322461D01*
X119064707Y-83310027D01*
X118905639Y-83231583D01*
X118901074Y-83229143D01*
X118896601Y-83226560D01*
X118892217Y-83223833D01*
X118795773Y-83159392D01*
X118721366Y-83109674D01*
X118717186Y-83106679D01*
X118713063Y-83103515D01*
X118709112Y-83100273D01*
X118551674Y-82962202D01*
X118549781Y-82960487D01*
X118549511Y-82960235D01*
X118547867Y-82958695D01*
X118546015Y-82956901D01*
X116298098Y-80708984D01*
X116296297Y-80707124D01*
X116294512Y-80705218D01*
X116292800Y-80703329D01*
X116154723Y-80545884D01*
X116151489Y-80541943D01*
X116148310Y-80537799D01*
X116145324Y-80533632D01*
X116138215Y-80522993D01*
X116031156Y-80362770D01*
X116028431Y-80358386D01*
X116025852Y-80353918D01*
X116023419Y-80349366D01*
X116011440Y-80325075D01*
X116011439Y-80325074D01*
X115963401Y-80227661D01*
X115932536Y-80165072D01*
X115930409Y-80160380D01*
X115928425Y-80155589D01*
X115926612Y-80150771D01*
X115921661Y-80136187D01*
X115921661Y-80136186D01*
X115921660Y-80136185D01*
X115914576Y-80115317D01*
X115860565Y-79956207D01*
X115859063Y-79951255D01*
X115857724Y-79946256D01*
X115856556Y-79941250D01*
X115854532Y-79931070D01*
X115816463Y-79739688D01*
X115815629Y-79734637D01*
X115814948Y-79729466D01*
X115814447Y-79724376D01*
X115808915Y-79639968D01*
X115800750Y-79515398D01*
X115800627Y-79512896D01*
X115800540Y-79510231D01*
X115800500Y-79507685D01*
X115800500Y-66563673D01*
X118714500Y-66563673D01*
X118714500Y-79426326D01*
X118724335Y-79513618D01*
X118743554Y-79684204D01*
X118743557Y-79684222D01*
X118801298Y-79937198D01*
X118801299Y-79937202D01*
X118801300Y-79937204D01*
X118801302Y-79937210D01*
X118831318Y-80022990D01*
X118887012Y-80182155D01*
X118955839Y-80325077D01*
X118955838Y-80325077D01*
X118999800Y-80416363D01*
X119000785Y-80417837D01*
X119130211Y-80623817D01*
X119135387Y-80632054D01*
X119137679Y-80635701D01*
X119137681Y-80635704D01*
X119299462Y-80838573D01*
X119299470Y-80838582D01*
X119299478Y-80838592D01*
X119299487Y-80838602D01*
X119299492Y-80838607D01*
X119299500Y-80838616D01*
X119373412Y-80912528D01*
X119373436Y-80912550D01*
X119532330Y-81071443D01*
X119532332Y-81071448D01*
X119661383Y-81200499D01*
X119661391Y-81200506D01*
X119661398Y-81200513D01*
X119661408Y-81200522D01*
X119864301Y-81362323D01*
X119864310Y-81362330D01*
X119866108Y-81363606D01*
X119865971Y-81363798D01*
X119874289Y-81370153D01*
X119881102Y-81376421D01*
X119881112Y-81376430D01*
X119983678Y-81453678D01*
X120314701Y-81702991D01*
X120314714Y-81703000D01*
X120568276Y-81894077D01*
X120589728Y-81910242D01*
X120591615Y-81911709D01*
X120968103Y-82213819D01*
X120968108Y-82213822D01*
X120968703Y-82214212D01*
X120969579Y-82214891D01*
X120969652Y-82214944D01*
X120969650Y-82214946D01*
X120976000Y-82219868D01*
X120976040Y-82219816D01*
X120976281Y-82219996D01*
X120976342Y-82219923D01*
X120977710Y-82221063D01*
X120977711Y-82221064D01*
X120977717Y-82221069D01*
X121135033Y-82326184D01*
X121158181Y-82335772D01*
X121307239Y-82397514D01*
X121308874Y-82398259D01*
X121309829Y-82398586D01*
X121309830Y-82398587D01*
X121309832Y-82398588D01*
X121309834Y-82398588D01*
X121309836Y-82398589D01*
X121495399Y-82435500D01*
X121684601Y-82435500D01*
X121870162Y-82398589D01*
X121870162Y-82398588D01*
X121870167Y-82398588D01*
X121870169Y-82398587D01*
X121870174Y-82398584D01*
X121871122Y-82398260D01*
X121872736Y-82397523D01*
X122044967Y-82326184D01*
X122202283Y-82221069D01*
X122336069Y-82087283D01*
X122441184Y-81929967D01*
X122513588Y-81755167D01*
X122550500Y-81569601D01*
X122550500Y-81380399D01*
X122536809Y-81311573D01*
X122513588Y-81194832D01*
X122513587Y-81194830D01*
X122442257Y-81022624D01*
X122441629Y-81020942D01*
X122441185Y-81020036D01*
X122441184Y-81020033D01*
X122336069Y-80862717D01*
X122336064Y-80862711D01*
X122336062Y-80862709D01*
X122336059Y-80862705D01*
X122202300Y-80728946D01*
X122202289Y-80728936D01*
X122202279Y-80728927D01*
X122068058Y-80639245D01*
X122044605Y-80623574D01*
X122042383Y-80622745D01*
X121988194Y-80600299D01*
X121872748Y-80552480D01*
X121871118Y-80551736D01*
X121870167Y-80551410D01*
X121684601Y-80514500D01*
X121495399Y-80514500D01*
X121309831Y-80551410D01*
X121308868Y-80551740D01*
X121307237Y-80552485D01*
X121298993Y-80555899D01*
X121290367Y-80558900D01*
X121283226Y-80560929D01*
X121283219Y-80560931D01*
X121283218Y-80560932D01*
X121243266Y-80576652D01*
X121097031Y-80634195D01*
X121091586Y-80636451D01*
X121090880Y-80636758D01*
X121085263Y-80639327D01*
X121084430Y-80639728D01*
X121078790Y-80642570D01*
X121078127Y-80642921D01*
X121072868Y-80645820D01*
X120879164Y-80757155D01*
X120876321Y-80758825D01*
X120876011Y-80759012D01*
X120873774Y-80760379D01*
X120873339Y-80760651D01*
X120870761Y-80762291D01*
X120870494Y-80762464D01*
X120868121Y-80764036D01*
X120770718Y-80829702D01*
X120769264Y-80830660D01*
X120620704Y-80926121D01*
X120611671Y-80931122D01*
X120598557Y-80937301D01*
X120598548Y-80937305D01*
X120566378Y-80952460D01*
X120553607Y-80957179D01*
X120520945Y-80966136D01*
X120503089Y-80968891D01*
X120477357Y-80969881D01*
X120458010Y-80968237D01*
X120423087Y-80960868D01*
X120406855Y-80955555D01*
X120375949Y-80941583D01*
X120349962Y-80929834D01*
X120338533Y-80923479D01*
X120255026Y-80867527D01*
X120246872Y-80863070D01*
X120240875Y-80859437D01*
X120206206Y-80836272D01*
X120181366Y-80819674D01*
X120177186Y-80816679D01*
X120173063Y-80813515D01*
X120169112Y-80810273D01*
X120011686Y-80672213D01*
X120009793Y-80670498D01*
X120008793Y-80669562D01*
X120007895Y-80668721D01*
X120006042Y-80666928D01*
X119973996Y-80634883D01*
X119973995Y-80634882D01*
X119833071Y-80493957D01*
X119831279Y-80492105D01*
X119829499Y-80490204D01*
X119827783Y-80488310D01*
X119689723Y-80330884D01*
X119686486Y-80326939D01*
X119683316Y-80322807D01*
X119680333Y-80318645D01*
X119646810Y-80268474D01*
X119573071Y-80158117D01*
X119566163Y-80147779D01*
X119563432Y-80143387D01*
X119560852Y-80138918D01*
X119558416Y-80134361D01*
X119545706Y-80108588D01*
X119504778Y-80025593D01*
X119467530Y-79950060D01*
X119465406Y-79945371D01*
X119463689Y-79941226D01*
X119463430Y-79940601D01*
X119461610Y-79935766D01*
X119460013Y-79931060D01*
X119395566Y-79741209D01*
X119394066Y-79736267D01*
X119393622Y-79734610D01*
X119392722Y-79731250D01*
X119391553Y-79726234D01*
X119391178Y-79724351D01*
X119386255Y-79699601D01*
X119383194Y-79684209D01*
X119367255Y-79604076D01*
X119351463Y-79524688D01*
X119350624Y-79519597D01*
X119349951Y-79514480D01*
X119349445Y-79509344D01*
X119335754Y-79300440D01*
X119335628Y-79297866D01*
X119335543Y-79295277D01*
X119335500Y-79292685D01*
X119335500Y-79090399D01*
X120629500Y-79090399D01*
X120629500Y-79279599D01*
X120666410Y-79465167D01*
X120666736Y-79466118D01*
X120667480Y-79467748D01*
X120694877Y-79533890D01*
X120738813Y-79639963D01*
X120738814Y-79639964D01*
X120738816Y-79639967D01*
X120843927Y-79797279D01*
X120843936Y-79797289D01*
X120843946Y-79797300D01*
X120977698Y-79931052D01*
X120977709Y-79931062D01*
X120977719Y-79931071D01*
X120988405Y-79938211D01*
X121037280Y-79970868D01*
X121135033Y-80036184D01*
X121162652Y-80047624D01*
X121307251Y-80107518D01*
X121308875Y-80108260D01*
X121309829Y-80108586D01*
X121309830Y-80108587D01*
X121309832Y-80108588D01*
X121309834Y-80108588D01*
X121309836Y-80108589D01*
X121495399Y-80145500D01*
X121684601Y-80145500D01*
X121870162Y-80108589D01*
X121870162Y-80108588D01*
X121870167Y-80108588D01*
X121870169Y-80108587D01*
X121870174Y-80108584D01*
X121871122Y-80108260D01*
X121872736Y-80107523D01*
X122044967Y-80036184D01*
X122202283Y-79931069D01*
X122336069Y-79797283D01*
X122441184Y-79639967D01*
X122513588Y-79465167D01*
X122550500Y-79279601D01*
X122550500Y-79090399D01*
X122513588Y-78904833D01*
X122513587Y-78904831D01*
X122513587Y-78904830D01*
X122456049Y-78765920D01*
X122441184Y-78730033D01*
X122336069Y-78572717D01*
X122336064Y-78572711D01*
X122336062Y-78572709D01*
X122336059Y-78572705D01*
X122202300Y-78438946D01*
X122202289Y-78438936D01*
X122202279Y-78438927D01*
X122097405Y-78368854D01*
X122044605Y-78333574D01*
X122042383Y-78332745D01*
X121988194Y-78310299D01*
X121872748Y-78262480D01*
X121871118Y-78261736D01*
X121870167Y-78261410D01*
X121684601Y-78224500D01*
X121495399Y-78224500D01*
X121309831Y-78261410D01*
X121308877Y-78261737D01*
X121307239Y-78262484D01*
X121290823Y-78269285D01*
X121135035Y-78333813D01*
X121135034Y-78333814D01*
X121135027Y-78333818D01*
X120977719Y-78438927D01*
X120977709Y-78438936D01*
X120977698Y-78438946D01*
X120843946Y-78572698D01*
X120843936Y-78572709D01*
X120843927Y-78572719D01*
X120738818Y-78730027D01*
X120738814Y-78730034D01*
X120738813Y-78730035D01*
X120667488Y-78902233D01*
X120666737Y-78903877D01*
X120666410Y-78904831D01*
X120629500Y-79090399D01*
X119335500Y-79090399D01*
X119335500Y-77937678D01*
X122830000Y-77937678D01*
X122830000Y-78142320D01*
X122830001Y-78142331D01*
X122862005Y-78344401D01*
X122862006Y-78344406D01*
X122862014Y-78344432D01*
X122870060Y-78369194D01*
X122925242Y-78539024D01*
X122925249Y-78539042D01*
X123018132Y-78721335D01*
X123018137Y-78721344D01*
X123018142Y-78721353D01*
X123050524Y-78765921D01*
X123561765Y-78254680D01*
X123610741Y-78231842D01*
X123662938Y-78245828D01*
X123686042Y-78271041D01*
X123729902Y-78347009D01*
X123822990Y-78440097D01*
X123898956Y-78483956D01*
X123933692Y-78525352D01*
X123933692Y-78579392D01*
X123915317Y-78608233D01*
X123414849Y-79108701D01*
X123428361Y-79143252D01*
X123432519Y-79157927D01*
X123433562Y-79163678D01*
X123432653Y-79168981D01*
X123434397Y-79186031D01*
X123434189Y-79188004D01*
X123434102Y-79190156D01*
X123424999Y-79213665D01*
X123424438Y-79216941D01*
X123423385Y-79217832D01*
X123415684Y-79237723D01*
X123412539Y-79241471D01*
X123405204Y-79248309D01*
X123404076Y-79250522D01*
X123404078Y-79250526D01*
X123915318Y-79761765D01*
X123938156Y-79810741D01*
X123924170Y-79862938D01*
X123898958Y-79886042D01*
X123822989Y-79929903D01*
X123729903Y-80022989D01*
X123686042Y-80098958D01*
X123644645Y-80133693D01*
X123590605Y-80133692D01*
X123561765Y-80115318D01*
X123050526Y-79604078D01*
X123050524Y-79604077D01*
X123050523Y-79604077D01*
X123018148Y-79648637D01*
X123018132Y-79648662D01*
X122925253Y-79830947D01*
X122925248Y-79830958D01*
X122925244Y-79830968D01*
X122925236Y-79830993D01*
X122862014Y-80025566D01*
X122862006Y-80025592D01*
X122862005Y-80025597D01*
X122830001Y-80227667D01*
X122830000Y-80227678D01*
X122830000Y-80432320D01*
X122830001Y-80432331D01*
X122862005Y-80634401D01*
X122862006Y-80634406D01*
X122862014Y-80634432D01*
X122874806Y-80673800D01*
X122925242Y-80829024D01*
X122925249Y-80829042D01*
X122997202Y-80970257D01*
X123018137Y-81011344D01*
X123018142Y-81011353D01*
X123050524Y-81055921D01*
X123561765Y-80544680D01*
X123610741Y-80521842D01*
X123662938Y-80535828D01*
X123686042Y-80561041D01*
X123729902Y-80637009D01*
X123822990Y-80730097D01*
X123822992Y-80730098D01*
X123822993Y-80730099D01*
X123881774Y-80764036D01*
X123898956Y-80773956D01*
X123933692Y-80815352D01*
X123933692Y-80869392D01*
X123915317Y-80898233D01*
X123414849Y-81398701D01*
X123428361Y-81433252D01*
X123432519Y-81447927D01*
X123433562Y-81453678D01*
X123432653Y-81458981D01*
X123434397Y-81476031D01*
X123434189Y-81478004D01*
X123434102Y-81480156D01*
X123424999Y-81503665D01*
X123424438Y-81506941D01*
X123423385Y-81507832D01*
X123415684Y-81527723D01*
X123412539Y-81531471D01*
X123405204Y-81538309D01*
X123404076Y-81540522D01*
X123404078Y-81540526D01*
X123915318Y-82051765D01*
X123938156Y-82100741D01*
X123924170Y-82152938D01*
X123898958Y-82176042D01*
X123822989Y-82219903D01*
X123729903Y-82312989D01*
X123686042Y-82388958D01*
X123644645Y-82423693D01*
X123590605Y-82423692D01*
X123561765Y-82405318D01*
X123050526Y-81894078D01*
X123050524Y-81894077D01*
X123050523Y-81894077D01*
X123018148Y-81938637D01*
X123018132Y-81938662D01*
X122925253Y-82120947D01*
X122925248Y-82120958D01*
X122925244Y-82120968D01*
X122925236Y-82120993D01*
X122862014Y-82315566D01*
X122862006Y-82315592D01*
X122862005Y-82315597D01*
X122830001Y-82517667D01*
X122830000Y-82517678D01*
X122830000Y-82722320D01*
X122830001Y-82722331D01*
X122862005Y-82924401D01*
X122862006Y-82924406D01*
X122862014Y-82924432D01*
X122878790Y-82976062D01*
X122925242Y-83119024D01*
X122925249Y-83119042D01*
X122981349Y-83229143D01*
X123018137Y-83301344D01*
X123018142Y-83301353D01*
X123050524Y-83345921D01*
X123561765Y-82834680D01*
X123610741Y-82811842D01*
X123662938Y-82825828D01*
X123686042Y-82851041D01*
X123729902Y-82927009D01*
X123822990Y-83020097D01*
X123898956Y-83063956D01*
X123933692Y-83105352D01*
X123933692Y-83159392D01*
X123915317Y-83188233D01*
X123404076Y-83699473D01*
X123404077Y-83699473D01*
X123404077Y-83699474D01*
X123420849Y-83711660D01*
X123448645Y-83731856D01*
X123448650Y-83731859D01*
X123448652Y-83731860D01*
X123448678Y-83731874D01*
X123563524Y-83790391D01*
X123630957Y-83824750D01*
X123630975Y-83824757D01*
X123755426Y-83865194D01*
X123779646Y-83878072D01*
X123786813Y-83883672D01*
X123815449Y-83929498D01*
X123807946Y-83982981D01*
X123807110Y-83984555D01*
X123767571Y-84020484D01*
X123761622Y-84022949D01*
X123675039Y-84058812D01*
X123675036Y-84058813D01*
X123675034Y-84058814D01*
X123675027Y-84058818D01*
X123517719Y-84163927D01*
X123517709Y-84163936D01*
X123517698Y-84163946D01*
X123383946Y-84297698D01*
X123383936Y-84297709D01*
X123383927Y-84297719D01*
X123278818Y-84455027D01*
X123278814Y-84455034D01*
X123278813Y-84455035D01*
X123219557Y-84598094D01*
X123210064Y-84621015D01*
X123207488Y-84627233D01*
X123206737Y-84628877D01*
X123206410Y-84629831D01*
X123169500Y-84815399D01*
X123169500Y-85004599D01*
X123206410Y-85190167D01*
X123206736Y-85191118D01*
X123207480Y-85192748D01*
X123236912Y-85263804D01*
X123278813Y-85364963D01*
X123278814Y-85364964D01*
X123278818Y-85364971D01*
X123383927Y-85522279D01*
X123383936Y-85522289D01*
X123383946Y-85522300D01*
X123517705Y-85656059D01*
X123517710Y-85656063D01*
X123517711Y-85656064D01*
X123517717Y-85656069D01*
X123675033Y-85761184D01*
X123698332Y-85770835D01*
X123707984Y-85774833D01*
X123707985Y-85774833D01*
X123847251Y-85832518D01*
X123848875Y-85833260D01*
X123849829Y-85833586D01*
X123849830Y-85833587D01*
X123849832Y-85833588D01*
X123849834Y-85833588D01*
X123849836Y-85833589D01*
X124035399Y-85870500D01*
X124224601Y-85870500D01*
X124410162Y-85833589D01*
X124410162Y-85833588D01*
X124410167Y-85833588D01*
X124410169Y-85833587D01*
X124410174Y-85833584D01*
X124411122Y-85833260D01*
X124412736Y-85832523D01*
X124584967Y-85761184D01*
X124742283Y-85656069D01*
X124876069Y-85522283D01*
X124981184Y-85364967D01*
X125053588Y-85190167D01*
X125090500Y-85004601D01*
X125090500Y-84815399D01*
X125065275Y-84688587D01*
X125053588Y-84629832D01*
X125053587Y-84629830D01*
X124982257Y-84457624D01*
X124981629Y-84455942D01*
X124981185Y-84455036D01*
X124981184Y-84455033D01*
X124876069Y-84297717D01*
X124876064Y-84297711D01*
X124876062Y-84297709D01*
X124876059Y-84297705D01*
X124742300Y-84163946D01*
X124742289Y-84163936D01*
X124742279Y-84163927D01*
X124591437Y-84063139D01*
X124591437Y-84063138D01*
X124584606Y-84058575D01*
X124582390Y-84057748D01*
X124498373Y-84022947D01*
X124475239Y-84008209D01*
X124468533Y-84002064D01*
X124443581Y-83954133D01*
X124455275Y-83901376D01*
X124456245Y-83899855D01*
X124498449Y-83867184D01*
X124629024Y-83824757D01*
X124629042Y-83824750D01*
X124811338Y-83731865D01*
X124811360Y-83731851D01*
X124855920Y-83699475D01*
X124855921Y-83699474D01*
X124855920Y-83699473D01*
X124855921Y-83699473D01*
X124344681Y-83188234D01*
X124321843Y-83139258D01*
X124335829Y-83087061D01*
X124361040Y-83063958D01*
X124437007Y-83020099D01*
X124530099Y-82927007D01*
X124573957Y-82851041D01*
X124615353Y-82816306D01*
X124669392Y-82816306D01*
X124698234Y-82834681D01*
X125209473Y-83345921D01*
X125209474Y-83345921D01*
X125209475Y-83345920D01*
X125241851Y-83301360D01*
X125241865Y-83301338D01*
X125334750Y-83119042D01*
X125334757Y-83119024D01*
X125397987Y-82924425D01*
X125397992Y-82924406D01*
X125397993Y-82924401D01*
X125429996Y-82722337D01*
X125429999Y-82722313D01*
X125430000Y-82722303D01*
X125430000Y-82517695D01*
X125429999Y-82517685D01*
X125429996Y-82517661D01*
X125397993Y-82315597D01*
X125397992Y-82315592D01*
X125397990Y-82315586D01*
X125397987Y-82315574D01*
X125334757Y-82120975D01*
X125334750Y-82120957D01*
X125284156Y-82021661D01*
X125241874Y-81938678D01*
X125241867Y-81938666D01*
X125241865Y-81938661D01*
X125241857Y-81938647D01*
X125235550Y-81929967D01*
X125221219Y-81910242D01*
X125209474Y-81894077D01*
X125209473Y-81894076D01*
X124698233Y-82405317D01*
X124649257Y-82428155D01*
X124597059Y-82414169D01*
X124573956Y-82388956D01*
X124530099Y-82312993D01*
X124530098Y-82312992D01*
X124530097Y-82312990D01*
X124437009Y-82219902D01*
X124361041Y-82176042D01*
X124326305Y-82134645D01*
X124326305Y-82080606D01*
X124344678Y-82051767D01*
X124855921Y-81540524D01*
X124855921Y-81540523D01*
X124855919Y-81540521D01*
X124852904Y-81534603D01*
X124845913Y-81527363D01*
X124839563Y-81517949D01*
X124826485Y-81465553D01*
X124826603Y-81464422D01*
X124844658Y-81421864D01*
X124847485Y-81418495D01*
X124855823Y-81410719D01*
X124855919Y-81409474D01*
X124855921Y-81409474D01*
X124344681Y-80898234D01*
X124321843Y-80849258D01*
X124335829Y-80797061D01*
X124361040Y-80773958D01*
X124437007Y-80730099D01*
X124530099Y-80637007D01*
X124573957Y-80561041D01*
X124615353Y-80526306D01*
X124669392Y-80526306D01*
X124698234Y-80544681D01*
X125209473Y-81055921D01*
X125209474Y-81055921D01*
X125209475Y-81055920D01*
X125241851Y-81011360D01*
X125241865Y-81011338D01*
X125334750Y-80829042D01*
X125334757Y-80829024D01*
X125397987Y-80634425D01*
X125397992Y-80634406D01*
X125397993Y-80634401D01*
X125429996Y-80432337D01*
X125429999Y-80432313D01*
X125430000Y-80432303D01*
X125430000Y-80227695D01*
X125429999Y-80227685D01*
X125429996Y-80227661D01*
X125397993Y-80025597D01*
X125397992Y-80025592D01*
X125397990Y-80025586D01*
X125397987Y-80025574D01*
X125334757Y-79830975D01*
X125334750Y-79830957D01*
X125286503Y-79736267D01*
X125241874Y-79648678D01*
X125241867Y-79648666D01*
X125241865Y-79648661D01*
X125241857Y-79648647D01*
X125235550Y-79639967D01*
X125221660Y-79620849D01*
X125209474Y-79604077D01*
X125209473Y-79604076D01*
X124698233Y-80115317D01*
X124649257Y-80138155D01*
X124597059Y-80124169D01*
X124573956Y-80098956D01*
X124530099Y-80022993D01*
X124530098Y-80022992D01*
X124530097Y-80022990D01*
X124437009Y-79929902D01*
X124361041Y-79886042D01*
X124326305Y-79844645D01*
X124326305Y-79790606D01*
X124344678Y-79761767D01*
X124855921Y-79250524D01*
X124855921Y-79250523D01*
X124855919Y-79250521D01*
X124852904Y-79244603D01*
X124845913Y-79237363D01*
X124839563Y-79227949D01*
X124826485Y-79175553D01*
X124826603Y-79174422D01*
X124844658Y-79131864D01*
X124847485Y-79128495D01*
X124855823Y-79120719D01*
X124855919Y-79119474D01*
X124855921Y-79119474D01*
X124344681Y-78608234D01*
X124321843Y-78559258D01*
X124335829Y-78507061D01*
X124361040Y-78483958D01*
X124437007Y-78440099D01*
X124530099Y-78347007D01*
X124573957Y-78271041D01*
X124615353Y-78236306D01*
X124669392Y-78236306D01*
X124698234Y-78254681D01*
X125209473Y-78765921D01*
X125209474Y-78765921D01*
X125209475Y-78765920D01*
X125241851Y-78721360D01*
X125241865Y-78721338D01*
X125334750Y-78539042D01*
X125334757Y-78539024D01*
X125397987Y-78344425D01*
X125397992Y-78344406D01*
X125397993Y-78344401D01*
X125429996Y-78142337D01*
X125429999Y-78142313D01*
X125430000Y-78142303D01*
X125430000Y-77937695D01*
X125429999Y-77937685D01*
X125429996Y-77937661D01*
X125397993Y-77735597D01*
X125397992Y-77735592D01*
X125397990Y-77735586D01*
X125397987Y-77735574D01*
X125334757Y-77540975D01*
X125334750Y-77540957D01*
X125241865Y-77358661D01*
X125241857Y-77358647D01*
X125209474Y-77314077D01*
X125209473Y-77314076D01*
X124698233Y-77825317D01*
X124649257Y-77848155D01*
X124597059Y-77834169D01*
X124573956Y-77808956D01*
X124531600Y-77735593D01*
X124530099Y-77732993D01*
X124530098Y-77732992D01*
X124530097Y-77732990D01*
X124437009Y-77639902D01*
X124361041Y-77596042D01*
X124326305Y-77554645D01*
X124326305Y-77500606D01*
X124344678Y-77471767D01*
X124855921Y-76960524D01*
X124839230Y-76948397D01*
X124811353Y-76928142D01*
X124811344Y-76928137D01*
X124811334Y-76928132D01*
X124629042Y-76835249D01*
X124629037Y-76835247D01*
X124629030Y-76835244D01*
X124629024Y-76835242D01*
X124553628Y-76810744D01*
X124434432Y-76772014D01*
X124434406Y-76772006D01*
X124434401Y-76772005D01*
X124232331Y-76740001D01*
X124232320Y-76740000D01*
X124232307Y-76740000D01*
X124027693Y-76740000D01*
X124027675Y-76740000D01*
X123825597Y-76772005D01*
X123825592Y-76772006D01*
X123825566Y-76772014D01*
X123630993Y-76835236D01*
X123630968Y-76835244D01*
X123630958Y-76835248D01*
X123630947Y-76835253D01*
X123448662Y-76928132D01*
X123448637Y-76928148D01*
X123404077Y-76960522D01*
X123404077Y-76960523D01*
X123404078Y-76960526D01*
X123915318Y-77471765D01*
X123938156Y-77520741D01*
X123924170Y-77572938D01*
X123898958Y-77596042D01*
X123822989Y-77639903D01*
X123729903Y-77732989D01*
X123686042Y-77808958D01*
X123644645Y-77843693D01*
X123590605Y-77843692D01*
X123561765Y-77825318D01*
X123050526Y-77314078D01*
X123050524Y-77314077D01*
X123050523Y-77314077D01*
X123018148Y-77358637D01*
X123018132Y-77358662D01*
X122925253Y-77540947D01*
X122925248Y-77540958D01*
X122925244Y-77540968D01*
X122925236Y-77540993D01*
X122862014Y-77735566D01*
X122862006Y-77735592D01*
X122862005Y-77735597D01*
X122830001Y-77937667D01*
X122830000Y-77937678D01*
X119335500Y-77937678D01*
X119335500Y-71141610D01*
X121969499Y-71141610D01*
X122006464Y-71422393D01*
X122006466Y-71422402D01*
X122006520Y-71422606D01*
X122006521Y-71422608D01*
X122079764Y-71695951D01*
X122079766Y-71695958D01*
X122079771Y-71695973D01*
X122186092Y-71952652D01*
X122186096Y-71952661D01*
X122188146Y-71957609D01*
X122188147Y-71957612D01*
X122188149Y-71957615D01*
X122329755Y-72202885D01*
X122502165Y-72427573D01*
X122502167Y-72427575D01*
X122502172Y-72427581D01*
X122502175Y-72427585D01*
X122702405Y-72627815D01*
X122702421Y-72627830D01*
X122702424Y-72627832D01*
X122702427Y-72627835D01*
X122927115Y-72800245D01*
X123172385Y-72941851D01*
X123172390Y-72941853D01*
X123431470Y-73049169D01*
X123434030Y-73050229D01*
X123434040Y-73050233D01*
X123434045Y-73050234D01*
X123434047Y-73050235D01*
X123707597Y-73123533D01*
X123707606Y-73123535D01*
X123707620Y-73123536D01*
X123707621Y-73123537D01*
X123988385Y-73160500D01*
X124271610Y-73160500D01*
X124271613Y-73160500D01*
X124492793Y-73131381D01*
X124552393Y-73123535D01*
X124552402Y-73123533D01*
X124744683Y-73072010D01*
X124825960Y-73050233D01*
X125087615Y-72941851D01*
X125332885Y-72800245D01*
X125557573Y-72627835D01*
X125757835Y-72427573D01*
X125930245Y-72202885D01*
X126071851Y-71957615D01*
X126180233Y-71695960D01*
X126202010Y-71614683D01*
X126253533Y-71422402D01*
X126253535Y-71422393D01*
X126290500Y-71141610D01*
X126290500Y-70858385D01*
X126253537Y-70577621D01*
X126253536Y-70577620D01*
X126253535Y-70577606D01*
X126253533Y-70577597D01*
X126180235Y-70304047D01*
X126180234Y-70304045D01*
X126180233Y-70304040D01*
X126180229Y-70304031D01*
X126180190Y-70303884D01*
X126179794Y-70302885D01*
X126179691Y-70302615D01*
X126179170Y-70301472D01*
X126071853Y-70042390D01*
X126071851Y-70042385D01*
X125930245Y-69797115D01*
X125757835Y-69572427D01*
X125757834Y-69572426D01*
X125757831Y-69572422D01*
X125757821Y-69572411D01*
X125557595Y-69372185D01*
X125557577Y-69372168D01*
X125540383Y-69358975D01*
X125332885Y-69199755D01*
X125256023Y-69155379D01*
X125092098Y-69060737D01*
X125092095Y-69060735D01*
X125087615Y-69058149D01*
X125087612Y-69058147D01*
X125087609Y-69058146D01*
X125082661Y-69056096D01*
X125082652Y-69056092D01*
X124825973Y-68949771D01*
X124825958Y-68949766D01*
X124825955Y-68949765D01*
X124825952Y-68949764D01*
X124552402Y-68876466D01*
X124552393Y-68876464D01*
X124552390Y-68876463D01*
X124552377Y-68876461D01*
X124271613Y-68839500D01*
X124271610Y-68839500D01*
X124271607Y-68839500D01*
X123988393Y-68839500D01*
X123988390Y-68839500D01*
X123988387Y-68839500D01*
X123707621Y-68876461D01*
X123707601Y-68876465D01*
X123707593Y-68876467D01*
X123434047Y-68949764D01*
X123434040Y-68949766D01*
X123434025Y-68949771D01*
X123172394Y-69058143D01*
X122927123Y-69199749D01*
X122702422Y-69372168D01*
X122702404Y-69372184D01*
X122502184Y-69572404D01*
X122502168Y-69572422D01*
X122329749Y-69797123D01*
X122188143Y-70042394D01*
X122079771Y-70304025D01*
X122079766Y-70304040D01*
X122079764Y-70304047D01*
X122006467Y-70577593D01*
X122006465Y-70577601D01*
X122006461Y-70577621D01*
X121969500Y-70858385D01*
X121969500Y-70858389D01*
X121969500Y-70858393D01*
X121969500Y-71141607D01*
X121969500Y-71141610D01*
X121969499Y-71141610D01*
X119335500Y-71141610D01*
X119335500Y-66697313D01*
X119335541Y-66694757D01*
X119335628Y-66692099D01*
X119335749Y-66689614D01*
X119338433Y-66648673D01*
X119349448Y-66480616D01*
X119349954Y-66475490D01*
X119350627Y-66470381D01*
X119351468Y-66465286D01*
X119375150Y-66346229D01*
X119391558Y-66263740D01*
X119392726Y-66258731D01*
X119394061Y-66253748D01*
X119395563Y-66248798D01*
X119461620Y-66054202D01*
X119463434Y-66049385D01*
X119465404Y-66044630D01*
X119467528Y-66039940D01*
X119558431Y-65855607D01*
X119560844Y-65851092D01*
X119563444Y-65846590D01*
X119566151Y-65842238D01*
X119680339Y-65671342D01*
X119683309Y-65667198D01*
X119686493Y-65663049D01*
X119689727Y-65659110D01*
X119827821Y-65501645D01*
X119829521Y-65499770D01*
X119831260Y-65497913D01*
X119833034Y-65496078D01*
X119845050Y-65484064D01*
X121169743Y-64159371D01*
X122139500Y-64159371D01*
X122139500Y-64280628D01*
X122140390Y-64283949D01*
X122140390Y-64283950D01*
X122170713Y-64397119D01*
X122170865Y-64397709D01*
X122170881Y-64397747D01*
X122231510Y-64502758D01*
X122317237Y-64588485D01*
X122317240Y-64588487D01*
X122317243Y-64588490D01*
X122317245Y-64588491D01*
X122317246Y-64588492D01*
X122317249Y-64588494D01*
X122317682Y-64588806D01*
X122319261Y-64589655D01*
X122320765Y-64590523D01*
X122336461Y-64602416D01*
X122337667Y-64603594D01*
X122337669Y-64603595D01*
X122337672Y-64603598D01*
X122489309Y-64702268D01*
X122489326Y-64702279D01*
X122497418Y-64707219D01*
X122498564Y-64707874D01*
X122498578Y-64707882D01*
X122506817Y-64712290D01*
X122561776Y-64739721D01*
X122564453Y-64741123D01*
X122650066Y-64788082D01*
X122663122Y-64797058D01*
X122744301Y-64865822D01*
X122776190Y-64892834D01*
X122776192Y-64892835D01*
X122776193Y-64892836D01*
X122785340Y-64898159D01*
X122801461Y-64910575D01*
X126039883Y-68148996D01*
X126050428Y-68159541D01*
X126050429Y-68159543D01*
X126050430Y-68159543D01*
X126071929Y-68181043D01*
X126073721Y-68182895D01*
X126075426Y-68184716D01*
X126075498Y-68184793D01*
X126077213Y-68186686D01*
X126215273Y-68344112D01*
X126218515Y-68348063D01*
X126221679Y-68352186D01*
X126224681Y-68356375D01*
X126338833Y-68527217D01*
X126341560Y-68531601D01*
X126344143Y-68536074D01*
X126346583Y-68540639D01*
X126437461Y-68724921D01*
X126439598Y-68729638D01*
X126441574Y-68734410D01*
X126443391Y-68739240D01*
X126489972Y-68876461D01*
X126489974Y-68876466D01*
X126509435Y-68933795D01*
X126510934Y-68938736D01*
X126512273Y-68943735D01*
X126513444Y-68948757D01*
X126553530Y-69150284D01*
X126554371Y-69155379D01*
X126555045Y-69160496D01*
X126555553Y-69165646D01*
X126569246Y-69374554D01*
X126569373Y-69377132D01*
X126569458Y-69379724D01*
X126569500Y-69382313D01*
X126569500Y-75384416D01*
X126569177Y-75391548D01*
X126568620Y-75397684D01*
X126564151Y-75415488D01*
X126560701Y-75485040D01*
X126560554Y-75486671D01*
X126560382Y-75487035D01*
X126559721Y-75493001D01*
X126553569Y-75528574D01*
X126549682Y-75542885D01*
X126518390Y-75626212D01*
X126515682Y-75632565D01*
X126513260Y-75637620D01*
X126511664Y-75641049D01*
X126511459Y-75641504D01*
X126510111Y-75644580D01*
X126465864Y-75748418D01*
X126465861Y-75748424D01*
X126460567Y-75762619D01*
X126460565Y-75762624D01*
X126459929Y-75764603D01*
X126459921Y-75764629D01*
X126455987Y-75779064D01*
X126423867Y-75922192D01*
X126422454Y-75929205D01*
X126422273Y-75930214D01*
X126421986Y-75934409D01*
X126419523Y-75949186D01*
X126419500Y-75949368D01*
X126419500Y-76070630D01*
X126450713Y-76187119D01*
X126450865Y-76187709D01*
X126450881Y-76187747D01*
X126511510Y-76292758D01*
X126597239Y-76378487D01*
X126597683Y-76378807D01*
X126599281Y-76379667D01*
X126702253Y-76439118D01*
X126819374Y-76470500D01*
X126819376Y-76470500D01*
X126940624Y-76470500D01*
X126940626Y-76470500D01*
X127057747Y-76439118D01*
X127162754Y-76378492D01*
X127248492Y-76292754D01*
X127309118Y-76187747D01*
X127340500Y-76070626D01*
X127340500Y-75949374D01*
X127339824Y-75944243D01*
X127340033Y-75944215D01*
X127338680Y-75933197D01*
X127338426Y-75933218D01*
X127338113Y-75929349D01*
X127336815Y-75922173D01*
X127323637Y-75849308D01*
X127321828Y-75840636D01*
X127321824Y-75840618D01*
X127321544Y-75839434D01*
X127321538Y-75839411D01*
X127319242Y-75830763D01*
X127304011Y-75779067D01*
X127298379Y-75759949D01*
X127297842Y-75758313D01*
X127295224Y-75750334D01*
X127294739Y-75748995D01*
X127291021Y-75739631D01*
X127250749Y-75646564D01*
X127249963Y-75644677D01*
X127212812Y-75551994D01*
X127208572Y-75537568D01*
X127201225Y-75499444D01*
X127199918Y-75488832D01*
X127195858Y-75414589D01*
X127192715Y-75401596D01*
X127190500Y-75383021D01*
X127190500Y-69248673D01*
X127190500Y-69248672D01*
X127161445Y-68990794D01*
X127103698Y-68737791D01*
X127017988Y-68492844D01*
X126905391Y-68259034D01*
X126767323Y-68039301D01*
X126605522Y-67836408D01*
X126605513Y-67836398D01*
X126605506Y-67836391D01*
X126605499Y-67836383D01*
X126476470Y-67707354D01*
X126476447Y-67707333D01*
X126466193Y-67697080D01*
X126455857Y-67686744D01*
X126455857Y-67686743D01*
X126455856Y-67686743D01*
X123236631Y-64467517D01*
X123224829Y-64452432D01*
X123218352Y-64441684D01*
X123218350Y-64441681D01*
X123166806Y-64385089D01*
X123160158Y-64376716D01*
X123141135Y-64349106D01*
X123132796Y-64333516D01*
X123104176Y-64261660D01*
X123101633Y-64254217D01*
X123097593Y-64240137D01*
X123096464Y-64236372D01*
X123096296Y-64235835D01*
X123095046Y-64232004D01*
X123037870Y-64063736D01*
X123037862Y-64063713D01*
X123036146Y-64058911D01*
X123035874Y-64058186D01*
X123034925Y-64056293D01*
X123030989Y-64049237D01*
X123029118Y-64042253D01*
X122969355Y-63938741D01*
X122969098Y-63938280D01*
X122969085Y-63938199D01*
X122968721Y-63937524D01*
X122968574Y-63937326D01*
X122882758Y-63851510D01*
X122777747Y-63790881D01*
X122777709Y-63790865D01*
X122777119Y-63790713D01*
X122660630Y-63759500D01*
X122660628Y-63759500D01*
X122660626Y-63759500D01*
X122539374Y-63759500D01*
X122539371Y-63759500D01*
X122539368Y-63759500D01*
X122422879Y-63790713D01*
X122422291Y-63790865D01*
X122422251Y-63790881D01*
X122317240Y-63851510D01*
X122231510Y-63937240D01*
X122171684Y-64040861D01*
X122171683Y-64040862D01*
X122170882Y-64042251D01*
X122170881Y-64042255D01*
X122139500Y-64159371D01*
X121169743Y-64159371D01*
X121392675Y-63936439D01*
X121455521Y-63873593D01*
X121617322Y-63670700D01*
X121755390Y-63450967D01*
X121867987Y-63217157D01*
X121953698Y-62972210D01*
X122011445Y-62719206D01*
X122040500Y-62461328D01*
X122040500Y-62331573D01*
X122040500Y-62282395D01*
X122040500Y-61742549D01*
X122040500Y-61653672D01*
X122011445Y-61395794D01*
X121953698Y-61142791D01*
X121867988Y-60897844D01*
X121755391Y-60664034D01*
X121617323Y-60444301D01*
X121455522Y-60241408D01*
X121455513Y-60241398D01*
X121455506Y-60241391D01*
X121455499Y-60241383D01*
X121326470Y-60112354D01*
X121326447Y-60112333D01*
X121316321Y-60102208D01*
X121305857Y-60091744D01*
X121305857Y-60091743D01*
X121305856Y-60091743D01*
X120558098Y-59343984D01*
X120556297Y-59342124D01*
X120554512Y-59340218D01*
X120552800Y-59338329D01*
X120414723Y-59180884D01*
X120411486Y-59176939D01*
X120408316Y-59172807D01*
X120405329Y-59168639D01*
X120347594Y-59082233D01*
X120327117Y-59051588D01*
X120291165Y-58997782D01*
X120288432Y-58993386D01*
X120285850Y-58988913D01*
X120283416Y-58984361D01*
X120269139Y-58955410D01*
X120192530Y-58800060D01*
X120190404Y-58795367D01*
X120189472Y-58793117D01*
X120188425Y-58790589D01*
X120186610Y-58785765D01*
X120172681Y-58744732D01*
X120120566Y-58591209D01*
X120119066Y-58586267D01*
X120117722Y-58581250D01*
X120116553Y-58576234D01*
X120108194Y-58534209D01*
X120081404Y-58399526D01*
X120076463Y-58374688D01*
X120075629Y-58369637D01*
X120074948Y-58364466D01*
X120074447Y-58359379D01*
X120069593Y-58285324D01*
X120439499Y-58285324D01*
X120439499Y-58288727D01*
X120439499Y-58464679D01*
X120444075Y-58487679D01*
X120444075Y-58487680D01*
X120474484Y-58640564D01*
X120474488Y-58640581D01*
X120474489Y-58640583D01*
X120474490Y-58640587D01*
X120537670Y-58793117D01*
X120543124Y-58806284D01*
X120576338Y-58855992D01*
X120577398Y-58857578D01*
X120642763Y-58955406D01*
X120642772Y-58955416D01*
X120642782Y-58955427D01*
X120769577Y-59082222D01*
X120769582Y-59082226D01*
X120769583Y-59082227D01*
X120769589Y-59082232D01*
X120918715Y-59181875D01*
X121084416Y-59250510D01*
X121088929Y-59251407D01*
X121101241Y-59255435D01*
X121101351Y-59255123D01*
X121105008Y-59256408D01*
X121373838Y-59322068D01*
X121380767Y-59323603D01*
X121381756Y-59323800D01*
X121388810Y-59325047D01*
X121583102Y-59355073D01*
X121583197Y-59355088D01*
X121735971Y-59379494D01*
X121746994Y-59382077D01*
X121868641Y-59419974D01*
X121880922Y-59424966D01*
X121931368Y-59450602D01*
X121939047Y-59455066D01*
X122003734Y-59497710D01*
X122009841Y-59502171D01*
X122087062Y-59564485D01*
X122091564Y-59568410D01*
X122180380Y-59651948D01*
X122180382Y-59651949D01*
X122180384Y-59651951D01*
X122187220Y-59656295D01*
X122193493Y-59660282D01*
X122206980Y-59671095D01*
X124997212Y-62461326D01*
X128084883Y-65548997D01*
X128106834Y-65570948D01*
X128111796Y-65575911D01*
X128116939Y-65581054D01*
X128118701Y-65582875D01*
X128120500Y-65584796D01*
X128122213Y-65586687D01*
X128260273Y-65744113D01*
X128263515Y-65748064D01*
X128266679Y-65752187D01*
X128269681Y-65756376D01*
X128383833Y-65927218D01*
X128386560Y-65931602D01*
X128389143Y-65936075D01*
X128391583Y-65940640D01*
X128447598Y-66054228D01*
X128482461Y-66124922D01*
X128484598Y-66129639D01*
X128486574Y-66134411D01*
X128488391Y-66139241D01*
X128554434Y-66333795D01*
X128555934Y-66338737D01*
X128557273Y-66343736D01*
X128558444Y-66348758D01*
X128598530Y-66550285D01*
X128599371Y-66555380D01*
X128600045Y-66560497D01*
X128600553Y-66565647D01*
X128614246Y-66774555D01*
X128614373Y-66777133D01*
X128614458Y-66779725D01*
X128614500Y-66782314D01*
X128614500Y-76097685D01*
X128614458Y-76100274D01*
X128614373Y-76102866D01*
X128614246Y-76105444D01*
X128600553Y-76314352D01*
X128600045Y-76319502D01*
X128599371Y-76324619D01*
X128598530Y-76329714D01*
X128558447Y-76531225D01*
X128557271Y-76536269D01*
X128555929Y-76541275D01*
X128554430Y-76546213D01*
X128488392Y-76740754D01*
X128486572Y-76745591D01*
X128484593Y-76750369D01*
X128482459Y-76755079D01*
X128391583Y-76939359D01*
X128389143Y-76943924D01*
X128386560Y-76948397D01*
X128383833Y-76952781D01*
X128269680Y-77123624D01*
X128266668Y-77127827D01*
X128263528Y-77131919D01*
X128260259Y-77135902D01*
X128185660Y-77220966D01*
X128122220Y-77293305D01*
X128120485Y-77295219D01*
X128118698Y-77297127D01*
X128116903Y-77298982D01*
X128090755Y-77325131D01*
X128090751Y-77325134D01*
X128090752Y-77325135D01*
X127839212Y-77576673D01*
X127821657Y-77589902D01*
X127814478Y-77593882D01*
X127814471Y-77593886D01*
X127654666Y-77729162D01*
X127646348Y-77735315D01*
X127405448Y-77890201D01*
X127399578Y-77893628D01*
X127259357Y-77967582D01*
X127255299Y-77969576D01*
X127156037Y-78014871D01*
X127103526Y-78038832D01*
X127099293Y-78040616D01*
X126949092Y-78098840D01*
X126944474Y-78100468D01*
X126792672Y-78148729D01*
X126787627Y-78150150D01*
X126652253Y-78183487D01*
X126646634Y-78184656D01*
X126517556Y-78206652D01*
X126509600Y-78207596D01*
X126343735Y-78218780D01*
X126343725Y-78218781D01*
X126317225Y-78222742D01*
X126315644Y-78223045D01*
X126315592Y-78222774D01*
X126300597Y-78224500D01*
X125854194Y-78224500D01*
X125807378Y-78233811D01*
X125807374Y-78233813D01*
X125754284Y-78269284D01*
X125718813Y-78322374D01*
X125718811Y-78322378D01*
X125709500Y-78369194D01*
X125709500Y-80000804D01*
X125714426Y-80025574D01*
X125718812Y-80047623D01*
X125718813Y-80047624D01*
X125754283Y-80100712D01*
X125754284Y-80100712D01*
X125754285Y-80100714D01*
X125766068Y-80108586D01*
X125766069Y-80108588D01*
X125766070Y-80108588D01*
X125807376Y-80136187D01*
X125854194Y-80145500D01*
X127485806Y-80145500D01*
X127532624Y-80136187D01*
X127585714Y-80100714D01*
X127621187Y-80047624D01*
X127630500Y-80000806D01*
X127630500Y-79544882D01*
X127633502Y-79523313D01*
X127636253Y-79513618D01*
X127636255Y-79513608D01*
X127649866Y-79344151D01*
X127652560Y-79310612D01*
X127654186Y-79299810D01*
X127708078Y-79057420D01*
X127710670Y-79048361D01*
X127807680Y-78772691D01*
X127811015Y-78764657D01*
X127831862Y-78721345D01*
X127949532Y-78476869D01*
X127952660Y-78471016D01*
X128029761Y-78340300D01*
X128032341Y-78336219D01*
X128110144Y-78221155D01*
X128115036Y-78214671D01*
X128261634Y-78039980D01*
X128266684Y-78031233D01*
X128279235Y-78014875D01*
X128525251Y-77768861D01*
X128558770Y-77735344D01*
X128650521Y-77643593D01*
X128812322Y-77440700D01*
X128950390Y-77220967D01*
X129062987Y-76987157D01*
X129148698Y-76742210D01*
X129206445Y-76489206D01*
X129235500Y-76231328D01*
X129235500Y-76101573D01*
X129235500Y-76052395D01*
X129235500Y-66737550D01*
X129235500Y-66648673D01*
X129206445Y-66390795D01*
X129148698Y-66137792D01*
X129062988Y-65892845D01*
X128950391Y-65659035D01*
X128812323Y-65439302D01*
X128650522Y-65236409D01*
X128650513Y-65236399D01*
X128650506Y-65236392D01*
X128650499Y-65236384D01*
X128521470Y-65107355D01*
X128521447Y-65107334D01*
X128511174Y-65097062D01*
X128500857Y-65086745D01*
X128500857Y-65086744D01*
X128500856Y-65086744D01*
X122645923Y-59231810D01*
X122634702Y-59217674D01*
X122627212Y-59205632D01*
X122627211Y-59205631D01*
X122627210Y-59205629D01*
X122538885Y-59111347D01*
X122534695Y-59106491D01*
X122470293Y-59025371D01*
X122465727Y-59018993D01*
X122452081Y-58997782D01*
X122426604Y-58958179D01*
X122422325Y-58950650D01*
X122398467Y-58902736D01*
X122393659Y-58890692D01*
X122386336Y-58866820D01*
X122356552Y-58769726D01*
X122354063Y-58758984D01*
X122330052Y-58607974D01*
X122297376Y-58399526D01*
X122296102Y-58392417D01*
X122295901Y-58391421D01*
X122294336Y-58384446D01*
X122231322Y-58129524D01*
X122230243Y-58125387D01*
X122230085Y-58124812D01*
X122230083Y-58124808D01*
X122229548Y-58123440D01*
X122225639Y-58110069D01*
X122225510Y-58109420D01*
X122225508Y-58109416D01*
X122156874Y-57943716D01*
X122057231Y-57794590D01*
X122057226Y-57794584D01*
X122057224Y-57794582D01*
X122057221Y-57794578D01*
X121930426Y-57667783D01*
X121930415Y-57667773D01*
X121930405Y-57667764D01*
X121787758Y-57572451D01*
X121787758Y-57572452D01*
X121781284Y-57568126D01*
X121781283Y-57568125D01*
X121781280Y-57568124D01*
X121781279Y-57568123D01*
X121781276Y-57568122D01*
X121780916Y-57567881D01*
X121778697Y-57567053D01*
X121707793Y-57537684D01*
X121615586Y-57499491D01*
X121615582Y-57499490D01*
X121615578Y-57499489D01*
X121615568Y-57499486D01*
X121439675Y-57464500D01*
X121260323Y-57464500D01*
X121084433Y-57499485D01*
X121084414Y-57499490D01*
X121084412Y-57499490D01*
X121084411Y-57499491D01*
X121044211Y-57516142D01*
X120918721Y-57568121D01*
X120918718Y-57568122D01*
X120918716Y-57568123D01*
X120918710Y-57568127D01*
X120769591Y-57667764D01*
X120769581Y-57667773D01*
X120769570Y-57667783D01*
X120642782Y-57794571D01*
X120642772Y-57794582D01*
X120642763Y-57794592D01*
X120543126Y-57943711D01*
X120543122Y-57943717D01*
X120543121Y-57943719D01*
X120543120Y-57943722D01*
X120474489Y-58109415D01*
X120474484Y-58109434D01*
X120449210Y-58236499D01*
X120449197Y-58236563D01*
X120449109Y-58237011D01*
X120439499Y-58285324D01*
X120069593Y-58285324D01*
X120060750Y-58150401D01*
X120060627Y-58147896D01*
X120060540Y-58145231D01*
X120060500Y-58142685D01*
X120060500Y-55632312D01*
X120060541Y-55629753D01*
X120060628Y-55627098D01*
X120060750Y-55624602D01*
X120067967Y-55514500D01*
X120074448Y-55415618D01*
X120074954Y-55410489D01*
X120075627Y-55405380D01*
X120076468Y-55400285D01*
X120116558Y-55198739D01*
X120117726Y-55193730D01*
X120119061Y-55188747D01*
X120120563Y-55183797D01*
X120126901Y-55165126D01*
X120186620Y-54989201D01*
X120188434Y-54984384D01*
X120190404Y-54979629D01*
X120192528Y-54974939D01*
X120283431Y-54790606D01*
X120285844Y-54786091D01*
X120288444Y-54781589D01*
X120291151Y-54777237D01*
X120405339Y-54606341D01*
X120408309Y-54602197D01*
X120411493Y-54598048D01*
X120414728Y-54594108D01*
X120536794Y-54454918D01*
X120584170Y-54428926D01*
X120624883Y-54433403D01*
X120672283Y-54451886D01*
X120682036Y-54456482D01*
X120763661Y-54501999D01*
X120764253Y-54502323D01*
X120765638Y-54503083D01*
X120765912Y-54503231D01*
X120765950Y-54503251D01*
X120765957Y-54503255D01*
X120767768Y-54504219D01*
X120767841Y-54504257D01*
X120959010Y-54604280D01*
X120969793Y-54609434D01*
X120971333Y-54610103D01*
X120982331Y-54614421D01*
X121081846Y-54649445D01*
X121084416Y-54650510D01*
X121085461Y-54650717D01*
X121093579Y-54653575D01*
X121105760Y-54657342D01*
X121107506Y-54657809D01*
X121107511Y-54657810D01*
X121107518Y-54657812D01*
X121117886Y-54660157D01*
X121120026Y-54660642D01*
X121185018Y-54672722D01*
X121231565Y-54700171D01*
X121249578Y-54751120D01*
X121230627Y-54801728D01*
X121210090Y-54818802D01*
X121206362Y-54820955D01*
X121182265Y-54830026D01*
X121084434Y-54849485D01*
X121084414Y-54849490D01*
X121084412Y-54849490D01*
X121084411Y-54849491D01*
X121044211Y-54866142D01*
X120918721Y-54918121D01*
X120918718Y-54918122D01*
X120918716Y-54918123D01*
X120918710Y-54918127D01*
X120769591Y-55017764D01*
X120769581Y-55017773D01*
X120769570Y-55017783D01*
X120642782Y-55144571D01*
X120642772Y-55144582D01*
X120642763Y-55144592D01*
X120543126Y-55293711D01*
X120543122Y-55293717D01*
X120543121Y-55293719D01*
X120543120Y-55293722D01*
X120474489Y-55459415D01*
X120474483Y-55459442D01*
X120467065Y-55496742D01*
X120467063Y-55496751D01*
X120439499Y-55635324D01*
X120439499Y-55814676D01*
X120472584Y-55981007D01*
X120474489Y-55990583D01*
X120474490Y-55990587D01*
X120543122Y-56156280D01*
X120543124Y-56156284D01*
X120573202Y-56201298D01*
X120573203Y-56201300D01*
X120642763Y-56305406D01*
X120642772Y-56305416D01*
X120642782Y-56305427D01*
X120769577Y-56432222D01*
X120769582Y-56432226D01*
X120769583Y-56432227D01*
X120769589Y-56432232D01*
X120918715Y-56531875D01*
X121084416Y-56600510D01*
X121260323Y-56635500D01*
X121439675Y-56635500D01*
X121615582Y-56600510D01*
X121781283Y-56531875D01*
X121930409Y-56432232D01*
X122057231Y-56305410D01*
X122156874Y-56156284D01*
X122225509Y-55990583D01*
X122260499Y-55814676D01*
X122260499Y-55635324D01*
X122225509Y-55459417D01*
X122156874Y-55293716D01*
X122057231Y-55144590D01*
X122057226Y-55144584D01*
X122057224Y-55144582D01*
X122057221Y-55144578D01*
X121930426Y-55017783D01*
X121930415Y-55017773D01*
X121930405Y-55017764D01*
X121830991Y-54951339D01*
X121781283Y-54918125D01*
X121781282Y-54918124D01*
X121780922Y-54917884D01*
X121778711Y-54917059D01*
X121615586Y-54849491D01*
X121615582Y-54849490D01*
X121615580Y-54849489D01*
X121615579Y-54849489D01*
X121615567Y-54849486D01*
X121518598Y-54830198D01*
X121491307Y-54813637D01*
X121468624Y-54800540D01*
X121450144Y-54749759D01*
X121468629Y-54698980D01*
X121489640Y-54681350D01*
X121493651Y-54679034D01*
X121517728Y-54669973D01*
X121615582Y-54650510D01*
X121781283Y-54581875D01*
X121930409Y-54482232D01*
X122057231Y-54355410D01*
X122156874Y-54206284D01*
X122225509Y-54040583D01*
X122260499Y-53864676D01*
X122260499Y-53685324D01*
X122225509Y-53509417D01*
X122156874Y-53343716D01*
X122057231Y-53194590D01*
X122057226Y-53194584D01*
X122057225Y-53194583D01*
X122057221Y-53194578D01*
X121930426Y-53067783D01*
X121930415Y-53067773D01*
X121930405Y-53067764D01*
X121790524Y-52974300D01*
X121783028Y-52969291D01*
X121781283Y-52968125D01*
X121781281Y-52968124D01*
X121781275Y-52968120D01*
X121780381Y-52967682D01*
X121778711Y-52967059D01*
X121615586Y-52899491D01*
X121615582Y-52899490D01*
X121615580Y-52899489D01*
X121615579Y-52899489D01*
X121615568Y-52899486D01*
X121439675Y-52864500D01*
X121260323Y-52864500D01*
X121084433Y-52899485D01*
X121084414Y-52899490D01*
X121084412Y-52899490D01*
X121084411Y-52899491D01*
X121044211Y-52916142D01*
X120918721Y-52968121D01*
X120918718Y-52968122D01*
X120918716Y-52968123D01*
X120918710Y-52968127D01*
X120769591Y-53067764D01*
X120769581Y-53067773D01*
X120769570Y-53067783D01*
X120642779Y-53194574D01*
X120642760Y-53194597D01*
X120641335Y-53196476D01*
X120641138Y-53196326D01*
X120635191Y-53203716D01*
X120632883Y-53206116D01*
X120498026Y-53377218D01*
X120495641Y-53380319D01*
X120495346Y-53380711D01*
X120492818Y-53384167D01*
X120393513Y-53523715D01*
X120391133Y-53527151D01*
X120390845Y-53527578D01*
X120388483Y-53531183D01*
X120287537Y-53689683D01*
X120287485Y-53689765D01*
X120174251Y-53867075D01*
X120171659Y-53870884D01*
X119998126Y-54110562D01*
X119992057Y-54123549D01*
X119982254Y-54139352D01*
X119862682Y-54289291D01*
X119862681Y-54289293D01*
X119724605Y-54509036D01*
X119612008Y-54742853D01*
X119526403Y-54987499D01*
X119526302Y-54987782D01*
X119468558Y-55240773D01*
X119468553Y-55240797D01*
X119460044Y-55316332D01*
X119460044Y-55316333D01*
X119439500Y-55498671D01*
X119439500Y-55587548D01*
X119439500Y-58097395D01*
X119439500Y-58146573D01*
X119439500Y-58276328D01*
X119440659Y-58286610D01*
X119447757Y-58349609D01*
X119468554Y-58534204D01*
X119468557Y-58534222D01*
X119526298Y-58787198D01*
X119526299Y-58787202D01*
X119526300Y-58787204D01*
X119526302Y-58787210D01*
X119562512Y-58890692D01*
X119612012Y-59032155D01*
X119680839Y-59175077D01*
X119680838Y-59175077D01*
X119724800Y-59266363D01*
X119725785Y-59267837D01*
X119862678Y-59485700D01*
X120024479Y-59688593D01*
X120087325Y-59751439D01*
X120889883Y-60553996D01*
X120900428Y-60564541D01*
X120900429Y-60564543D01*
X120900430Y-60564543D01*
X120921929Y-60586043D01*
X120923721Y-60587895D01*
X120925426Y-60589716D01*
X120925498Y-60589793D01*
X120927213Y-60591686D01*
X121065273Y-60749112D01*
X121068515Y-60753063D01*
X121071679Y-60757186D01*
X121074674Y-60761366D01*
X121116438Y-60823870D01*
X121188833Y-60932217D01*
X121191560Y-60936601D01*
X121194143Y-60941074D01*
X121196583Y-60945639D01*
X121279039Y-61112844D01*
X121287461Y-61129921D01*
X121289598Y-61134638D01*
X121291574Y-61139410D01*
X121293391Y-61144240D01*
X121356285Y-61329516D01*
X121356288Y-61329525D01*
X121357160Y-61332093D01*
X121359437Y-61338801D01*
X121360937Y-61343748D01*
X121362270Y-61348723D01*
X121363444Y-61353757D01*
X121403530Y-61555284D01*
X121404371Y-61560379D01*
X121405045Y-61565496D01*
X121405553Y-61570646D01*
X121419246Y-61779554D01*
X121419373Y-61782132D01*
X121419458Y-61784724D01*
X121419500Y-61787313D01*
X121419500Y-62327685D01*
X121419458Y-62330274D01*
X121419373Y-62332866D01*
X121419246Y-62335444D01*
X121405553Y-62544352D01*
X121405045Y-62549502D01*
X121404371Y-62554619D01*
X121403530Y-62559714D01*
X121363447Y-62761225D01*
X121362271Y-62766269D01*
X121360929Y-62771275D01*
X121359430Y-62776213D01*
X121293392Y-62970754D01*
X121291572Y-62975591D01*
X121289593Y-62980369D01*
X121287459Y-62985079D01*
X121196583Y-63169359D01*
X121194143Y-63173924D01*
X121191560Y-63178397D01*
X121188833Y-63182781D01*
X121074680Y-63353624D01*
X121071668Y-63357827D01*
X121068528Y-63361919D01*
X121065259Y-63365902D01*
X121043566Y-63390639D01*
X120927219Y-63523306D01*
X120925486Y-63525218D01*
X120923701Y-63527124D01*
X120921900Y-63528984D01*
X120161774Y-64289112D01*
X119401041Y-65049845D01*
X119391229Y-65059657D01*
X119345353Y-65105532D01*
X119299478Y-65151407D01*
X119299477Y-65151408D01*
X119231711Y-65236384D01*
X119137678Y-65354297D01*
X118999605Y-65574037D01*
X118887008Y-65807854D01*
X118801403Y-66052500D01*
X118801302Y-66052783D01*
X118743555Y-66305786D01*
X118725585Y-66465286D01*
X118714500Y-66563673D01*
X115800500Y-66563673D01*
X115800500Y-54317313D01*
X115800541Y-54314757D01*
X115800628Y-54312099D01*
X115800749Y-54309616D01*
X115802081Y-54289300D01*
X115814448Y-54100616D01*
X115814954Y-54095490D01*
X115815627Y-54090381D01*
X115816468Y-54085286D01*
X115856558Y-53883740D01*
X115857726Y-53878731D01*
X115859061Y-53873748D01*
X115860563Y-53868798D01*
X115861148Y-53867075D01*
X115926620Y-53674202D01*
X115928434Y-53669385D01*
X115930404Y-53664630D01*
X115932528Y-53659940D01*
X115945489Y-53633658D01*
X116439499Y-53633658D01*
X116439499Y-55316333D01*
X116468070Y-55496728D01*
X116468072Y-55496739D01*
X116468073Y-55496742D01*
X116468075Y-55496750D01*
X116468081Y-55496773D01*
X116524515Y-55670457D01*
X116524527Y-55670490D01*
X116524530Y-55670497D01*
X116547572Y-55715717D01*
X116567695Y-55755211D01*
X116571594Y-55764205D01*
X116573085Y-55768327D01*
X116580401Y-55788566D01*
X116580403Y-55788571D01*
X116750969Y-56071027D01*
X116750986Y-56071055D01*
X116755430Y-56078016D01*
X116756061Y-56078952D01*
X116760773Y-56085584D01*
X116947620Y-56335325D01*
X116967084Y-56361340D01*
X116969300Y-56364199D01*
X116970460Y-56365697D01*
X116970962Y-56366323D01*
X116970984Y-56366350D01*
X116974673Y-56370790D01*
X117188921Y-56619588D01*
X117189038Y-56619723D01*
X117189421Y-56620166D01*
X117297611Y-56744909D01*
X117336175Y-56789373D01*
X117339904Y-56794016D01*
X117447837Y-56939268D01*
X117453050Y-56947247D01*
X117484852Y-57003007D01*
X117489025Y-57011458D01*
X117511082Y-57063781D01*
X117514802Y-57074816D01*
X117527059Y-57122537D01*
X117529258Y-57135483D01*
X117534184Y-57193295D01*
X117536842Y-57203282D01*
X117539499Y-57223599D01*
X117539499Y-60163932D01*
X117539500Y-60163943D01*
X117571763Y-60367646D01*
X117571764Y-60367651D01*
X117571775Y-60367688D01*
X117635504Y-60563823D01*
X117635516Y-60563856D01*
X117635519Y-60563863D01*
X117722062Y-60733710D01*
X117730084Y-60759947D01*
X117731468Y-60771217D01*
X117719313Y-60823870D01*
X117713496Y-60832828D01*
X117693676Y-60853716D01*
X117643982Y-60889820D01*
X117643970Y-60889831D01*
X117514831Y-61018970D01*
X117514820Y-61018984D01*
X117514813Y-61018992D01*
X117407462Y-61166746D01*
X117407456Y-61166755D01*
X117407448Y-61166770D01*
X117324530Y-61329501D01*
X117324527Y-61329508D01*
X117324515Y-61329541D01*
X117268081Y-61503225D01*
X117268076Y-61503243D01*
X117268070Y-61503270D01*
X117239499Y-61683658D01*
X117239499Y-61866340D01*
X117268070Y-62046728D01*
X117268076Y-62046755D01*
X117268081Y-62046773D01*
X117324515Y-62220457D01*
X117324527Y-62220490D01*
X117324530Y-62220497D01*
X117407448Y-62383228D01*
X117407456Y-62383243D01*
X117407462Y-62383252D01*
X117514803Y-62530992D01*
X117514822Y-62531018D01*
X117514829Y-62531026D01*
X117643951Y-62660148D01*
X117643960Y-62660156D01*
X117643973Y-62660169D01*
X117643979Y-62660174D01*
X117643984Y-62660179D01*
X117643990Y-62660183D01*
X117791755Y-62767542D01*
X117791761Y-62767545D01*
X117791765Y-62767548D01*
X117864644Y-62804681D01*
X117952858Y-62849629D01*
X117954205Y-62850357D01*
X117954507Y-62850470D01*
X117954511Y-62850472D01*
X117954515Y-62850473D01*
X117954522Y-62850477D01*
X117954548Y-62850485D01*
X117955650Y-62850898D01*
X117957090Y-62851311D01*
X118128248Y-62906924D01*
X118308666Y-62935500D01*
X118308671Y-62935500D01*
X119991327Y-62935500D01*
X119991332Y-62935500D01*
X120171750Y-62906924D01*
X120345476Y-62850477D01*
X120508233Y-62767548D01*
X120656014Y-62660179D01*
X120785178Y-62531015D01*
X120892547Y-62383234D01*
X120975476Y-62220477D01*
X121031923Y-62046751D01*
X121060499Y-61866333D01*
X121060499Y-61683667D01*
X121031923Y-61503249D01*
X120975476Y-61329523D01*
X120975472Y-61329516D01*
X120975471Y-61329512D01*
X120892546Y-61166765D01*
X120892542Y-61166759D01*
X120892540Y-61166755D01*
X120892534Y-61166746D01*
X120818703Y-61065129D01*
X120785183Y-61018992D01*
X120785178Y-61018985D01*
X120785173Y-61018980D01*
X120785168Y-61018974D01*
X120784848Y-61018654D01*
X120784845Y-61018650D01*
X120656029Y-60889834D01*
X120656015Y-60889821D01*
X120595562Y-60845900D01*
X120508250Y-60782464D01*
X120508239Y-60782456D01*
X120508233Y-60782452D01*
X120500150Y-60778333D01*
X120345496Y-60699531D01*
X120345489Y-60699528D01*
X120345456Y-60699516D01*
X120171772Y-60643082D01*
X120171754Y-60643077D01*
X120171749Y-60643076D01*
X120171741Y-60643074D01*
X120171739Y-60643073D01*
X120171727Y-60643071D01*
X119992921Y-60614751D01*
X119991740Y-60614539D01*
X119991340Y-60614500D01*
X119991336Y-60614500D01*
X119991332Y-60614500D01*
X119991327Y-60614500D01*
X118475266Y-60614500D01*
X118448245Y-60609735D01*
X118426343Y-60601763D01*
X118397503Y-60583390D01*
X118366554Y-60552442D01*
X118363899Y-60549654D01*
X118361267Y-60546750D01*
X118358753Y-60543835D01*
X118287000Y-60456403D01*
X118286984Y-60456383D01*
X118284091Y-60452858D01*
X118279471Y-60446628D01*
X118275188Y-60440217D01*
X118271205Y-60433572D01*
X118218477Y-60334923D01*
X118215164Y-60327918D01*
X118212209Y-60320783D01*
X118209599Y-60313490D01*
X118207553Y-60306746D01*
X118177127Y-60206446D01*
X118175248Y-60198941D01*
X118173742Y-60191369D01*
X118172605Y-60183711D01*
X118161066Y-60066552D01*
X118160783Y-60062689D01*
X118160594Y-60058829D01*
X118160499Y-60054965D01*
X118160499Y-57224367D01*
X118163858Y-57201577D01*
X118165753Y-57195289D01*
X118181621Y-57030995D01*
X118183981Y-57018020D01*
X118235017Y-56828881D01*
X118237848Y-56820353D01*
X118317383Y-56619723D01*
X118387367Y-56443184D01*
X118387593Y-56442624D01*
X118544760Y-56057696D01*
X118545887Y-56054859D01*
X118546041Y-56054461D01*
X118547090Y-56051676D01*
X118629877Y-55825732D01*
X118630939Y-55822745D01*
X118631079Y-55822339D01*
X118632005Y-55819576D01*
X118712209Y-55572975D01*
X118717694Y-55551172D01*
X118718258Y-55548046D01*
X118719431Y-55540573D01*
X118719430Y-55540571D01*
X118720090Y-55536372D01*
X118722999Y-55524214D01*
X118731923Y-55496751D01*
X118760499Y-55316333D01*
X118760499Y-53633667D01*
X118731923Y-53453249D01*
X118675476Y-53279523D01*
X118675472Y-53279516D01*
X118675471Y-53279512D01*
X118656802Y-53242873D01*
X118614254Y-53159367D01*
X118614254Y-53159368D01*
X118592547Y-53116766D01*
X118556946Y-53067766D01*
X118485372Y-52969252D01*
X118485181Y-52968987D01*
X118485174Y-52968979D01*
X118356025Y-52839830D01*
X118356015Y-52839821D01*
X118288244Y-52790583D01*
X118208249Y-52732463D01*
X118208241Y-52732457D01*
X118208237Y-52732455D01*
X118208233Y-52732452D01*
X118160368Y-52708063D01*
X118045496Y-52649531D01*
X118045489Y-52649528D01*
X118045456Y-52649516D01*
X117871772Y-52593082D01*
X117871754Y-52593077D01*
X117871749Y-52593076D01*
X117871741Y-52593074D01*
X117871739Y-52593073D01*
X117871727Y-52593071D01*
X117692921Y-52564751D01*
X117691740Y-52564539D01*
X117691340Y-52564500D01*
X117691336Y-52564500D01*
X117691332Y-52564500D01*
X117508666Y-52564500D01*
X117508662Y-52564500D01*
X117508659Y-52564500D01*
X117505407Y-52564769D01*
X117505325Y-52563784D01*
X117455799Y-52554564D01*
X117424666Y-52516731D01*
X117370343Y-52571109D01*
X117329692Y-52592791D01*
X117328283Y-52593067D01*
X117328242Y-52593077D01*
X117328224Y-52593082D01*
X117154540Y-52649516D01*
X117154507Y-52649528D01*
X117154500Y-52649531D01*
X116991769Y-52732449D01*
X116991754Y-52732457D01*
X116991745Y-52732463D01*
X116843991Y-52839814D01*
X116843983Y-52839821D01*
X116843968Y-52839833D01*
X116714831Y-52968970D01*
X116714820Y-52968984D01*
X116714813Y-52968992D01*
X116607462Y-53116746D01*
X116607456Y-53116755D01*
X116607448Y-53116770D01*
X116524529Y-53279504D01*
X116524515Y-53279541D01*
X116468081Y-53453225D01*
X116468076Y-53453243D01*
X116468070Y-53453270D01*
X116439499Y-53633658D01*
X115945489Y-53633658D01*
X116023431Y-53475607D01*
X116025844Y-53471092D01*
X116028444Y-53466590D01*
X116031151Y-53462238D01*
X116145339Y-53291342D01*
X116148309Y-53287198D01*
X116151493Y-53283049D01*
X116154727Y-53279110D01*
X116292821Y-53121645D01*
X116294521Y-53119770D01*
X116296260Y-53117913D01*
X116298035Y-53116077D01*
X116308704Y-53105410D01*
X116706079Y-52708033D01*
X116707900Y-52706271D01*
X116709785Y-52704506D01*
X116711644Y-52702821D01*
X116869123Y-52564716D01*
X116873048Y-52561494D01*
X116877197Y-52558310D01*
X116881341Y-52555340D01*
X117052238Y-52441151D01*
X117056590Y-52438444D01*
X117061092Y-52435844D01*
X117065607Y-52433431D01*
X117249941Y-52342528D01*
X117254633Y-52340402D01*
X117259405Y-52338426D01*
X117264228Y-52336611D01*
X117458825Y-52270554D01*
X117463710Y-52269071D01*
X117468758Y-52267719D01*
X117473742Y-52266557D01*
X117675292Y-52226466D01*
X117680381Y-52225627D01*
X117685490Y-52224954D01*
X117690616Y-52224448D01*
X117899604Y-52210750D01*
X117902103Y-52210627D01*
X117904767Y-52210540D01*
X117907315Y-52210500D01*
X122392684Y-52210500D01*
X122395233Y-52210540D01*
X122397895Y-52210627D01*
X122400392Y-52210750D01*
X122596885Y-52223627D01*
X122606171Y-52224793D01*
X122650498Y-52233049D01*
X122661511Y-52235934D01*
X122689943Y-52245621D01*
X122701676Y-52250712D01*
X122709770Y-52255035D01*
X122726271Y-52266793D01*
X122755920Y-52294290D01*
X122770872Y-52313165D01*
X122786918Y-52341390D01*
X122802283Y-52368419D01*
X122808315Y-52381784D01*
X122860458Y-52533509D01*
X122861008Y-52535168D01*
X122898697Y-52653272D01*
X122900303Y-52658053D01*
X122900506Y-52658631D01*
X122902209Y-52663239D01*
X122902223Y-52663276D01*
X122919174Y-52707143D01*
X122951516Y-52790842D01*
X122954899Y-52798948D01*
X122955413Y-52800095D01*
X122959224Y-52808012D01*
X122959229Y-52808022D01*
X123006289Y-52899491D01*
X123027186Y-52940106D01*
X123032772Y-52950096D01*
X123033618Y-52951492D01*
X123039845Y-52961019D01*
X123066675Y-52999132D01*
X123127664Y-53085769D01*
X123131003Y-53090337D01*
X123131163Y-53090556D01*
X123131671Y-53091225D01*
X123132658Y-53092271D01*
X123140887Y-53102598D01*
X123142750Y-53105386D01*
X123142771Y-53105415D01*
X123142776Y-53105421D01*
X123271172Y-53233817D01*
X123279019Y-53242963D01*
X123286384Y-53253007D01*
X123301507Y-53304887D01*
X123280097Y-53353979D01*
X123274008Y-53360423D01*
X123252453Y-53376555D01*
X123194857Y-53405902D01*
X123194789Y-53405944D01*
X123194369Y-53406255D01*
X123159880Y-53431312D01*
X123159872Y-53431318D01*
X123159872Y-53431319D01*
X123159871Y-53431320D01*
X123635318Y-53906766D01*
X123658155Y-53955741D01*
X123644169Y-54007938D01*
X123618957Y-54031042D01*
X123542988Y-54074903D01*
X123449902Y-54167989D01*
X123406042Y-54243957D01*
X123364645Y-54278692D01*
X123310606Y-54278691D01*
X123281765Y-54260317D01*
X122806320Y-53784872D01*
X122806319Y-53784872D01*
X122806318Y-53784873D01*
X122806316Y-53784874D01*
X122806315Y-53784876D01*
X122780905Y-53819851D01*
X122780904Y-53819853D01*
X122721926Y-53935606D01*
X122691578Y-53995168D01*
X122691577Y-53995170D01*
X122691576Y-53995170D01*
X122630881Y-54181970D01*
X122630782Y-54182270D01*
X122630776Y-54182296D01*
X122600000Y-54376602D01*
X122599999Y-54376613D01*
X122599999Y-54573385D01*
X122600000Y-54573396D01*
X122630776Y-54767702D01*
X122630781Y-54767726D01*
X122630881Y-54768028D01*
X122691577Y-54954830D01*
X122780768Y-55129878D01*
X122780892Y-55130124D01*
X122780905Y-55130146D01*
X122806318Y-55165125D01*
X122806319Y-55165126D01*
X123281766Y-54689678D01*
X123330740Y-54666842D01*
X123382937Y-54680828D01*
X123406041Y-54706041D01*
X123449901Y-54782009D01*
X123542989Y-54875097D01*
X123542991Y-54875098D01*
X123542992Y-54875099D01*
X123617517Y-54918126D01*
X123618955Y-54918956D01*
X123653691Y-54960352D01*
X123653691Y-55014392D01*
X123635316Y-55043233D01*
X123159870Y-55518677D01*
X123159871Y-55518677D01*
X123159871Y-55518678D01*
X123194858Y-55544097D01*
X123252216Y-55573322D01*
X123274127Y-55589834D01*
X123280468Y-55596634D01*
X123301583Y-55646377D01*
X123286095Y-55697638D01*
X123278970Y-55707224D01*
X123270934Y-55716032D01*
X123271128Y-55716226D01*
X123142782Y-55844571D01*
X123142772Y-55844582D01*
X123142763Y-55844592D01*
X123043126Y-55993711D01*
X123043122Y-55993717D01*
X123043121Y-55993719D01*
X123043120Y-55993722D01*
X123005070Y-56085584D01*
X122975788Y-56156280D01*
X122974489Y-56159415D01*
X122974488Y-56159419D01*
X122974485Y-56159429D01*
X122966157Y-56201302D01*
X122958088Y-56241869D01*
X122939499Y-56335324D01*
X122939499Y-56514676D01*
X122956572Y-56600508D01*
X122963532Y-56635500D01*
X122974485Y-56690569D01*
X122974488Y-56690579D01*
X122974489Y-56690583D01*
X122974490Y-56690587D01*
X123016939Y-56793068D01*
X123043124Y-56856284D01*
X123076338Y-56905992D01*
X123078624Y-56909413D01*
X123142763Y-57005406D01*
X123142772Y-57005416D01*
X123142782Y-57005427D01*
X123269577Y-57132222D01*
X123269582Y-57132226D01*
X123269583Y-57132227D01*
X123269589Y-57132232D01*
X123418715Y-57231875D01*
X123584416Y-57300510D01*
X123681395Y-57319800D01*
X123708680Y-57336357D01*
X123731371Y-57349459D01*
X123749851Y-57400240D01*
X123731366Y-57451019D01*
X123710348Y-57468654D01*
X123706350Y-57470962D01*
X123682265Y-57480026D01*
X123584434Y-57499485D01*
X123584414Y-57499490D01*
X123584412Y-57499490D01*
X123584411Y-57499491D01*
X123544211Y-57516142D01*
X123418721Y-57568121D01*
X123418718Y-57568122D01*
X123418716Y-57568123D01*
X123418710Y-57568127D01*
X123269591Y-57667764D01*
X123269581Y-57667773D01*
X123269570Y-57667783D01*
X123142782Y-57794571D01*
X123142772Y-57794582D01*
X123142763Y-57794592D01*
X123043126Y-57943711D01*
X123043122Y-57943717D01*
X123043121Y-57943719D01*
X123043120Y-57943722D01*
X122974489Y-58109415D01*
X122974484Y-58109434D01*
X122949109Y-58237011D01*
X122939499Y-58285324D01*
X122939499Y-58464679D01*
X122944075Y-58487679D01*
X122944075Y-58487680D01*
X122974484Y-58640564D01*
X122974488Y-58640581D01*
X122974489Y-58640583D01*
X122974490Y-58640587D01*
X123037670Y-58793117D01*
X123043124Y-58806284D01*
X123076338Y-58855992D01*
X123077398Y-58857578D01*
X123142763Y-58955406D01*
X123142772Y-58955416D01*
X123142782Y-58955427D01*
X123269577Y-59082222D01*
X123269582Y-59082226D01*
X123269583Y-59082227D01*
X123269589Y-59082232D01*
X123418715Y-59181875D01*
X123584416Y-59250510D01*
X123760323Y-59285500D01*
X123939675Y-59285500D01*
X124115582Y-59250510D01*
X124281283Y-59181875D01*
X124287875Y-59177469D01*
X124296401Y-59172511D01*
X124304381Y-59168516D01*
X124489904Y-59051588D01*
X124494527Y-59048565D01*
X124495179Y-59048123D01*
X124499768Y-59044897D01*
X124500398Y-59044438D01*
X124504856Y-59041074D01*
X124505474Y-59040591D01*
X124509766Y-59037119D01*
X124689586Y-58886654D01*
X124690326Y-58886386D01*
X124837707Y-58760866D01*
X124845314Y-58755141D01*
X124885675Y-58728431D01*
X124895836Y-58722740D01*
X124932230Y-58705759D01*
X124945656Y-58700918D01*
X124980684Y-58691773D01*
X125005796Y-58689381D01*
X125159380Y-58699447D01*
X125164487Y-58699950D01*
X125169631Y-58700628D01*
X125174683Y-58701462D01*
X125376243Y-58741555D01*
X125381244Y-58742720D01*
X125386281Y-58744069D01*
X125391183Y-58745557D01*
X125585767Y-58811611D01*
X125590596Y-58813428D01*
X125595375Y-58815408D01*
X125600078Y-58817539D01*
X125784365Y-58908419D01*
X125788919Y-58910853D01*
X125793394Y-58913436D01*
X125797774Y-58916160D01*
X125968639Y-59030329D01*
X125972807Y-59033316D01*
X125976939Y-59036486D01*
X125980884Y-59039723D01*
X126138329Y-59177800D01*
X126140218Y-59179512D01*
X126142124Y-59181297D01*
X126143984Y-59183098D01*
X129959883Y-62998996D01*
X129970428Y-63009541D01*
X129970429Y-63009543D01*
X129970430Y-63009543D01*
X129991929Y-63031043D01*
X129993721Y-63032895D01*
X129995426Y-63034716D01*
X129995498Y-63034793D01*
X129997213Y-63036686D01*
X130135273Y-63194112D01*
X130138515Y-63198063D01*
X130141679Y-63202186D01*
X130144681Y-63206375D01*
X130258833Y-63377217D01*
X130261560Y-63381601D01*
X130264143Y-63386074D01*
X130266583Y-63390639D01*
X130357461Y-63574921D01*
X130359598Y-63579638D01*
X130361574Y-63584410D01*
X130363391Y-63589240D01*
X130421187Y-63759499D01*
X130421187Y-63759502D01*
X130421188Y-63759502D01*
X130429439Y-63783810D01*
X130430937Y-63788749D01*
X130432273Y-63793737D01*
X130433444Y-63798757D01*
X130473530Y-64000284D01*
X130474371Y-64005379D01*
X130475045Y-64010496D01*
X130475553Y-64015646D01*
X130489246Y-64224554D01*
X130489373Y-64227132D01*
X130489458Y-64229724D01*
X130489500Y-64232313D01*
X130489500Y-79337685D01*
X130489458Y-79340274D01*
X130489373Y-79342866D01*
X130489246Y-79345444D01*
X130475553Y-79554352D01*
X130475045Y-79559502D01*
X130474371Y-79564619D01*
X130473530Y-79569714D01*
X130433447Y-79771225D01*
X130432271Y-79776269D01*
X130430929Y-79781275D01*
X130429430Y-79786213D01*
X130363392Y-79980754D01*
X130361572Y-79985591D01*
X130359593Y-79990369D01*
X130357459Y-79995079D01*
X130266583Y-80179359D01*
X130264143Y-80183924D01*
X130261560Y-80188397D01*
X130258833Y-80192781D01*
X130144680Y-80363624D01*
X130141668Y-80367827D01*
X130138528Y-80371919D01*
X130135259Y-80375902D01*
X130085767Y-80432337D01*
X129997208Y-80533318D01*
X129995490Y-80535214D01*
X129993721Y-80537104D01*
X129991906Y-80538980D01*
X129872245Y-80658641D01*
X129872242Y-80658644D01*
X129865257Y-80665628D01*
X129863977Y-80666908D01*
X129862123Y-80668702D01*
X129860217Y-80670487D01*
X129858305Y-80672220D01*
X129818505Y-80707124D01*
X129700901Y-80810260D01*
X129696918Y-80813529D01*
X129692826Y-80816669D01*
X129688623Y-80819681D01*
X129517781Y-80933833D01*
X129513397Y-80936560D01*
X129508924Y-80939143D01*
X129504359Y-80941583D01*
X129320070Y-81032464D01*
X129315365Y-81034596D01*
X129310605Y-81036568D01*
X129305763Y-81038390D01*
X129111204Y-81104434D01*
X129106262Y-81105934D01*
X129104100Y-81106513D01*
X129101269Y-81107271D01*
X129096241Y-81108444D01*
X128894714Y-81148530D01*
X128889619Y-81149371D01*
X128884502Y-81150045D01*
X128879352Y-81150553D01*
X128670444Y-81164246D01*
X128667866Y-81164373D01*
X128667524Y-81164384D01*
X128665262Y-81164458D01*
X128662685Y-81164500D01*
X128291882Y-81164500D01*
X128274002Y-81162450D01*
X128260109Y-81159222D01*
X128127626Y-81154987D01*
X128121389Y-81154540D01*
X128014158Y-81142575D01*
X128006709Y-81141381D01*
X127931287Y-81125569D01*
X127923204Y-81123422D01*
X127868289Y-81105675D01*
X127856485Y-81100774D01*
X127799385Y-81071443D01*
X127742418Y-81042180D01*
X127731896Y-81035687D01*
X127730404Y-81034596D01*
X127585111Y-80928388D01*
X127584701Y-80928087D01*
X127505636Y-80869392D01*
X127401523Y-80792102D01*
X127395311Y-80787708D01*
X127395290Y-80787693D01*
X127394418Y-80787106D01*
X127387929Y-80782952D01*
X127143673Y-80634477D01*
X127143643Y-80634459D01*
X127143626Y-80634449D01*
X127141642Y-80633281D01*
X127139557Y-80632054D01*
X127138891Y-80631675D01*
X127126892Y-80625102D01*
X127124607Y-80623575D01*
X127122383Y-80622745D01*
X127068194Y-80600299D01*
X126952748Y-80552480D01*
X126951118Y-80551736D01*
X126950167Y-80551410D01*
X126764601Y-80514500D01*
X126575399Y-80514500D01*
X126389831Y-80551410D01*
X126388877Y-80551737D01*
X126387239Y-80552484D01*
X126366854Y-80560929D01*
X126215035Y-80623813D01*
X126215034Y-80623814D01*
X126215027Y-80623818D01*
X126057719Y-80728927D01*
X126057709Y-80728936D01*
X126057698Y-80728946D01*
X125923946Y-80862698D01*
X125923936Y-80862709D01*
X125923927Y-80862719D01*
X125818818Y-81020027D01*
X125818814Y-81020034D01*
X125818813Y-81020035D01*
X125747488Y-81192233D01*
X125746737Y-81193877D01*
X125746410Y-81194831D01*
X125709500Y-81380399D01*
X125709500Y-81569599D01*
X125746410Y-81755167D01*
X125746738Y-81756123D01*
X125747485Y-81757760D01*
X125758975Y-81785498D01*
X125758975Y-81785500D01*
X125818814Y-81929963D01*
X125818816Y-81929967D01*
X125832705Y-81950754D01*
X125837625Y-81958117D01*
X125923927Y-82087279D01*
X125923936Y-82087289D01*
X125923946Y-82087300D01*
X126057705Y-82221059D01*
X126057710Y-82221063D01*
X126057711Y-82221064D01*
X126057717Y-82221069D01*
X126215033Y-82326184D01*
X126238181Y-82335772D01*
X126387239Y-82397514D01*
X126388874Y-82398259D01*
X126389829Y-82398586D01*
X126389830Y-82398587D01*
X126389832Y-82398588D01*
X126389834Y-82398588D01*
X126389836Y-82398589D01*
X126575399Y-82435500D01*
X126764601Y-82435500D01*
X126950162Y-82398589D01*
X126950162Y-82398588D01*
X126950167Y-82398588D01*
X126950169Y-82398587D01*
X126950174Y-82398584D01*
X126951122Y-82398260D01*
X126952736Y-82397523D01*
X127124967Y-82326184D01*
X127129590Y-82323094D01*
X127140257Y-82317695D01*
X127140057Y-82317279D01*
X127143550Y-82315602D01*
X127143555Y-82315601D01*
X127385433Y-82168759D01*
X127391914Y-82164615D01*
X127392812Y-82164011D01*
X127399036Y-82159613D01*
X127406707Y-82153924D01*
X127451131Y-82120975D01*
X127584835Y-82021809D01*
X127585035Y-82021660D01*
X127585039Y-82021660D01*
X127723144Y-81919548D01*
X127729174Y-81915507D01*
X127782973Y-81882934D01*
X127790239Y-81879039D01*
X127846388Y-81852605D01*
X127855070Y-81849129D01*
X127919803Y-81827580D01*
X127928497Y-81825228D01*
X128010221Y-81808072D01*
X128017824Y-81806862D01*
X128123509Y-81795297D01*
X128129582Y-81794870D01*
X128260011Y-81790774D01*
X128270902Y-81788339D01*
X128275099Y-81787402D01*
X128292329Y-81785500D01*
X128796326Y-81785500D01*
X128796328Y-81785500D01*
X129054206Y-81756445D01*
X129307209Y-81698698D01*
X129552156Y-81612988D01*
X129785966Y-81500391D01*
X130005699Y-81362323D01*
X130208592Y-81200522D01*
X130300343Y-81108771D01*
X130302182Y-81106932D01*
X130462675Y-80946439D01*
X130525521Y-80883593D01*
X130687322Y-80680700D01*
X130825390Y-80460967D01*
X130937987Y-80227157D01*
X131023698Y-79982210D01*
X131081445Y-79729206D01*
X131110500Y-79471328D01*
X131110500Y-79341573D01*
X131110500Y-79292395D01*
X131110500Y-64187549D01*
X131110500Y-64098672D01*
X131081445Y-63840794D01*
X131023698Y-63587791D01*
X130937988Y-63342844D01*
X130825391Y-63109034D01*
X130687323Y-62889301D01*
X130525522Y-62686408D01*
X130525513Y-62686398D01*
X130525506Y-62686391D01*
X130525499Y-62686383D01*
X130396470Y-62557354D01*
X130396447Y-62557333D01*
X130383465Y-62544352D01*
X130375857Y-62536744D01*
X130375857Y-62536743D01*
X130375856Y-62536743D01*
X126551439Y-58712325D01*
X126488593Y-58649479D01*
X126488592Y-58649478D01*
X126488591Y-58649477D01*
X126488583Y-58649470D01*
X126477440Y-58640585D01*
X126477437Y-58640580D01*
X126477436Y-58640582D01*
X126387146Y-58568578D01*
X126344042Y-58534204D01*
X126285700Y-58487678D01*
X126101882Y-58372177D01*
X126097797Y-58369610D01*
X126065965Y-58349608D01*
X125935146Y-58286610D01*
X125935146Y-58286609D01*
X125832155Y-58237012D01*
X125719054Y-58197436D01*
X125587210Y-58151302D01*
X125587204Y-58151300D01*
X125587198Y-58151298D01*
X125587196Y-58151298D01*
X125455855Y-58121320D01*
X125440518Y-58116117D01*
X125439064Y-58115450D01*
X125423993Y-58109420D01*
X125408926Y-58103391D01*
X125408918Y-58103388D01*
X125408914Y-58103387D01*
X125198832Y-58042426D01*
X125194398Y-58040997D01*
X125040482Y-57986309D01*
X125032584Y-57983010D01*
X124826848Y-57883678D01*
X124820816Y-57880436D01*
X124682754Y-57798331D01*
X124682430Y-57798138D01*
X124682406Y-57798123D01*
X124682303Y-57798062D01*
X124682286Y-57798052D01*
X124680491Y-57797005D01*
X124298406Y-57577196D01*
X124298399Y-57577193D01*
X124294778Y-57575592D01*
X124285205Y-57570549D01*
X124282468Y-57568858D01*
X124280994Y-57567910D01*
X124278697Y-57567053D01*
X124207793Y-57537684D01*
X124115586Y-57499491D01*
X124115582Y-57499490D01*
X124115578Y-57499489D01*
X124115567Y-57499486D01*
X124018598Y-57480198D01*
X123991307Y-57463637D01*
X123968624Y-57450540D01*
X123950144Y-57399759D01*
X123968629Y-57348980D01*
X123989640Y-57331350D01*
X123993651Y-57329034D01*
X124017728Y-57319973D01*
X124115582Y-57300510D01*
X124281283Y-57231875D01*
X124285110Y-57229317D01*
X124296660Y-57223463D01*
X124296516Y-57223163D01*
X124300008Y-57221485D01*
X124300017Y-57221482D01*
X124536526Y-57077826D01*
X124541248Y-57074816D01*
X124542547Y-57073988D01*
X124542562Y-57073978D01*
X124543400Y-57073418D01*
X124549225Y-57069342D01*
X124707912Y-56953139D01*
X124833213Y-56862356D01*
X124842819Y-56856397D01*
X124955662Y-56797163D01*
X124967871Y-56792012D01*
X125021648Y-56774474D01*
X125030223Y-56772203D01*
X125106143Y-56756613D01*
X125113604Y-56755451D01*
X125212279Y-56744908D01*
X125218243Y-56744499D01*
X125340111Y-56740769D01*
X125355255Y-56737392D01*
X125372445Y-56735500D01*
X127222685Y-56735500D01*
X127225231Y-56735540D01*
X127227896Y-56735627D01*
X127230398Y-56735750D01*
X127439380Y-56749447D01*
X127444487Y-56749950D01*
X127449631Y-56750628D01*
X127454683Y-56751462D01*
X127656243Y-56791555D01*
X127661244Y-56792720D01*
X127666281Y-56794069D01*
X127671183Y-56795557D01*
X127865767Y-56861611D01*
X127870596Y-56863428D01*
X127875375Y-56865408D01*
X127880078Y-56867539D01*
X128064365Y-56958419D01*
X128068919Y-56960853D01*
X128073394Y-56963436D01*
X128077774Y-56966160D01*
X128248639Y-57080329D01*
X128252807Y-57083316D01*
X128256939Y-57086486D01*
X128260884Y-57089723D01*
X128418329Y-57227800D01*
X128420218Y-57229512D01*
X128422124Y-57231297D01*
X128423984Y-57233098D01*
X131959883Y-60768996D01*
X131970428Y-60779541D01*
X131970429Y-60779543D01*
X131970430Y-60779543D01*
X131991929Y-60801043D01*
X131993721Y-60802895D01*
X131995426Y-60804716D01*
X131995498Y-60804793D01*
X131997213Y-60806686D01*
X132135273Y-60964112D01*
X132138515Y-60968063D01*
X132141679Y-60972186D01*
X132144674Y-60976366D01*
X132174071Y-61020361D01*
X132258833Y-61147217D01*
X132261560Y-61151601D01*
X132264143Y-61156074D01*
X132266583Y-61160639D01*
X132315465Y-61259762D01*
X132356882Y-61343748D01*
X132357461Y-61344921D01*
X132359598Y-61349638D01*
X132361574Y-61354410D01*
X132363391Y-61359240D01*
X132429434Y-61553794D01*
X132430934Y-61558736D01*
X132432273Y-61563735D01*
X132433444Y-61568757D01*
X132473530Y-61770284D01*
X132474371Y-61775379D01*
X132475045Y-61780496D01*
X132475553Y-61785646D01*
X132489246Y-61994554D01*
X132489373Y-61997132D01*
X132489458Y-61999724D01*
X132489500Y-62002313D01*
X132489500Y-81307685D01*
X132489458Y-81310274D01*
X132489373Y-81312866D01*
X132489246Y-81315444D01*
X132475553Y-81524352D01*
X132475045Y-81529502D01*
X132474371Y-81534619D01*
X132473530Y-81539714D01*
X132433447Y-81741225D01*
X132432271Y-81746269D01*
X132430929Y-81751275D01*
X132429430Y-81756213D01*
X132363392Y-81950754D01*
X132361572Y-81955591D01*
X132359593Y-81960369D01*
X132357459Y-81965079D01*
X132266583Y-82149359D01*
X132264143Y-82153924D01*
X132261560Y-82158397D01*
X132258833Y-82162781D01*
X132144680Y-82333624D01*
X132141668Y-82337827D01*
X132138528Y-82341919D01*
X132135259Y-82345902D01*
X132060660Y-82430966D01*
X131997219Y-82503306D01*
X131995486Y-82505218D01*
X131993701Y-82507124D01*
X131991903Y-82508982D01*
X131965753Y-82535133D01*
X131696386Y-82804500D01*
X131555542Y-82945344D01*
X131543985Y-82956901D01*
X131543977Y-82956909D01*
X131542119Y-82958707D01*
X131540229Y-82960477D01*
X131538323Y-82962203D01*
X131380901Y-83100260D01*
X131376918Y-83103529D01*
X131372826Y-83106669D01*
X131368623Y-83109681D01*
X131197781Y-83223833D01*
X131193397Y-83226560D01*
X131188924Y-83229143D01*
X131184359Y-83231583D01*
X131000070Y-83322464D01*
X130995365Y-83324596D01*
X130990605Y-83326568D01*
X130985763Y-83328390D01*
X130791204Y-83394434D01*
X130786262Y-83395934D01*
X130784100Y-83396513D01*
X130781269Y-83397271D01*
X130776241Y-83398444D01*
X130574714Y-83438530D01*
X130569619Y-83439371D01*
X130564502Y-83440045D01*
X130559352Y-83440553D01*
X130350444Y-83454246D01*
X130347866Y-83454373D01*
X130347524Y-83454384D01*
X130345262Y-83454458D01*
X130342685Y-83454500D01*
X128303360Y-83454500D01*
X128291909Y-83453470D01*
X128291891Y-83453612D01*
X128289970Y-83453360D01*
X128289968Y-83453360D01*
X128257785Y-83449147D01*
X128127626Y-83444987D01*
X128121389Y-83444540D01*
X128014158Y-83432575D01*
X128006709Y-83431381D01*
X127931287Y-83415569D01*
X127923204Y-83413422D01*
X127868289Y-83395675D01*
X127856485Y-83390774D01*
X127790872Y-83357070D01*
X127742418Y-83332180D01*
X127731896Y-83325687D01*
X127585047Y-83218341D01*
X127584666Y-83218062D01*
X127544487Y-83188234D01*
X127401731Y-83082256D01*
X127401699Y-83082233D01*
X127401679Y-83082218D01*
X127398438Y-83079874D01*
X127398394Y-83079843D01*
X127397961Y-83079538D01*
X127394858Y-83077404D01*
X127394857Y-83077403D01*
X127394826Y-83077382D01*
X127394396Y-83077094D01*
X127391402Y-83075131D01*
X127390984Y-83074863D01*
X127387756Y-83072849D01*
X127387743Y-83072841D01*
X127387706Y-83072818D01*
X127145396Y-82925526D01*
X127142972Y-82924401D01*
X127141432Y-82923686D01*
X127130811Y-82917721D01*
X127124967Y-82913816D01*
X127124966Y-82913815D01*
X127124603Y-82913573D01*
X127122386Y-82912746D01*
X127046222Y-82881198D01*
X126952748Y-82842480D01*
X126951118Y-82841736D01*
X126950167Y-82841410D01*
X126764601Y-82804500D01*
X126575399Y-82804500D01*
X126389831Y-82841410D01*
X126388877Y-82841737D01*
X126387239Y-82842484D01*
X126360401Y-82853602D01*
X126215035Y-82913813D01*
X126215034Y-82913814D01*
X126215027Y-82913818D01*
X126057719Y-83018927D01*
X126057709Y-83018936D01*
X126057698Y-83018946D01*
X125923946Y-83152698D01*
X125923936Y-83152709D01*
X125923927Y-83152719D01*
X125818818Y-83310027D01*
X125818814Y-83310034D01*
X125818813Y-83310035D01*
X125747488Y-83482233D01*
X125746737Y-83483877D01*
X125746410Y-83484831D01*
X125709500Y-83670399D01*
X125709500Y-83859599D01*
X125746410Y-84045167D01*
X125746736Y-84046118D01*
X125747480Y-84047748D01*
X125775100Y-84114427D01*
X125818813Y-84219963D01*
X125818814Y-84219964D01*
X125818818Y-84219971D01*
X125923927Y-84377279D01*
X125923936Y-84377289D01*
X125923946Y-84377300D01*
X126057705Y-84511059D01*
X126057710Y-84511063D01*
X126057711Y-84511064D01*
X126057717Y-84511069D01*
X126215033Y-84616184D01*
X126238332Y-84625835D01*
X126247984Y-84629833D01*
X126247985Y-84629833D01*
X126387251Y-84687518D01*
X126388875Y-84688260D01*
X126389829Y-84688586D01*
X126389830Y-84688587D01*
X126389832Y-84688588D01*
X126389834Y-84688588D01*
X126389836Y-84688589D01*
X126575399Y-84725500D01*
X126764601Y-84725500D01*
X126950162Y-84688589D01*
X126950162Y-84688588D01*
X126950167Y-84688588D01*
X126950169Y-84688587D01*
X126950174Y-84688584D01*
X126951122Y-84688260D01*
X126952736Y-84687523D01*
X127124967Y-84616184D01*
X127130488Y-84612494D01*
X127140209Y-84606952D01*
X127145537Y-84604396D01*
X127145542Y-84604393D01*
X127385202Y-84458898D01*
X127388462Y-84456867D01*
X127388925Y-84456571D01*
X127392220Y-84454409D01*
X127392667Y-84454108D01*
X127395863Y-84451900D01*
X127396298Y-84451592D01*
X127399252Y-84449451D01*
X127585507Y-84311308D01*
X127585631Y-84311225D01*
X127585629Y-84311222D01*
X127588524Y-84309081D01*
X127588527Y-84309080D01*
X127723143Y-84209549D01*
X127729163Y-84205514D01*
X127782985Y-84172928D01*
X127790228Y-84169044D01*
X127846399Y-84142600D01*
X127855091Y-84139120D01*
X127919786Y-84117584D01*
X127928485Y-84115231D01*
X128010224Y-84098073D01*
X128017836Y-84096860D01*
X128123504Y-84085298D01*
X128129573Y-84084871D01*
X128257780Y-84080844D01*
X128288661Y-84076946D01*
X128288681Y-84076941D01*
X128290227Y-84076673D01*
X128303791Y-84075500D01*
X130476326Y-84075500D01*
X130476328Y-84075500D01*
X130734206Y-84046445D01*
X130987209Y-83988698D01*
X131232156Y-83902988D01*
X131465966Y-83790391D01*
X131685699Y-83652323D01*
X131888592Y-83490522D01*
X131980343Y-83398771D01*
X131982452Y-83396661D01*
X132403050Y-82976062D01*
X132433770Y-82945344D01*
X132525521Y-82853593D01*
X132687322Y-82650700D01*
X132825390Y-82430967D01*
X132937987Y-82197157D01*
X133023698Y-81952210D01*
X133081445Y-81699206D01*
X133110500Y-81441328D01*
X133110500Y-81311573D01*
X133110500Y-81262395D01*
X133110500Y-61957549D01*
X133110500Y-61868672D01*
X133081445Y-61610794D01*
X133023698Y-61357791D01*
X132937988Y-61112844D01*
X132825391Y-60879034D01*
X132687323Y-60659301D01*
X132525522Y-60456408D01*
X132525513Y-60456398D01*
X132525499Y-60456383D01*
X132396470Y-60327354D01*
X132396447Y-60327333D01*
X132382603Y-60313490D01*
X132375857Y-60306744D01*
X132375857Y-60306743D01*
X132375856Y-60306743D01*
X128831439Y-56762325D01*
X128768593Y-56699479D01*
X128688365Y-56635500D01*
X128604831Y-56568884D01*
X128594587Y-56552120D01*
X128569140Y-56539397D01*
X128562439Y-56535629D01*
X128397886Y-56432233D01*
X128345962Y-56399606D01*
X128257322Y-56356921D01*
X128257322Y-56356920D01*
X128257320Y-56356920D01*
X128112161Y-56287014D01*
X128112156Y-56287012D01*
X127952920Y-56231293D01*
X127867210Y-56201302D01*
X127867204Y-56201300D01*
X127867202Y-56201299D01*
X127867198Y-56201298D01*
X127679246Y-56158399D01*
X127665149Y-56149294D01*
X127430007Y-56122801D01*
X127430007Y-56122800D01*
X127363787Y-56115340D01*
X127356328Y-56114500D01*
X127356327Y-56114500D01*
X125372213Y-56114500D01*
X125367503Y-56114359D01*
X125360806Y-56113959D01*
X125340466Y-56109218D01*
X125210346Y-56104972D01*
X125209247Y-56104907D01*
X125209085Y-56104837D01*
X125204941Y-56104532D01*
X125102036Y-56092710D01*
X125094297Y-56091429D01*
X125023646Y-56076096D01*
X125015308Y-56073801D01*
X124964544Y-56056786D01*
X124952632Y-56051671D01*
X124840847Y-55992368D01*
X124831487Y-55986528D01*
X124708043Y-55896955D01*
X124707903Y-55896854D01*
X124636210Y-55844592D01*
X124537237Y-55772444D01*
X124537230Y-55772439D01*
X124531310Y-55768318D01*
X124530511Y-55767787D01*
X124524420Y-55763928D01*
X124487829Y-55741841D01*
X124440738Y-55713417D01*
X124406816Y-55671353D01*
X124407868Y-55617324D01*
X124424133Y-55591538D01*
X124425989Y-55589574D01*
X124447540Y-55573444D01*
X124505144Y-55544094D01*
X124540125Y-55518678D01*
X124540124Y-55518677D01*
X124540125Y-55518677D01*
X124064681Y-55043233D01*
X124041843Y-54994257D01*
X124055829Y-54942059D01*
X124081039Y-54918958D01*
X124157006Y-54875099D01*
X124250098Y-54782007D01*
X124293956Y-54706041D01*
X124335351Y-54671307D01*
X124389390Y-54671307D01*
X124418232Y-54689682D01*
X124893676Y-55165126D01*
X124893676Y-55165125D01*
X124893677Y-55165126D01*
X124919093Y-55130145D01*
X125008419Y-54954831D01*
X125069219Y-54767711D01*
X125069220Y-54767708D01*
X125099997Y-54573388D01*
X125099999Y-54573372D01*
X125099999Y-54376627D01*
X125099997Y-54376611D01*
X125095083Y-54345588D01*
X125089581Y-54310848D01*
X125069220Y-54182291D01*
X125069219Y-54182288D01*
X125008419Y-53995168D01*
X124919096Y-53819859D01*
X124893677Y-53784872D01*
X124893676Y-53784871D01*
X124418232Y-54260316D01*
X124369256Y-54283154D01*
X124317058Y-54269168D01*
X124293955Y-54243955D01*
X124258351Y-54182288D01*
X124250098Y-54167993D01*
X124250097Y-54167992D01*
X124250096Y-54167990D01*
X124157008Y-54074902D01*
X124081040Y-54031042D01*
X124046304Y-53989645D01*
X124046304Y-53935606D01*
X124064675Y-53906769D01*
X124540125Y-53431320D01*
X124505142Y-53405904D01*
X124505130Y-53405897D01*
X124503380Y-53405005D01*
X124447781Y-53376675D01*
X124425873Y-53360167D01*
X124419534Y-53353370D01*
X124398416Y-53303628D01*
X124413906Y-53252360D01*
X124420966Y-53242862D01*
X124428498Y-53234142D01*
X124430405Y-53232234D01*
X124430409Y-53232232D01*
X124557231Y-53105410D01*
X124567164Y-53090545D01*
X124582385Y-53067764D01*
X124656874Y-52956284D01*
X124725509Y-52790583D01*
X124760499Y-52614676D01*
X124760499Y-52435324D01*
X124725509Y-52259417D01*
X124656874Y-52093716D01*
X124557231Y-51944590D01*
X124557226Y-51944584D01*
X124557225Y-51944583D01*
X124557221Y-51944578D01*
X124430426Y-51817783D01*
X124430415Y-51817773D01*
X124430405Y-51817764D01*
X124287758Y-51722451D01*
X124287758Y-51722452D01*
X124281284Y-51718126D01*
X124281283Y-51718125D01*
X124281280Y-51718124D01*
X124281279Y-51718123D01*
X124281276Y-51718122D01*
X124280916Y-51717881D01*
X124278697Y-51717053D01*
X124207793Y-51687684D01*
X124115586Y-51649491D01*
X124115582Y-51649490D01*
X124115578Y-51649489D01*
X124115567Y-51649486D01*
X124018598Y-51630198D01*
X123991307Y-51613637D01*
X123968624Y-51600540D01*
X123950144Y-51549759D01*
X123968629Y-51498980D01*
X123989640Y-51481350D01*
X123993651Y-51479034D01*
X124017728Y-51469973D01*
X124115582Y-51450510D01*
X124281283Y-51381875D01*
X124430409Y-51282232D01*
X124557231Y-51155410D01*
X124656874Y-51006284D01*
X124725509Y-50840583D01*
X124760499Y-50664676D01*
X124760499Y-50485324D01*
X124725509Y-50309417D01*
X124656874Y-50143716D01*
X124557231Y-49994590D01*
X124557226Y-49994584D01*
X124557224Y-49994582D01*
X124557221Y-49994578D01*
X124430426Y-49867783D01*
X124430415Y-49867773D01*
X124430405Y-49867764D01*
X124287758Y-49772451D01*
X124287758Y-49772452D01*
X124281284Y-49768126D01*
X124281283Y-49768125D01*
X124281280Y-49768124D01*
X124281279Y-49768123D01*
X124281276Y-49768122D01*
X124280916Y-49767881D01*
X124278697Y-49767053D01*
X124207793Y-49737684D01*
X124115586Y-49699491D01*
X124115582Y-49699490D01*
X124115578Y-49699489D01*
X124115568Y-49699486D01*
X123939675Y-49664500D01*
X123760323Y-49664500D01*
X123584433Y-49699485D01*
X123584414Y-49699490D01*
X123584412Y-49699490D01*
X123584411Y-49699491D01*
X123576968Y-49702574D01*
X123418721Y-49768121D01*
X123418718Y-49768122D01*
X123418716Y-49768123D01*
X123418710Y-49768127D01*
X123269591Y-49867764D01*
X123269581Y-49867773D01*
X123269570Y-49867783D01*
X123142782Y-49994571D01*
X123142772Y-49994582D01*
X123142763Y-49994592D01*
X123043126Y-50143711D01*
X123043122Y-50143717D01*
X123043121Y-50143719D01*
X123043120Y-50143722D01*
X122974489Y-50309415D01*
X122974484Y-50309434D01*
X122939499Y-50485324D01*
X122939499Y-50664674D01*
X122974484Y-50840564D01*
X122974489Y-50840583D01*
X122974490Y-50840587D01*
X122991118Y-50880730D01*
X123043120Y-51006276D01*
X123043121Y-51006279D01*
X123043122Y-51006281D01*
X123043126Y-51006287D01*
X123142763Y-51155406D01*
X123142772Y-51155416D01*
X123142782Y-51155427D01*
X123269577Y-51282222D01*
X123269582Y-51282226D01*
X123269583Y-51282227D01*
X123269589Y-51282232D01*
X123418715Y-51381875D01*
X123535844Y-51430391D01*
X123575684Y-51466898D01*
X123582737Y-51520474D01*
X123553702Y-51566051D01*
X123502373Y-51582310D01*
X123384539Y-51577477D01*
X123384518Y-51577476D01*
X123384483Y-51577475D01*
X123379889Y-51577351D01*
X123379285Y-51577344D01*
X123374922Y-51577344D01*
X123079977Y-51581301D01*
X123079618Y-51581305D01*
X122530089Y-51586181D01*
X122521420Y-51587934D01*
X122505768Y-51589500D01*
X122437450Y-51589500D01*
X121691121Y-51589500D01*
X121661107Y-51578576D01*
X121636313Y-51570156D01*
X121608286Y-51523953D01*
X121616514Y-51470544D01*
X121633686Y-51449153D01*
X121637164Y-51446103D01*
X121659010Y-51432522D01*
X121659829Y-51432183D01*
X121668149Y-51428736D01*
X121714534Y-51409523D01*
X121714535Y-51409522D01*
X121781278Y-51381877D01*
X121781277Y-51381877D01*
X121781283Y-51381875D01*
X121930409Y-51282232D01*
X122057231Y-51155410D01*
X122156874Y-51006284D01*
X122225509Y-50840583D01*
X122260499Y-50664676D01*
X122260499Y-50485324D01*
X122225509Y-50309417D01*
X122156874Y-50143716D01*
X122057231Y-49994590D01*
X122057226Y-49994584D01*
X122057224Y-49994582D01*
X122057221Y-49994578D01*
X121930426Y-49867783D01*
X121930415Y-49867773D01*
X121930405Y-49867764D01*
X121787758Y-49772451D01*
X121787758Y-49772452D01*
X121781284Y-49768126D01*
X121781283Y-49768125D01*
X121781280Y-49768124D01*
X121781279Y-49768123D01*
X121781276Y-49768122D01*
X121780916Y-49767881D01*
X121778697Y-49767053D01*
X121707793Y-49737684D01*
X121615586Y-49699491D01*
X121615582Y-49699490D01*
X121615578Y-49699489D01*
X121615568Y-49699486D01*
X121439675Y-49664500D01*
X121260323Y-49664500D01*
X121084433Y-49699485D01*
X121084414Y-49699490D01*
X121084412Y-49699490D01*
X121084411Y-49699491D01*
X121076968Y-49702574D01*
X120918721Y-49768121D01*
X120918718Y-49768122D01*
X120918716Y-49768123D01*
X120918710Y-49768127D01*
X120769591Y-49867764D01*
X120769581Y-49867773D01*
X120769570Y-49867783D01*
X120642782Y-49994571D01*
X120642772Y-49994582D01*
X120642763Y-49994592D01*
X120543126Y-50143711D01*
X120543122Y-50143717D01*
X120543121Y-50143719D01*
X120543120Y-50143722D01*
X120474489Y-50309415D01*
X120474484Y-50309434D01*
X120439499Y-50485324D01*
X120439499Y-50664674D01*
X120474484Y-50840564D01*
X120474489Y-50840583D01*
X120474490Y-50840587D01*
X120491118Y-50880730D01*
X120543120Y-51006276D01*
X120543121Y-51006279D01*
X120543122Y-51006281D01*
X120543126Y-51006287D01*
X120642763Y-51155406D01*
X120642772Y-51155416D01*
X120642782Y-51155427D01*
X120769577Y-51282222D01*
X120769582Y-51282226D01*
X120769583Y-51282227D01*
X120769589Y-51282232D01*
X120918715Y-51381875D01*
X120918721Y-51381877D01*
X120918722Y-51381878D01*
X120954620Y-51396747D01*
X120954621Y-51396747D01*
X120954623Y-51396748D01*
X121040171Y-51432184D01*
X121063300Y-51446916D01*
X121067504Y-51450769D01*
X121092459Y-51498698D01*
X121080768Y-51551457D01*
X121039533Y-51583822D01*
X121035162Y-51585306D01*
X121009765Y-51589500D01*
X117952605Y-51589500D01*
X117903427Y-51589500D01*
X117773672Y-51589500D01*
X117766898Y-51590263D01*
X117699991Y-51597800D01*
X117699992Y-51597801D01*
X117515786Y-51618555D01*
X117262800Y-51676298D01*
X117262789Y-51676302D01*
X117022032Y-51760546D01*
X117022020Y-51760551D01*
X117017848Y-51762011D01*
X117017846Y-51762011D01*
X117017843Y-51762013D01*
X117011377Y-51765126D01*
X117011358Y-51765135D01*
X116964381Y-51787759D01*
X116964379Y-51787760D01*
X116784036Y-51874606D01*
X116564293Y-52012682D01*
X116564291Y-52012683D01*
X116355059Y-52179538D01*
X116351914Y-52183972D01*
X116298561Y-52237325D01*
X115865318Y-52670568D01*
X115856229Y-52679657D01*
X115832247Y-52703639D01*
X115764478Y-52771407D01*
X115764477Y-52771408D01*
X115709925Y-52839814D01*
X115602677Y-52974299D01*
X115493803Y-53147571D01*
X115468909Y-53166920D01*
X115452272Y-53182938D01*
X115398359Y-53186624D01*
X115354689Y-53154793D01*
X115343570Y-53129717D01*
X115342816Y-53126678D01*
X115340500Y-53107686D01*
X115340500Y-49528031D01*
X129349500Y-49528031D01*
X129349500Y-49871967D01*
X129383209Y-50214240D01*
X129450308Y-50551573D01*
X129550147Y-50880700D01*
X129550148Y-50880701D01*
X129550162Y-50880740D01*
X129681244Y-51197196D01*
X129681576Y-51198037D01*
X129681767Y-51198460D01*
X129843387Y-51500829D01*
X129843750Y-51501530D01*
X129843905Y-51501797D01*
X130017776Y-51762013D01*
X130034975Y-51787753D01*
X130253166Y-52053621D01*
X130253185Y-52053641D01*
X130496358Y-52296814D01*
X130496378Y-52296833D01*
X130762246Y-52515024D01*
X131048207Y-52706097D01*
X131048213Y-52706100D01*
X131048462Y-52706245D01*
X131049169Y-52706611D01*
X131298403Y-52839830D01*
X131351528Y-52868226D01*
X131351530Y-52868227D01*
X131351538Y-52868231D01*
X131422557Y-52897647D01*
X131474414Y-52919128D01*
X131474417Y-52919128D01*
X131474418Y-52919129D01*
X131549178Y-52950096D01*
X131668073Y-52999345D01*
X131669274Y-52999842D01*
X131669289Y-52999847D01*
X131669295Y-52999850D01*
X131998422Y-53099690D01*
X132335750Y-53166789D01*
X132678031Y-53200500D01*
X132678032Y-53200500D01*
X133021968Y-53200500D01*
X133021969Y-53200500D01*
X133364250Y-53166789D01*
X133701578Y-53099690D01*
X134030705Y-52999850D01*
X134030722Y-52999842D01*
X134030730Y-52999840D01*
X134135892Y-52956280D01*
X134348462Y-52868231D01*
X134651787Y-52706100D01*
X134651788Y-52706098D01*
X134651790Y-52706097D01*
X134651792Y-52706097D01*
X134651794Y-52706095D01*
X134652128Y-52705917D01*
X134653370Y-52705042D01*
X134937753Y-52515024D01*
X134937755Y-52515022D01*
X134937760Y-52515019D01*
X135183717Y-52313168D01*
X135203621Y-52296833D01*
X135203621Y-52296832D01*
X135203627Y-52296828D01*
X135446828Y-52053627D01*
X135665019Y-51787760D01*
X135665024Y-51787753D01*
X135856097Y-51501792D01*
X135856098Y-51501789D01*
X135856100Y-51501787D01*
X135856104Y-51501777D01*
X135856219Y-51501607D01*
X135856746Y-51500578D01*
X135858171Y-51497912D01*
X136018231Y-51198462D01*
X136149850Y-50880705D01*
X136249690Y-50551578D01*
X136316789Y-50214250D01*
X136350500Y-49871969D01*
X136350500Y-49528031D01*
X136316789Y-49185750D01*
X136249690Y-48848422D01*
X136149854Y-48519307D01*
X136149851Y-48519298D01*
X136149850Y-48519295D01*
X136149845Y-48519284D01*
X136149840Y-48519269D01*
X136149836Y-48519260D01*
X136149684Y-48518856D01*
X136149348Y-48518082D01*
X136018743Y-48202777D01*
X136018417Y-48201949D01*
X136018229Y-48201534D01*
X135856611Y-47899169D01*
X135856245Y-47898462D01*
X135856100Y-47898213D01*
X135856097Y-47898207D01*
X135665024Y-47612246D01*
X135446833Y-47346378D01*
X135446814Y-47346358D01*
X135203641Y-47103185D01*
X135203621Y-47103166D01*
X134937753Y-46884975D01*
X134826310Y-46810511D01*
X134651797Y-46693905D01*
X134651530Y-46693750D01*
X134650829Y-46693387D01*
X134348460Y-46531767D01*
X134348037Y-46531576D01*
X134347196Y-46531244D01*
X134030740Y-46400162D01*
X134030701Y-46400148D01*
X134030700Y-46400147D01*
X133790858Y-46327393D01*
X133750473Y-46315142D01*
X133702611Y-46300623D01*
X133701506Y-46300271D01*
X133700192Y-46300034D01*
X133364240Y-46233209D01*
X133077592Y-46204978D01*
X133069804Y-46204211D01*
X133021969Y-46199500D01*
X133021968Y-46199500D01*
X132678031Y-46199500D01*
X132630182Y-46204211D01*
X132630183Y-46204212D01*
X132335758Y-46233209D01*
X131998425Y-46300308D01*
X131669298Y-46400147D01*
X131669297Y-46400148D01*
X131669258Y-46400162D01*
X131352802Y-46531244D01*
X131351962Y-46531575D01*
X131351538Y-46531767D01*
X131049169Y-46693387D01*
X131048479Y-46693743D01*
X131048201Y-46693905D01*
X130762252Y-46884970D01*
X130496387Y-47103158D01*
X130496340Y-47103202D01*
X130253202Y-47346340D01*
X130253158Y-47346387D01*
X130034970Y-47612252D01*
X129843905Y-47898201D01*
X129843743Y-47898479D01*
X129843387Y-47899169D01*
X129681770Y-48201534D01*
X129681575Y-48201962D01*
X129681244Y-48202802D01*
X129550162Y-48519258D01*
X129550148Y-48519297D01*
X129550147Y-48519298D01*
X129450308Y-48848425D01*
X129383209Y-49185758D01*
X129349500Y-49528031D01*
X115340500Y-49528031D01*
X115340500Y-47083658D01*
X117239499Y-47083658D01*
X117239499Y-47266340D01*
X117268070Y-47446728D01*
X117268076Y-47446755D01*
X117268081Y-47446773D01*
X117324515Y-47620457D01*
X117324527Y-47620490D01*
X117324530Y-47620497D01*
X117403332Y-47775151D01*
X117407451Y-47783234D01*
X117407455Y-47783240D01*
X117407463Y-47783251D01*
X117490857Y-47898034D01*
X117490957Y-47898170D01*
X117490988Y-47898213D01*
X117514820Y-47931015D01*
X117514824Y-47931019D01*
X117514829Y-47931025D01*
X117515679Y-47931875D01*
X117515682Y-47931879D01*
X117643957Y-48060154D01*
X117643993Y-48060187D01*
X117644290Y-48060401D01*
X117782860Y-48161079D01*
X117782861Y-48161079D01*
X117782862Y-48161080D01*
X117791765Y-48167548D01*
X117858470Y-48201536D01*
X117927145Y-48236528D01*
X117952841Y-48249621D01*
X117954201Y-48250355D01*
X117954504Y-48250468D01*
X117954511Y-48250472D01*
X117954515Y-48250473D01*
X117954522Y-48250477D01*
X117954556Y-48250488D01*
X117955650Y-48250898D01*
X117957090Y-48251311D01*
X118128248Y-48306924D01*
X118308666Y-48335500D01*
X118308671Y-48335500D01*
X119991327Y-48335500D01*
X119991332Y-48335500D01*
X120171750Y-48306924D01*
X120345476Y-48250477D01*
X120345716Y-48250355D01*
X120372852Y-48236528D01*
X120508233Y-48167548D01*
X120656014Y-48060179D01*
X120785178Y-47931015D01*
X120892547Y-47783234D01*
X120975476Y-47620477D01*
X121031923Y-47446751D01*
X121060499Y-47266333D01*
X121060499Y-47083667D01*
X121031923Y-46903249D01*
X120975476Y-46729523D01*
X120975472Y-46729516D01*
X120975471Y-46729512D01*
X120892546Y-46566765D01*
X120892542Y-46566759D01*
X120892540Y-46566755D01*
X120892534Y-46566746D01*
X120818703Y-46465129D01*
X120785183Y-46418992D01*
X120785178Y-46418985D01*
X120785173Y-46418980D01*
X120785168Y-46418974D01*
X120784848Y-46418654D01*
X120784845Y-46418650D01*
X120656035Y-46289840D01*
X120656014Y-46289821D01*
X120655991Y-46289804D01*
X120508251Y-46182463D01*
X120508242Y-46182457D01*
X120508227Y-46182449D01*
X120345496Y-46099531D01*
X120345489Y-46099528D01*
X120345456Y-46099516D01*
X120171772Y-46043082D01*
X120171754Y-46043077D01*
X120171749Y-46043076D01*
X120171741Y-46043074D01*
X120171739Y-46043073D01*
X120171727Y-46043071D01*
X119992921Y-46014751D01*
X119991740Y-46014539D01*
X119991340Y-46014500D01*
X119991336Y-46014500D01*
X119991332Y-46014500D01*
X118308666Y-46014500D01*
X118308662Y-46014500D01*
X118308659Y-46014500D01*
X118308638Y-46014501D01*
X118308310Y-46014555D01*
X118128268Y-46043071D01*
X118128242Y-46043077D01*
X118128224Y-46043082D01*
X117954540Y-46099516D01*
X117954507Y-46099528D01*
X117954500Y-46099531D01*
X117791769Y-46182449D01*
X117791754Y-46182457D01*
X117791745Y-46182463D01*
X117643991Y-46289814D01*
X117643983Y-46289821D01*
X117643969Y-46289832D01*
X117514831Y-46418970D01*
X117514820Y-46418984D01*
X117514813Y-46418992D01*
X117407462Y-46566746D01*
X117407456Y-46566755D01*
X117407448Y-46566770D01*
X117324530Y-46729501D01*
X117324527Y-46729508D01*
X117324515Y-46729541D01*
X117268081Y-46903225D01*
X117268076Y-46903243D01*
X117268070Y-46903270D01*
X117239499Y-47083658D01*
X115340500Y-47083658D01*
X115340500Y-46692761D01*
X115340550Y-46689961D01*
X115340650Y-46687141D01*
X115340799Y-46684339D01*
X115349208Y-46566765D01*
X115354329Y-46495148D01*
X115354928Y-46489576D01*
X115355728Y-46484012D01*
X115356723Y-46478494D01*
X115398620Y-46285899D01*
X115400007Y-46280469D01*
X115401599Y-46275045D01*
X115403368Y-46269733D01*
X115472236Y-46085088D01*
X115474378Y-46079916D01*
X115476724Y-46074780D01*
X115479240Y-46069757D01*
X115511224Y-46011181D01*
X115573681Y-45896798D01*
X115576546Y-45891970D01*
X115579605Y-45887211D01*
X115582807Y-45882602D01*
X115640081Y-45806093D01*
X115700898Y-45724848D01*
X115704422Y-45720476D01*
X115708123Y-45716206D01*
X115711930Y-45712117D01*
X115851285Y-45572762D01*
X115855374Y-45568955D01*
X115859644Y-45565254D01*
X115864020Y-45561728D01*
X116021790Y-45443623D01*
X116026394Y-45440427D01*
X116031144Y-45437376D01*
X116035981Y-45434507D01*
X116184309Y-45353513D01*
X116208929Y-45340069D01*
X116213937Y-45337561D01*
X116219095Y-45335206D01*
X116224256Y-45333068D01*
X116408901Y-45264200D01*
X116414213Y-45262431D01*
X116419637Y-45260839D01*
X116425067Y-45259452D01*
X116617662Y-45217555D01*
X116623171Y-45216561D01*
X116628753Y-45215759D01*
X116634311Y-45215161D01*
X116814662Y-45202263D01*
X116835157Y-45200798D01*
X116837886Y-45200652D01*
X116840779Y-45200548D01*
X116843564Y-45200500D01*
X132847413Y-45200500D01*
X132849099Y-45200518D01*
G37*
%TD.AperFunction*%
%TD*%
%TA.AperFunction,Conductor*%
%TO.N,Net-(P1-ID1{slash}SDA)*%
G36*
X121350086Y-80714159D02*
G01*
X121358294Y-80717728D01*
X121359254Y-80718723D01*
X121360753Y-80722535D01*
X121361070Y-80722439D01*
X121362303Y-80726476D01*
X121362531Y-80727056D01*
X121362501Y-80727124D01*
X121517645Y-81235102D01*
X121517649Y-81235116D01*
X121588292Y-81467385D01*
X121588742Y-81471931D01*
X121588403Y-81475389D01*
X121585794Y-81481681D01*
X121091306Y-82082685D01*
X121087771Y-82085578D01*
X121086162Y-82086435D01*
X121077319Y-82087320D01*
X121075662Y-82086826D01*
X121071682Y-82084739D01*
X120692301Y-81780308D01*
X120410665Y-81568076D01*
X120410661Y-81568075D01*
X120276668Y-81467158D01*
X119980679Y-81244231D01*
X119977638Y-81240824D01*
X119976733Y-81239288D01*
X119975485Y-81230424D01*
X119975916Y-81228755D01*
X119977960Y-81224561D01*
X120143921Y-81008271D01*
X120147352Y-81005263D01*
X120149085Y-81004263D01*
X120157596Y-81003003D01*
X120159052Y-81003343D01*
X120162900Y-81005016D01*
X120165006Y-81006427D01*
X120263279Y-81072274D01*
X120362902Y-81117313D01*
X120453470Y-81136423D01*
X120537568Y-81133188D01*
X120617782Y-81111191D01*
X120669083Y-81087022D01*
X120696685Y-81074020D01*
X120696685Y-81074019D01*
X120696718Y-81074004D01*
X120696830Y-81073928D01*
X120860973Y-80968454D01*
X120960622Y-80901272D01*
X120960893Y-80901096D01*
X120961275Y-80900858D01*
X120961553Y-80900691D01*
X121155386Y-80789282D01*
X121156096Y-80788907D01*
X121156916Y-80788513D01*
X121157640Y-80788198D01*
X121343818Y-80714938D01*
X121348301Y-80714128D01*
X121350086Y-80714159D01*
G37*
%TD.AperFunction*%
%TD*%
%TA.AperFunction,Conductor*%
%TO.N,Net-(P1-ID1{slash}SDA)*%
G36*
X120779294Y-53306617D02*
G01*
X120779462Y-53306752D01*
X121345755Y-53770236D01*
X121349987Y-53778128D01*
X121349988Y-53780445D01*
X121277743Y-54508713D01*
X121273516Y-54516607D01*
X121264945Y-54519201D01*
X121263962Y-54519061D01*
X121150269Y-54497929D01*
X121148523Y-54497462D01*
X121037275Y-54458308D01*
X121035735Y-54457639D01*
X120844566Y-54357616D01*
X120844292Y-54357468D01*
X120790067Y-54327230D01*
X120748006Y-54303776D01*
X120641330Y-54262180D01*
X120554420Y-54258922D01*
X120510897Y-54271878D01*
X120466712Y-54296368D01*
X120466706Y-54296372D01*
X120416112Y-54338947D01*
X120416108Y-54338951D01*
X120370735Y-54391154D01*
X120362721Y-54395150D01*
X120354782Y-54392761D01*
X120343876Y-54384393D01*
X120134535Y-54223762D01*
X120130058Y-54216008D01*
X120132180Y-54207621D01*
X120309899Y-53962161D01*
X120427022Y-53778759D01*
X120528085Y-53620075D01*
X120528354Y-53619676D01*
X120627670Y-53480113D01*
X120627984Y-53479695D01*
X120762865Y-53308562D01*
X120770676Y-53304187D01*
X120779294Y-53306617D01*
G37*
%TD.AperFunction*%
%TD*%
%TA.AperFunction,Conductor*%
%TO.N,GNDD*%
G36*
X127027195Y-75415994D02*
G01*
X127030605Y-75423628D01*
X127035573Y-75514454D01*
X127050491Y-75591857D01*
X127097571Y-75709311D01*
X127139132Y-75805357D01*
X127139617Y-75806696D01*
X127160489Y-75877537D01*
X127160779Y-75878762D01*
X127175255Y-75958802D01*
X127173355Y-75967553D01*
X127165824Y-75972397D01*
X127165307Y-75972479D01*
X126881565Y-76010788D01*
X126878435Y-76010788D01*
X126595211Y-75972549D01*
X126587470Y-75968046D01*
X126585181Y-75959389D01*
X126585356Y-75958412D01*
X126617471Y-75815306D01*
X126618116Y-75813301D01*
X126662345Y-75709504D01*
X126662515Y-75709127D01*
X126669558Y-75694433D01*
X126712722Y-75579491D01*
X126725340Y-75506526D01*
X126729448Y-75423685D01*
X126733281Y-75415594D01*
X126741134Y-75412567D01*
X127018922Y-75412567D01*
X127027195Y-75415994D01*
G37*
%TD.AperFunction*%
%TD*%
%TA.AperFunction,Conductor*%
%TO.N,GNDD*%
G36*
X122874602Y-64109950D02*
G01*
X122880914Y-64116302D01*
X122881169Y-64116982D01*
X122938345Y-64285250D01*
X122938513Y-64285787D01*
X122945914Y-64311580D01*
X122945916Y-64311586D01*
X122945917Y-64311588D01*
X122989230Y-64420331D01*
X123033279Y-64484266D01*
X123033281Y-64484268D01*
X123095996Y-64553127D01*
X123099033Y-64561551D01*
X123095619Y-64569278D01*
X122898999Y-64765898D01*
X122890726Y-64769325D01*
X122883164Y-64766553D01*
X122882391Y-64765898D01*
X122751275Y-64654834D01*
X122733626Y-64645154D01*
X122639903Y-64593747D01*
X122580729Y-64564211D01*
X122579573Y-64563550D01*
X122427936Y-64464880D01*
X122422870Y-64457495D01*
X122424510Y-64448692D01*
X122424999Y-64447997D01*
X122597370Y-64221816D01*
X122602229Y-64218087D01*
X122865649Y-64109923D01*
X122874602Y-64109950D01*
G37*
%TD.AperFunction*%
%TD*%
%TA.AperFunction,Conductor*%
%TO.N,GNDD*%
G36*
X126434925Y-87584257D02*
G01*
X126441153Y-87590692D01*
X126441465Y-87591586D01*
X126669040Y-88339500D01*
X126668170Y-88348413D01*
X126666882Y-88350340D01*
X126169836Y-88954472D01*
X126161933Y-88958683D01*
X126153468Y-88956155D01*
X125888077Y-88742686D01*
X125689041Y-88596190D01*
X125689034Y-88596185D01*
X125689023Y-88596177D01*
X125689016Y-88596173D01*
X125689011Y-88596169D01*
X125613724Y-88548300D01*
X125503252Y-88478061D01*
X125278886Y-88348413D01*
X125268728Y-88342543D01*
X125051480Y-88218041D01*
X125046006Y-88210954D01*
X125047147Y-88202072D01*
X125185787Y-87961934D01*
X125192892Y-87956484D01*
X125201146Y-87957316D01*
X125313598Y-88013470D01*
X125420781Y-88047743D01*
X125420784Y-88047744D01*
X125515816Y-88058435D01*
X125590563Y-88050008D01*
X125601651Y-88048759D01*
X125601652Y-88048759D01*
X125601652Y-88048758D01*
X125601659Y-88048758D01*
X125681278Y-88021931D01*
X125757637Y-87981169D01*
X125912433Y-87870706D01*
X126052054Y-87768301D01*
X126052985Y-87767686D01*
X126236644Y-87659088D01*
X126238287Y-87658284D01*
X126425972Y-87584111D01*
X126434925Y-87584257D01*
G37*
%TD.AperFunction*%
%TD*%
%TA.AperFunction,Conductor*%
%TO.N,GNDD*%
G36*
X124840283Y-86833612D02*
G01*
X124840647Y-86834357D01*
X124912701Y-86996140D01*
X124913262Y-86997683D01*
X124958881Y-87157203D01*
X124959173Y-87158499D01*
X124983729Y-87306051D01*
X124983831Y-87306815D01*
X124997403Y-87443430D01*
X125018266Y-87623414D01*
X125056372Y-87756410D01*
X125056374Y-87756415D01*
X125122755Y-87865079D01*
X125122757Y-87865081D01*
X125171839Y-87915915D01*
X125233647Y-87964397D01*
X125315934Y-88013896D01*
X125382909Y-88045153D01*
X125406644Y-88056231D01*
X125412692Y-88062835D01*
X125412505Y-88071310D01*
X125306351Y-88327594D01*
X125300019Y-88333926D01*
X125291344Y-88334038D01*
X125049514Y-88241081D01*
X125049496Y-88241075D01*
X124851939Y-88179650D01*
X124686734Y-88141242D01*
X124531383Y-88113264D01*
X124531313Y-88113251D01*
X124294040Y-88069012D01*
X124293228Y-88068830D01*
X124263116Y-88060966D01*
X124193052Y-88042667D01*
X123909528Y-87968622D01*
X123902389Y-87963216D01*
X123901164Y-87954346D01*
X123901273Y-87953957D01*
X124127671Y-87204270D01*
X124133341Y-87197343D01*
X124824454Y-86828792D01*
X124833366Y-86827924D01*
X124840283Y-86833612D01*
G37*
%TD.AperFunction*%
%TD*%
%TA.AperFunction,Conductor*%
%TO.N,Net-(P1-Blue)*%
G36*
X127054517Y-83065304D02*
G01*
X127059430Y-83066948D01*
X127301740Y-83214240D01*
X127302182Y-83214523D01*
X127302641Y-83214831D01*
X127303081Y-83215141D01*
X127430653Y-83309847D01*
X127486621Y-83351396D01*
X127643346Y-83465961D01*
X127643380Y-83465985D01*
X127649727Y-83470625D01*
X127649731Y-83470627D01*
X127649729Y-83470627D01*
X127750811Y-83522550D01*
X127798508Y-83547051D01*
X127798508Y-83547052D01*
X127798510Y-83547052D01*
X127798511Y-83547053D01*
X127884644Y-83574890D01*
X127984189Y-83595759D01*
X128112671Y-83610095D01*
X128252499Y-83614563D01*
X128256939Y-83615595D01*
X128258664Y-83616375D01*
X128264721Y-83622728D01*
X128265326Y-83624256D01*
X128266148Y-83628563D01*
X128266148Y-83901334D01*
X128265257Y-83905812D01*
X128264534Y-83907557D01*
X128258372Y-83913817D01*
X128256863Y-83914470D01*
X128252583Y-83915426D01*
X128115107Y-83919745D01*
X128114740Y-83919751D01*
X128114649Y-83919751D01*
X128114190Y-83919830D01*
X127995523Y-83932815D01*
X127987939Y-83933645D01*
X127987930Y-83933646D01*
X127987929Y-83933645D01*
X127987791Y-83933661D01*
X127987459Y-83933745D01*
X127880800Y-83956135D01*
X127880787Y-83956140D01*
X127880786Y-83956139D01*
X127789040Y-83986680D01*
X127789012Y-83986692D01*
X127788929Y-83986733D01*
X127708182Y-84024748D01*
X127633809Y-84069777D01*
X127490136Y-84176003D01*
X127490114Y-84176010D01*
X127300662Y-84316522D01*
X127300227Y-84316830D01*
X127299780Y-84317131D01*
X127299317Y-84317427D01*
X127059657Y-84462922D01*
X127055366Y-84464484D01*
X127054657Y-84464594D01*
X127053606Y-84464756D01*
X127044909Y-84462629D01*
X127043704Y-84461746D01*
X127040311Y-84457838D01*
X126787832Y-83986733D01*
X126673059Y-83772576D01*
X126671730Y-83768214D01*
X126671385Y-83764746D01*
X126672715Y-83758066D01*
X126785805Y-83547051D01*
X127040183Y-83072398D01*
X127043081Y-83068875D01*
X127044459Y-83067746D01*
X127049844Y-83066117D01*
X127050581Y-83065579D01*
X127051272Y-83065686D01*
X127053025Y-83065155D01*
X127054517Y-83065304D01*
G37*
%TD.AperFunction*%
%TD*%
%TA.AperFunction,Conductor*%
%TO.N,Net-(P1-Blue)*%
G36*
X124213568Y-55769626D02*
G01*
X124214085Y-55769920D01*
X124221525Y-55774411D01*
X124438903Y-55905622D01*
X124439746Y-55906182D01*
X124610552Y-56030694D01*
X124748160Y-56130545D01*
X124892856Y-56207307D01*
X124892859Y-56207308D01*
X124892866Y-56207311D01*
X124975420Y-56234981D01*
X124975429Y-56234984D01*
X125071079Y-56255744D01*
X125195982Y-56270093D01*
X125335070Y-56274630D01*
X125343226Y-56278325D01*
X125346388Y-56286324D01*
X125346388Y-56563652D01*
X125342961Y-56571925D01*
X125335046Y-56575347D01*
X125254278Y-56577820D01*
X125203913Y-56579362D01*
X125146208Y-56585527D01*
X125084349Y-56592136D01*
X125084348Y-56592136D01*
X124983447Y-56612856D01*
X124983439Y-56612858D01*
X124896970Y-56641057D01*
X124750348Y-56718023D01*
X124750346Y-56718024D01*
X124610527Y-56819324D01*
X124451446Y-56935815D01*
X124450608Y-56936375D01*
X124214099Y-57080031D01*
X124205249Y-57081397D01*
X124198025Y-57076105D01*
X124197713Y-57075558D01*
X124123108Y-56936375D01*
X123851960Y-56430525D01*
X123851073Y-56421617D01*
X123851958Y-56419477D01*
X124197730Y-55774409D01*
X124204658Y-55768738D01*
X124213568Y-55769626D01*
G37*
%TD.AperFunction*%
%TD*%
%TA.AperFunction,Conductor*%
%TO.N,Net-(P1-Red)*%
G36*
X122064827Y-58161734D02*
G01*
X122070500Y-58168663D01*
X122070658Y-58169238D01*
X122133672Y-58424160D01*
X122133873Y-58425156D01*
X122166605Y-58633964D01*
X122193305Y-58801882D01*
X122193306Y-58801885D01*
X122241342Y-58958479D01*
X122280160Y-59036438D01*
X122333115Y-59118752D01*
X122333120Y-59118759D01*
X122333122Y-59118761D01*
X122411279Y-59217208D01*
X122411285Y-59217215D01*
X122411288Y-59217218D01*
X122506430Y-59318777D01*
X122509585Y-59327156D01*
X122506164Y-59335048D01*
X122310063Y-59531149D01*
X122301790Y-59534576D01*
X122293774Y-59531398D01*
X122198225Y-59441526D01*
X122198222Y-59441523D01*
X122198211Y-59441513D01*
X122198194Y-59441499D01*
X122104631Y-59365998D01*
X122018636Y-59309306D01*
X122018633Y-59309305D01*
X122018630Y-59309303D01*
X121937543Y-59268096D01*
X121937540Y-59268095D01*
X121937531Y-59268091D01*
X121779437Y-59218840D01*
X121609004Y-59191612D01*
X121608975Y-59191608D01*
X121522735Y-59178280D01*
X121414087Y-59161489D01*
X121413098Y-59161292D01*
X121144279Y-59095634D01*
X121137055Y-59090342D01*
X121135689Y-59081492D01*
X121135855Y-59080885D01*
X121149281Y-59036438D01*
X121347479Y-58380294D01*
X121353151Y-58373367D01*
X121355288Y-58372481D01*
X122055918Y-58160846D01*
X122064827Y-58161734D01*
G37*
%TD.AperFunction*%
%TD*%
%TA.AperFunction,Conductor*%
%TO.N,Net-(P1-Red)*%
G36*
X127937232Y-77720862D02*
G01*
X128134169Y-77917799D01*
X128137596Y-77926072D01*
X128134858Y-77933593D01*
X127980128Y-78117977D01*
X127891037Y-78249735D01*
X127804879Y-78395806D01*
X127804867Y-78395829D01*
X127656041Y-78705033D01*
X127549699Y-79007224D01*
X127488950Y-79280449D01*
X127488950Y-79280453D01*
X127471285Y-79500363D01*
X127467207Y-79508335D01*
X127458686Y-79511088D01*
X127455157Y-79510240D01*
X126673785Y-79187562D01*
X126667447Y-79181238D01*
X126344842Y-78400042D01*
X126344851Y-78391089D01*
X126351190Y-78384764D01*
X126354868Y-78383905D01*
X126370857Y-78382827D01*
X126533106Y-78371888D01*
X126533117Y-78371886D01*
X126533125Y-78371886D01*
X126683201Y-78346312D01*
X126835087Y-78308908D01*
X127001847Y-78255891D01*
X127165753Y-78192354D01*
X127165771Y-78192346D01*
X127330373Y-78117237D01*
X127330379Y-78117234D01*
X127486086Y-78035112D01*
X127749358Y-77865842D01*
X127749358Y-77865841D01*
X127749361Y-77865840D01*
X127749361Y-77865839D01*
X127921402Y-77720204D01*
X127929928Y-77717475D01*
X127937232Y-77720862D01*
G37*
%TD.AperFunction*%
%TD*%
%TA.AperFunction,Conductor*%
%TO.N,Net-(P1-HSYNC)*%
G36*
X121218403Y-83069798D02*
G01*
X121218714Y-83070343D01*
X121588037Y-83759473D01*
X121588925Y-83768384D01*
X121588037Y-83770527D01*
X121218717Y-84459650D01*
X121211789Y-84465323D01*
X121202878Y-84464435D01*
X121202328Y-84464121D01*
X120958023Y-84315615D01*
X120957126Y-84315011D01*
X120773379Y-84178604D01*
X120773345Y-84178579D01*
X120610273Y-84059375D01*
X120610269Y-84059373D01*
X120610268Y-84059372D01*
X120610270Y-84059372D01*
X120461491Y-83982948D01*
X120461491Y-83982947D01*
X120375357Y-83955110D01*
X120275806Y-83934240D01*
X120147328Y-83919904D01*
X120005178Y-83915361D01*
X119997019Y-83911672D01*
X119993852Y-83903667D01*
X119993852Y-83626337D01*
X119997279Y-83618064D01*
X120005182Y-83614643D01*
X120145095Y-83610248D01*
X120272060Y-83596355D01*
X120379200Y-83573863D01*
X120470967Y-83543315D01*
X120551813Y-83505254D01*
X120626189Y-83460223D01*
X120773344Y-83351421D01*
X120959567Y-83213305D01*
X120960441Y-83212717D01*
X121202331Y-83065868D01*
X121211181Y-83064505D01*
X121218403Y-83069798D01*
G37*
%TD.AperFunction*%
%TD*%
%TA.AperFunction,Conductor*%
%TO.N,Net-(P1-HSYNC)*%
G36*
X123377757Y-51742838D02*
G01*
X123607476Y-51752260D01*
X123607959Y-51752289D01*
X123911693Y-51777625D01*
X123919652Y-51781728D01*
X123922380Y-51790258D01*
X123922365Y-51790416D01*
X123851468Y-52520174D01*
X123847257Y-52528077D01*
X123847238Y-52528094D01*
X123279977Y-52992818D01*
X123271405Y-52995410D01*
X123263511Y-52991182D01*
X123262995Y-52990502D01*
X123175180Y-52865757D01*
X123174343Y-52864375D01*
X123106394Y-52732306D01*
X123105884Y-52731170D01*
X123056598Y-52603623D01*
X123056371Y-52602979D01*
X123017857Y-52482287D01*
X122957425Y-52306445D01*
X122896113Y-52198591D01*
X122896112Y-52198589D01*
X122815625Y-52123944D01*
X122762121Y-52095372D01*
X122732227Y-52085186D01*
X122698168Y-52073581D01*
X122698165Y-52073580D01*
X122698164Y-52073580D01*
X122614928Y-52058080D01*
X122614934Y-52058080D01*
X122526898Y-52052454D01*
X122518860Y-52048507D01*
X122515945Y-52040608D01*
X122519573Y-51790416D01*
X122519967Y-51763203D01*
X122523514Y-51754982D01*
X122531560Y-51751674D01*
X123081726Y-51746793D01*
X123377136Y-51742830D01*
X123377757Y-51742838D01*
G37*
%TD.AperFunction*%
%TD*%
%TA.AperFunction,Conductor*%
%TO.N,Net-(P1-Green)*%
G36*
X127057121Y-80775564D02*
G01*
X127057660Y-80775871D01*
X127065026Y-80780349D01*
X127301976Y-80924383D01*
X127302873Y-80924987D01*
X127486655Y-81061421D01*
X127649727Y-81180625D01*
X127649731Y-81180627D01*
X127649729Y-81180627D01*
X127750811Y-81232550D01*
X127798508Y-81257051D01*
X127798508Y-81257052D01*
X127798510Y-81257052D01*
X127798511Y-81257053D01*
X127884644Y-81284890D01*
X127984189Y-81305759D01*
X128112671Y-81320095D01*
X128254822Y-81324638D01*
X128262981Y-81328327D01*
X128266148Y-81336332D01*
X128266148Y-81613662D01*
X128262721Y-81621935D01*
X128254815Y-81625356D01*
X128114916Y-81629751D01*
X128114907Y-81629751D01*
X128114905Y-81629752D01*
X127987939Y-81643645D01*
X127987930Y-81643646D01*
X127987928Y-81643647D01*
X127880803Y-81666135D01*
X127880797Y-81666137D01*
X127789038Y-81696682D01*
X127789034Y-81696684D01*
X127789032Y-81696685D01*
X127708186Y-81734746D01*
X127633812Y-81779775D01*
X127486647Y-81888584D01*
X127486646Y-81888583D01*
X127300445Y-82026684D01*
X127299547Y-82027288D01*
X127057669Y-82174130D01*
X127048818Y-82175494D01*
X127041596Y-82170201D01*
X127041294Y-82169672D01*
X126671961Y-81480526D01*
X126671074Y-81471616D01*
X126671962Y-81469473D01*
X126785805Y-81257051D01*
X127041283Y-80780347D01*
X127048210Y-80774676D01*
X127057121Y-80775564D01*
G37*
%TD.AperFunction*%
%TD*%
%TA.AperFunction,Conductor*%
%TO.N,Net-(P1-Green)*%
G36*
X124211207Y-57719152D02*
G01*
X124215873Y-57720649D01*
X124597969Y-57940464D01*
X124598115Y-57940550D01*
X124598160Y-57940577D01*
X124745095Y-58027960D01*
X124745351Y-58028112D01*
X124745415Y-58028142D01*
X124972569Y-58137814D01*
X124972570Y-58137814D01*
X124972576Y-58137817D01*
X124972611Y-58137829D01*
X125145609Y-58199298D01*
X125146074Y-58199463D01*
X125146392Y-58199536D01*
X125210111Y-58218026D01*
X125362804Y-58262334D01*
X125366857Y-58264438D01*
X125368303Y-58265596D01*
X125372604Y-58273323D01*
X125372807Y-58275001D01*
X125372493Y-58279434D01*
X125301888Y-58542951D01*
X125299869Y-58547045D01*
X125298682Y-58548592D01*
X125291214Y-58553028D01*
X125290438Y-58553150D01*
X125289672Y-58553271D01*
X125285394Y-58553150D01*
X125168472Y-58527960D01*
X125168066Y-58527920D01*
X125167960Y-58527916D01*
X125058266Y-58518288D01*
X125058259Y-58518288D01*
X125058257Y-58518288D01*
X125058256Y-58518288D01*
X125058244Y-58518288D01*
X124977550Y-58524090D01*
X124964099Y-58525058D01*
X124947753Y-58529325D01*
X124947752Y-58529324D01*
X124882368Y-58546395D01*
X124881689Y-58546700D01*
X124881561Y-58546772D01*
X124809442Y-58580424D01*
X124741656Y-58625283D01*
X124607113Y-58739868D01*
X124607085Y-58739893D01*
X124607007Y-58739959D01*
X124606957Y-58740000D01*
X124403560Y-58910192D01*
X124402942Y-58910675D01*
X124402312Y-58911134D01*
X124401660Y-58911576D01*
X124216137Y-59028504D01*
X124211876Y-59030138D01*
X124210120Y-59030439D01*
X124201387Y-59028459D01*
X124201386Y-59028459D01*
X124200231Y-59027642D01*
X124196675Y-59023615D01*
X124136537Y-58911368D01*
X123853094Y-58382321D01*
X123851764Y-58377953D01*
X123851420Y-58374492D01*
X123852752Y-58367806D01*
X124196754Y-57726226D01*
X124199650Y-57722707D01*
X124201029Y-57721578D01*
X124209598Y-57718991D01*
X124211207Y-57719152D01*
G37*
%TD.AperFunction*%
%TD*%
%TA.AperFunction,Conductor*%
%TO.N,GND*%
G36*
X121863947Y-94100957D02*
G01*
X121935673Y-94165222D01*
X121950328Y-94178352D01*
X122046905Y-94246621D01*
X122073849Y-94261207D01*
X122144870Y-94299655D01*
X122144875Y-94299657D01*
X122144879Y-94299659D01*
X122243696Y-94338748D01*
X122243700Y-94338749D01*
X122243705Y-94338751D01*
X122324754Y-94360359D01*
X122342803Y-94365172D01*
X122441649Y-94380214D01*
X122636341Y-94381286D01*
X122636347Y-94381285D01*
X122643247Y-94380213D01*
X122823351Y-94352229D01*
X122998255Y-94303310D01*
X123294060Y-94186951D01*
X123344840Y-94165221D01*
X123353794Y-94165118D01*
X123360200Y-94171376D01*
X123360226Y-94171437D01*
X124122858Y-95982072D01*
X124122911Y-95991027D01*
X124116617Y-95997397D01*
X124110639Y-95998226D01*
X122160604Y-95757149D01*
X122152814Y-95752733D01*
X122150402Y-95744329D01*
X122158567Y-95665653D01*
X122163437Y-95423099D01*
X122135183Y-95187795D01*
X122071879Y-94959248D01*
X121971267Y-94736549D01*
X121830019Y-94518847D01*
X121743266Y-94412271D01*
X121743255Y-94412259D01*
X121651298Y-94313962D01*
X121648148Y-94305579D01*
X121651568Y-94297697D01*
X121847868Y-94101397D01*
X121856140Y-94097971D01*
X121863947Y-94100957D01*
G37*
%TD.AperFunction*%
%TD*%
%TA.AperFunction,Conductor*%
%TO.N,GND*%
G36*
X117607938Y-54482993D02*
G01*
X117609707Y-54484564D01*
X118552313Y-55510251D01*
X118555388Y-55518661D01*
X118554824Y-55521787D01*
X118474620Y-55768388D01*
X118474480Y-55768794D01*
X118391693Y-55994738D01*
X118391539Y-55995136D01*
X118233943Y-56381118D01*
X118112320Y-56687915D01*
X118078864Y-56772308D01*
X118018859Y-56994688D01*
X118001020Y-57179378D01*
X117996813Y-57187283D01*
X117989374Y-57189953D01*
X117710745Y-57189953D01*
X117702472Y-57186526D01*
X117699087Y-57179246D01*
X117698188Y-57168699D01*
X117692431Y-57101115D01*
X117670608Y-57016152D01*
X117635854Y-56933707D01*
X117589493Y-56852422D01*
X117589492Y-56852421D01*
X117589490Y-56852417D01*
X117589486Y-56852412D01*
X117467254Y-56687915D01*
X117467248Y-56687908D01*
X117467243Y-56687901D01*
X117314448Y-56511729D01*
X117100075Y-56262785D01*
X117099573Y-56262159D01*
X117070533Y-56223344D01*
X116893290Y-55986440D01*
X116892659Y-55985504D01*
X116722074Y-55703015D01*
X116720732Y-55694164D01*
X116722600Y-55690128D01*
X117591605Y-54485634D01*
X117599223Y-54480931D01*
X117607938Y-54482993D01*
G37*
%TD.AperFunction*%
%TD*%
%TA.AperFunction,Conductor*%
%TO.N,GND*%
G36*
X117459789Y-85167450D02*
G01*
X117467529Y-85171953D01*
X117469818Y-85180610D01*
X117469639Y-85181607D01*
X117437531Y-85324682D01*
X117436879Y-85326706D01*
X117392671Y-85430454D01*
X117392458Y-85430924D01*
X117385447Y-85445552D01*
X117385438Y-85445574D01*
X117342279Y-85560503D01*
X117329660Y-85633466D01*
X117329660Y-85633468D01*
X117325552Y-85716313D01*
X117321719Y-85724406D01*
X117313866Y-85727433D01*
X117036078Y-85727433D01*
X117027805Y-85724006D01*
X117024395Y-85716372D01*
X117024327Y-85715145D01*
X117019427Y-85625546D01*
X117004509Y-85548145D01*
X116957522Y-85430924D01*
X116957428Y-85430688D01*
X116915867Y-85334642D01*
X116915382Y-85333303D01*
X116913438Y-85326706D01*
X116894508Y-85262459D01*
X116894219Y-85261236D01*
X116879744Y-85181197D01*
X116881644Y-85172446D01*
X116889175Y-85167602D01*
X116889652Y-85167526D01*
X117173437Y-85129211D01*
X117176563Y-85129211D01*
X117459789Y-85167450D01*
G37*
%TD.AperFunction*%
%TD*%
M02*
