%TF.GenerationSoftware,KiCad,Pcbnew,10.0.0*%
%TF.CreationDate,2026-04-03T13:38:21-04:00*%
%TF.ProjectId,miroHISCORE Adapter,6d69726f-4849-4534-934f-524520416461,rev?*%
%TF.SameCoordinates,Original*%
%TF.FileFunction,Copper,L2,Bot*%
%TF.FilePolarity,Positive*%
%FSLAX46Y46*%
G04 Gerber Fmt 4.6, Leading zero omitted, Abs format (unit mm)*
G04 Created by KiCad (PCBNEW 10.0.0) date 2026-04-03 13:38:21*
%MOMM*%
%LPD*%
G01*
G04 APERTURE LIST*
%TA.AperFunction,ComponentPad*%
%ADD10C,0.600000*%
%TD*%
%TA.AperFunction,ComponentPad*%
%ADD11C,6.000000*%
%TD*%
%TA.AperFunction,ComponentPad*%
%ADD12R,1.600000X1.600000*%
%TD*%
%TA.AperFunction,ComponentPad*%
%ADD13C,1.600000*%
%TD*%
%TA.AperFunction,ComponentPad*%
%ADD14C,4.000000*%
%TD*%
%TA.AperFunction,ComponentPad*%
%ADD15C,1.500000*%
%TD*%
%TA.AperFunction,ComponentPad*%
%ADD16O,3.500000X2.000000*%
%TD*%
%TA.AperFunction,ComponentPad*%
%ADD17O,2.000000X3.500000*%
%TD*%
%TA.AperFunction,ViaPad*%
%ADD18C,0.600000*%
%TD*%
%TA.AperFunction,Conductor*%
%ADD19C,0.300000*%
%TD*%
G04 APERTURE END LIST*
D10*
%TO.P,REF\u002A\u002A,*%
%TO.N,*%
X130600000Y-49700000D03*
X131259010Y-48109010D03*
X131259010Y-51290990D03*
X132850000Y-47450000D03*
D11*
X132850000Y-49700000D03*
D10*
X132850000Y-51950000D03*
X134440990Y-48109010D03*
X134440990Y-51290990D03*
X135100000Y-49700000D03*
%TD*%
D12*
%TO.P,P1,1,Red_1*%
%TO.N,Net-(P1-Red)*%
X126670000Y-79185000D03*
D13*
%TO.P,P1,2,Green_2*%
%TO.N,Net-(P1-Green)*%
X126670000Y-81475000D03*
%TO.P,P1,3,Blue_3*%
%TO.N,Net-(P1-Blue)*%
X126670000Y-83765000D03*
%TO.P,P1,4,ID2/RES_4*%
%TO.N,unconnected-(P1-ID2{slash}RES-Pad4)*%
X126670000Y-86055000D03*
%TO.P,P1,5,HSYNC_GND_5*%
%TO.N,GNDD*%
X126670000Y-88345000D03*
%TO.P,P1,6,Red_GND_6*%
%TO.N,GNDA*%
X124130000Y-78040000D03*
%TO.P,P1,7,Green_GND_7*%
X124130000Y-80330000D03*
%TO.P,P1,8,Blue_GND_8*%
X124130000Y-82620000D03*
%TO.P,P1,9,+5V_9*%
%TO.N,unconnected-(P1-+5V-Pad9)*%
X124130000Y-84910000D03*
%TO.P,P1,10,VSYNC_GND_10*%
%TO.N,GNDD*%
X124130000Y-87200000D03*
%TO.P,P1,11,ID0/RES_11*%
%TO.N,unconnected-(P1-ID0{slash}RES-Pad11)*%
X121590000Y-79185000D03*
%TO.P,P1,12,ID1/SDA_12*%
%TO.N,Net-(P1-ID1{slash}SDA)*%
X121590000Y-81475000D03*
%TO.P,P1,13,HSYNC_13*%
%TO.N,Net-(P1-HSYNC)*%
X121590000Y-83765000D03*
%TO.P,P1,14,VSYNC_14*%
%TO.N,Net-(P1-VSYNC)*%
X121590000Y-86055000D03*
%TO.P,P1,15,ID3/SCL_15*%
%TO.N,Net-(P1-ID3{slash}SCL)*%
X121590000Y-88345000D03*
D14*
%TO.P,P1,SH,SHIELD_SH*%
%TO.N,GND*%
X124130000Y-71000000D03*
X124130000Y-96000000D03*
%TD*%
D10*
%TO.P,REF\u002A\u002A,*%
%TO.N,*%
X130600000Y-96700000D03*
X131259010Y-95109010D03*
X131259010Y-98290990D03*
X132850000Y-94450000D03*
D11*
X132850000Y-96700000D03*
D10*
X132850000Y-98950000D03*
X134440990Y-95109010D03*
X134440990Y-98290990D03*
X135100000Y-96700000D03*
%TD*%
D15*
%TO.P,J1,1*%
%TO.N,Net-(P1-ID1{slash}SDA)*%
X121349999Y-53775000D03*
%TO.P,J1,2*%
%TO.N,GNDD*%
X121349999Y-55725000D03*
%TO.P,J1,3*%
%TO.N,Net-(P1-ID3{slash}SCL)*%
X121349999Y-50575000D03*
%TO.P,J1,4*%
%TO.N,GNDA*%
X123849999Y-54475000D03*
%TO.P,J1,5*%
%TO.N,Net-(P1-Blue)*%
X123849999Y-56425000D03*
%TO.P,J1,6*%
%TO.N,Net-(P1-Red)*%
X121349999Y-58375000D03*
%TO.P,J1,7*%
%TO.N,Net-(P1-VSYNC)*%
X123849999Y-50575000D03*
%TO.P,J1,8*%
%TO.N,Net-(P1-HSYNC)*%
X123849999Y-52525000D03*
%TO.P,J1,9*%
%TO.N,Net-(P1-Green)*%
X123849999Y-58375000D03*
D16*
%TO.P,J1,SH*%
%TO.N,GND*%
X119149999Y-61775000D03*
D17*
X117599999Y-54475000D03*
D16*
X119149999Y-47175000D03*
%TD*%
D18*
%TO.N,GNDD*%
X122600000Y-64220000D03*
X126880000Y-76010000D03*
%TO.N,GND*%
X117175000Y-85130000D03*
%TD*%
%TO.N,GND*%
D19*
X117760787Y-77369213D02*
G75*
G03*
X117175019Y-78783427I1414213J-1414187D01*
G01*
X117175000Y-85130000D02*
X117175000Y-78783427D01*
X117760787Y-77369213D02*
X124130000Y-71000000D01*
X118935785Y-66385785D02*
G75*
G02*
X118350019Y-64971572I1414215J1414185D01*
G01*
X124130000Y-71000000D02*
X123550000Y-71000000D01*
X123550000Y-71000000D02*
X118935785Y-66385785D01*
X118349999Y-64971572D02*
X118349999Y-60975000D01*
X118142892Y-48182107D02*
G75*
G03*
X117850009Y-48889214I707108J-707093D01*
G01*
%TO.N,GNDD*%
X122600000Y-64220000D02*
X122600000Y-57228428D01*
X122014213Y-55814214D02*
X121349999Y-55150000D01*
X128564213Y-87485787D02*
X128290786Y-87759214D01*
X129150000Y-79108427D02*
X129150000Y-86071573D01*
X126880000Y-76010000D02*
X128564214Y-77694214D01*
X126876573Y-88345000D02*
X126670000Y-88345000D01*
X129150000Y-86071573D02*
G75*
G02*
X128564227Y-87485801I-2000000J-27D01*
G01*
X126876573Y-88345000D02*
G75*
G03*
X128290800Y-87759228I27J2000000D01*
G01*
X122600000Y-57228428D02*
G75*
G03*
X122014227Y-55814200I-2000000J28D01*
G01*
X128564214Y-77694214D02*
G75*
G02*
X129149981Y-79108427I-1414214J-1414186D01*
G01*
%TO.N,Net-(P1-ID3{slash}SCL)*%
X119725000Y-55271573D02*
X119725000Y-53028426D01*
X116075787Y-59749213D02*
X119139214Y-56685786D01*
X115490000Y-85086573D02*
X115490000Y-61163427D01*
X118748427Y-88345000D02*
X121590000Y-88345000D01*
X117334213Y-87759213D02*
X116075786Y-86500786D01*
X120310787Y-51614212D02*
X121349999Y-50575000D01*
X119725000Y-55271573D02*
G75*
G02*
X119139228Y-56685800I-2000000J-27D01*
G01*
X119725000Y-53028426D02*
G75*
G02*
X120310774Y-51614199I2000000J26D01*
G01*
X118748427Y-88345000D02*
G75*
G02*
X117334199Y-87759227I-27J2000000D01*
G01*
X116075787Y-59749213D02*
G75*
G03*
X115490019Y-61163427I1414213J-1414187D01*
G01*
X115490000Y-85086573D02*
G75*
G03*
X116075772Y-86500800I2000000J-27D01*
G01*
%TO.N,Net-(P1-VSYNC)*%
X119285787Y-76914213D02*
X120189214Y-76010786D01*
X121603427Y-75425000D02*
X123246573Y-75425000D01*
X119429213Y-85469213D02*
X119285786Y-85325786D01*
X129200000Y-69471573D02*
X129200000Y-56753428D01*
X121590000Y-86055000D02*
X120843427Y-86055000D01*
X128614213Y-55339214D02*
X123849999Y-50575000D01*
X118700000Y-83911573D02*
X118700000Y-78328427D01*
X124660787Y-74839213D02*
X128614214Y-70885786D01*
X128614214Y-70885786D02*
G75*
G03*
X129199981Y-69471573I-1414214J1414186D01*
G01*
X120843427Y-86055000D02*
G75*
G02*
X119429199Y-85469227I-27J2000000D01*
G01*
X129200000Y-56753428D02*
G75*
G03*
X128614227Y-55339200I-2000000J28D01*
G01*
X121603427Y-75425000D02*
G75*
G03*
X120189200Y-76010772I-27J-2000000D01*
G01*
X119285786Y-85325786D02*
G75*
G02*
X118700019Y-83911573I1414214J1414186D01*
G01*
X124660787Y-74839213D02*
G75*
G02*
X123246573Y-75424981I-1414187J1414213D01*
G01*
X118700000Y-78328427D02*
G75*
G02*
X119285773Y-76914199I2000000J27D01*
G01*
%TO.N,GND*%
X117849999Y-54475000D02*
X117849999Y-48889214D01*
X118142892Y-48182107D02*
X118349999Y-47975000D01*
%TD*%
%TA.AperFunction,Conductor*%
%TO.N,GNDA*%
G36*
X132849099Y-45200518D02*
G01*
X132850832Y-45200555D01*
X132852573Y-45200611D01*
X133237030Y-45217397D01*
X133240422Y-45217619D01*
X133243882Y-45217922D01*
X133247248Y-45218291D01*
X133626210Y-45268182D01*
X133629621Y-45268707D01*
X133633004Y-45269304D01*
X133636378Y-45269975D01*
X134009528Y-45352702D01*
X134012823Y-45353508D01*
X134015835Y-45354314D01*
X134016168Y-45354404D01*
X134019466Y-45355365D01*
X134384034Y-45470312D01*
X134387266Y-45471409D01*
X134390486Y-45472581D01*
X134393663Y-45473817D01*
X134746836Y-45620106D01*
X134749926Y-45621465D01*
X134753087Y-45622939D01*
X134756119Y-45624435D01*
X134940584Y-45720462D01*
X135095163Y-45800931D01*
X135098173Y-45802582D01*
X135101159Y-45804306D01*
X135104104Y-45806093D01*
X135426454Y-46011452D01*
X135429308Y-46013359D01*
X135432143Y-46015344D01*
X135434904Y-46017368D01*
X135738141Y-46250051D01*
X135740803Y-46252187D01*
X135742921Y-46253965D01*
X135743434Y-46254395D01*
X135746023Y-46256665D01*
X136027838Y-46514901D01*
X136030327Y-46517285D01*
X136032713Y-46519671D01*
X136035097Y-46522160D01*
X136261425Y-46769153D01*
X136261425Y-46769154D01*
X136293322Y-46803964D01*
X136295584Y-46806542D01*
X136297801Y-46809183D01*
X136299958Y-46811870D01*
X136416296Y-46963485D01*
X136532627Y-47115091D01*
X136534667Y-47117873D01*
X136536633Y-47120681D01*
X136538546Y-47123544D01*
X136743905Y-47445894D01*
X136745692Y-47448839D01*
X136747408Y-47451811D01*
X136749067Y-47454835D01*
X136925546Y-47793846D01*
X136927070Y-47796938D01*
X136928516Y-47800039D01*
X136929904Y-47803193D01*
X137076167Y-48156302D01*
X137077417Y-48159514D01*
X137078589Y-48162734D01*
X137079697Y-48165998D01*
X137194632Y-48530527D01*
X137195599Y-48533847D01*
X137196487Y-48537163D01*
X137197303Y-48540500D01*
X137280019Y-48913604D01*
X137280691Y-48916982D01*
X137281294Y-48920401D01*
X137281819Y-48923811D01*
X137331701Y-49302707D01*
X137332075Y-49306116D01*
X137332376Y-49309548D01*
X137332603Y-49313004D01*
X137349388Y-49697432D01*
X137349444Y-49699155D01*
X137349481Y-49700851D01*
X137349500Y-49702574D01*
X137349500Y-96697424D01*
X137349481Y-96699156D01*
X137349444Y-96700843D01*
X137349388Y-96702557D01*
X137332603Y-97086994D01*
X137332376Y-97090450D01*
X137332075Y-97093882D01*
X137331701Y-97097291D01*
X137281819Y-97476187D01*
X137281294Y-97479597D01*
X137280691Y-97483016D01*
X137280019Y-97486394D01*
X137197303Y-97859498D01*
X137196487Y-97862835D01*
X137195599Y-97866151D01*
X137194632Y-97869471D01*
X137079697Y-98234002D01*
X137078579Y-98237292D01*
X137077413Y-98240492D01*
X137076173Y-98243678D01*
X136929903Y-98596805D01*
X136928521Y-98599947D01*
X136927071Y-98603058D01*
X136925541Y-98606162D01*
X136749067Y-98945163D01*
X136747408Y-98948187D01*
X136745692Y-98951159D01*
X136743905Y-98954104D01*
X136538546Y-99276454D01*
X136536633Y-99279317D01*
X136534667Y-99282125D01*
X136532627Y-99284907D01*
X136299965Y-99588119D01*
X136297809Y-99590805D01*
X136295604Y-99593433D01*
X136293330Y-99596027D01*
X136035106Y-99877829D01*
X136032722Y-99880318D01*
X136030318Y-99882722D01*
X136027829Y-99885106D01*
X135746027Y-100143330D01*
X135743433Y-100145604D01*
X135740805Y-100147809D01*
X135738119Y-100149965D01*
X135434907Y-100382627D01*
X135432125Y-100384667D01*
X135429317Y-100386633D01*
X135426454Y-100388546D01*
X135104104Y-100593905D01*
X135101159Y-100595692D01*
X135098187Y-100597408D01*
X135095163Y-100599067D01*
X134756162Y-100775541D01*
X134753058Y-100777071D01*
X134749947Y-100778521D01*
X134746805Y-100779903D01*
X134393678Y-100926173D01*
X134390492Y-100927413D01*
X134387292Y-100928579D01*
X134384002Y-100929697D01*
X134019471Y-101044632D01*
X134016151Y-101045599D01*
X134012835Y-101046487D01*
X134009498Y-101047303D01*
X133636394Y-101130019D01*
X133633016Y-101130691D01*
X133629597Y-101131294D01*
X133626187Y-101131819D01*
X133247291Y-101181701D01*
X133243882Y-101182075D01*
X133240450Y-101182376D01*
X133236994Y-101182603D01*
X132852558Y-101199388D01*
X132850844Y-101199444D01*
X132849130Y-101199481D01*
X132847426Y-101199500D01*
X116844396Y-101199500D01*
X116841569Y-101199449D01*
X116838748Y-101199348D01*
X116835939Y-101199198D01*
X116635178Y-101184839D01*
X116629583Y-101184238D01*
X116626214Y-101183754D01*
X116624011Y-101183437D01*
X116618457Y-101182435D01*
X116603771Y-101179240D01*
X116603771Y-101179239D01*
X116425923Y-101140550D01*
X116420453Y-101139154D01*
X116415060Y-101137570D01*
X116409716Y-101135791D01*
X116225116Y-101066940D01*
X116219897Y-101064778D01*
X116214779Y-101062440D01*
X116209744Y-101059920D01*
X116036807Y-100965489D01*
X116031957Y-100962611D01*
X116027226Y-100959570D01*
X116022601Y-100956359D01*
X115864860Y-100838276D01*
X115860470Y-100834738D01*
X115859696Y-100834068D01*
X115856214Y-100831050D01*
X115852096Y-100827215D01*
X115712783Y-100687902D01*
X115708949Y-100683785D01*
X115705260Y-100679528D01*
X115701722Y-100675138D01*
X115583639Y-100517397D01*
X115580432Y-100512778D01*
X115577379Y-100508028D01*
X115574509Y-100503191D01*
X115480078Y-100330254D01*
X115477555Y-100325213D01*
X115475217Y-100320094D01*
X115473058Y-100314882D01*
X115430396Y-100200500D01*
X115430396Y-100200499D01*
X115404207Y-100130283D01*
X115402426Y-100124931D01*
X115400842Y-100119536D01*
X115399447Y-100114073D01*
X115396318Y-100099690D01*
X115357557Y-99921513D01*
X115356560Y-99915980D01*
X115356170Y-99913266D01*
X115355761Y-99910423D01*
X115355161Y-99904851D01*
X115342392Y-99726299D01*
X115340798Y-99704020D01*
X115340650Y-99701223D01*
X115340550Y-99698401D01*
X115340500Y-99695603D01*
X115340500Y-96141610D01*
X121969499Y-96141610D01*
X122006464Y-96422393D01*
X122006466Y-96422402D01*
X122060623Y-96624519D01*
X122079764Y-96695951D01*
X122079766Y-96695958D01*
X122079771Y-96695973D01*
X122186092Y-96952652D01*
X122186096Y-96952661D01*
X122188146Y-96957609D01*
X122188147Y-96957612D01*
X122188149Y-96957615D01*
X122190735Y-96962095D01*
X122190737Y-96962098D01*
X122329752Y-97202880D01*
X122329755Y-97202885D01*
X122502165Y-97427573D01*
X122502167Y-97427575D01*
X122502172Y-97427581D01*
X122502172Y-97427582D01*
X122702405Y-97627815D01*
X122702421Y-97627830D01*
X122702424Y-97627832D01*
X122702427Y-97627835D01*
X122927115Y-97800245D01*
X123172385Y-97941851D01*
X123172390Y-97941853D01*
X123431470Y-98049169D01*
X123434030Y-98050229D01*
X123434040Y-98050233D01*
X123434045Y-98050234D01*
X123434047Y-98050235D01*
X123707597Y-98123533D01*
X123707606Y-98123535D01*
X123707620Y-98123536D01*
X123707621Y-98123537D01*
X123988385Y-98160500D01*
X124271610Y-98160500D01*
X124271613Y-98160500D01*
X124492793Y-98131381D01*
X124552393Y-98123535D01*
X124552402Y-98123533D01*
X124744683Y-98072010D01*
X124825960Y-98050233D01*
X125087615Y-97941851D01*
X125332885Y-97800245D01*
X125557573Y-97627835D01*
X125757835Y-97427573D01*
X125930245Y-97202885D01*
X126071851Y-96957615D01*
X126180233Y-96695960D01*
X126199375Y-96624518D01*
X126225229Y-96528031D01*
X129349500Y-96528031D01*
X129349500Y-96871967D01*
X129383209Y-97214240D01*
X129425645Y-97427582D01*
X129450309Y-97551577D01*
X129473442Y-97627835D01*
X129550147Y-97880700D01*
X129550148Y-97880701D01*
X129550162Y-97880740D01*
X129681244Y-98197196D01*
X129681576Y-98198037D01*
X129681767Y-98198460D01*
X129843387Y-98500829D01*
X129843750Y-98501530D01*
X129843905Y-98501797D01*
X130034970Y-98787746D01*
X130034975Y-98787753D01*
X130253166Y-99053621D01*
X130253185Y-99053641D01*
X130496358Y-99296814D01*
X130496378Y-99296833D01*
X130762246Y-99515024D01*
X131048207Y-99706097D01*
X131048213Y-99706100D01*
X131048462Y-99706245D01*
X131049169Y-99706611D01*
X131351536Y-99868230D01*
X131351544Y-99868234D01*
X131460261Y-99913266D01*
X131460265Y-99913267D01*
X131669269Y-99999840D01*
X131669277Y-99999842D01*
X131669290Y-99999848D01*
X131669306Y-99999854D01*
X131998422Y-100099690D01*
X132335750Y-100166789D01*
X132678031Y-100200500D01*
X132678032Y-100200500D01*
X133021968Y-100200500D01*
X133021969Y-100200500D01*
X133364250Y-100166789D01*
X133701578Y-100099690D01*
X134030705Y-99999850D01*
X134030722Y-99999842D01*
X134030730Y-99999840D01*
X134120698Y-99962573D01*
X134348462Y-99868231D01*
X134651787Y-99706100D01*
X134651788Y-99706098D01*
X134651790Y-99706097D01*
X134651792Y-99706097D01*
X134651794Y-99706095D01*
X134652128Y-99705917D01*
X134653370Y-99705042D01*
X134937753Y-99515024D01*
X134937755Y-99515022D01*
X134937760Y-99515019D01*
X135203627Y-99296828D01*
X135446828Y-99053627D01*
X135665019Y-98787760D01*
X135787386Y-98604625D01*
X135856097Y-98501792D01*
X135856098Y-98501789D01*
X135856100Y-98501787D01*
X135856104Y-98501777D01*
X135856219Y-98501607D01*
X135856746Y-98500578D01*
X135994062Y-98243678D01*
X136018231Y-98198462D01*
X136149850Y-97880705D01*
X136249690Y-97551578D01*
X136316789Y-97214250D01*
X136350500Y-96871969D01*
X136350500Y-96528031D01*
X136316789Y-96185750D01*
X136249690Y-95848422D01*
X136149855Y-95519309D01*
X136149851Y-95519298D01*
X136149850Y-95519295D01*
X136149848Y-95519291D01*
X136149680Y-95518845D01*
X136149353Y-95518092D01*
X136069129Y-95324419D01*
X136069128Y-95324415D01*
X136052163Y-95283458D01*
X136018231Y-95201538D01*
X135856611Y-94899169D01*
X135856245Y-94898462D01*
X135856100Y-94898213D01*
X135856097Y-94898207D01*
X135665024Y-94612246D01*
X135446833Y-94346378D01*
X135446814Y-94346358D01*
X135203641Y-94103185D01*
X135203621Y-94103166D01*
X134937753Y-93884975D01*
X134925020Y-93876467D01*
X134651797Y-93693905D01*
X134651530Y-93693750D01*
X134650829Y-93693387D01*
X134348460Y-93531767D01*
X134348037Y-93531576D01*
X134347196Y-93531244D01*
X134030740Y-93400162D01*
X134030701Y-93400148D01*
X134030700Y-93400147D01*
X133790858Y-93327393D01*
X133750473Y-93315142D01*
X133702611Y-93300623D01*
X133701506Y-93300271D01*
X133700192Y-93300034D01*
X133364240Y-93233209D01*
X133077592Y-93204978D01*
X133069804Y-93204211D01*
X133021969Y-93199500D01*
X133021968Y-93199500D01*
X132678031Y-93199500D01*
X132630182Y-93204211D01*
X132630183Y-93204212D01*
X132335758Y-93233209D01*
X131998425Y-93300308D01*
X131669298Y-93400147D01*
X131669297Y-93400148D01*
X131669258Y-93400162D01*
X131352802Y-93531244D01*
X131351962Y-93531575D01*
X131351538Y-93531767D01*
X131049169Y-93693387D01*
X131048479Y-93693743D01*
X131048201Y-93693905D01*
X130762252Y-93884970D01*
X130496387Y-94103158D01*
X130496340Y-94103202D01*
X130253202Y-94346340D01*
X130253158Y-94346387D01*
X130034970Y-94612252D01*
X129843905Y-94898201D01*
X129843743Y-94898479D01*
X129843387Y-94899169D01*
X129681767Y-95201538D01*
X129681575Y-95201962D01*
X129681244Y-95202802D01*
X129550162Y-95519258D01*
X129550148Y-95519297D01*
X129550147Y-95519298D01*
X129450308Y-95848425D01*
X129383209Y-96185758D01*
X129349500Y-96528031D01*
X126225229Y-96528031D01*
X126231228Y-96505645D01*
X126253533Y-96422402D01*
X126253535Y-96422393D01*
X126284688Y-96185758D01*
X126290500Y-96141613D01*
X126290500Y-95858385D01*
X126253537Y-95577621D01*
X126253536Y-95577620D01*
X126253535Y-95577606D01*
X126253533Y-95577597D01*
X126180235Y-95304047D01*
X126180234Y-95304045D01*
X126180233Y-95304040D01*
X126180229Y-95304031D01*
X126180190Y-95303884D01*
X126179794Y-95302885D01*
X126179691Y-95302615D01*
X126179170Y-95301472D01*
X126071853Y-95042390D01*
X126071851Y-95042385D01*
X125930245Y-94797115D01*
X125757835Y-94572427D01*
X125757834Y-94572426D01*
X125757831Y-94572422D01*
X125757821Y-94572411D01*
X125557595Y-94372185D01*
X125557577Y-94372168D01*
X125523917Y-94346340D01*
X125332885Y-94199755D01*
X125332875Y-94199749D01*
X125092098Y-94060737D01*
X125092095Y-94060735D01*
X125087615Y-94058149D01*
X125087612Y-94058147D01*
X125087609Y-94058146D01*
X125082661Y-94056096D01*
X125082652Y-94056092D01*
X124825973Y-93949771D01*
X124825958Y-93949766D01*
X124825955Y-93949765D01*
X124825952Y-93949764D01*
X124552402Y-93876466D01*
X124552393Y-93876464D01*
X124552390Y-93876463D01*
X124552377Y-93876461D01*
X124271613Y-93839500D01*
X124271610Y-93839500D01*
X124271607Y-93839500D01*
X123988393Y-93839500D01*
X123988390Y-93839500D01*
X123988387Y-93839500D01*
X123707621Y-93876461D01*
X123707601Y-93876465D01*
X123707593Y-93876467D01*
X123434047Y-93949764D01*
X123434040Y-93949766D01*
X123434025Y-93949771D01*
X123172394Y-94058143D01*
X122927123Y-94199749D01*
X122702422Y-94372168D01*
X122702404Y-94372184D01*
X122502184Y-94572404D01*
X122502168Y-94572422D01*
X122329749Y-94797123D01*
X122188143Y-95042394D01*
X122079771Y-95304025D01*
X122079766Y-95304040D01*
X122079764Y-95304047D01*
X122006467Y-95577593D01*
X122006465Y-95577601D01*
X122006461Y-95577621D01*
X121969500Y-95858385D01*
X121969500Y-95858389D01*
X121969500Y-95858393D01*
X121969500Y-96141607D01*
X121969500Y-96141610D01*
X121969499Y-96141610D01*
X115340500Y-96141610D01*
X115340500Y-86296591D01*
X115351277Y-86266979D01*
X115356831Y-86244578D01*
X115400507Y-86212756D01*
X115454419Y-86216453D01*
X115477185Y-86231763D01*
X115477308Y-86231882D01*
X115479435Y-86233930D01*
X115491523Y-86248800D01*
X115508873Y-86276412D01*
X115602677Y-86425700D01*
X115731881Y-86587717D01*
X115764478Y-86628592D01*
X115827324Y-86691438D01*
X117067143Y-87931256D01*
X117077332Y-87941446D01*
X117077333Y-87941449D01*
X117206382Y-88070498D01*
X117206390Y-88070505D01*
X117206397Y-88070512D01*
X117206407Y-88070521D01*
X117409300Y-88232322D01*
X117629033Y-88370390D01*
X117862843Y-88482987D01*
X118107790Y-88568698D01*
X118210519Y-88592145D01*
X118357030Y-88625586D01*
X118357031Y-88625586D01*
X118360790Y-88626444D01*
X118360791Y-88626444D01*
X118360794Y-88626445D01*
X118618672Y-88655500D01*
X118707549Y-88655500D01*
X119968122Y-88655500D01*
X119986002Y-88657549D01*
X119999891Y-88660777D01*
X120132371Y-88665010D01*
X120138607Y-88665457D01*
X120141538Y-88665784D01*
X120245854Y-88677424D01*
X120253270Y-88678613D01*
X120328719Y-88694430D01*
X120336782Y-88696571D01*
X120391716Y-88714324D01*
X120403507Y-88719220D01*
X120517578Y-88777816D01*
X120528093Y-88784305D01*
X120549521Y-88799968D01*
X120674936Y-88891646D01*
X120675404Y-88891991D01*
X120858485Y-89027903D01*
X120864694Y-89032294D01*
X120865575Y-89032888D01*
X120872069Y-89037045D01*
X121116356Y-89185540D01*
X121120278Y-89187850D01*
X121120817Y-89188158D01*
X121120820Y-89188159D01*
X121120823Y-89188161D01*
X121120826Y-89188162D01*
X121127138Y-89190908D01*
X121135033Y-89196184D01*
X121222433Y-89232386D01*
X121307263Y-89267524D01*
X121308880Y-89268261D01*
X121309829Y-89268586D01*
X121309830Y-89268587D01*
X121309832Y-89268588D01*
X121309834Y-89268588D01*
X121309836Y-89268589D01*
X121495399Y-89305500D01*
X121684601Y-89305500D01*
X121870162Y-89268589D01*
X121870162Y-89268588D01*
X121870167Y-89268588D01*
X121870169Y-89268587D01*
X121870174Y-89268584D01*
X121871122Y-89268260D01*
X121872736Y-89267523D01*
X122044967Y-89196184D01*
X122202283Y-89091069D01*
X122336069Y-88957283D01*
X122441184Y-88799967D01*
X122513588Y-88625167D01*
X122550500Y-88439601D01*
X122550500Y-88250399D01*
X125709500Y-88250399D01*
X125709500Y-88439599D01*
X125746410Y-88625167D01*
X125746736Y-88626118D01*
X125747480Y-88627748D01*
X125775100Y-88694427D01*
X125818813Y-88799963D01*
X125818814Y-88799964D01*
X125818818Y-88799971D01*
X125923927Y-88957279D01*
X125923936Y-88957289D01*
X125923946Y-88957300D01*
X126057705Y-89091059D01*
X126057710Y-89091063D01*
X126057711Y-89091064D01*
X126057717Y-89091069D01*
X126215033Y-89196184D01*
X126273873Y-89220556D01*
X126302427Y-89232384D01*
X126302428Y-89232384D01*
X126302433Y-89232386D01*
X126387263Y-89267524D01*
X126388880Y-89268261D01*
X126389829Y-89268586D01*
X126389830Y-89268587D01*
X126389832Y-89268588D01*
X126389834Y-89268588D01*
X126389836Y-89268589D01*
X126575399Y-89305500D01*
X126764601Y-89305500D01*
X126950162Y-89268589D01*
X126950162Y-89268588D01*
X126950167Y-89268588D01*
X126950169Y-89268587D01*
X126950174Y-89268584D01*
X126951122Y-89268260D01*
X126952736Y-89267523D01*
X127124967Y-89196184D01*
X127282283Y-89091069D01*
X127282283Y-89091068D01*
X127282287Y-89091066D01*
X127285290Y-89088602D01*
X127285332Y-89088653D01*
X127292382Y-89082765D01*
X127293743Y-89081821D01*
X127293750Y-89081818D01*
X127483141Y-88920859D01*
X127485558Y-88918764D01*
X127485902Y-88918460D01*
X127488352Y-88916251D01*
X127636398Y-88780069D01*
X127638653Y-88777955D01*
X127638986Y-88777637D01*
X127641438Y-88775246D01*
X127751414Y-88665785D01*
X127801369Y-88616064D01*
X127801563Y-88615873D01*
X128016804Y-88406118D01*
X128020226Y-88402977D01*
X128160390Y-88281674D01*
X128162844Y-88279639D01*
X128349005Y-88131655D01*
X128359227Y-88119689D01*
X128370027Y-88109249D01*
X128418592Y-88070522D01*
X128510343Y-87978771D01*
X128512182Y-87976932D01*
X128812675Y-87676439D01*
X128875521Y-87613593D01*
X128887211Y-87598935D01*
X128933120Y-87541366D01*
X129037322Y-87410700D01*
X129175390Y-87190967D01*
X129287987Y-86957157D01*
X129373698Y-86712210D01*
X129431445Y-86459206D01*
X129460500Y-86201328D01*
X129460500Y-86071573D01*
X129460500Y-86022395D01*
X129460500Y-79067549D01*
X129460500Y-78978672D01*
X129431445Y-78720794D01*
X129373698Y-78467791D01*
X129287988Y-78222844D01*
X129175391Y-77989034D01*
X129037323Y-77769301D01*
X128875522Y-77566408D01*
X128783771Y-77474657D01*
X128775473Y-77466359D01*
X127541908Y-76232794D01*
X127537093Y-76227524D01*
X127533153Y-76222798D01*
X127523720Y-76207044D01*
X127476969Y-76155414D01*
X127475935Y-76154174D01*
X127475797Y-76153793D01*
X127472048Y-76149108D01*
X127451239Y-76119597D01*
X127443868Y-76106730D01*
X127436157Y-76089746D01*
X127407066Y-76025667D01*
X127404488Y-76019253D01*
X127402663Y-76014071D01*
X127402651Y-76014036D01*
X127401377Y-76010544D01*
X127401195Y-76010062D01*
X127399900Y-76006742D01*
X127357806Y-75902136D01*
X127351560Y-75888446D01*
X127350590Y-75886553D01*
X127350582Y-75886539D01*
X127350573Y-75886522D01*
X127343123Y-75873483D01*
X127343121Y-75873480D01*
X127343112Y-75873464D01*
X127264644Y-75749588D01*
X127260699Y-75743648D01*
X127260121Y-75742817D01*
X127257708Y-75740049D01*
X127249833Y-75729302D01*
X127248871Y-75727727D01*
X127248571Y-75727323D01*
X127162758Y-75641510D01*
X127057747Y-75580881D01*
X127057709Y-75580865D01*
X127057119Y-75580713D01*
X126940630Y-75549500D01*
X126940628Y-75549500D01*
X126940626Y-75549500D01*
X126819374Y-75549500D01*
X126819371Y-75549500D01*
X126819368Y-75549500D01*
X126702879Y-75580713D01*
X126702291Y-75580865D01*
X126702251Y-75580881D01*
X126597240Y-75641510D01*
X126511510Y-75727240D01*
X126450881Y-75832251D01*
X126450865Y-75832291D01*
X126450713Y-75832879D01*
X126419500Y-75949368D01*
X126419500Y-76070630D01*
X126450713Y-76187119D01*
X126450865Y-76187709D01*
X126450881Y-76187747D01*
X126511510Y-76292758D01*
X126597239Y-76378487D01*
X126600476Y-76380820D01*
X126600483Y-76380825D01*
X126602414Y-76382217D01*
X126601905Y-76382922D01*
X126602047Y-76383131D01*
X126609812Y-76388828D01*
X126610136Y-76388448D01*
X126613093Y-76390962D01*
X126613095Y-76390964D01*
X126679927Y-76437324D01*
X126687336Y-76442175D01*
X126688407Y-76442836D01*
X126696147Y-76447329D01*
X126761001Y-76482664D01*
X126770048Y-76487240D01*
X126771339Y-76487844D01*
X126780547Y-76491816D01*
X126860923Y-76523639D01*
X126874742Y-76529111D01*
X126876727Y-76529928D01*
X126968516Y-76569188D01*
X126981728Y-76576399D01*
X127013863Y-76598148D01*
X127022311Y-76604743D01*
X127077669Y-76654360D01*
X127077671Y-76654361D01*
X127077674Y-76654364D01*
X127089081Y-76661327D01*
X127103782Y-76672896D01*
X128341901Y-77911015D01*
X128343702Y-77912875D01*
X128345487Y-77914781D01*
X128347202Y-77916674D01*
X128485273Y-78074112D01*
X128488515Y-78078063D01*
X128491679Y-78082186D01*
X128494674Y-78086366D01*
X128532053Y-78142307D01*
X128608833Y-78257217D01*
X128611560Y-78261601D01*
X128614143Y-78266074D01*
X128616583Y-78270639D01*
X128647740Y-78333819D01*
X128699577Y-78438935D01*
X128707461Y-78454921D01*
X128709598Y-78459638D01*
X128711574Y-78464410D01*
X128713391Y-78469240D01*
X128760574Y-78608233D01*
X128775999Y-78653673D01*
X128779394Y-78663675D01*
X128779436Y-78663798D01*
X128780934Y-78668736D01*
X128782273Y-78673735D01*
X128783444Y-78678757D01*
X128823530Y-78880284D01*
X128824371Y-78885379D01*
X128825045Y-78890496D01*
X128825553Y-78895646D01*
X128839246Y-79104554D01*
X128839373Y-79107132D01*
X128839458Y-79109724D01*
X128839500Y-79112313D01*
X128839500Y-86067685D01*
X128839458Y-86070274D01*
X128839373Y-86072866D01*
X128839246Y-86075444D01*
X128825553Y-86284352D01*
X128825045Y-86289502D01*
X128824371Y-86294619D01*
X128823530Y-86299714D01*
X128783447Y-86501225D01*
X128782271Y-86506269D01*
X128780929Y-86511275D01*
X128779430Y-86516213D01*
X128713392Y-86710754D01*
X128711572Y-86715591D01*
X128709593Y-86720369D01*
X128707459Y-86725079D01*
X128616583Y-86909359D01*
X128614143Y-86913924D01*
X128611560Y-86918397D01*
X128608833Y-86922781D01*
X128494680Y-87093624D01*
X128491668Y-87097827D01*
X128488528Y-87101919D01*
X128485259Y-87105902D01*
X128419233Y-87181190D01*
X128347208Y-87263318D01*
X128345490Y-87265214D01*
X128343721Y-87267104D01*
X128341906Y-87268980D01*
X128084220Y-87526666D01*
X128074694Y-87536192D01*
X128073977Y-87536909D01*
X128072118Y-87538708D01*
X128070245Y-87540462D01*
X128068333Y-87542195D01*
X127981530Y-87618318D01*
X127971764Y-87625219D01*
X127971821Y-87625300D01*
X127901786Y-87674078D01*
X127894351Y-87678668D01*
X127840106Y-87708140D01*
X127830705Y-87712476D01*
X127793219Y-87726867D01*
X127782136Y-87730213D01*
X127762650Y-87734568D01*
X127744285Y-87736462D01*
X127688472Y-87735661D01*
X127666119Y-87732097D01*
X127596797Y-87710511D01*
X127583198Y-87704837D01*
X127430305Y-87623549D01*
X127428737Y-87622692D01*
X127309951Y-87556047D01*
X127305001Y-87553379D01*
X127304329Y-87553031D01*
X127302526Y-87552137D01*
X127299328Y-87550551D01*
X127203246Y-87504882D01*
X127163273Y-87485882D01*
X127154267Y-87481925D01*
X127153003Y-87481414D01*
X127143854Y-87478025D01*
X126987185Y-87425185D01*
X126978084Y-87422488D01*
X126975409Y-87421695D01*
X126973725Y-87421263D01*
X126967433Y-87419899D01*
X126961532Y-87418619D01*
X126789758Y-87388104D01*
X126783505Y-87387118D01*
X126781995Y-87386909D01*
X126769714Y-87385517D01*
X126769607Y-87385495D01*
X126764601Y-87384500D01*
X126764599Y-87384500D01*
X126575399Y-87384500D01*
X126389831Y-87421410D01*
X126388877Y-87421737D01*
X126387239Y-87422484D01*
X126358094Y-87434557D01*
X126215035Y-87493813D01*
X126215034Y-87493814D01*
X126215027Y-87493818D01*
X126057719Y-87598927D01*
X126057709Y-87598936D01*
X126057698Y-87598946D01*
X125923946Y-87732698D01*
X125923936Y-87732709D01*
X125923927Y-87732719D01*
X125818818Y-87890027D01*
X125818814Y-87890034D01*
X125818813Y-87890035D01*
X125761160Y-88029224D01*
X125752065Y-88051184D01*
X125747488Y-88062233D01*
X125746737Y-88063877D01*
X125746410Y-88064831D01*
X125709500Y-88250399D01*
X122550500Y-88250399D01*
X122522423Y-88109247D01*
X122514720Y-88070521D01*
X122514720Y-88070520D01*
X122513588Y-88064834D01*
X122513588Y-88064832D01*
X122513587Y-88064830D01*
X122513584Y-88064824D01*
X122513258Y-88063870D01*
X122512510Y-88062230D01*
X122501024Y-88034500D01*
X122446967Y-87903995D01*
X122446805Y-87903605D01*
X122441187Y-87890040D01*
X122441184Y-87890034D01*
X122441184Y-87890033D01*
X122336069Y-87732717D01*
X122336064Y-87732711D01*
X122336062Y-87732709D01*
X122336059Y-87732705D01*
X122202300Y-87598946D01*
X122202289Y-87598936D01*
X122202279Y-87598927D01*
X122051437Y-87498139D01*
X122051437Y-87498138D01*
X122044605Y-87493574D01*
X122042385Y-87492746D01*
X122006845Y-87478025D01*
X121872748Y-87422480D01*
X121871118Y-87421736D01*
X121870167Y-87421410D01*
X121684601Y-87384500D01*
X121495399Y-87384500D01*
X121309831Y-87421410D01*
X121308877Y-87421737D01*
X121307239Y-87422484D01*
X121250470Y-87445999D01*
X121135037Y-87493813D01*
X121135026Y-87493820D01*
X121130393Y-87496915D01*
X121119757Y-87502313D01*
X121119950Y-87502715D01*
X121116450Y-87504394D01*
X120874523Y-87651266D01*
X120868072Y-87655392D01*
X120867200Y-87655978D01*
X120860963Y-87660384D01*
X120674848Y-87798421D01*
X120674753Y-87798491D01*
X120536873Y-87900434D01*
X120530823Y-87904490D01*
X120477012Y-87937070D01*
X120469750Y-87940964D01*
X120458907Y-87946069D01*
X120413618Y-87967390D01*
X120404921Y-87970870D01*
X120340210Y-87992412D01*
X120331488Y-87994771D01*
X120249783Y-88011923D01*
X120242146Y-88013139D01*
X120136523Y-88024697D01*
X120130411Y-88025127D01*
X119999985Y-88029224D01*
X119984903Y-88032597D01*
X119967667Y-88034500D01*
X118752315Y-88034500D01*
X118749736Y-88034458D01*
X118747534Y-88034386D01*
X118747134Y-88034373D01*
X118744555Y-88034246D01*
X118535646Y-88020553D01*
X118530496Y-88020045D01*
X118525379Y-88019371D01*
X118520284Y-88018530D01*
X118318773Y-87978447D01*
X118313729Y-87977271D01*
X118308723Y-87975929D01*
X118303785Y-87974430D01*
X118109244Y-87908392D01*
X118104407Y-87906572D01*
X118099629Y-87904593D01*
X118094919Y-87902459D01*
X117910639Y-87811583D01*
X117906074Y-87809143D01*
X117901601Y-87806560D01*
X117897217Y-87803833D01*
X117795190Y-87735661D01*
X117726365Y-87689673D01*
X117722185Y-87686678D01*
X117718062Y-87683514D01*
X117714111Y-87680272D01*
X117556665Y-87542195D01*
X117554786Y-87540491D01*
X117552874Y-87538700D01*
X117551020Y-87536905D01*
X117550307Y-87536192D01*
X117550307Y-87536193D01*
X117518995Y-87504882D01*
X117518995Y-87504881D01*
X117518994Y-87504881D01*
X117171492Y-87157379D01*
X117119512Y-87105399D01*
X123169500Y-87105399D01*
X123169500Y-87294599D01*
X123206410Y-87480167D01*
X123206738Y-87481124D01*
X123207487Y-87482765D01*
X123261677Y-87613591D01*
X123267445Y-87627516D01*
X123278816Y-87654967D01*
X123293162Y-87676438D01*
X123293163Y-87676439D01*
X123383927Y-87812279D01*
X123383936Y-87812289D01*
X123383946Y-87812300D01*
X123517705Y-87946059D01*
X123517710Y-87946063D01*
X123517711Y-87946064D01*
X123517717Y-87946069D01*
X123675033Y-88051184D01*
X123733873Y-88075556D01*
X123762427Y-88087384D01*
X123762428Y-88087384D01*
X123762433Y-88087386D01*
X123847263Y-88122524D01*
X123848880Y-88123261D01*
X123849829Y-88123586D01*
X123849830Y-88123587D01*
X123849832Y-88123588D01*
X123849834Y-88123588D01*
X123849836Y-88123589D01*
X124035399Y-88160500D01*
X124224601Y-88160500D01*
X124410162Y-88123589D01*
X124410162Y-88123588D01*
X124410167Y-88123588D01*
X124410169Y-88123587D01*
X124410174Y-88123584D01*
X124411122Y-88123260D01*
X124412736Y-88122523D01*
X124584967Y-88051184D01*
X124742283Y-87946069D01*
X124876069Y-87812283D01*
X124981184Y-87654967D01*
X125053588Y-87480167D01*
X125090500Y-87294601D01*
X125090500Y-87105399D01*
X125061011Y-86957151D01*
X125053588Y-86919832D01*
X125053587Y-86919830D01*
X124982257Y-86747624D01*
X124981629Y-86745942D01*
X124981185Y-86745036D01*
X124981184Y-86745033D01*
X124876069Y-86587717D01*
X124876064Y-86587711D01*
X124876062Y-86587709D01*
X124876059Y-86587705D01*
X124742300Y-86453946D01*
X124742289Y-86453936D01*
X124742279Y-86453927D01*
X124603799Y-86361399D01*
X124584607Y-86348575D01*
X124582383Y-86347745D01*
X124520448Y-86322091D01*
X124412748Y-86277480D01*
X124411118Y-86276736D01*
X124410167Y-86276410D01*
X124224601Y-86239500D01*
X124035399Y-86239500D01*
X123849831Y-86276410D01*
X123848877Y-86276737D01*
X123847239Y-86277484D01*
X123818228Y-86289502D01*
X123675035Y-86348813D01*
X123675034Y-86348814D01*
X123675027Y-86348818D01*
X123517719Y-86453927D01*
X123517709Y-86453936D01*
X123517698Y-86453946D01*
X123383946Y-86587698D01*
X123383936Y-86587709D01*
X123383927Y-86587719D01*
X123278818Y-86745027D01*
X123278814Y-86745034D01*
X123278813Y-86745035D01*
X123219557Y-86888094D01*
X123208859Y-86913924D01*
X123207488Y-86917233D01*
X123206737Y-86918877D01*
X123206410Y-86919831D01*
X123169500Y-87105399D01*
X117119512Y-87105399D01*
X116815183Y-86801070D01*
X116298097Y-86283983D01*
X116296296Y-86282123D01*
X116294511Y-86280217D01*
X116292799Y-86278328D01*
X116154722Y-86120883D01*
X116151485Y-86116938D01*
X116148315Y-86112806D01*
X116145328Y-86108638D01*
X116034198Y-85942320D01*
X116031160Y-85937775D01*
X116028428Y-85933380D01*
X116025848Y-85928910D01*
X116023416Y-85924360D01*
X115952482Y-85780521D01*
X115952482Y-85780520D01*
X115932535Y-85740073D01*
X115930400Y-85735361D01*
X115928431Y-85730607D01*
X115926623Y-85725805D01*
X115860553Y-85531169D01*
X115859065Y-85526266D01*
X115857719Y-85521241D01*
X115856559Y-85516263D01*
X115816463Y-85314688D01*
X115815629Y-85309637D01*
X115814948Y-85304466D01*
X115814447Y-85299376D01*
X115811257Y-85250700D01*
X115800750Y-85090398D01*
X115800627Y-85087896D01*
X115800540Y-85085231D01*
X115800500Y-85082685D01*
X115800500Y-85069371D01*
X116714500Y-85069371D01*
X116714500Y-85071088D01*
X116714500Y-85190630D01*
X116745713Y-85307119D01*
X116745865Y-85307709D01*
X116745881Y-85307747D01*
X116806510Y-85412758D01*
X116892241Y-85498489D01*
X116892680Y-85498805D01*
X116894281Y-85499667D01*
X116997253Y-85559118D01*
X117114374Y-85590500D01*
X117114376Y-85590500D01*
X117235624Y-85590500D01*
X117235626Y-85590500D01*
X117352747Y-85559118D01*
X117457754Y-85498492D01*
X117543492Y-85412754D01*
X117604118Y-85307747D01*
X117635500Y-85190626D01*
X117635500Y-85069374D01*
X117634824Y-85064243D01*
X117635033Y-85064215D01*
X117633680Y-85053197D01*
X117633426Y-85053218D01*
X117633113Y-85049349D01*
X117631815Y-85042173D01*
X117618637Y-84969308D01*
X117616828Y-84960636D01*
X117616824Y-84960618D01*
X117616544Y-84959434D01*
X117616538Y-84959411D01*
X117614242Y-84950763D01*
X117599011Y-84899067D01*
X117593379Y-84879949D01*
X117592842Y-84878313D01*
X117590224Y-84870334D01*
X117589739Y-84868995D01*
X117586021Y-84859631D01*
X117545749Y-84766564D01*
X117544963Y-84764677D01*
X117507812Y-84671994D01*
X117503572Y-84657568D01*
X117496225Y-84619444D01*
X117494918Y-84608832D01*
X117490858Y-84534589D01*
X117487715Y-84521596D01*
X117485500Y-84503021D01*
X117485500Y-78787313D01*
X117485541Y-78784757D01*
X117485628Y-78782099D01*
X117485749Y-78779614D01*
X117488999Y-78730036D01*
X117499448Y-78570617D01*
X117499954Y-78565490D01*
X117500627Y-78560381D01*
X117501468Y-78555286D01*
X117541558Y-78353740D01*
X117542720Y-78348754D01*
X117544072Y-78343710D01*
X117545558Y-78338814D01*
X117547255Y-78333817D01*
X117611621Y-78144200D01*
X117613423Y-78139412D01*
X117615405Y-78134627D01*
X117617528Y-78129941D01*
X117708431Y-77945607D01*
X117710844Y-77941092D01*
X117713444Y-77936590D01*
X117716151Y-77932238D01*
X117830340Y-77761341D01*
X117833310Y-77757197D01*
X117836494Y-77753048D01*
X117839728Y-77749109D01*
X117977822Y-77591644D01*
X117979522Y-77589769D01*
X117981261Y-77587912D01*
X117983035Y-77586077D01*
X117994749Y-77574365D01*
X118725058Y-76844054D01*
X118747525Y-76828323D01*
X118750704Y-76826840D01*
X118804537Y-76822131D01*
X118848803Y-76853126D01*
X118862789Y-76905324D01*
X118845855Y-76947694D01*
X118812334Y-76989728D01*
X118811344Y-76991421D01*
X118674606Y-77209036D01*
X118562010Y-77442849D01*
X118476302Y-77687789D01*
X118476298Y-77687802D01*
X118419960Y-77934628D01*
X118419958Y-77934640D01*
X118418557Y-77940781D01*
X118418555Y-77940788D01*
X118407377Y-78040001D01*
X118389500Y-78198672D01*
X118389500Y-78287549D01*
X118389500Y-83862395D01*
X118389500Y-83911573D01*
X118389500Y-84041328D01*
X118398854Y-84124351D01*
X118399145Y-84126932D01*
X118418555Y-84299212D01*
X118476301Y-84552211D01*
X118476403Y-84552498D01*
X118551323Y-84766610D01*
X118562012Y-84797156D01*
X118630838Y-84940075D01*
X118674608Y-85030965D01*
X118674610Y-85030968D01*
X118709548Y-85086573D01*
X118709549Y-85086573D01*
X118812677Y-85250699D01*
X118861704Y-85312177D01*
X118974461Y-85453572D01*
X118974469Y-85453581D01*
X118974477Y-85453591D01*
X118974486Y-85453601D01*
X118974491Y-85453606D01*
X118974499Y-85453615D01*
X119048411Y-85527527D01*
X119048435Y-85527549D01*
X119172329Y-85651442D01*
X119172331Y-85651447D01*
X119301382Y-85780498D01*
X119301390Y-85780505D01*
X119301397Y-85780512D01*
X119301407Y-85780521D01*
X119504300Y-85942322D01*
X119724033Y-86080390D01*
X119868101Y-86149769D01*
X119876267Y-86154556D01*
X119876361Y-86154407D01*
X119878003Y-86155440D01*
X119878009Y-86155444D01*
X119906263Y-86171352D01*
X120082205Y-86248801D01*
X120084541Y-86249829D01*
X120088354Y-86251631D01*
X120183448Y-86299714D01*
X120227703Y-86322091D01*
X120233921Y-86325596D01*
X120448646Y-86459776D01*
X120453328Y-86462940D01*
X120556832Y-86538417D01*
X120558551Y-86539653D01*
X120558769Y-86539810D01*
X120772787Y-86691437D01*
X120781293Y-86697463D01*
X120784393Y-86699606D01*
X120784445Y-86699641D01*
X120784455Y-86699648D01*
X120784831Y-86699902D01*
X120787740Y-86701820D01*
X120788068Y-86702032D01*
X120788111Y-86702059D01*
X120790693Y-86703690D01*
X120791089Y-86703935D01*
X120793636Y-86705473D01*
X120794118Y-86705764D01*
X121116505Y-86895837D01*
X121119958Y-86897397D01*
X121120776Y-86897772D01*
X121126274Y-86900331D01*
X121135033Y-86906184D01*
X121167985Y-86919833D01*
X121169545Y-86920479D01*
X121169549Y-86920481D01*
X121175102Y-86922781D01*
X121307251Y-86977518D01*
X121308875Y-86978260D01*
X121309829Y-86978586D01*
X121309830Y-86978587D01*
X121309832Y-86978588D01*
X121309834Y-86978588D01*
X121309836Y-86978589D01*
X121495399Y-87015500D01*
X121684601Y-87015500D01*
X121870162Y-86978589D01*
X121870162Y-86978588D01*
X121870167Y-86978588D01*
X121870169Y-86978587D01*
X121870174Y-86978584D01*
X121871125Y-86978259D01*
X121872747Y-86977518D01*
X121918500Y-86958568D01*
X121921907Y-86957157D01*
X121969496Y-86937444D01*
X122044967Y-86906184D01*
X122202283Y-86801069D01*
X122336069Y-86667283D01*
X122441184Y-86509967D01*
X122513588Y-86335167D01*
X122550500Y-86149601D01*
X122550500Y-85960399D01*
X125709500Y-85960399D01*
X125709500Y-86149600D01*
X125713827Y-86171352D01*
X125746410Y-86335167D01*
X125746736Y-86336118D01*
X125747480Y-86337748D01*
X125752066Y-86348818D01*
X125818813Y-86509963D01*
X125818814Y-86509964D01*
X125818818Y-86509971D01*
X125923927Y-86667279D01*
X125923936Y-86667289D01*
X125923946Y-86667300D01*
X126057705Y-86801059D01*
X126057710Y-86801063D01*
X126057711Y-86801064D01*
X126057717Y-86801069D01*
X126215033Y-86906184D01*
X126238332Y-86915835D01*
X126247984Y-86919833D01*
X126247985Y-86919833D01*
X126387251Y-86977518D01*
X126388875Y-86978260D01*
X126389829Y-86978586D01*
X126389830Y-86978587D01*
X126389832Y-86978588D01*
X126389834Y-86978588D01*
X126389836Y-86978589D01*
X126575399Y-87015500D01*
X126764601Y-87015500D01*
X126950162Y-86978589D01*
X126950162Y-86978588D01*
X126950167Y-86978588D01*
X126950169Y-86978587D01*
X126950174Y-86978584D01*
X126951125Y-86978259D01*
X126952747Y-86977518D01*
X126998500Y-86958568D01*
X127001907Y-86957157D01*
X127049496Y-86937444D01*
X127124967Y-86906184D01*
X127282283Y-86801069D01*
X127416069Y-86667283D01*
X127521184Y-86509967D01*
X127593588Y-86335167D01*
X127630500Y-86149601D01*
X127630500Y-85960399D01*
X127605275Y-85833587D01*
X127593588Y-85774832D01*
X127593587Y-85774830D01*
X127589940Y-85766026D01*
X127589940Y-85766024D01*
X127527754Y-85615894D01*
X127521184Y-85600033D01*
X127451107Y-85495155D01*
X127423335Y-85453591D01*
X127416071Y-85442719D01*
X127416062Y-85442709D01*
X127416052Y-85442698D01*
X127282300Y-85308946D01*
X127282289Y-85308936D01*
X127282279Y-85308927D01*
X127131437Y-85208139D01*
X127131437Y-85208138D01*
X127124605Y-85203574D01*
X127122385Y-85202746D01*
X127091214Y-85189835D01*
X126952748Y-85132480D01*
X126951118Y-85131736D01*
X126950167Y-85131410D01*
X126764601Y-85094500D01*
X126575399Y-85094500D01*
X126389831Y-85131410D01*
X126388877Y-85131737D01*
X126387244Y-85132483D01*
X126358094Y-85144557D01*
X126215035Y-85203813D01*
X126215034Y-85203814D01*
X126215027Y-85203818D01*
X126057719Y-85308927D01*
X126057709Y-85308936D01*
X126057698Y-85308946D01*
X125923946Y-85442698D01*
X125923936Y-85442709D01*
X125923927Y-85442719D01*
X125818818Y-85600027D01*
X125818814Y-85600034D01*
X125818813Y-85600035D01*
X125782059Y-85688770D01*
X125752065Y-85761184D01*
X125747488Y-85772233D01*
X125746737Y-85773877D01*
X125746410Y-85774831D01*
X125716668Y-85924360D01*
X125709500Y-85960399D01*
X122550500Y-85960399D01*
X122525275Y-85833587D01*
X122514720Y-85780521D01*
X122513588Y-85774830D01*
X122513260Y-85773874D01*
X122512517Y-85772245D01*
X122450264Y-85621954D01*
X122447754Y-85615894D01*
X122441184Y-85600033D01*
X122371107Y-85495155D01*
X122343335Y-85453591D01*
X122336071Y-85442719D01*
X122336062Y-85442709D01*
X122336052Y-85442698D01*
X122202300Y-85308946D01*
X122202289Y-85308936D01*
X122202279Y-85308927D01*
X122051437Y-85208139D01*
X122051437Y-85208138D01*
X122044605Y-85203574D01*
X122042385Y-85202746D01*
X122011214Y-85189835D01*
X121872748Y-85132480D01*
X121871118Y-85131736D01*
X121870167Y-85131410D01*
X121684601Y-85094500D01*
X121495399Y-85094500D01*
X121309831Y-85131410D01*
X121308873Y-85131738D01*
X121307242Y-85132483D01*
X121298852Y-85135959D01*
X121290265Y-85138950D01*
X121283105Y-85140990D01*
X121283096Y-85140993D01*
X121094636Y-85215322D01*
X121088592Y-85217845D01*
X121087724Y-85218229D01*
X121081347Y-85221205D01*
X121080515Y-85221616D01*
X121074793Y-85224576D01*
X121074007Y-85225003D01*
X121068006Y-85228419D01*
X120889633Y-85334961D01*
X120885096Y-85337771D01*
X120884529Y-85338135D01*
X120880806Y-85340596D01*
X120880225Y-85340991D01*
X120876050Y-85343928D01*
X120875533Y-85344304D01*
X120871639Y-85347222D01*
X120792389Y-85408461D01*
X120709045Y-85472864D01*
X120573918Y-85576300D01*
X120565704Y-85581808D01*
X120520651Y-85608088D01*
X120509678Y-85613400D01*
X120469719Y-85629064D01*
X120455097Y-85633225D01*
X120414682Y-85640615D01*
X120398968Y-85641889D01*
X120345911Y-85640879D01*
X120332034Y-85639381D01*
X120256202Y-85624329D01*
X120245507Y-85621413D01*
X120142248Y-85585306D01*
X120142237Y-85585302D01*
X120142235Y-85585302D01*
X120142231Y-85585301D01*
X120142221Y-85585298D01*
X120135416Y-85583594D01*
X120119668Y-85577814D01*
X120005640Y-85521583D01*
X120001074Y-85519143D01*
X119996601Y-85516560D01*
X119992217Y-85513833D01*
X119902058Y-85453591D01*
X119821365Y-85399673D01*
X119817185Y-85396678D01*
X119813062Y-85393514D01*
X119809111Y-85390272D01*
X119651685Y-85252212D01*
X119649792Y-85250497D01*
X119649715Y-85250425D01*
X119647894Y-85248720D01*
X119646041Y-85246927D01*
X119613995Y-85214882D01*
X119613994Y-85214881D01*
X119508070Y-85108956D01*
X119506278Y-85107104D01*
X119504498Y-85105203D01*
X119502782Y-85103309D01*
X119490366Y-85089151D01*
X119364722Y-84945883D01*
X119361485Y-84941938D01*
X119358315Y-84937806D01*
X119355328Y-84933638D01*
X119303056Y-84855408D01*
X119297602Y-84847246D01*
X119297601Y-84847244D01*
X119297601Y-84847245D01*
X119241148Y-84762756D01*
X119238443Y-84758406D01*
X119235837Y-84753892D01*
X119233413Y-84749355D01*
X119221649Y-84725501D01*
X119221649Y-84725500D01*
X119142535Y-84565072D01*
X119140406Y-84560374D01*
X119139645Y-84558538D01*
X119138430Y-84555604D01*
X119136623Y-84550805D01*
X119070553Y-84356169D01*
X119069065Y-84351266D01*
X119067719Y-84346241D01*
X119066557Y-84341256D01*
X119058194Y-84299208D01*
X119026463Y-84139688D01*
X119025629Y-84134637D01*
X119024948Y-84129466D01*
X119024447Y-84124375D01*
X119020150Y-84058814D01*
X119010750Y-83915390D01*
X119010627Y-83912896D01*
X119010540Y-83910234D01*
X119010500Y-83907685D01*
X119010500Y-83670399D01*
X120629500Y-83670399D01*
X120629500Y-83859599D01*
X120666410Y-84045167D01*
X120666736Y-84046118D01*
X120667480Y-84047748D01*
X120696912Y-84118804D01*
X120738813Y-84219963D01*
X120738814Y-84219964D01*
X120738818Y-84219971D01*
X120843927Y-84377279D01*
X120843936Y-84377289D01*
X120843946Y-84377300D01*
X120977705Y-84511059D01*
X120977710Y-84511063D01*
X120977711Y-84511064D01*
X120977717Y-84511069D01*
X121135033Y-84616184D01*
X121158332Y-84625835D01*
X121167984Y-84629833D01*
X121167985Y-84629833D01*
X121307251Y-84687518D01*
X121308875Y-84688260D01*
X121309829Y-84688586D01*
X121309830Y-84688587D01*
X121309832Y-84688588D01*
X121309834Y-84688588D01*
X121309836Y-84688589D01*
X121495399Y-84725500D01*
X121684601Y-84725500D01*
X121870162Y-84688589D01*
X121870162Y-84688588D01*
X121870167Y-84688588D01*
X121870169Y-84688587D01*
X121870174Y-84688584D01*
X121871122Y-84688260D01*
X121872736Y-84687523D01*
X122044967Y-84616184D01*
X122202283Y-84511069D01*
X122336069Y-84377283D01*
X122441184Y-84219967D01*
X122513588Y-84045167D01*
X122550500Y-83859601D01*
X122550500Y-83670399D01*
X122513588Y-83484833D01*
X122513587Y-83484831D01*
X122513587Y-83484830D01*
X122441185Y-83310036D01*
X122441184Y-83310033D01*
X122336069Y-83152717D01*
X122336064Y-83152711D01*
X122336062Y-83152709D01*
X122336059Y-83152705D01*
X122202300Y-83018946D01*
X122202289Y-83018936D01*
X122202279Y-83018927D01*
X122097405Y-82948854D01*
X122044605Y-82913574D01*
X122042383Y-82912745D01*
X121988194Y-82890299D01*
X121872748Y-82842480D01*
X121871118Y-82841736D01*
X121870167Y-82841410D01*
X121684601Y-82804500D01*
X121495399Y-82804500D01*
X121309831Y-82841410D01*
X121308877Y-82841737D01*
X121307239Y-82842484D01*
X121286584Y-82851041D01*
X121135035Y-82913813D01*
X121135034Y-82913814D01*
X121135027Y-82913818D01*
X120977719Y-83018927D01*
X120977709Y-83018936D01*
X120977698Y-83018946D01*
X120843946Y-83152698D01*
X120843936Y-83152709D01*
X120843927Y-83152719D01*
X120738818Y-83310027D01*
X120738814Y-83310034D01*
X120738813Y-83310035D01*
X120667488Y-83482233D01*
X120666737Y-83483877D01*
X120666410Y-83484831D01*
X120629500Y-83670399D01*
X119010500Y-83670399D01*
X119010500Y-81380399D01*
X120629500Y-81380399D01*
X120629500Y-81569599D01*
X120666410Y-81755167D01*
X120666736Y-81756118D01*
X120667480Y-81757748D01*
X120696912Y-81828804D01*
X120738813Y-81929963D01*
X120738814Y-81929964D01*
X120738818Y-81929971D01*
X120843927Y-82087279D01*
X120843936Y-82087289D01*
X120843946Y-82087300D01*
X120977705Y-82221059D01*
X120977710Y-82221063D01*
X120977711Y-82221064D01*
X120977717Y-82221069D01*
X121135033Y-82326184D01*
X121193873Y-82350556D01*
X121222427Y-82362384D01*
X121222428Y-82362384D01*
X121222433Y-82362386D01*
X121307263Y-82397524D01*
X121308880Y-82398261D01*
X121309829Y-82398586D01*
X121309830Y-82398587D01*
X121309832Y-82398588D01*
X121309834Y-82398588D01*
X121309836Y-82398589D01*
X121495399Y-82435500D01*
X121684601Y-82435500D01*
X121870162Y-82398589D01*
X121870162Y-82398588D01*
X121870167Y-82398588D01*
X121870169Y-82398587D01*
X121870174Y-82398584D01*
X121871122Y-82398260D01*
X121872736Y-82397523D01*
X122044967Y-82326184D01*
X122202283Y-82221069D01*
X122336069Y-82087283D01*
X122441184Y-81929967D01*
X122513588Y-81755167D01*
X122550500Y-81569601D01*
X122550500Y-81380399D01*
X122513588Y-81194833D01*
X122513587Y-81194831D01*
X122513587Y-81194830D01*
X122441185Y-81020036D01*
X122441184Y-81020033D01*
X122336069Y-80862717D01*
X122336064Y-80862711D01*
X122336062Y-80862709D01*
X122336059Y-80862705D01*
X122202300Y-80728946D01*
X122202289Y-80728936D01*
X122202279Y-80728927D01*
X122097405Y-80658854D01*
X122044605Y-80623574D01*
X122042383Y-80622745D01*
X121988194Y-80600299D01*
X121872748Y-80552480D01*
X121871118Y-80551736D01*
X121870167Y-80551410D01*
X121684601Y-80514500D01*
X121495399Y-80514500D01*
X121309831Y-80551410D01*
X121308877Y-80551737D01*
X121307239Y-80552484D01*
X121286584Y-80561041D01*
X121135035Y-80623813D01*
X121135034Y-80623814D01*
X121135027Y-80623818D01*
X120977719Y-80728927D01*
X120977709Y-80728936D01*
X120977698Y-80728946D01*
X120843946Y-80862698D01*
X120843936Y-80862709D01*
X120843927Y-80862719D01*
X120738818Y-81020027D01*
X120738814Y-81020034D01*
X120738813Y-81020035D01*
X120667488Y-81192233D01*
X120666737Y-81193877D01*
X120666410Y-81194831D01*
X120629500Y-81380399D01*
X119010500Y-81380399D01*
X119010500Y-79090399D01*
X120629500Y-79090399D01*
X120629500Y-79279599D01*
X120666410Y-79465167D01*
X120666736Y-79466118D01*
X120667480Y-79467748D01*
X120696912Y-79538804D01*
X120738813Y-79639963D01*
X120738814Y-79639964D01*
X120738818Y-79639971D01*
X120843927Y-79797279D01*
X120843936Y-79797289D01*
X120843946Y-79797300D01*
X120977705Y-79931059D01*
X120977710Y-79931063D01*
X120977711Y-79931064D01*
X120977717Y-79931069D01*
X121135033Y-80036184D01*
X121162652Y-80047624D01*
X121307251Y-80107518D01*
X121308875Y-80108260D01*
X121309829Y-80108586D01*
X121309830Y-80108587D01*
X121309832Y-80108588D01*
X121309834Y-80108588D01*
X121309836Y-80108589D01*
X121495399Y-80145500D01*
X121684601Y-80145500D01*
X121870162Y-80108589D01*
X121870162Y-80108588D01*
X121870167Y-80108588D01*
X121870169Y-80108587D01*
X121870174Y-80108584D01*
X121871122Y-80108260D01*
X121872736Y-80107523D01*
X122044967Y-80036184D01*
X122202283Y-79931069D01*
X122336069Y-79797283D01*
X122441184Y-79639967D01*
X122513588Y-79465167D01*
X122550500Y-79279601D01*
X122550500Y-79090399D01*
X122513588Y-78904833D01*
X122512511Y-78902233D01*
X122508714Y-78893065D01*
X122508713Y-78893065D01*
X122507649Y-78890496D01*
X122442252Y-78732612D01*
X122441628Y-78730940D01*
X122441185Y-78730036D01*
X122441184Y-78730033D01*
X122336069Y-78572717D01*
X122336064Y-78572711D01*
X122336062Y-78572709D01*
X122336059Y-78572705D01*
X122202300Y-78438946D01*
X122202289Y-78438936D01*
X122202279Y-78438927D01*
X122071026Y-78351228D01*
X122071026Y-78351227D01*
X122044972Y-78333819D01*
X122044968Y-78333817D01*
X122044967Y-78333816D01*
X122044964Y-78333815D01*
X122044963Y-78333814D01*
X122044955Y-78333810D01*
X122044049Y-78333367D01*
X122042383Y-78332745D01*
X121988194Y-78310299D01*
X121872748Y-78262480D01*
X121871118Y-78261736D01*
X121870167Y-78261410D01*
X121684601Y-78224500D01*
X121495399Y-78224500D01*
X121309831Y-78261410D01*
X121308877Y-78261737D01*
X121307239Y-78262484D01*
X121290823Y-78269285D01*
X121135035Y-78333813D01*
X121135034Y-78333814D01*
X121135027Y-78333818D01*
X120977719Y-78438927D01*
X120977709Y-78438936D01*
X120977698Y-78438946D01*
X120843946Y-78572698D01*
X120843936Y-78572709D01*
X120843927Y-78572719D01*
X120738818Y-78730027D01*
X120738814Y-78730034D01*
X120738813Y-78730035D01*
X120679557Y-78873094D01*
X120671285Y-78893067D01*
X120667488Y-78902233D01*
X120666737Y-78903877D01*
X120666410Y-78904831D01*
X120629500Y-79090399D01*
X119010500Y-79090399D01*
X119010500Y-78332313D01*
X119010541Y-78329754D01*
X119010628Y-78327099D01*
X119010750Y-78324603D01*
X119017420Y-78222844D01*
X119024448Y-78115619D01*
X119024954Y-78110490D01*
X119025627Y-78105381D01*
X119026468Y-78100286D01*
X119031680Y-78074084D01*
X119058813Y-77937678D01*
X122830000Y-77937678D01*
X122830000Y-78142320D01*
X122830001Y-78142331D01*
X122862005Y-78344401D01*
X122862006Y-78344406D01*
X122862014Y-78344432D01*
X122863410Y-78348727D01*
X122925242Y-78539024D01*
X122925249Y-78539042D01*
X122983657Y-78653673D01*
X123018137Y-78721344D01*
X123018142Y-78721353D01*
X123050524Y-78765921D01*
X123561765Y-78254680D01*
X123610741Y-78231842D01*
X123662938Y-78245828D01*
X123686042Y-78271041D01*
X123729902Y-78347009D01*
X123822990Y-78440097D01*
X123822992Y-78440098D01*
X123822993Y-78440099D01*
X123870957Y-78467791D01*
X123898956Y-78483956D01*
X123933692Y-78525352D01*
X123933692Y-78579392D01*
X123915317Y-78608233D01*
X123414849Y-79108701D01*
X123428361Y-79143252D01*
X123432519Y-79157927D01*
X123433562Y-79163678D01*
X123432653Y-79168981D01*
X123434397Y-79186031D01*
X123434189Y-79188004D01*
X123434102Y-79190156D01*
X123424999Y-79213665D01*
X123424438Y-79216941D01*
X123423385Y-79217832D01*
X123415684Y-79237723D01*
X123412539Y-79241471D01*
X123405204Y-79248309D01*
X123404077Y-79250522D01*
X123404077Y-79250523D01*
X123404077Y-79250524D01*
X123404078Y-79250526D01*
X123915318Y-79761765D01*
X123938156Y-79810741D01*
X123924170Y-79862938D01*
X123898958Y-79886042D01*
X123822989Y-79929903D01*
X123729903Y-80022989D01*
X123686042Y-80098958D01*
X123644645Y-80133693D01*
X123590605Y-80133692D01*
X123561765Y-80115318D01*
X123050526Y-79604078D01*
X123050524Y-79604077D01*
X123050523Y-79604077D01*
X123018148Y-79648637D01*
X123018132Y-79648662D01*
X122925253Y-79830947D01*
X122925248Y-79830958D01*
X122925244Y-79830968D01*
X122925236Y-79830993D01*
X122862014Y-80025566D01*
X122862006Y-80025592D01*
X122862005Y-80025597D01*
X122830001Y-80227667D01*
X122830000Y-80227678D01*
X122830000Y-80432320D01*
X122830001Y-80432331D01*
X122862005Y-80634401D01*
X122862006Y-80634406D01*
X122862014Y-80634432D01*
X122892718Y-80728927D01*
X122925242Y-80829024D01*
X122925249Y-80829042D01*
X123018132Y-81011335D01*
X123018137Y-81011344D01*
X123018142Y-81011353D01*
X123050524Y-81055921D01*
X123561765Y-80544680D01*
X123610741Y-80521842D01*
X123662938Y-80535828D01*
X123686042Y-80561041D01*
X123729902Y-80637009D01*
X123822990Y-80730097D01*
X123898956Y-80773956D01*
X123933692Y-80815352D01*
X123933692Y-80869392D01*
X123915317Y-80898233D01*
X123414849Y-81398701D01*
X123428361Y-81433252D01*
X123432519Y-81447927D01*
X123433562Y-81453678D01*
X123432653Y-81458981D01*
X123434397Y-81476031D01*
X123434189Y-81478004D01*
X123434102Y-81480156D01*
X123424999Y-81503665D01*
X123424438Y-81506941D01*
X123423385Y-81507832D01*
X123415684Y-81527723D01*
X123412539Y-81531471D01*
X123405204Y-81538309D01*
X123404077Y-81540522D01*
X123404077Y-81540523D01*
X123404077Y-81540524D01*
X123404078Y-81540526D01*
X123915318Y-82051765D01*
X123938156Y-82100741D01*
X123924170Y-82152938D01*
X123898958Y-82176042D01*
X123822989Y-82219903D01*
X123729903Y-82312989D01*
X123686042Y-82388958D01*
X123644645Y-82423693D01*
X123590605Y-82423692D01*
X123561765Y-82405318D01*
X123050526Y-81894078D01*
X123050524Y-81894077D01*
X123050523Y-81894077D01*
X123018148Y-81938637D01*
X123018132Y-81938662D01*
X122925253Y-82120947D01*
X122925248Y-82120958D01*
X122925244Y-82120968D01*
X122925236Y-82120993D01*
X122862014Y-82315566D01*
X122862006Y-82315592D01*
X122862005Y-82315597D01*
X122830001Y-82517667D01*
X122830000Y-82517678D01*
X122830000Y-82722320D01*
X122830001Y-82722331D01*
X122862005Y-82924401D01*
X122862006Y-82924406D01*
X122862014Y-82924432D01*
X122892718Y-83018927D01*
X122925242Y-83119024D01*
X122925249Y-83119042D01*
X123018132Y-83301335D01*
X123018137Y-83301344D01*
X123018142Y-83301353D01*
X123050524Y-83345921D01*
X123561765Y-82834680D01*
X123610741Y-82811842D01*
X123662938Y-82825828D01*
X123686042Y-82851041D01*
X123729902Y-82927009D01*
X123822990Y-83020097D01*
X123898956Y-83063956D01*
X123933692Y-83105352D01*
X123933692Y-83159392D01*
X123915317Y-83188233D01*
X123404076Y-83699473D01*
X123404077Y-83699473D01*
X123404077Y-83699474D01*
X123420849Y-83711660D01*
X123448645Y-83731856D01*
X123448650Y-83731859D01*
X123448652Y-83731860D01*
X123448678Y-83731874D01*
X123630947Y-83824745D01*
X123630957Y-83824750D01*
X123630975Y-83824757D01*
X123755426Y-83865194D01*
X123779646Y-83878072D01*
X123786813Y-83883672D01*
X123815449Y-83929498D01*
X123807946Y-83982981D01*
X123807110Y-83984555D01*
X123767571Y-84020484D01*
X123761622Y-84022949D01*
X123675039Y-84058812D01*
X123675036Y-84058813D01*
X123675027Y-84058818D01*
X123517719Y-84163927D01*
X123517709Y-84163936D01*
X123517698Y-84163946D01*
X123383946Y-84297698D01*
X123383936Y-84297709D01*
X123383927Y-84297719D01*
X123278818Y-84455027D01*
X123278814Y-84455034D01*
X123278813Y-84455035D01*
X123219557Y-84598094D01*
X123212065Y-84616184D01*
X123207488Y-84627233D01*
X123206737Y-84628877D01*
X123206410Y-84629831D01*
X123169500Y-84815399D01*
X123169500Y-85004599D01*
X123206410Y-85190167D01*
X123206736Y-85191118D01*
X123207480Y-85192748D01*
X123222256Y-85228419D01*
X123278813Y-85364963D01*
X123278814Y-85364964D01*
X123278818Y-85364971D01*
X123383927Y-85522279D01*
X123383936Y-85522289D01*
X123383946Y-85522300D01*
X123517705Y-85656059D01*
X123517710Y-85656063D01*
X123517711Y-85656064D01*
X123517717Y-85656069D01*
X123675033Y-85761184D01*
X123701708Y-85772233D01*
X123721716Y-85780521D01*
X123721717Y-85780521D01*
X123849830Y-85833587D01*
X123849832Y-85833588D01*
X124035399Y-85870500D01*
X124224601Y-85870500D01*
X124410167Y-85833588D01*
X124410169Y-85833587D01*
X124584967Y-85761184D01*
X124742283Y-85656069D01*
X124876069Y-85522283D01*
X124981184Y-85364967D01*
X125053588Y-85190167D01*
X125090500Y-85004601D01*
X125090500Y-84815399D01*
X125053588Y-84629833D01*
X125049291Y-84619459D01*
X125047934Y-84616182D01*
X125047933Y-84616182D01*
X125047105Y-84614182D01*
X124981185Y-84455036D01*
X124981184Y-84455033D01*
X124906841Y-84343771D01*
X124876070Y-84297718D01*
X124876064Y-84297711D01*
X124876062Y-84297709D01*
X124876052Y-84297698D01*
X124742300Y-84163946D01*
X124742289Y-84163936D01*
X124742279Y-84163927D01*
X124591437Y-84063139D01*
X124591437Y-84063138D01*
X124584606Y-84058575D01*
X124582390Y-84057748D01*
X124498373Y-84022947D01*
X124475239Y-84008209D01*
X124468533Y-84002064D01*
X124443581Y-83954133D01*
X124455275Y-83901376D01*
X124456245Y-83899855D01*
X124498449Y-83867184D01*
X124629024Y-83824757D01*
X124629042Y-83824750D01*
X124811338Y-83731865D01*
X124811360Y-83731851D01*
X124855920Y-83699475D01*
X124855921Y-83699474D01*
X124855920Y-83699473D01*
X124855921Y-83699473D01*
X124826847Y-83670399D01*
X125709500Y-83670399D01*
X125709500Y-83859599D01*
X125746410Y-84045167D01*
X125746736Y-84046118D01*
X125747480Y-84047748D01*
X125776912Y-84118804D01*
X125818813Y-84219963D01*
X125818814Y-84219964D01*
X125818818Y-84219971D01*
X125923927Y-84377279D01*
X125923936Y-84377289D01*
X125923946Y-84377300D01*
X126057705Y-84511059D01*
X126057710Y-84511063D01*
X126057711Y-84511064D01*
X126057717Y-84511069D01*
X126215033Y-84616184D01*
X126238332Y-84625835D01*
X126247984Y-84629833D01*
X126247985Y-84629833D01*
X126387251Y-84687518D01*
X126388875Y-84688260D01*
X126389829Y-84688586D01*
X126389830Y-84688587D01*
X126389832Y-84688588D01*
X126389834Y-84688588D01*
X126389836Y-84688589D01*
X126575399Y-84725500D01*
X126764601Y-84725500D01*
X126950162Y-84688589D01*
X126950162Y-84688588D01*
X126950167Y-84688588D01*
X126950169Y-84688587D01*
X126950174Y-84688584D01*
X126951122Y-84688260D01*
X126952736Y-84687523D01*
X127124967Y-84616184D01*
X127282283Y-84511069D01*
X127416069Y-84377283D01*
X127521184Y-84219967D01*
X127593588Y-84045167D01*
X127630500Y-83859601D01*
X127630500Y-83670399D01*
X127593588Y-83484833D01*
X127593587Y-83484831D01*
X127593587Y-83484830D01*
X127521185Y-83310036D01*
X127521184Y-83310033D01*
X127416069Y-83152717D01*
X127416064Y-83152711D01*
X127416062Y-83152709D01*
X127416059Y-83152705D01*
X127282300Y-83018946D01*
X127282289Y-83018936D01*
X127282279Y-83018927D01*
X127177405Y-82948854D01*
X127124605Y-82913574D01*
X127122383Y-82912745D01*
X127068194Y-82890299D01*
X126952748Y-82842480D01*
X126951118Y-82841736D01*
X126950167Y-82841410D01*
X126764601Y-82804500D01*
X126575399Y-82804500D01*
X126389831Y-82841410D01*
X126388877Y-82841737D01*
X126387239Y-82842484D01*
X126366584Y-82851041D01*
X126215035Y-82913813D01*
X126215034Y-82913814D01*
X126215027Y-82913818D01*
X126057719Y-83018927D01*
X126057709Y-83018936D01*
X126057698Y-83018946D01*
X125923946Y-83152698D01*
X125923936Y-83152709D01*
X125923927Y-83152719D01*
X125818818Y-83310027D01*
X125818814Y-83310034D01*
X125818813Y-83310035D01*
X125747488Y-83482233D01*
X125746737Y-83483877D01*
X125746410Y-83484831D01*
X125709500Y-83670399D01*
X124826847Y-83670399D01*
X124344681Y-83188234D01*
X124321843Y-83139258D01*
X124335829Y-83087061D01*
X124361040Y-83063958D01*
X124437007Y-83020099D01*
X124530099Y-82927007D01*
X124573957Y-82851041D01*
X124615353Y-82816306D01*
X124669392Y-82816306D01*
X124698234Y-82834681D01*
X125209473Y-83345921D01*
X125209474Y-83345921D01*
X125209475Y-83345920D01*
X125241851Y-83301360D01*
X125241865Y-83301338D01*
X125334750Y-83119042D01*
X125334757Y-83119024D01*
X125397987Y-82924425D01*
X125397992Y-82924406D01*
X125399669Y-82913816D01*
X125429996Y-82722337D01*
X125429999Y-82722313D01*
X125430000Y-82722303D01*
X125430000Y-82517695D01*
X125429999Y-82517685D01*
X125429996Y-82517661D01*
X125397993Y-82315597D01*
X125397992Y-82315592D01*
X125397990Y-82315586D01*
X125397987Y-82315574D01*
X125334757Y-82120975D01*
X125334750Y-82120957D01*
X125241865Y-81938661D01*
X125241857Y-81938647D01*
X125235553Y-81929971D01*
X125221660Y-81910849D01*
X125209474Y-81894077D01*
X125209473Y-81894076D01*
X124698233Y-82405317D01*
X124649257Y-82428155D01*
X124597059Y-82414169D01*
X124573956Y-82388956D01*
X124537714Y-82326183D01*
X124530099Y-82312993D01*
X124530098Y-82312992D01*
X124530097Y-82312990D01*
X124437009Y-82219902D01*
X124361041Y-82176042D01*
X124326305Y-82134645D01*
X124326305Y-82080606D01*
X124344678Y-82051767D01*
X124855921Y-81540524D01*
X124855921Y-81540523D01*
X124855919Y-81540521D01*
X124852905Y-81534604D01*
X124845914Y-81527365D01*
X124838119Y-81515808D01*
X124824700Y-81467959D01*
X124825053Y-81460397D01*
X124829418Y-81437935D01*
X124843693Y-81397246D01*
X124843691Y-81397244D01*
X124843692Y-81397244D01*
X124826847Y-81380399D01*
X125709500Y-81380399D01*
X125709500Y-81569599D01*
X125746410Y-81755167D01*
X125746736Y-81756118D01*
X125747480Y-81757748D01*
X125776912Y-81828804D01*
X125818813Y-81929963D01*
X125818814Y-81929964D01*
X125818818Y-81929971D01*
X125923927Y-82087279D01*
X125923936Y-82087289D01*
X125923946Y-82087300D01*
X126057705Y-82221059D01*
X126057710Y-82221063D01*
X126057711Y-82221064D01*
X126057717Y-82221069D01*
X126215033Y-82326184D01*
X126273873Y-82350556D01*
X126302427Y-82362384D01*
X126302428Y-82362384D01*
X126302433Y-82362386D01*
X126387263Y-82397524D01*
X126388880Y-82398261D01*
X126389829Y-82398586D01*
X126389830Y-82398587D01*
X126389832Y-82398588D01*
X126389834Y-82398588D01*
X126389836Y-82398589D01*
X126575399Y-82435500D01*
X126764601Y-82435500D01*
X126950162Y-82398589D01*
X126950162Y-82398588D01*
X126950167Y-82398588D01*
X126950169Y-82398587D01*
X126950174Y-82398584D01*
X126951122Y-82398260D01*
X126952736Y-82397523D01*
X127124967Y-82326184D01*
X127282283Y-82221069D01*
X127416069Y-82087283D01*
X127521184Y-81929967D01*
X127593588Y-81755167D01*
X127630500Y-81569601D01*
X127630500Y-81380399D01*
X127593588Y-81194833D01*
X127593587Y-81194831D01*
X127593587Y-81194830D01*
X127521185Y-81020036D01*
X127521184Y-81020033D01*
X127416069Y-80862717D01*
X127416064Y-80862711D01*
X127416062Y-80862709D01*
X127416059Y-80862705D01*
X127282300Y-80728946D01*
X127282289Y-80728936D01*
X127282279Y-80728927D01*
X127177405Y-80658854D01*
X127124605Y-80623574D01*
X127122383Y-80622745D01*
X127068194Y-80600299D01*
X126952748Y-80552480D01*
X126951118Y-80551736D01*
X126950167Y-80551410D01*
X126764601Y-80514500D01*
X126575399Y-80514500D01*
X126389831Y-80551410D01*
X126388877Y-80551737D01*
X126387239Y-80552484D01*
X126366584Y-80561041D01*
X126215035Y-80623813D01*
X126215034Y-80623814D01*
X126215027Y-80623818D01*
X126057719Y-80728927D01*
X126057709Y-80728936D01*
X126057698Y-80728946D01*
X125923946Y-80862698D01*
X125923936Y-80862709D01*
X125923927Y-80862719D01*
X125818818Y-81020027D01*
X125818814Y-81020034D01*
X125818813Y-81020035D01*
X125747488Y-81192233D01*
X125746737Y-81193877D01*
X125746410Y-81194831D01*
X125709500Y-81380399D01*
X124826847Y-81380399D01*
X124344681Y-80898234D01*
X124321843Y-80849258D01*
X124335829Y-80797061D01*
X124361040Y-80773958D01*
X124437007Y-80730099D01*
X124530099Y-80637007D01*
X124573957Y-80561041D01*
X124615353Y-80526306D01*
X124669392Y-80526306D01*
X124698234Y-80544681D01*
X125209473Y-81055921D01*
X125209474Y-81055921D01*
X125209475Y-81055920D01*
X125241851Y-81011360D01*
X125241865Y-81011338D01*
X125334750Y-80829042D01*
X125334757Y-80829024D01*
X125397987Y-80634425D01*
X125397992Y-80634406D01*
X125399669Y-80623816D01*
X125429996Y-80432337D01*
X125429999Y-80432313D01*
X125430000Y-80432303D01*
X125430000Y-80227695D01*
X125429999Y-80227685D01*
X125429996Y-80227661D01*
X125397993Y-80025597D01*
X125397992Y-80025592D01*
X125397990Y-80025586D01*
X125397987Y-80025574D01*
X125334757Y-79830975D01*
X125334750Y-79830957D01*
X125241865Y-79648661D01*
X125241857Y-79648647D01*
X125235553Y-79639971D01*
X125221660Y-79620849D01*
X125209474Y-79604077D01*
X125209473Y-79604076D01*
X124698233Y-80115317D01*
X124649257Y-80138155D01*
X124597059Y-80124169D01*
X124573956Y-80098956D01*
X124530099Y-80022993D01*
X124530098Y-80022992D01*
X124530097Y-80022990D01*
X124437009Y-79929902D01*
X124361041Y-79886042D01*
X124326305Y-79844645D01*
X124326305Y-79790606D01*
X124344678Y-79761767D01*
X124855921Y-79250524D01*
X124855921Y-79250523D01*
X124855919Y-79250521D01*
X124852904Y-79244603D01*
X124845913Y-79237363D01*
X124839563Y-79227949D01*
X124826485Y-79175553D01*
X124826603Y-79174422D01*
X124844658Y-79131864D01*
X124847485Y-79128495D01*
X124855823Y-79120719D01*
X124855919Y-79119474D01*
X124855921Y-79119474D01*
X124344681Y-78608234D01*
X124321843Y-78559258D01*
X124335829Y-78507061D01*
X124361040Y-78483958D01*
X124437007Y-78440099D01*
X124530099Y-78347007D01*
X124573957Y-78271041D01*
X124615353Y-78236306D01*
X124669392Y-78236306D01*
X124698234Y-78254681D01*
X125209473Y-78765921D01*
X125209474Y-78765921D01*
X125209475Y-78765920D01*
X125241851Y-78721360D01*
X125241865Y-78721338D01*
X125334750Y-78539042D01*
X125334757Y-78539024D01*
X125389939Y-78369194D01*
X125709500Y-78369194D01*
X125709500Y-80000804D01*
X125714426Y-80025574D01*
X125718812Y-80047623D01*
X125718813Y-80047624D01*
X125754283Y-80100712D01*
X125754284Y-80100712D01*
X125754285Y-80100714D01*
X125766068Y-80108586D01*
X125766069Y-80108588D01*
X125766070Y-80108588D01*
X125807376Y-80136187D01*
X125854194Y-80145500D01*
X127485806Y-80145500D01*
X127532624Y-80136187D01*
X127585714Y-80100714D01*
X127621187Y-80047624D01*
X127630500Y-80000806D01*
X127630500Y-78369194D01*
X127621187Y-78322376D01*
X127597917Y-78287549D01*
X127585714Y-78269285D01*
X127545984Y-78242740D01*
X127541189Y-78239536D01*
X127541187Y-78239534D01*
X127539087Y-78238131D01*
X127536067Y-78235652D01*
X127532624Y-78233812D01*
X127485806Y-78224500D01*
X125854194Y-78224500D01*
X125807378Y-78233811D01*
X125807374Y-78233813D01*
X125754284Y-78269284D01*
X125718813Y-78322374D01*
X125718811Y-78322378D01*
X125709500Y-78369194D01*
X125389939Y-78369194D01*
X125397989Y-78344419D01*
X125397991Y-78344413D01*
X125429695Y-78144236D01*
X125429996Y-78142337D01*
X125429999Y-78142313D01*
X125430000Y-78142303D01*
X125430000Y-77937695D01*
X125429999Y-77937685D01*
X125429996Y-77937661D01*
X125397993Y-77735597D01*
X125397992Y-77735592D01*
X125397990Y-77735586D01*
X125397987Y-77735574D01*
X125334757Y-77540975D01*
X125334750Y-77540957D01*
X125314190Y-77500606D01*
X125241874Y-77358678D01*
X125241867Y-77358666D01*
X125241865Y-77358661D01*
X125241857Y-77358647D01*
X125209474Y-77314077D01*
X125209473Y-77314076D01*
X124698233Y-77825317D01*
X124649257Y-77848155D01*
X124597059Y-77834169D01*
X124573956Y-77808956D01*
X124531600Y-77735593D01*
X124530099Y-77732993D01*
X124530098Y-77732992D01*
X124530097Y-77732990D01*
X124437009Y-77639902D01*
X124361041Y-77596042D01*
X124326305Y-77554645D01*
X124326305Y-77500606D01*
X124344678Y-77471767D01*
X124855921Y-76960524D01*
X124855918Y-76960522D01*
X124811353Y-76928142D01*
X124811344Y-76928137D01*
X124664127Y-76853126D01*
X124629042Y-76835249D01*
X124629037Y-76835247D01*
X124629030Y-76835244D01*
X124629024Y-76835242D01*
X124553628Y-76810744D01*
X124434432Y-76772014D01*
X124434406Y-76772006D01*
X124434401Y-76772005D01*
X124232331Y-76740001D01*
X124232320Y-76740000D01*
X124232307Y-76740000D01*
X124027693Y-76740000D01*
X124027675Y-76740000D01*
X123825597Y-76772005D01*
X123825592Y-76772006D01*
X123825566Y-76772014D01*
X123630993Y-76835236D01*
X123630968Y-76835244D01*
X123630958Y-76835248D01*
X123630947Y-76835253D01*
X123448662Y-76928132D01*
X123448637Y-76928148D01*
X123404077Y-76960522D01*
X123404077Y-76960523D01*
X123404078Y-76960526D01*
X123915318Y-77471765D01*
X123938156Y-77520741D01*
X123924170Y-77572938D01*
X123898958Y-77596042D01*
X123822989Y-77639903D01*
X123729903Y-77732989D01*
X123686042Y-77808958D01*
X123644645Y-77843693D01*
X123590605Y-77843692D01*
X123561765Y-77825318D01*
X123050526Y-77314078D01*
X123050524Y-77314077D01*
X123050523Y-77314077D01*
X123018148Y-77358637D01*
X123018132Y-77358662D01*
X122925253Y-77540947D01*
X122925248Y-77540958D01*
X122925244Y-77540968D01*
X122925236Y-77540993D01*
X122862014Y-77735566D01*
X122862006Y-77735592D01*
X122862005Y-77735597D01*
X122830001Y-77937667D01*
X122830000Y-77937678D01*
X119058813Y-77937678D01*
X119066562Y-77898721D01*
X119067721Y-77893749D01*
X119069073Y-77888706D01*
X119070559Y-77883809D01*
X119109431Y-77769301D01*
X119136623Y-77689193D01*
X119138426Y-77684406D01*
X119140408Y-77679620D01*
X119142528Y-77674941D01*
X119233431Y-77490607D01*
X119235844Y-77486092D01*
X119238444Y-77481590D01*
X119241151Y-77477238D01*
X119355340Y-77306341D01*
X119358310Y-77302197D01*
X119361494Y-77298048D01*
X119364716Y-77294123D01*
X119502845Y-77136618D01*
X119504503Y-77134788D01*
X119506328Y-77132840D01*
X119508058Y-77131053D01*
X120383200Y-76255913D01*
X120406102Y-76233010D01*
X120407882Y-76231288D01*
X120409792Y-76229499D01*
X120411634Y-76227831D01*
X120569110Y-76089727D01*
X120573049Y-76086493D01*
X120577198Y-76083309D01*
X120581342Y-76080339D01*
X120752238Y-75966151D01*
X120756590Y-75963444D01*
X120761092Y-75960844D01*
X120765607Y-75958431D01*
X120949940Y-75867528D01*
X120954630Y-75865404D01*
X120959385Y-75863434D01*
X120964202Y-75861620D01*
X121158810Y-75795559D01*
X121163748Y-75794061D01*
X121163854Y-75794032D01*
X121168743Y-75792723D01*
X121173740Y-75791558D01*
X121375292Y-75751466D01*
X121380381Y-75750627D01*
X121385490Y-75749954D01*
X121390616Y-75749448D01*
X121599604Y-75735750D01*
X121602103Y-75735627D01*
X121604767Y-75735540D01*
X121607315Y-75735500D01*
X123376326Y-75735500D01*
X123376328Y-75735500D01*
X123634206Y-75706445D01*
X123887210Y-75648698D01*
X124132157Y-75562987D01*
X124365967Y-75450390D01*
X124585700Y-75312322D01*
X124788593Y-75150521D01*
X124880344Y-75058770D01*
X124882182Y-75056932D01*
X128862676Y-71076438D01*
X128925522Y-71013592D01*
X129087323Y-70810699D01*
X129225391Y-70590966D01*
X129337988Y-70357156D01*
X129423698Y-70112209D01*
X129481445Y-69859206D01*
X129510500Y-69601328D01*
X129510500Y-69471573D01*
X129510500Y-69422395D01*
X129510500Y-56712550D01*
X129510500Y-56623673D01*
X129481445Y-56365795D01*
X129479420Y-56356925D01*
X129423925Y-56113787D01*
X129423764Y-56113036D01*
X129423699Y-56112796D01*
X129423698Y-56112791D01*
X129337987Y-55867844D01*
X129225390Y-55634034D01*
X129087322Y-55414301D01*
X128925521Y-55211408D01*
X128833770Y-55119657D01*
X128823234Y-55109121D01*
X125145923Y-51431810D01*
X125142692Y-51428382D01*
X125138245Y-51423370D01*
X125127210Y-51405629D01*
X125038139Y-51310551D01*
X125037466Y-51309792D01*
X125037400Y-51309626D01*
X125034695Y-51306491D01*
X124970293Y-51225371D01*
X124965727Y-51218993D01*
X124926604Y-51158179D01*
X124922325Y-51150650D01*
X124898467Y-51102736D01*
X124893659Y-51090692D01*
X124856552Y-50969726D01*
X124854063Y-50958984D01*
X124830052Y-50807974D01*
X124797376Y-50599526D01*
X124796102Y-50592417D01*
X124795901Y-50591421D01*
X124794336Y-50584446D01*
X124731322Y-50329524D01*
X124730243Y-50325387D01*
X124730085Y-50324812D01*
X124730083Y-50324808D01*
X124729548Y-50323440D01*
X124725639Y-50310069D01*
X124725510Y-50309420D01*
X124725508Y-50309416D01*
X124656874Y-50143716D01*
X124557231Y-49994590D01*
X124557226Y-49994584D01*
X124557224Y-49994582D01*
X124557221Y-49994578D01*
X124430426Y-49867783D01*
X124430415Y-49867773D01*
X124430405Y-49867764D01*
X124287758Y-49772451D01*
X124287758Y-49772452D01*
X124281284Y-49768126D01*
X124281283Y-49768125D01*
X124281280Y-49768124D01*
X124281279Y-49768123D01*
X124281276Y-49768122D01*
X124280916Y-49767881D01*
X124278697Y-49767053D01*
X124207793Y-49737684D01*
X124115586Y-49699491D01*
X124115582Y-49699490D01*
X124115578Y-49699489D01*
X124115568Y-49699486D01*
X123939675Y-49664500D01*
X123760323Y-49664500D01*
X123584433Y-49699485D01*
X123584414Y-49699490D01*
X123584412Y-49699490D01*
X123584411Y-49699491D01*
X123576968Y-49702574D01*
X123418721Y-49768121D01*
X123418718Y-49768122D01*
X123418716Y-49768123D01*
X123418710Y-49768127D01*
X123269591Y-49867764D01*
X123269581Y-49867773D01*
X123269570Y-49867783D01*
X123142782Y-49994571D01*
X123142772Y-49994582D01*
X123142763Y-49994592D01*
X123043126Y-50143711D01*
X123043122Y-50143717D01*
X123043121Y-50143719D01*
X123043120Y-50143722D01*
X122974489Y-50309415D01*
X122974484Y-50309434D01*
X122939499Y-50485324D01*
X122939499Y-50664674D01*
X122974484Y-50840564D01*
X122974489Y-50840583D01*
X122974490Y-50840587D01*
X122991118Y-50880730D01*
X123043120Y-51006276D01*
X123043121Y-51006279D01*
X123043122Y-51006281D01*
X123043126Y-51006287D01*
X123142763Y-51155406D01*
X123142772Y-51155416D01*
X123142782Y-51155427D01*
X123269577Y-51282222D01*
X123269582Y-51282226D01*
X123269583Y-51282227D01*
X123269589Y-51282232D01*
X123418715Y-51381875D01*
X123584416Y-51450510D01*
X123588945Y-51451410D01*
X123593159Y-51452370D01*
X123600250Y-51454189D01*
X123605011Y-51456408D01*
X123685426Y-51476049D01*
X123685835Y-51476154D01*
X123707795Y-51491186D01*
X123729886Y-51505933D01*
X123730023Y-51506402D01*
X123730427Y-51506679D01*
X123737564Y-51532231D01*
X123745030Y-51557806D01*
X123744833Y-51558253D01*
X123744965Y-51558726D01*
X123733972Y-51582965D01*
X123723288Y-51607278D01*
X123722834Y-51607526D01*
X123722647Y-51607941D01*
X123718181Y-51610081D01*
X123681610Y-51630156D01*
X123584426Y-51649487D01*
X123584414Y-51649490D01*
X123584412Y-51649490D01*
X123584411Y-51649491D01*
X123544211Y-51666142D01*
X123418721Y-51718121D01*
X123418718Y-51718122D01*
X123418716Y-51718123D01*
X123418710Y-51718127D01*
X123269591Y-51817764D01*
X123269581Y-51817773D01*
X123269570Y-51817783D01*
X123142782Y-51944571D01*
X123142772Y-51944582D01*
X123142763Y-51944592D01*
X123043126Y-52093711D01*
X123043122Y-52093717D01*
X123043121Y-52093719D01*
X123043121Y-52093720D01*
X122974489Y-52259415D01*
X122974488Y-52259419D01*
X122974485Y-52259429D01*
X122951052Y-52377241D01*
X122939499Y-52435324D01*
X122939499Y-52614675D01*
X122946431Y-52649527D01*
X122974485Y-52790569D01*
X122974488Y-52790579D01*
X122974489Y-52790583D01*
X122974490Y-52790587D01*
X123019569Y-52899418D01*
X123043120Y-52956276D01*
X123043121Y-52956279D01*
X123043122Y-52956280D01*
X123043125Y-52956285D01*
X123064014Y-52987548D01*
X123142763Y-53105406D01*
X123142772Y-53105416D01*
X123142782Y-53105427D01*
X123271172Y-53233817D01*
X123279019Y-53242963D01*
X123286384Y-53253007D01*
X123301507Y-53304887D01*
X123280097Y-53353979D01*
X123274008Y-53360423D01*
X123252453Y-53376555D01*
X123194857Y-53405902D01*
X123194789Y-53405944D01*
X123194369Y-53406255D01*
X123159880Y-53431312D01*
X123159872Y-53431318D01*
X123159872Y-53431319D01*
X123159871Y-53431320D01*
X123635318Y-53906766D01*
X123658155Y-53955741D01*
X123644169Y-54007938D01*
X123618957Y-54031042D01*
X123542988Y-54074903D01*
X123449902Y-54167989D01*
X123406042Y-54243957D01*
X123364645Y-54278692D01*
X123310606Y-54278691D01*
X123281765Y-54260317D01*
X122806320Y-53784872D01*
X122806319Y-53784872D01*
X122806318Y-53784873D01*
X122806316Y-53784874D01*
X122806315Y-53784876D01*
X122780905Y-53819851D01*
X122780904Y-53819853D01*
X122721926Y-53935606D01*
X122691578Y-53995168D01*
X122691577Y-53995170D01*
X122691576Y-53995170D01*
X122630881Y-54181970D01*
X122630782Y-54182270D01*
X122630776Y-54182296D01*
X122600000Y-54376602D01*
X122599999Y-54376613D01*
X122599999Y-54573385D01*
X122600000Y-54573396D01*
X122630776Y-54767702D01*
X122630781Y-54767726D01*
X122630881Y-54768028D01*
X122691577Y-54954830D01*
X122780768Y-55129878D01*
X122780892Y-55130124D01*
X122780905Y-55130146D01*
X122806318Y-55165125D01*
X122806319Y-55165126D01*
X123281766Y-54689678D01*
X123330740Y-54666842D01*
X123382937Y-54680828D01*
X123406041Y-54706041D01*
X123449901Y-54782009D01*
X123542989Y-54875097D01*
X123542991Y-54875098D01*
X123542992Y-54875099D01*
X123617517Y-54918126D01*
X123618955Y-54918956D01*
X123653691Y-54960352D01*
X123653691Y-55014392D01*
X123635316Y-55043233D01*
X123159870Y-55518677D01*
X123159871Y-55518677D01*
X123159871Y-55518678D01*
X123194858Y-55544097D01*
X123252216Y-55573322D01*
X123274127Y-55589834D01*
X123280468Y-55596634D01*
X123301583Y-55646377D01*
X123286095Y-55697636D01*
X123279102Y-55707046D01*
X123278970Y-55707224D01*
X123270934Y-55716032D01*
X123271128Y-55716226D01*
X123142782Y-55844571D01*
X123142772Y-55844582D01*
X123142763Y-55844592D01*
X123043126Y-55993711D01*
X123043122Y-55993717D01*
X123043121Y-55993719D01*
X123043120Y-55993722D01*
X122995202Y-56109408D01*
X122975425Y-56157156D01*
X122974489Y-56159415D01*
X122974484Y-56159434D01*
X122939499Y-56335324D01*
X122939499Y-56439840D01*
X122937843Y-56444388D01*
X122937844Y-56444389D01*
X122935724Y-56450212D01*
X122921017Y-56490620D01*
X122921015Y-56490621D01*
X122919360Y-56495168D01*
X122872559Y-56522186D01*
X122819342Y-56512801D01*
X122798325Y-56495164D01*
X122795531Y-56491834D01*
X122781484Y-56467150D01*
X122769265Y-56432233D01*
X122769265Y-56432232D01*
X122759141Y-56403301D01*
X122756537Y-56394111D01*
X122754464Y-56384647D01*
X122746374Y-56366135D01*
X122744197Y-56360591D01*
X122737989Y-56342849D01*
X122737985Y-56342840D01*
X122719269Y-56303976D01*
X122718056Y-56301334D01*
X122661761Y-56172516D01*
X122660076Y-56168786D01*
X122660072Y-56168777D01*
X122659819Y-56168235D01*
X122657921Y-56164305D01*
X122576038Y-56000314D01*
X122573011Y-55994538D01*
X122572573Y-55993741D01*
X122569411Y-55988242D01*
X122528640Y-55920354D01*
X122421080Y-55741257D01*
X122420261Y-55739903D01*
X122420088Y-55739621D01*
X122419570Y-55738783D01*
X122306203Y-55556890D01*
X122304446Y-55553929D01*
X122161188Y-55300064D01*
X122159872Y-55298177D01*
X122158989Y-55296883D01*
X122156874Y-55293717D01*
X122156874Y-55293716D01*
X122057231Y-55144590D01*
X122057226Y-55144584D01*
X122057224Y-55144582D01*
X122057221Y-55144578D01*
X121930426Y-55017783D01*
X121930415Y-55017773D01*
X121930405Y-55017764D01*
X121830991Y-54951339D01*
X121781283Y-54918125D01*
X121781282Y-54918124D01*
X121780922Y-54917884D01*
X121778711Y-54917059D01*
X121615586Y-54849491D01*
X121615582Y-54849490D01*
X121615580Y-54849489D01*
X121615579Y-54849489D01*
X121615567Y-54849486D01*
X121518598Y-54830198D01*
X121491307Y-54813637D01*
X121468624Y-54800540D01*
X121450144Y-54749759D01*
X121468629Y-54698980D01*
X121489640Y-54681350D01*
X121493651Y-54679034D01*
X121517728Y-54669973D01*
X121615582Y-54650510D01*
X121781283Y-54581875D01*
X121930409Y-54482232D01*
X122057231Y-54355410D01*
X122156874Y-54206284D01*
X122225509Y-54040583D01*
X122260499Y-53864676D01*
X122260499Y-53685324D01*
X122225509Y-53509417D01*
X122156874Y-53343716D01*
X122057231Y-53194590D01*
X122057226Y-53194584D01*
X122057224Y-53194582D01*
X122057221Y-53194578D01*
X121930426Y-53067783D01*
X121930415Y-53067773D01*
X121930405Y-53067764D01*
X121828748Y-52999840D01*
X121781277Y-52968121D01*
X121780381Y-52967682D01*
X121778711Y-52967059D01*
X121615586Y-52899491D01*
X121615582Y-52899490D01*
X121615580Y-52899489D01*
X121615579Y-52899489D01*
X121615568Y-52899486D01*
X121439675Y-52864500D01*
X121260323Y-52864500D01*
X121084433Y-52899485D01*
X121084414Y-52899490D01*
X121084412Y-52899490D01*
X121084411Y-52899491D01*
X121044211Y-52916142D01*
X120918721Y-52968121D01*
X120918718Y-52968122D01*
X120918716Y-52968123D01*
X120918710Y-52968127D01*
X120769591Y-53067764D01*
X120769581Y-53067773D01*
X120769570Y-53067783D01*
X120642782Y-53194571D01*
X120642772Y-53194582D01*
X120642763Y-53194592D01*
X120543126Y-53343711D01*
X120543122Y-53343717D01*
X120543121Y-53343719D01*
X120543120Y-53343722D01*
X120474489Y-53509415D01*
X120474484Y-53509434D01*
X120439499Y-53685324D01*
X120439499Y-53864674D01*
X120474484Y-54040564D01*
X120474489Y-54040583D01*
X120474490Y-54040587D01*
X120519569Y-54149418D01*
X120543120Y-54206276D01*
X120543121Y-54206279D01*
X120543122Y-54206281D01*
X120543126Y-54206287D01*
X120642763Y-54355406D01*
X120642772Y-54355416D01*
X120642782Y-54355427D01*
X120769577Y-54482222D01*
X120769582Y-54482226D01*
X120769583Y-54482227D01*
X120769589Y-54482232D01*
X120918715Y-54581875D01*
X121084416Y-54650510D01*
X121181395Y-54669800D01*
X121208680Y-54686357D01*
X121231371Y-54699459D01*
X121249851Y-54750240D01*
X121231366Y-54801019D01*
X121210348Y-54818654D01*
X121206350Y-54820962D01*
X121182265Y-54830026D01*
X121084434Y-54849485D01*
X121084414Y-54849490D01*
X121084412Y-54849490D01*
X121084411Y-54849491D01*
X121044211Y-54866142D01*
X120918721Y-54918121D01*
X120918718Y-54918122D01*
X120918716Y-54918123D01*
X120918710Y-54918127D01*
X120769591Y-55017764D01*
X120769581Y-55017773D01*
X120769570Y-55017783D01*
X120642782Y-55144571D01*
X120642772Y-55144582D01*
X120642763Y-55144592D01*
X120543126Y-55293711D01*
X120543122Y-55293717D01*
X120543121Y-55293719D01*
X120543120Y-55293722D01*
X120474489Y-55459415D01*
X120474488Y-55459419D01*
X120474485Y-55459429D01*
X120457646Y-55544091D01*
X120454726Y-55558771D01*
X120439499Y-55635324D01*
X120439499Y-55814676D01*
X120445450Y-55844592D01*
X120460997Y-55922756D01*
X120474485Y-55990569D01*
X120474488Y-55990579D01*
X120474489Y-55990583D01*
X120474490Y-55990587D01*
X120528355Y-56120629D01*
X120543124Y-56156284D01*
X120576338Y-56205992D01*
X120578089Y-56208613D01*
X120578091Y-56208616D01*
X120642763Y-56305406D01*
X120642772Y-56305416D01*
X120642782Y-56305427D01*
X120769577Y-56432222D01*
X120769582Y-56432226D01*
X120769583Y-56432227D01*
X120769589Y-56432232D01*
X120918715Y-56531875D01*
X120976604Y-56555853D01*
X121080770Y-56599000D01*
X121084416Y-56600510D01*
X121260323Y-56635500D01*
X121274487Y-56635500D01*
X121285421Y-56636579D01*
X121285428Y-56636514D01*
X121289285Y-56636896D01*
X121455983Y-56636988D01*
X121455983Y-56636987D01*
X121455986Y-56636988D01*
X121461431Y-56636751D01*
X121470513Y-56636358D01*
X121471437Y-56636276D01*
X121472553Y-56636179D01*
X121486971Y-56634275D01*
X121486977Y-56634273D01*
X121486984Y-56634273D01*
X121554997Y-56622232D01*
X121677017Y-56600632D01*
X121685069Y-56599000D01*
X121686197Y-56598742D01*
X121694100Y-56596728D01*
X121839013Y-56555974D01*
X121839869Y-56555740D01*
X121988804Y-56516048D01*
X121999034Y-56514036D01*
X122034751Y-56509433D01*
X122049412Y-56508919D01*
X122060649Y-56509571D01*
X122110271Y-56530966D01*
X122118118Y-56539542D01*
X122136024Y-56562265D01*
X122144499Y-56575565D01*
X122157150Y-56600635D01*
X122177778Y-56641516D01*
X122179632Y-56644497D01*
X122179087Y-56644835D01*
X122187964Y-56661631D01*
X122217811Y-56749555D01*
X122229431Y-56783786D01*
X122230929Y-56788724D01*
X122232271Y-56793730D01*
X122233447Y-56798774D01*
X122273530Y-57000285D01*
X122274371Y-57005380D01*
X122275045Y-57010497D01*
X122275553Y-57015647D01*
X122289246Y-57224555D01*
X122289373Y-57227133D01*
X122289458Y-57229725D01*
X122289500Y-57232314D01*
X122289500Y-57867847D01*
X122284734Y-57894872D01*
X122281720Y-57903151D01*
X122246981Y-57944545D01*
X122193762Y-57953925D01*
X122153496Y-57933798D01*
X122151460Y-57931892D01*
X122139766Y-57918113D01*
X122057232Y-57794591D01*
X122057226Y-57794584D01*
X122057220Y-57794578D01*
X122057214Y-57794571D01*
X121930426Y-57667783D01*
X121930415Y-57667773D01*
X121930405Y-57667764D01*
X121787758Y-57572451D01*
X121787758Y-57572452D01*
X121781284Y-57568126D01*
X121781283Y-57568125D01*
X121781280Y-57568124D01*
X121781279Y-57568123D01*
X121781276Y-57568122D01*
X121780916Y-57567881D01*
X121778697Y-57567053D01*
X121707793Y-57537684D01*
X121615586Y-57499491D01*
X121615582Y-57499490D01*
X121615578Y-57499489D01*
X121615568Y-57499486D01*
X121439675Y-57464500D01*
X121260323Y-57464500D01*
X121084433Y-57499485D01*
X121084414Y-57499490D01*
X121084412Y-57499490D01*
X121084411Y-57499491D01*
X121044211Y-57516142D01*
X120918721Y-57568121D01*
X120918718Y-57568122D01*
X120918716Y-57568123D01*
X120918710Y-57568127D01*
X120769591Y-57667764D01*
X120769581Y-57667773D01*
X120769570Y-57667783D01*
X120642782Y-57794571D01*
X120642772Y-57794582D01*
X120642763Y-57794592D01*
X120543126Y-57943711D01*
X120543122Y-57943717D01*
X120543121Y-57943719D01*
X120543120Y-57943722D01*
X120474489Y-58109415D01*
X120474484Y-58109434D01*
X120439499Y-58285324D01*
X120439499Y-58464674D01*
X120474484Y-58640564D01*
X120474488Y-58640581D01*
X120474489Y-58640583D01*
X120474490Y-58640587D01*
X120540442Y-58799809D01*
X120543124Y-58806284D01*
X120561163Y-58833281D01*
X120562315Y-58835005D01*
X120642763Y-58955406D01*
X120642772Y-58955416D01*
X120642782Y-58955427D01*
X120769577Y-59082222D01*
X120769582Y-59082226D01*
X120769583Y-59082227D01*
X120769589Y-59082232D01*
X120918715Y-59181875D01*
X121084416Y-59250510D01*
X121260323Y-59285500D01*
X121439675Y-59285500D01*
X121615582Y-59250510D01*
X121781283Y-59181875D01*
X121930409Y-59082232D01*
X122057231Y-58955410D01*
X122137076Y-58835913D01*
X122165410Y-58814515D01*
X122178816Y-58801951D01*
X122232773Y-58798987D01*
X122276013Y-58831400D01*
X122286796Y-58856628D01*
X122287430Y-58859343D01*
X122289500Y-58877308D01*
X122289500Y-63594416D01*
X122287122Y-63613654D01*
X122284150Y-63625488D01*
X122280780Y-63693452D01*
X122279721Y-63703001D01*
X122273569Y-63738574D01*
X122269682Y-63752885D01*
X122238390Y-63836212D01*
X122235682Y-63842565D01*
X122233260Y-63847620D01*
X122231664Y-63851049D01*
X122231459Y-63851504D01*
X122230111Y-63854580D01*
X122185864Y-63958418D01*
X122185861Y-63958424D01*
X122180567Y-63972619D01*
X122180565Y-63972624D01*
X122179929Y-63974603D01*
X122179921Y-63974629D01*
X122175987Y-63989064D01*
X122143867Y-64132192D01*
X122142454Y-64139205D01*
X122142273Y-64140214D01*
X122141986Y-64144409D01*
X122139523Y-64159186D01*
X122139500Y-64159368D01*
X122139500Y-64280630D01*
X122170713Y-64397119D01*
X122170865Y-64397709D01*
X122170881Y-64397747D01*
X122231510Y-64502758D01*
X122317239Y-64588487D01*
X122317683Y-64588807D01*
X122319281Y-64589667D01*
X122422253Y-64649118D01*
X122539374Y-64680500D01*
X122539376Y-64680500D01*
X122660624Y-64680500D01*
X122660626Y-64680500D01*
X122777747Y-64649118D01*
X122882754Y-64588492D01*
X122968492Y-64502754D01*
X123029118Y-64397747D01*
X123060500Y-64280626D01*
X123060500Y-64159374D01*
X123059824Y-64154243D01*
X123060033Y-64154215D01*
X123058680Y-64143197D01*
X123058426Y-64143218D01*
X123058113Y-64139349D01*
X123056815Y-64132173D01*
X123043637Y-64059308D01*
X123041828Y-64050636D01*
X123041824Y-64050618D01*
X123041544Y-64049434D01*
X123041538Y-64049411D01*
X123039242Y-64040763D01*
X123024011Y-63989067D01*
X123018379Y-63969949D01*
X123017842Y-63968313D01*
X123015224Y-63960334D01*
X123014739Y-63958995D01*
X123011021Y-63949631D01*
X122970749Y-63856564D01*
X122969963Y-63854677D01*
X122932812Y-63761994D01*
X122928572Y-63747568D01*
X122921225Y-63709444D01*
X122919918Y-63698832D01*
X122915858Y-63624589D01*
X122912715Y-63611596D01*
X122910500Y-63593021D01*
X122910500Y-58882154D01*
X122922194Y-58848533D01*
X122926351Y-58830705D01*
X122969578Y-58798276D01*
X123023537Y-58801221D01*
X123046513Y-58816211D01*
X123048550Y-58818120D01*
X123060234Y-58831892D01*
X123061163Y-58833283D01*
X123061164Y-58833283D01*
X123142763Y-58955406D01*
X123142772Y-58955416D01*
X123142782Y-58955427D01*
X123269577Y-59082222D01*
X123269582Y-59082226D01*
X123269583Y-59082227D01*
X123269589Y-59082232D01*
X123418715Y-59181875D01*
X123584416Y-59250510D01*
X123760323Y-59285500D01*
X123939675Y-59285500D01*
X124115582Y-59250510D01*
X124281283Y-59181875D01*
X124430409Y-59082232D01*
X124557231Y-58955410D01*
X124656874Y-58806284D01*
X124725509Y-58640583D01*
X124760499Y-58464676D01*
X124760499Y-58285324D01*
X124725509Y-58109417D01*
X124725508Y-58109416D01*
X124725508Y-58109412D01*
X124662632Y-57957618D01*
X124656874Y-57943716D01*
X124557231Y-57794590D01*
X124557226Y-57794584D01*
X124557224Y-57794582D01*
X124557221Y-57794578D01*
X124430426Y-57667783D01*
X124430415Y-57667773D01*
X124430405Y-57667764D01*
X124287758Y-57572451D01*
X124287758Y-57572452D01*
X124281284Y-57568126D01*
X124281283Y-57568125D01*
X124281280Y-57568124D01*
X124281279Y-57568123D01*
X124281276Y-57568122D01*
X124280916Y-57567881D01*
X124278697Y-57567053D01*
X124207793Y-57537684D01*
X124115586Y-57499491D01*
X124115582Y-57499490D01*
X124115578Y-57499489D01*
X124115567Y-57499486D01*
X124018598Y-57480198D01*
X123991307Y-57463637D01*
X123968624Y-57450540D01*
X123950144Y-57399759D01*
X123968629Y-57348980D01*
X123989640Y-57331350D01*
X123993651Y-57329034D01*
X124017728Y-57319973D01*
X124115582Y-57300510D01*
X124281283Y-57231875D01*
X124430409Y-57132232D01*
X124557231Y-57005410D01*
X124656874Y-56856284D01*
X124725509Y-56690583D01*
X124760499Y-56514676D01*
X124760499Y-56335324D01*
X124725509Y-56159417D01*
X124724576Y-56157167D01*
X124724576Y-56157154D01*
X124724572Y-56157156D01*
X124657942Y-55996295D01*
X124657318Y-55994623D01*
X124656874Y-55993717D01*
X124656874Y-55993716D01*
X124557231Y-55844590D01*
X124557226Y-55844584D01*
X124557224Y-55844582D01*
X124557221Y-55844578D01*
X124428869Y-55716226D01*
X124429115Y-55715979D01*
X124420985Y-55707046D01*
X124413611Y-55696989D01*
X124398489Y-55645109D01*
X124419893Y-55596026D01*
X124425990Y-55589572D01*
X124447540Y-55573444D01*
X124505144Y-55544094D01*
X124540125Y-55518678D01*
X124540124Y-55518677D01*
X124540125Y-55518677D01*
X124064681Y-55043233D01*
X124041843Y-54994257D01*
X124055829Y-54942059D01*
X124081039Y-54918958D01*
X124157006Y-54875099D01*
X124250098Y-54782007D01*
X124293956Y-54706041D01*
X124335351Y-54671307D01*
X124389390Y-54671307D01*
X124418232Y-54689682D01*
X124893676Y-55165126D01*
X124893676Y-55165125D01*
X124893677Y-55165126D01*
X124919093Y-55130145D01*
X125008419Y-54954831D01*
X125069219Y-54767711D01*
X125069220Y-54767708D01*
X125099997Y-54573388D01*
X125099999Y-54573372D01*
X125099999Y-54376627D01*
X125099997Y-54376611D01*
X125096638Y-54355406D01*
X125081578Y-54260316D01*
X125069220Y-54182291D01*
X125069219Y-54182288D01*
X125008419Y-53995168D01*
X124919096Y-53819859D01*
X124893677Y-53784872D01*
X124893676Y-53784871D01*
X124418232Y-54260316D01*
X124369256Y-54283154D01*
X124317058Y-54269168D01*
X124293955Y-54243955D01*
X124258351Y-54182288D01*
X124250098Y-54167993D01*
X124250097Y-54167992D01*
X124250096Y-54167990D01*
X124157008Y-54074902D01*
X124081040Y-54031042D01*
X124046304Y-53989645D01*
X124046304Y-53935606D01*
X124064675Y-53906769D01*
X124540125Y-53431320D01*
X124506913Y-53407191D01*
X124505152Y-53405911D01*
X124505148Y-53405908D01*
X124505142Y-53405904D01*
X124505130Y-53405897D01*
X124494277Y-53400367D01*
X124447781Y-53376675D01*
X124425873Y-53360167D01*
X124419534Y-53353370D01*
X124398416Y-53303628D01*
X124413906Y-53252360D01*
X124420966Y-53242862D01*
X124428498Y-53234142D01*
X124430405Y-53232234D01*
X124430409Y-53232232D01*
X124557231Y-53105410D01*
X124656874Y-52956284D01*
X124725509Y-52790583D01*
X124760499Y-52614676D01*
X124760499Y-52435324D01*
X124725509Y-52259417D01*
X124656874Y-52093716D01*
X124566461Y-51958404D01*
X124563249Y-51945278D01*
X124559547Y-51940464D01*
X124559921Y-51931675D01*
X124553618Y-51905916D01*
X124561717Y-51889490D01*
X124561846Y-51886474D01*
X124564796Y-51883246D01*
X124577518Y-51857449D01*
X124595696Y-51849450D01*
X124598310Y-51846592D01*
X124603870Y-51845853D01*
X124626981Y-51835685D01*
X124644907Y-51840405D01*
X124651879Y-51839480D01*
X124670336Y-51847101D01*
X124675468Y-51848453D01*
X124679420Y-51851044D01*
X124680384Y-51851951D01*
X124693937Y-51860563D01*
X124694439Y-51860893D01*
X124694713Y-51861260D01*
X124706980Y-51871095D01*
X128391900Y-55556015D01*
X128393701Y-55557875D01*
X128395486Y-55559781D01*
X128397201Y-55561674D01*
X128535272Y-55719112D01*
X128538514Y-55723063D01*
X128541678Y-55727186D01*
X128544673Y-55731366D01*
X128551283Y-55741257D01*
X128658833Y-55902218D01*
X128661560Y-55906602D01*
X128664143Y-55911075D01*
X128666583Y-55915640D01*
X128757459Y-56099920D01*
X128759593Y-56104630D01*
X128761572Y-56109408D01*
X128763392Y-56114245D01*
X128829430Y-56308786D01*
X128830929Y-56313724D01*
X128832271Y-56318730D01*
X128833447Y-56323774D01*
X128873530Y-56525285D01*
X128874371Y-56530380D01*
X128875045Y-56535497D01*
X128875553Y-56540647D01*
X128889246Y-56749555D01*
X128889373Y-56752133D01*
X128889458Y-56754725D01*
X128889500Y-56757314D01*
X128889500Y-69467685D01*
X128889458Y-69470274D01*
X128889373Y-69472866D01*
X128889246Y-69475444D01*
X128875553Y-69684352D01*
X128875045Y-69689502D01*
X128874371Y-69694619D01*
X128873530Y-69699714D01*
X128833445Y-69901232D01*
X128832275Y-69906253D01*
X128830940Y-69911239D01*
X128829436Y-69916199D01*
X128774278Y-70078694D01*
X128774276Y-70078698D01*
X128763390Y-70110763D01*
X128761573Y-70115592D01*
X128759601Y-70120354D01*
X128757465Y-70125069D01*
X128666583Y-70309359D01*
X128664143Y-70313924D01*
X128661560Y-70318397D01*
X128658833Y-70322781D01*
X128544681Y-70493623D01*
X128541669Y-70497826D01*
X128538529Y-70501918D01*
X128535260Y-70505901D01*
X128472388Y-70577593D01*
X128397220Y-70663305D01*
X128395487Y-70665217D01*
X128393702Y-70667123D01*
X128391901Y-70668983D01*
X124443984Y-74616900D01*
X124442124Y-74618701D01*
X124440218Y-74620486D01*
X124438306Y-74622219D01*
X124280902Y-74760259D01*
X124276919Y-74763528D01*
X124272827Y-74766668D01*
X124268624Y-74769680D01*
X124097781Y-74883833D01*
X124093397Y-74886560D01*
X124088924Y-74889143D01*
X124084359Y-74891583D01*
X123900079Y-74982459D01*
X123895369Y-74984593D01*
X123890591Y-74986572D01*
X123885754Y-74988392D01*
X123691213Y-75054430D01*
X123686275Y-75055929D01*
X123681269Y-75057271D01*
X123676225Y-75058447D01*
X123474714Y-75098530D01*
X123469619Y-75099371D01*
X123464502Y-75100045D01*
X123459352Y-75100553D01*
X123250444Y-75114246D01*
X123247866Y-75114373D01*
X123247524Y-75114384D01*
X123245262Y-75114458D01*
X123242685Y-75114500D01*
X121652605Y-75114500D01*
X121603427Y-75114500D01*
X121473672Y-75114500D01*
X121370520Y-75126122D01*
X121215786Y-75143555D01*
X120962783Y-75201302D01*
X120962500Y-75201403D01*
X120722036Y-75285544D01*
X120722024Y-75285548D01*
X120717849Y-75287010D01*
X120717847Y-75287010D01*
X120717844Y-75287012D01*
X120711400Y-75290115D01*
X120711354Y-75290135D01*
X120665288Y-75312321D01*
X120665287Y-75312322D01*
X120484034Y-75399607D01*
X120269747Y-75534253D01*
X120269734Y-75534262D01*
X120264296Y-75537680D01*
X120264293Y-75537681D01*
X120224885Y-75569107D01*
X120224430Y-75569462D01*
X120223574Y-75569737D01*
X120201126Y-75581963D01*
X120197802Y-75583080D01*
X120183253Y-75582718D01*
X120172991Y-75586022D01*
X120163680Y-75582231D01*
X120143780Y-75581736D01*
X120127770Y-75567609D01*
X120122942Y-75565643D01*
X120120671Y-75561345D01*
X120103260Y-75545981D01*
X120099547Y-75521356D01*
X120097701Y-75517861D01*
X120098477Y-75514257D01*
X120095204Y-75492546D01*
X120108486Y-75467786D01*
X120109080Y-75465033D01*
X120111291Y-75462558D01*
X120116775Y-75452336D01*
X122212309Y-73356801D01*
X122226921Y-73345288D01*
X122238320Y-73338310D01*
X122238322Y-73338308D01*
X122238321Y-73338308D01*
X122238324Y-73338307D01*
X122312755Y-73269561D01*
X122317663Y-73265388D01*
X122388634Y-73209903D01*
X122396942Y-73204225D01*
X122553930Y-73111045D01*
X122566468Y-73105027D01*
X122724379Y-73045717D01*
X122737590Y-73042029D01*
X122906277Y-73010402D01*
X122919038Y-73009070D01*
X123104449Y-73004882D01*
X123115714Y-73005435D01*
X123324355Y-73030719D01*
X123332796Y-73032211D01*
X123567185Y-73086942D01*
X123567186Y-73086942D01*
X123570047Y-73087331D01*
X123579849Y-73089303D01*
X123707597Y-73123533D01*
X123707606Y-73123535D01*
X123707620Y-73123536D01*
X123707621Y-73123537D01*
X123988385Y-73160500D01*
X124271610Y-73160500D01*
X124271613Y-73160500D01*
X124492793Y-73131381D01*
X124552393Y-73123535D01*
X124552402Y-73123533D01*
X124744683Y-73072010D01*
X124825960Y-73050233D01*
X125087615Y-72941851D01*
X125332885Y-72800245D01*
X125557573Y-72627835D01*
X125757835Y-72427573D01*
X125930245Y-72202885D01*
X126071851Y-71957615D01*
X126180233Y-71695960D01*
X126253534Y-71422397D01*
X126290500Y-71141607D01*
X126290500Y-70858393D01*
X126290500Y-70858389D01*
X126290500Y-70858385D01*
X126253537Y-70577621D01*
X126253536Y-70577620D01*
X126253535Y-70577606D01*
X126253533Y-70577597D01*
X126180235Y-70304047D01*
X126180234Y-70304044D01*
X126180233Y-70304040D01*
X126100772Y-70112207D01*
X126071853Y-70042390D01*
X126071851Y-70042385D01*
X125930245Y-69797115D01*
X125757835Y-69572427D01*
X125757834Y-69572426D01*
X125757831Y-69572422D01*
X125757821Y-69572411D01*
X125557595Y-69372185D01*
X125557577Y-69372168D01*
X125540383Y-69358975D01*
X125332885Y-69199755D01*
X125298017Y-69179624D01*
X125092098Y-69060737D01*
X125092095Y-69060735D01*
X125087615Y-69058149D01*
X125087612Y-69058147D01*
X125087609Y-69058146D01*
X125082661Y-69056096D01*
X125082652Y-69056092D01*
X124825973Y-68949771D01*
X124825958Y-68949766D01*
X124825955Y-68949765D01*
X124825952Y-68949764D01*
X124552402Y-68876466D01*
X124552393Y-68876464D01*
X124552390Y-68876463D01*
X124552377Y-68876461D01*
X124271613Y-68839500D01*
X124271610Y-68839500D01*
X124271607Y-68839500D01*
X123988393Y-68839500D01*
X123988390Y-68839500D01*
X123988387Y-68839500D01*
X123707621Y-68876461D01*
X123707601Y-68876465D01*
X123707593Y-68876467D01*
X123434047Y-68949764D01*
X123434040Y-68949766D01*
X123289171Y-69009772D01*
X123282762Y-69012426D01*
X123279730Y-69013067D01*
X123234746Y-69032315D01*
X123234315Y-69032494D01*
X123234276Y-69032511D01*
X123229591Y-69034451D01*
X123228286Y-69034978D01*
X122949280Y-69144729D01*
X122941640Y-69147292D01*
X122792753Y-69188935D01*
X122783603Y-69190918D01*
X122630255Y-69214745D01*
X122617691Y-69215681D01*
X122460381Y-69214814D01*
X122448931Y-69213916D01*
X122380952Y-69203571D01*
X122372492Y-69201805D01*
X122367393Y-69200446D01*
X122367387Y-69200442D01*
X122367387Y-69200444D01*
X122324216Y-69188935D01*
X122300069Y-69182497D01*
X122291362Y-69179624D01*
X122219349Y-69151138D01*
X122210803Y-69147152D01*
X122138520Y-69108022D01*
X122130531Y-69103060D01*
X122057377Y-69051349D01*
X122050261Y-69045677D01*
X121974390Y-68977698D01*
X121974383Y-68977693D01*
X121962982Y-68970735D01*
X121948275Y-68959162D01*
X119158096Y-66168982D01*
X119156295Y-66167122D01*
X119154510Y-66165216D01*
X119152798Y-66163327D01*
X119014721Y-66005882D01*
X119011484Y-66001937D01*
X119008314Y-65997805D01*
X119005327Y-65993637D01*
X118891164Y-65822780D01*
X118888437Y-65818396D01*
X118885845Y-65813907D01*
X118883414Y-65809358D01*
X118792535Y-65625073D01*
X118790406Y-65620374D01*
X118788434Y-65615615D01*
X118786621Y-65610800D01*
X118720552Y-65416168D01*
X118719064Y-65411265D01*
X118717718Y-65406240D01*
X118716556Y-65401255D01*
X118708193Y-65359207D01*
X118676462Y-65199687D01*
X118675628Y-65194636D01*
X118674947Y-65189465D01*
X118674446Y-65184375D01*
X118669003Y-65101327D01*
X118660749Y-64975389D01*
X118660626Y-64972895D01*
X118660539Y-64970233D01*
X118660499Y-64967684D01*
X118660499Y-63812819D01*
X118664465Y-63789515D01*
X118664367Y-63789492D01*
X118664707Y-63788094D01*
X118664948Y-63786681D01*
X118665287Y-63785715D01*
X118679159Y-63687853D01*
X118684094Y-63669437D01*
X118707386Y-63611596D01*
X118726378Y-63564432D01*
X118733844Y-63550249D01*
X118818894Y-63422178D01*
X118827727Y-63411161D01*
X118960567Y-63272883D01*
X118967853Y-63266195D01*
X119042684Y-63205689D01*
X119047871Y-63201837D01*
X119134790Y-63142713D01*
X119140267Y-63139308D01*
X119231442Y-63087682D01*
X119237239Y-63084709D01*
X119334668Y-63039734D01*
X119340737Y-63037234D01*
X119437878Y-63001872D01*
X119444217Y-62999863D01*
X119545931Y-62972299D01*
X119552485Y-62970820D01*
X119651328Y-62952910D01*
X119658040Y-62951990D01*
X119762282Y-62942259D01*
X119767744Y-62941940D01*
X119808973Y-62940961D01*
X119834992Y-62936590D01*
X119848077Y-62935500D01*
X119991327Y-62935500D01*
X119991332Y-62935500D01*
X120171750Y-62906924D01*
X120345476Y-62850477D01*
X120508233Y-62767548D01*
X120656014Y-62660179D01*
X120785178Y-62531015D01*
X120892547Y-62383234D01*
X120975476Y-62220477D01*
X121031923Y-62046751D01*
X121060499Y-61866333D01*
X121060499Y-61683667D01*
X121031923Y-61503249D01*
X120975476Y-61329523D01*
X120975472Y-61329516D01*
X120975471Y-61329512D01*
X120892546Y-61166765D01*
X120892542Y-61166759D01*
X120892540Y-61166755D01*
X120892534Y-61166746D01*
X120818703Y-61065129D01*
X120785183Y-61018992D01*
X120785178Y-61018985D01*
X120785173Y-61018980D01*
X120785168Y-61018974D01*
X120784848Y-61018654D01*
X120784845Y-61018650D01*
X120656029Y-60889834D01*
X120656015Y-60889821D01*
X120508239Y-60782456D01*
X120508236Y-60782454D01*
X120508233Y-60782452D01*
X120456564Y-60756125D01*
X120345496Y-60699531D01*
X120345489Y-60699528D01*
X120345481Y-60699525D01*
X120345473Y-60699522D01*
X120345468Y-60699520D01*
X120345456Y-60699516D01*
X120171772Y-60643082D01*
X120171754Y-60643077D01*
X120171749Y-60643076D01*
X120171741Y-60643074D01*
X120171739Y-60643073D01*
X120171727Y-60643071D01*
X119992921Y-60614751D01*
X119991740Y-60614539D01*
X119991340Y-60614500D01*
X119991336Y-60614500D01*
X119991332Y-60614500D01*
X118308666Y-60614500D01*
X118308662Y-60614500D01*
X118308659Y-60614500D01*
X118308638Y-60614501D01*
X118308310Y-60614555D01*
X118128268Y-60643071D01*
X118128242Y-60643077D01*
X118128224Y-60643082D01*
X117954540Y-60699516D01*
X117954507Y-60699528D01*
X117954500Y-60699531D01*
X117791769Y-60782449D01*
X117791754Y-60782457D01*
X117791745Y-60782463D01*
X117643991Y-60889814D01*
X117643983Y-60889821D01*
X117643969Y-60889832D01*
X117514831Y-61018970D01*
X117514820Y-61018984D01*
X117514813Y-61018992D01*
X117407462Y-61166746D01*
X117407456Y-61166755D01*
X117407448Y-61166770D01*
X117324530Y-61329501D01*
X117324527Y-61329508D01*
X117324515Y-61329541D01*
X117268081Y-61503225D01*
X117268076Y-61503243D01*
X117268070Y-61503270D01*
X117239499Y-61683658D01*
X117239499Y-61866340D01*
X117268070Y-62046728D01*
X117268076Y-62046755D01*
X117268081Y-62046773D01*
X117324515Y-62220457D01*
X117324527Y-62220490D01*
X117324530Y-62220497D01*
X117381124Y-62331565D01*
X117407451Y-62383234D01*
X117407453Y-62383237D01*
X117407455Y-62383240D01*
X117514819Y-62531015D01*
X117514829Y-62531026D01*
X117643959Y-62660156D01*
X117643983Y-62660178D01*
X117648438Y-62663415D01*
X117662828Y-62677584D01*
X117662911Y-62677509D01*
X117664380Y-62679111D01*
X117665182Y-62679901D01*
X117665533Y-62680369D01*
X117734049Y-62741766D01*
X117738883Y-62746485D01*
X117796303Y-62807560D01*
X117803046Y-62815777D01*
X117900134Y-62951835D01*
X117907549Y-62964601D01*
X117971195Y-63102418D01*
X117975984Y-63115863D01*
X118015645Y-63270075D01*
X118017780Y-63282274D01*
X118035709Y-63470830D01*
X118036064Y-63478404D01*
X118035834Y-63667834D01*
X118035834Y-63667866D01*
X118035833Y-63669498D01*
X118034668Y-63758525D01*
X118034658Y-63759609D01*
X118034657Y-63759762D01*
X118039271Y-63783364D01*
X118039464Y-63789828D01*
X118039315Y-63790278D01*
X118039499Y-63792177D01*
X118039499Y-65101323D01*
X118068554Y-65359211D01*
X118126300Y-65612210D01*
X118126402Y-65612497D01*
X118212010Y-65857153D01*
X118280837Y-66000075D01*
X118280836Y-66000075D01*
X118324798Y-66091361D01*
X118325783Y-66092835D01*
X118462676Y-66310698D01*
X118624477Y-66513591D01*
X118687323Y-66576437D01*
X121511747Y-69400860D01*
X121515037Y-69404355D01*
X121519468Y-69409360D01*
X121530439Y-69427025D01*
X121617391Y-69519972D01*
X121618108Y-69520782D01*
X121618157Y-69520907D01*
X121620225Y-69523276D01*
X121693344Y-69613104D01*
X121698349Y-69619977D01*
X121822348Y-69811093D01*
X121828069Y-69821566D01*
X121913284Y-70010183D01*
X121917423Y-70021621D01*
X121970758Y-70214176D01*
X121973062Y-70225846D01*
X121997079Y-70425863D01*
X121997626Y-70436867D01*
X121993304Y-70652141D01*
X121992962Y-70658067D01*
X121992929Y-70658402D01*
X121985786Y-70727245D01*
X121986058Y-70730337D01*
X121985406Y-70737168D01*
X121985261Y-70737471D01*
X121985088Y-70739966D01*
X121969500Y-70858383D01*
X121969500Y-71111875D01*
X121966624Y-71119775D01*
X122006461Y-71422377D01*
X122006465Y-71422397D01*
X122006467Y-71422406D01*
X122041029Y-71551394D01*
X122042978Y-71561031D01*
X122043362Y-71563813D01*
X122092603Y-71769211D01*
X122093685Y-71774518D01*
X122112883Y-71888597D01*
X122113625Y-71894249D01*
X122125110Y-72015362D01*
X122125462Y-72022504D01*
X122125960Y-72147011D01*
X122125530Y-72155571D01*
X122112268Y-72281959D01*
X122110622Y-72291711D01*
X122080812Y-72419132D01*
X122077583Y-72429599D01*
X122026723Y-72561280D01*
X122022870Y-72569739D01*
X121982211Y-72646648D01*
X121978538Y-72652885D01*
X121928596Y-72729452D01*
X121922509Y-72737589D01*
X121786796Y-72896541D01*
X121786791Y-72896549D01*
X121781241Y-72906020D01*
X121768944Y-72921938D01*
X119115889Y-75574997D01*
X118741515Y-75949371D01*
X117557116Y-77133770D01*
X117541230Y-77149656D01*
X117495354Y-77195531D01*
X117449479Y-77241406D01*
X117449478Y-77241407D01*
X117391527Y-77314076D01*
X117287679Y-77444296D01*
X117149608Y-77664033D01*
X117098915Y-77769301D01*
X117069631Y-77830109D01*
X117069631Y-77830110D01*
X117069630Y-77830109D01*
X117037799Y-77896212D01*
X117037789Y-77896233D01*
X117037013Y-77897841D01*
X116951302Y-78142789D01*
X116951298Y-78142800D01*
X116893557Y-78395776D01*
X116893554Y-78395794D01*
X116864500Y-78653673D01*
X116864500Y-84504416D01*
X116864177Y-84511548D01*
X116863620Y-84517684D01*
X116859151Y-84535488D01*
X116855701Y-84605040D01*
X116855554Y-84606671D01*
X116855382Y-84607035D01*
X116854721Y-84613001D01*
X116848569Y-84648574D01*
X116844682Y-84662885D01*
X116813390Y-84746212D01*
X116810682Y-84752565D01*
X116808260Y-84757620D01*
X116806664Y-84761049D01*
X116806459Y-84761504D01*
X116805111Y-84764580D01*
X116760864Y-84868418D01*
X116760861Y-84868424D01*
X116755567Y-84882619D01*
X116755565Y-84882624D01*
X116754929Y-84884603D01*
X116754921Y-84884629D01*
X116750987Y-84899064D01*
X116718867Y-85042192D01*
X116717454Y-85049205D01*
X116717273Y-85050214D01*
X116716986Y-85054409D01*
X116715978Y-85062681D01*
X116715378Y-85066091D01*
X116714500Y-85069371D01*
X115800500Y-85069371D01*
X115800500Y-61167313D01*
X115800541Y-61164754D01*
X115800628Y-61162099D01*
X115800750Y-61159603D01*
X115814448Y-60950616D01*
X115814954Y-60945490D01*
X115815627Y-60940381D01*
X115816468Y-60935286D01*
X115825509Y-60889834D01*
X115856558Y-60733740D01*
X115857729Y-60728722D01*
X115859066Y-60723734D01*
X115860553Y-60718828D01*
X115867107Y-60699523D01*
X115926612Y-60524227D01*
X115928427Y-60519404D01*
X115930399Y-60514642D01*
X115932528Y-60509941D01*
X116023431Y-60325607D01*
X116025844Y-60321092D01*
X116028444Y-60316590D01*
X116031151Y-60312238D01*
X116145340Y-60141341D01*
X116148310Y-60137197D01*
X116151494Y-60133048D01*
X116154716Y-60129123D01*
X116292838Y-59971626D01*
X116294496Y-59969796D01*
X116296321Y-59967848D01*
X116298051Y-59966061D01*
X119387676Y-56876438D01*
X119450522Y-56813592D01*
X119612323Y-56610699D01*
X119750391Y-56390966D01*
X119862988Y-56157156D01*
X119948698Y-55912209D01*
X120006445Y-55659206D01*
X120035500Y-55401328D01*
X120035500Y-55271573D01*
X120035500Y-55222395D01*
X120035500Y-53032312D01*
X120035541Y-53029756D01*
X120035628Y-53027098D01*
X120035749Y-53024613D01*
X120038179Y-52987548D01*
X120049448Y-52815615D01*
X120049954Y-52810489D01*
X120050627Y-52805380D01*
X120051468Y-52800285D01*
X120070174Y-52706245D01*
X120091558Y-52598739D01*
X120092729Y-52593721D01*
X120094066Y-52588733D01*
X120095559Y-52583811D01*
X120161612Y-52389226D01*
X120163427Y-52384403D01*
X120165399Y-52379641D01*
X120167528Y-52374940D01*
X120258431Y-52190606D01*
X120260844Y-52186091D01*
X120263444Y-52181589D01*
X120266151Y-52177237D01*
X120380340Y-52006340D01*
X120383310Y-52002196D01*
X120386494Y-51998047D01*
X120389729Y-51994107D01*
X120516124Y-51849981D01*
X120522129Y-51843843D01*
X120527177Y-51839215D01*
X120541161Y-51830272D01*
X120629214Y-51745678D01*
X120629890Y-51745059D01*
X120630052Y-51744991D01*
X120633594Y-51741868D01*
X120708858Y-51680996D01*
X120715438Y-51676215D01*
X120716355Y-51675617D01*
X120772063Y-51639359D01*
X120779829Y-51634910D01*
X120823625Y-51613037D01*
X120836161Y-51608066D01*
X120948965Y-51574158D01*
X120960633Y-51571596D01*
X121048528Y-51559175D01*
X121048527Y-51559174D01*
X121055045Y-51558253D01*
X121112344Y-51550157D01*
X121112343Y-51550157D01*
X121112592Y-51550122D01*
X121112767Y-51550096D01*
X121321536Y-51521175D01*
X121321546Y-51521173D01*
X121321563Y-51521171D01*
X121327890Y-51520135D01*
X121329560Y-51519862D01*
X121330687Y-51519649D01*
X121338610Y-51517950D01*
X121594320Y-51456521D01*
X121598917Y-51455347D01*
X121598947Y-51455338D01*
X121598970Y-51455333D01*
X121599554Y-51455175D01*
X121599558Y-51455173D01*
X121599567Y-51455171D01*
X121599575Y-51455166D01*
X121600965Y-51454628D01*
X121614129Y-51450798D01*
X121615582Y-51450510D01*
X121781283Y-51381875D01*
X121930409Y-51282232D01*
X122057231Y-51155410D01*
X122156874Y-51006284D01*
X122225509Y-50840583D01*
X122260499Y-50664676D01*
X122260499Y-50485324D01*
X122225509Y-50309417D01*
X122156874Y-50143716D01*
X122057231Y-49994590D01*
X122057226Y-49994584D01*
X122057224Y-49994582D01*
X122057221Y-49994578D01*
X121930426Y-49867783D01*
X121930415Y-49867773D01*
X121930405Y-49867764D01*
X121787758Y-49772451D01*
X121787758Y-49772452D01*
X121781284Y-49768126D01*
X121781283Y-49768125D01*
X121781280Y-49768124D01*
X121781279Y-49768123D01*
X121781276Y-49768122D01*
X121780916Y-49767881D01*
X121778697Y-49767053D01*
X121707793Y-49737684D01*
X121615586Y-49699491D01*
X121615582Y-49699490D01*
X121615578Y-49699489D01*
X121615568Y-49699486D01*
X121439675Y-49664500D01*
X121260323Y-49664500D01*
X121084433Y-49699485D01*
X121084414Y-49699490D01*
X121084412Y-49699490D01*
X121084411Y-49699491D01*
X121076968Y-49702574D01*
X120918721Y-49768121D01*
X120918718Y-49768122D01*
X120918716Y-49768123D01*
X120918710Y-49768127D01*
X120769591Y-49867764D01*
X120769581Y-49867773D01*
X120769570Y-49867783D01*
X120642782Y-49994571D01*
X120642772Y-49994582D01*
X120642763Y-49994592D01*
X120543126Y-50143711D01*
X120543122Y-50143717D01*
X120543121Y-50143719D01*
X120543120Y-50143722D01*
X120513911Y-50214240D01*
X120474490Y-50309412D01*
X120474489Y-50309416D01*
X120474359Y-50310069D01*
X120473547Y-50314152D01*
X120469540Y-50326423D01*
X120469842Y-50326529D01*
X120468560Y-50330191D01*
X120404273Y-50594615D01*
X120402730Y-50601627D01*
X120402519Y-50602696D01*
X120401222Y-50610169D01*
X120371933Y-50805453D01*
X120371889Y-50805743D01*
X120349129Y-50953734D01*
X120346648Y-50964649D01*
X120310733Y-51083100D01*
X120305929Y-51095230D01*
X120281521Y-51144527D01*
X120277206Y-51152149D01*
X120239159Y-51211421D01*
X120232778Y-51220018D01*
X120084433Y-51393907D01*
X120084425Y-51393917D01*
X120079150Y-51403001D01*
X120066698Y-51419185D01*
X119999485Y-51486397D01*
X119837679Y-51689295D01*
X119699606Y-51909035D01*
X119654761Y-52002161D01*
X119629977Y-52053627D01*
X119610670Y-52093719D01*
X119604675Y-52106168D01*
X119587009Y-52142852D01*
X119501302Y-52387788D01*
X119501298Y-52387799D01*
X119443557Y-52640775D01*
X119443554Y-52640793D01*
X119425585Y-52800285D01*
X119417930Y-52868233D01*
X119414500Y-52898673D01*
X119414500Y-55267685D01*
X119414458Y-55270274D01*
X119414373Y-55272866D01*
X119414246Y-55275444D01*
X119400553Y-55484352D01*
X119400045Y-55489502D01*
X119399371Y-55494619D01*
X119398530Y-55499714D01*
X119358445Y-55701232D01*
X119357275Y-55706253D01*
X119355940Y-55711239D01*
X119354436Y-55716199D01*
X119349285Y-55731375D01*
X119310854Y-55844592D01*
X119295678Y-55889299D01*
X119295676Y-55889304D01*
X119288390Y-55910764D01*
X119286573Y-55915592D01*
X119284601Y-55920354D01*
X119282465Y-55925069D01*
X119191583Y-56109359D01*
X119189143Y-56113924D01*
X119186560Y-56118397D01*
X119183833Y-56122781D01*
X119069681Y-56293623D01*
X119066669Y-56297826D01*
X119063529Y-56301918D01*
X119060260Y-56305901D01*
X119007437Y-56366135D01*
X118922220Y-56463305D01*
X118920487Y-56465217D01*
X118918702Y-56467123D01*
X118916901Y-56468983D01*
X117276474Y-58109412D01*
X115856230Y-59529655D01*
X115856230Y-59529656D01*
X115810354Y-59575531D01*
X115764479Y-59621406D01*
X115764478Y-59621407D01*
X115694927Y-59708621D01*
X115602679Y-59824296D01*
X115493802Y-59997574D01*
X115468906Y-60016924D01*
X115452272Y-60032939D01*
X115398359Y-60036625D01*
X115354689Y-60004794D01*
X115343570Y-59979718D01*
X115342816Y-59976679D01*
X115340500Y-59957687D01*
X115340500Y-53633658D01*
X116439499Y-53633658D01*
X116439499Y-55316340D01*
X116468070Y-55496728D01*
X116468076Y-55496755D01*
X116468081Y-55496773D01*
X116524515Y-55670457D01*
X116524527Y-55670490D01*
X116524530Y-55670497D01*
X116597994Y-55814674D01*
X116607451Y-55833234D01*
X116607455Y-55833240D01*
X116665556Y-55913209D01*
X116714820Y-55981015D01*
X116714824Y-55981019D01*
X116714829Y-55981025D01*
X116715723Y-55981919D01*
X116715726Y-55981923D01*
X116843951Y-56110148D01*
X116843960Y-56110156D01*
X116843973Y-56110169D01*
X116843979Y-56110174D01*
X116843984Y-56110179D01*
X116852515Y-56116377D01*
X116991755Y-56217542D01*
X116991761Y-56217545D01*
X116991765Y-56217548D01*
X117064644Y-56254681D01*
X117152858Y-56299629D01*
X117154205Y-56300357D01*
X117154507Y-56300470D01*
X117154511Y-56300472D01*
X117154515Y-56300473D01*
X117154522Y-56300477D01*
X117154548Y-56300485D01*
X117155650Y-56300898D01*
X117157090Y-56301311D01*
X117328248Y-56356924D01*
X117508666Y-56385500D01*
X117508671Y-56385500D01*
X117691327Y-56385500D01*
X117691332Y-56385500D01*
X117871750Y-56356924D01*
X118045476Y-56300477D01*
X118208233Y-56217548D01*
X118356014Y-56110179D01*
X118485178Y-55981015D01*
X118592547Y-55833234D01*
X118675476Y-55670477D01*
X118731923Y-55496751D01*
X118760499Y-55316333D01*
X118760499Y-53633667D01*
X118740822Y-53509434D01*
X118731924Y-53453252D01*
X118730858Y-53449974D01*
X118716956Y-53407187D01*
X118713788Y-53393257D01*
X118711291Y-53374599D01*
X118706357Y-53360167D01*
X118572338Y-52968126D01*
X118561090Y-52935223D01*
X118561084Y-52935206D01*
X118559506Y-52930795D01*
X118559275Y-52930177D01*
X118557582Y-52925835D01*
X118557562Y-52925785D01*
X118387363Y-52506810D01*
X118386916Y-52505721D01*
X118386859Y-52505582D01*
X118295827Y-52285993D01*
X118294600Y-52282839D01*
X118226414Y-52095667D01*
X118224108Y-52088208D01*
X118215267Y-52053641D01*
X118182830Y-51926811D01*
X118180712Y-51914613D01*
X118180189Y-51909035D01*
X118165771Y-51755209D01*
X118163287Y-51746108D01*
X118160499Y-51725306D01*
X118160499Y-49528031D01*
X129349500Y-49528031D01*
X129349500Y-49871967D01*
X129383209Y-50214240D01*
X129450308Y-50551573D01*
X129550147Y-50880700D01*
X129550148Y-50880701D01*
X129550162Y-50880740D01*
X129681244Y-51197196D01*
X129681576Y-51198037D01*
X129681767Y-51198460D01*
X129843387Y-51500829D01*
X129843750Y-51501530D01*
X129843905Y-51501797D01*
X130034970Y-51787746D01*
X130034975Y-51787753D01*
X130253166Y-52053621D01*
X130253185Y-52053641D01*
X130496358Y-52296814D01*
X130496378Y-52296833D01*
X130762246Y-52515024D01*
X131048207Y-52706097D01*
X131048213Y-52706100D01*
X131048462Y-52706245D01*
X131049169Y-52706611D01*
X131298403Y-52839830D01*
X131351528Y-52868226D01*
X131351530Y-52868227D01*
X131351538Y-52868231D01*
X131422557Y-52897647D01*
X131474414Y-52919128D01*
X131474417Y-52919128D01*
X131474418Y-52919129D01*
X131513231Y-52935206D01*
X131668073Y-52999345D01*
X131669274Y-52999842D01*
X131669289Y-52999847D01*
X131669295Y-52999850D01*
X131998422Y-53099690D01*
X132335750Y-53166789D01*
X132678031Y-53200500D01*
X132678032Y-53200500D01*
X133021968Y-53200500D01*
X133021969Y-53200500D01*
X133364250Y-53166789D01*
X133701578Y-53099690D01*
X134030705Y-52999850D01*
X134030722Y-52999842D01*
X134030730Y-52999840D01*
X134135892Y-52956280D01*
X134348462Y-52868231D01*
X134651787Y-52706100D01*
X134651788Y-52706098D01*
X134651790Y-52706097D01*
X134651792Y-52706097D01*
X134651794Y-52706095D01*
X134652128Y-52705917D01*
X134653370Y-52705042D01*
X134937753Y-52515024D01*
X134937755Y-52515022D01*
X134937760Y-52515019D01*
X135203627Y-52296828D01*
X135446828Y-52053627D01*
X135665019Y-51787760D01*
X135711549Y-51718123D01*
X135856097Y-51501792D01*
X135856098Y-51501789D01*
X135856100Y-51501787D01*
X135856104Y-51501777D01*
X135856219Y-51501607D01*
X135856746Y-51500578D01*
X135880295Y-51456521D01*
X136018231Y-51198462D01*
X136117430Y-50958975D01*
X136149840Y-50880730D01*
X136149842Y-50880722D01*
X136149850Y-50880705D01*
X136249690Y-50551578D01*
X136316789Y-50214250D01*
X136350500Y-49871969D01*
X136350500Y-49528031D01*
X136316789Y-49185750D01*
X136249690Y-48848422D01*
X136168971Y-48582329D01*
X136149853Y-48519304D01*
X136149851Y-48519298D01*
X136149850Y-48519295D01*
X136149845Y-48519284D01*
X136149840Y-48519269D01*
X136149837Y-48519263D01*
X136149686Y-48518861D01*
X136149348Y-48518082D01*
X136147246Y-48513008D01*
X136019199Y-48203875D01*
X136018231Y-48201538D01*
X135856611Y-47899169D01*
X135856245Y-47898462D01*
X135856100Y-47898213D01*
X135856097Y-47898207D01*
X135665024Y-47612246D01*
X135446833Y-47346378D01*
X135446814Y-47346358D01*
X135203641Y-47103185D01*
X135203621Y-47103166D01*
X134937753Y-46884975D01*
X134826310Y-46810511D01*
X134651797Y-46693905D01*
X134651530Y-46693750D01*
X134650829Y-46693387D01*
X134348460Y-46531767D01*
X134348037Y-46531576D01*
X134347196Y-46531244D01*
X134030740Y-46400162D01*
X134030701Y-46400148D01*
X134030700Y-46400147D01*
X133790858Y-46327393D01*
X133750473Y-46315142D01*
X133702611Y-46300623D01*
X133701506Y-46300271D01*
X133700192Y-46300034D01*
X133364240Y-46233209D01*
X133077592Y-46204978D01*
X133069804Y-46204211D01*
X133021969Y-46199500D01*
X133021968Y-46199500D01*
X132678031Y-46199500D01*
X132630182Y-46204211D01*
X132630183Y-46204212D01*
X132335758Y-46233209D01*
X131998425Y-46300308D01*
X131669298Y-46400147D01*
X131669297Y-46400148D01*
X131669258Y-46400162D01*
X131352802Y-46531244D01*
X131351962Y-46531575D01*
X131351538Y-46531767D01*
X131049169Y-46693387D01*
X131048479Y-46693743D01*
X131048201Y-46693905D01*
X130762252Y-46884970D01*
X130496387Y-47103158D01*
X130496340Y-47103202D01*
X130253202Y-47346340D01*
X130253158Y-47346387D01*
X130034970Y-47612252D01*
X129843905Y-47898201D01*
X129843743Y-47898479D01*
X129843387Y-47899169D01*
X129681767Y-48201538D01*
X129681575Y-48201962D01*
X129681244Y-48202802D01*
X129550162Y-48519258D01*
X129550148Y-48519297D01*
X129550147Y-48519298D01*
X129450308Y-48848425D01*
X129383209Y-49185758D01*
X129349500Y-49528031D01*
X118160499Y-49528031D01*
X118160499Y-48895033D01*
X118160594Y-48891169D01*
X118160783Y-48887309D01*
X118161068Y-48883430D01*
X118170656Y-48786080D01*
X118170658Y-48786055D01*
X118172605Y-48766285D01*
X118173743Y-48758620D01*
X118175248Y-48751056D01*
X118177128Y-48743549D01*
X118209605Y-48636487D01*
X118212203Y-48629228D01*
X118215170Y-48622063D01*
X118218463Y-48615099D01*
X118271211Y-48516416D01*
X118275183Y-48509790D01*
X118279491Y-48503343D01*
X118284093Y-48497139D01*
X118358763Y-48406151D01*
X118361251Y-48403265D01*
X118363887Y-48400355D01*
X118366549Y-48397561D01*
X118395624Y-48368487D01*
X118418101Y-48352749D01*
X118439225Y-48342900D01*
X118472608Y-48335500D01*
X119991327Y-48335500D01*
X119991332Y-48335500D01*
X120171750Y-48306924D01*
X120345476Y-48250477D01*
X120508233Y-48167548D01*
X120656014Y-48060179D01*
X120785178Y-47931015D01*
X120892547Y-47783234D01*
X120975476Y-47620477D01*
X121031923Y-47446751D01*
X121060499Y-47266333D01*
X121060499Y-47083667D01*
X121031923Y-46903249D01*
X120975476Y-46729523D01*
X120975472Y-46729516D01*
X120975471Y-46729512D01*
X120892546Y-46566765D01*
X120892542Y-46566759D01*
X120892540Y-46566755D01*
X120892534Y-46566746D01*
X120818703Y-46465129D01*
X120785183Y-46418992D01*
X120785178Y-46418985D01*
X120785173Y-46418980D01*
X120785168Y-46418974D01*
X120784848Y-46418654D01*
X120784845Y-46418650D01*
X120656035Y-46289840D01*
X120656014Y-46289821D01*
X120655991Y-46289804D01*
X120508251Y-46182463D01*
X120508242Y-46182457D01*
X120508227Y-46182449D01*
X120345496Y-46099531D01*
X120345489Y-46099528D01*
X120345456Y-46099516D01*
X120171772Y-46043082D01*
X120171754Y-46043077D01*
X120171749Y-46043076D01*
X120171741Y-46043074D01*
X120171739Y-46043073D01*
X120171727Y-46043071D01*
X119992921Y-46014751D01*
X119991740Y-46014539D01*
X119991340Y-46014500D01*
X119991336Y-46014500D01*
X119991332Y-46014500D01*
X118308666Y-46014500D01*
X118308662Y-46014500D01*
X118308659Y-46014500D01*
X118308638Y-46014501D01*
X118308310Y-46014555D01*
X118128268Y-46043071D01*
X118128242Y-46043077D01*
X118128224Y-46043082D01*
X117954540Y-46099516D01*
X117954507Y-46099528D01*
X117954500Y-46099531D01*
X117791769Y-46182449D01*
X117791754Y-46182457D01*
X117791745Y-46182463D01*
X117643991Y-46289814D01*
X117643983Y-46289821D01*
X117643969Y-46289832D01*
X117514831Y-46418970D01*
X117514820Y-46418984D01*
X117514813Y-46418992D01*
X117407462Y-46566746D01*
X117407456Y-46566755D01*
X117407448Y-46566770D01*
X117324530Y-46729501D01*
X117324527Y-46729508D01*
X117324515Y-46729541D01*
X117268081Y-46903225D01*
X117268076Y-46903243D01*
X117268070Y-46903270D01*
X117239499Y-47083658D01*
X117239499Y-47266340D01*
X117268070Y-47446728D01*
X117268076Y-47446755D01*
X117268081Y-47446773D01*
X117324515Y-47620457D01*
X117324527Y-47620490D01*
X117324530Y-47620497D01*
X117403332Y-47775151D01*
X117407451Y-47783234D01*
X117407455Y-47783240D01*
X117407463Y-47783251D01*
X117490857Y-47898034D01*
X117490957Y-47898170D01*
X117490988Y-47898213D01*
X117514820Y-47931015D01*
X117514824Y-47931019D01*
X117514829Y-47931025D01*
X117515679Y-47931875D01*
X117515682Y-47931879D01*
X117643957Y-48060154D01*
X117643991Y-48060185D01*
X117644124Y-48060281D01*
X117693168Y-48095914D01*
X117712222Y-48115646D01*
X117718018Y-48124239D01*
X117718576Y-48125066D01*
X117731645Y-48177494D01*
X117730529Y-48188113D01*
X117722351Y-48215721D01*
X117635514Y-48386146D01*
X117635510Y-48386155D01*
X117635507Y-48386163D01*
X117571775Y-48582310D01*
X117571764Y-48582347D01*
X117571763Y-48582352D01*
X117539500Y-48786055D01*
X117539499Y-48786066D01*
X117539499Y-51720511D01*
X117538600Y-51732396D01*
X117537524Y-51739464D01*
X117534631Y-51747870D01*
X117521077Y-51847539D01*
X117520977Y-51848200D01*
X117520671Y-51848759D01*
X117515908Y-51866438D01*
X117479120Y-51955629D01*
X117471760Y-51969418D01*
X117385187Y-52098891D01*
X117379687Y-52106168D01*
X117189501Y-52329728D01*
X117188800Y-52330541D01*
X117046348Y-52493450D01*
X117044556Y-52495533D01*
X117044342Y-52495785D01*
X117042299Y-52498250D01*
X116891131Y-52684354D01*
X116887805Y-52688588D01*
X116887383Y-52689142D01*
X116884381Y-52693224D01*
X116731854Y-52907491D01*
X116728135Y-52912945D01*
X116727595Y-52913772D01*
X116723891Y-52919717D01*
X116579701Y-53162490D01*
X116579699Y-53162495D01*
X116566410Y-53190584D01*
X116566407Y-53190590D01*
X116566405Y-53190596D01*
X116566404Y-53190596D01*
X116564924Y-53194677D01*
X116564923Y-53194681D01*
X116562581Y-53202265D01*
X116557490Y-53214813D01*
X116524532Y-53279500D01*
X116524525Y-53279514D01*
X116524515Y-53279541D01*
X116468081Y-53453225D01*
X116468076Y-53453243D01*
X116468070Y-53453270D01*
X116439499Y-53633658D01*
X115340500Y-53633658D01*
X115340500Y-46692761D01*
X115340550Y-46689961D01*
X115340650Y-46687141D01*
X115340799Y-46684339D01*
X115349208Y-46566765D01*
X115354329Y-46495148D01*
X115354928Y-46489576D01*
X115355728Y-46484012D01*
X115356723Y-46478494D01*
X115398620Y-46285899D01*
X115400007Y-46280469D01*
X115401599Y-46275045D01*
X115403368Y-46269733D01*
X115472236Y-46085088D01*
X115474378Y-46079916D01*
X115476724Y-46074780D01*
X115479240Y-46069757D01*
X115511224Y-46011181D01*
X115573681Y-45896798D01*
X115576546Y-45891970D01*
X115579605Y-45887211D01*
X115582807Y-45882602D01*
X115640081Y-45806093D01*
X115700898Y-45724848D01*
X115704422Y-45720476D01*
X115708123Y-45716206D01*
X115711930Y-45712117D01*
X115851285Y-45572762D01*
X115855374Y-45568955D01*
X115859644Y-45565254D01*
X115864020Y-45561728D01*
X116021790Y-45443623D01*
X116026394Y-45440427D01*
X116031144Y-45437376D01*
X116035981Y-45434507D01*
X116184309Y-45353513D01*
X116208929Y-45340069D01*
X116213937Y-45337561D01*
X116219095Y-45335206D01*
X116224256Y-45333068D01*
X116408901Y-45264200D01*
X116414213Y-45262431D01*
X116419637Y-45260839D01*
X116425067Y-45259452D01*
X116617662Y-45217555D01*
X116623171Y-45216561D01*
X116628753Y-45215759D01*
X116634311Y-45215161D01*
X116814662Y-45202263D01*
X116835157Y-45200798D01*
X116837886Y-45200652D01*
X116840779Y-45200548D01*
X116843564Y-45200500D01*
X132847413Y-45200500D01*
X132849099Y-45200518D01*
G37*
%TD.AperFunction*%
%TD*%
%TA.AperFunction,Conductor*%
%TO.N,GNDD*%
G36*
X122747195Y-63625994D02*
G01*
X122750605Y-63633628D01*
X122755573Y-63724454D01*
X122770491Y-63801857D01*
X122817571Y-63919311D01*
X122859132Y-64015357D01*
X122859617Y-64016696D01*
X122880489Y-64087537D01*
X122880779Y-64088762D01*
X122895255Y-64168802D01*
X122893355Y-64177553D01*
X122885824Y-64182397D01*
X122885307Y-64182479D01*
X122601565Y-64220788D01*
X122598435Y-64220788D01*
X122315211Y-64182549D01*
X122307470Y-64178046D01*
X122305181Y-64169389D01*
X122305356Y-64168412D01*
X122337471Y-64025306D01*
X122338116Y-64023301D01*
X122382345Y-63919504D01*
X122382515Y-63919127D01*
X122389558Y-63904433D01*
X122432722Y-63789491D01*
X122445340Y-63716526D01*
X122449448Y-63633685D01*
X122453281Y-63625594D01*
X122461134Y-63622567D01*
X122738922Y-63622567D01*
X122747195Y-63625994D01*
G37*
%TD.AperFunction*%
%TD*%
%TA.AperFunction,Conductor*%
%TO.N,GNDD*%
G36*
X127124255Y-75837319D02*
G01*
X127124833Y-75838150D01*
X127203301Y-75962026D01*
X127204271Y-75963919D01*
X127246365Y-76068525D01*
X127246547Y-76069007D01*
X127251944Y-76084333D01*
X127277174Y-76139909D01*
X127302698Y-76196131D01*
X127302701Y-76196136D01*
X127345364Y-76256640D01*
X127345373Y-76256652D01*
X127401041Y-76318130D01*
X127404054Y-76326563D01*
X127400641Y-76334256D01*
X127204216Y-76530681D01*
X127195943Y-76534108D01*
X127188134Y-76531121D01*
X127155040Y-76501459D01*
X127120398Y-76470410D01*
X127120395Y-76470408D01*
X127120393Y-76470406D01*
X127055117Y-76426227D01*
X126938768Y-76376462D01*
X126841473Y-76337939D01*
X126840182Y-76337335D01*
X126775328Y-76302000D01*
X126774257Y-76301339D01*
X126707425Y-76254979D01*
X126702581Y-76247448D01*
X126704481Y-76238697D01*
X126704774Y-76238292D01*
X126878338Y-76010545D01*
X126880545Y-76008338D01*
X127107859Y-75835104D01*
X127116514Y-75832816D01*
X127124255Y-75837319D01*
G37*
%TD.AperFunction*%
%TD*%
%TA.AperFunction,Conductor*%
%TO.N,GNDD*%
G36*
X126760833Y-87551058D02*
G01*
X126932601Y-87581572D01*
X126934285Y-87582004D01*
X127090967Y-87634848D01*
X127092231Y-87635359D01*
X127228281Y-87700025D01*
X127228942Y-87700367D01*
X127350170Y-87768381D01*
X127525730Y-87861721D01*
X127650710Y-87900636D01*
X127650709Y-87900636D01*
X127770674Y-87902359D01*
X127835756Y-87887814D01*
X127835756Y-87887813D01*
X127835760Y-87887813D01*
X127905008Y-87861227D01*
X127985270Y-87817621D01*
X128063230Y-87763321D01*
X128071976Y-87761406D01*
X128079198Y-87765801D01*
X128248020Y-87985820D01*
X128250338Y-87994469D01*
X128246019Y-88002101D01*
X128055929Y-88153209D01*
X127906472Y-88282553D01*
X127906469Y-88282554D01*
X127685404Y-88497984D01*
X127685360Y-88498027D01*
X127634665Y-88548483D01*
X127524687Y-88657946D01*
X127524354Y-88658264D01*
X127376308Y-88794446D01*
X127375964Y-88794750D01*
X127186573Y-88955709D01*
X127178050Y-88958456D01*
X127170081Y-88954371D01*
X127170010Y-88954286D01*
X126672294Y-88349360D01*
X126669685Y-88340796D01*
X126747164Y-87561423D01*
X126751393Y-87553530D01*
X126759964Y-87550938D01*
X126760833Y-87551058D01*
G37*
%TD.AperFunction*%
%TD*%
%TA.AperFunction,Conductor*%
%TO.N,GNDD*%
G36*
X122017052Y-55381398D02*
G01*
X122162935Y-55639913D01*
X122279031Y-55826186D01*
X122279132Y-55826351D01*
X122427532Y-56073450D01*
X122427970Y-56074247D01*
X122509853Y-56238238D01*
X122510106Y-56238780D01*
X122602812Y-56450917D01*
X122602985Y-56459870D01*
X122596776Y-56466323D01*
X122596568Y-56466411D01*
X122340454Y-56572494D01*
X122331499Y-56572494D01*
X122325534Y-56566959D01*
X122281204Y-56479108D01*
X122227400Y-56410828D01*
X122227398Y-56410827D01*
X122227398Y-56410826D01*
X122168784Y-56367889D01*
X122168785Y-56367889D01*
X122105133Y-56346378D01*
X122105134Y-56346378D01*
X122036228Y-56342375D01*
X122036221Y-56342376D01*
X121961841Y-56351961D01*
X121961818Y-56351966D01*
X121795691Y-56396239D01*
X121649296Y-56437408D01*
X121648168Y-56437666D01*
X121458122Y-56471309D01*
X121456077Y-56471488D01*
X121289379Y-56471396D01*
X121281107Y-56467965D01*
X121277685Y-56459690D01*
X121277740Y-56458572D01*
X121349006Y-55730313D01*
X121353222Y-55722415D01*
X121355140Y-55721134D01*
X122001361Y-55376821D01*
X122010273Y-55375956D01*
X122017052Y-55381398D01*
G37*
%TD.AperFunction*%
%TD*%
%TA.AperFunction,Conductor*%
%TO.N,Net-(P1-ID3{slash}SCL)*%
G36*
X121218403Y-87649798D02*
G01*
X121218714Y-87650343D01*
X121588037Y-88339473D01*
X121588925Y-88348384D01*
X121588037Y-88350527D01*
X121218717Y-89039650D01*
X121211789Y-89045323D01*
X121202878Y-89044435D01*
X121202328Y-89044121D01*
X120958023Y-88895615D01*
X120957126Y-88895011D01*
X120773379Y-88758604D01*
X120773345Y-88758579D01*
X120610273Y-88639375D01*
X120610269Y-88639373D01*
X120610268Y-88639372D01*
X120610270Y-88639372D01*
X120461491Y-88562948D01*
X120461491Y-88562947D01*
X120375357Y-88535110D01*
X120275806Y-88514240D01*
X120147328Y-88499904D01*
X120005178Y-88495361D01*
X119997019Y-88491672D01*
X119993852Y-88483667D01*
X119993852Y-88206337D01*
X119997279Y-88198064D01*
X120005182Y-88194643D01*
X120145095Y-88190248D01*
X120272060Y-88176355D01*
X120379200Y-88153863D01*
X120470967Y-88123315D01*
X120551813Y-88085254D01*
X120626189Y-88040223D01*
X120773344Y-87931421D01*
X120959567Y-87793305D01*
X120960441Y-87792717D01*
X121202331Y-87645868D01*
X121211181Y-87644505D01*
X121218403Y-87649798D01*
G37*
%TD.AperFunction*%
%TD*%
%TA.AperFunction,Conductor*%
%TO.N,Net-(P1-ID3{slash}SCL)*%
G36*
X120644094Y-50360850D02*
G01*
X121344691Y-50572469D01*
X121351620Y-50578141D01*
X121352508Y-50580286D01*
X121478101Y-50996050D01*
X121548808Y-51230123D01*
X121564129Y-51280840D01*
X121563241Y-51289750D01*
X121556312Y-51295423D01*
X121555662Y-51295599D01*
X121299952Y-51357028D01*
X121298825Y-51357241D01*
X121089203Y-51386282D01*
X121089188Y-51386285D01*
X121025369Y-51395303D01*
X120919104Y-51410321D01*
X120919101Y-51410321D01*
X120919100Y-51410322D01*
X120900062Y-51416044D01*
X120768439Y-51455608D01*
X120693459Y-51493055D01*
X120693448Y-51493061D01*
X120614584Y-51544391D01*
X120614578Y-51544396D01*
X120521415Y-51619744D01*
X120426504Y-51710924D01*
X120418163Y-51714185D01*
X120410243Y-51710877D01*
X120211085Y-51517308D01*
X120207541Y-51509084D01*
X120210337Y-51501326D01*
X120369467Y-51314796D01*
X120423814Y-51230130D01*
X120463235Y-51150514D01*
X120510068Y-50996051D01*
X120535508Y-50830634D01*
X120564893Y-50634708D01*
X120565094Y-50633689D01*
X120578078Y-50580286D01*
X120629374Y-50369294D01*
X120634658Y-50362066D01*
X120643507Y-50360690D01*
X120644094Y-50360850D01*
G37*
%TD.AperFunction*%
%TD*%
%TA.AperFunction,Conductor*%
%TO.N,Net-(P1-VSYNC)*%
G36*
X124564827Y-50361734D02*
G01*
X124570500Y-50368663D01*
X124570658Y-50369238D01*
X124633672Y-50624160D01*
X124633873Y-50625156D01*
X124666605Y-50833964D01*
X124693305Y-51001882D01*
X124693306Y-51001885D01*
X124741342Y-51158479D01*
X124780160Y-51236438D01*
X124833115Y-51318752D01*
X124833120Y-51318759D01*
X124833122Y-51318761D01*
X124911279Y-51417208D01*
X124911285Y-51417215D01*
X124911288Y-51417218D01*
X125006430Y-51518777D01*
X125009585Y-51527156D01*
X125006164Y-51535048D01*
X124810063Y-51731149D01*
X124801790Y-51734576D01*
X124793774Y-51731398D01*
X124698225Y-51641526D01*
X124698222Y-51641523D01*
X124698211Y-51641513D01*
X124698194Y-51641499D01*
X124604631Y-51565998D01*
X124518636Y-51509306D01*
X124518633Y-51509305D01*
X124518630Y-51509303D01*
X124437543Y-51468096D01*
X124437540Y-51468095D01*
X124437531Y-51468091D01*
X124279437Y-51418840D01*
X124109004Y-51391612D01*
X124108975Y-51391608D01*
X124022735Y-51378280D01*
X123914087Y-51361489D01*
X123913098Y-51361292D01*
X123644279Y-51295634D01*
X123637055Y-51290342D01*
X123635689Y-51281492D01*
X123635855Y-51280885D01*
X123649281Y-51236438D01*
X123847479Y-50580294D01*
X123853151Y-50573367D01*
X123855288Y-50572481D01*
X124555918Y-50360846D01*
X124564827Y-50361734D01*
G37*
%TD.AperFunction*%
%TD*%
%TA.AperFunction,Conductor*%
%TO.N,Net-(P1-VSYNC)*%
G36*
X121350083Y-85294168D02*
G01*
X121358297Y-85297734D01*
X121358298Y-85297735D01*
X121359252Y-85298722D01*
X121360760Y-85302546D01*
X121361075Y-85302450D01*
X121362284Y-85306410D01*
X121362537Y-85307052D01*
X121362503Y-85307129D01*
X121588826Y-86048495D01*
X121589281Y-86053046D01*
X121588865Y-86057313D01*
X121587532Y-86061706D01*
X121219739Y-86747746D01*
X121216838Y-86751272D01*
X121215460Y-86752400D01*
X121206891Y-86754988D01*
X121205340Y-86754834D01*
X121200559Y-86753271D01*
X121197168Y-86751272D01*
X121122704Y-86707369D01*
X120878164Y-86563193D01*
X120877768Y-86562948D01*
X120877377Y-86562696D01*
X120876968Y-86562420D01*
X120654344Y-86404695D01*
X120654214Y-86404601D01*
X120543759Y-86324055D01*
X120543758Y-86324054D01*
X120543651Y-86323985D01*
X120543557Y-86323929D01*
X120312274Y-86179402D01*
X120312230Y-86179378D01*
X120157350Y-86101065D01*
X120157264Y-86101020D01*
X120157195Y-86100986D01*
X120157190Y-86100984D01*
X120063275Y-86059643D01*
X119972941Y-86019878D01*
X119969201Y-86017259D01*
X119967916Y-86015916D01*
X119964671Y-86007702D01*
X119964689Y-86006019D01*
X119965578Y-86001670D01*
X120070016Y-85749527D01*
X120072547Y-85745739D01*
X120073947Y-85744339D01*
X120081887Y-85740919D01*
X120083424Y-85740876D01*
X120087607Y-85741526D01*
X120207114Y-85783315D01*
X120321090Y-85805937D01*
X120420334Y-85807826D01*
X120508113Y-85791776D01*
X120587695Y-85760580D01*
X120587697Y-85760579D01*
X120662338Y-85717040D01*
X120662348Y-85717033D01*
X120809910Y-85604076D01*
X120809931Y-85604060D01*
X120972821Y-85478190D01*
X120973355Y-85477802D01*
X120973931Y-85477410D01*
X120974481Y-85477057D01*
X121152876Y-85370502D01*
X121153682Y-85370065D01*
X121154542Y-85369641D01*
X121155385Y-85369269D01*
X121343818Y-85294951D01*
X121348301Y-85294138D01*
X121350083Y-85294168D01*
G37*
%TD.AperFunction*%
%TD*%
%TA.AperFunction,Conductor*%
%TO.N,GND*%
G36*
X117997617Y-51763474D02*
G01*
X118000993Y-51770655D01*
X118017728Y-51949189D01*
X118017729Y-51949195D01*
X118066771Y-52140951D01*
X118066773Y-52140959D01*
X118140912Y-52344469D01*
X118233943Y-52568882D01*
X118233975Y-52568960D01*
X118404251Y-52988123D01*
X118404482Y-52988741D01*
X118554689Y-53428133D01*
X118554123Y-53437070D01*
X118552233Y-53439835D01*
X117609707Y-54465435D01*
X117601585Y-54469208D01*
X117593175Y-54466133D01*
X117591604Y-54464364D01*
X116722568Y-53259826D01*
X116720506Y-53251111D01*
X116721994Y-53247008D01*
X116866174Y-53004251D01*
X116866699Y-53003447D01*
X116877389Y-52988430D01*
X117019190Y-52789231D01*
X117019607Y-52788682D01*
X117170705Y-52602664D01*
X117170909Y-52602423D01*
X117314448Y-52438271D01*
X117514914Y-52202628D01*
X117622849Y-52041208D01*
X117680907Y-51900445D01*
X117698622Y-51770170D01*
X117703132Y-51762435D01*
X117710215Y-51760047D01*
X117989344Y-51760047D01*
X117997617Y-51763474D01*
G37*
%TD.AperFunction*%
%TD*%
%TA.AperFunction,Conductor*%
%TO.N,GND*%
G36*
X119156008Y-61782892D02*
G01*
X119814460Y-62757260D01*
X119816253Y-62766033D01*
X119811317Y-62773505D01*
X119805044Y-62775508D01*
X119755359Y-62776688D01*
X119755328Y-62776690D01*
X119632191Y-62788185D01*
X119632184Y-62788186D01*
X119632176Y-62788187D01*
X119552787Y-62802572D01*
X119512709Y-62809834D01*
X119390974Y-62842824D01*
X119274540Y-62885209D01*
X119158704Y-62938681D01*
X119050007Y-63000229D01*
X119049991Y-63000238D01*
X118946465Y-63070658D01*
X118946457Y-63070665D01*
X118851857Y-63147155D01*
X118693169Y-63312339D01*
X118582176Y-63479475D01*
X118519470Y-63635191D01*
X118519469Y-63635197D01*
X118501425Y-63762486D01*
X118496871Y-63770196D01*
X118489841Y-63772544D01*
X118211853Y-63772544D01*
X118203580Y-63769117D01*
X118200153Y-63760844D01*
X118200154Y-63760691D01*
X118201332Y-63670686D01*
X118201375Y-63635191D01*
X118201579Y-63466863D01*
X118180719Y-63247471D01*
X118130746Y-63053164D01*
X118048180Y-62874381D01*
X117928182Y-62706217D01*
X117852296Y-62625501D01*
X117775984Y-62557118D01*
X117772110Y-62549045D01*
X117775079Y-62540597D01*
X117778093Y-62538187D01*
X119140622Y-61779222D01*
X119149517Y-61778191D01*
X119156008Y-61782892D01*
G37*
%TD.AperFunction*%
%TD*%
%TA.AperFunction,Conductor*%
%TO.N,GND*%
G36*
X117322195Y-84535994D02*
G01*
X117325605Y-84543628D01*
X117330573Y-84634454D01*
X117345491Y-84711857D01*
X117392571Y-84829311D01*
X117434132Y-84925357D01*
X117434617Y-84926696D01*
X117455489Y-84997537D01*
X117455779Y-84998762D01*
X117470255Y-85078802D01*
X117468355Y-85087553D01*
X117460824Y-85092397D01*
X117460307Y-85092479D01*
X117176565Y-85130788D01*
X117173435Y-85130788D01*
X116890211Y-85092549D01*
X116882470Y-85088046D01*
X116880181Y-85079389D01*
X116880356Y-85078412D01*
X116912471Y-84935306D01*
X116913116Y-84933301D01*
X116957345Y-84829504D01*
X116957515Y-84829127D01*
X116964558Y-84814433D01*
X117007722Y-84699491D01*
X117020340Y-84626526D01*
X117024448Y-84543685D01*
X117028281Y-84535594D01*
X117036134Y-84532567D01*
X117313922Y-84532567D01*
X117322195Y-84535994D01*
G37*
%TD.AperFunction*%
%TD*%
%TA.AperFunction,Conductor*%
%TO.N,GND*%
G36*
X124120049Y-71005683D02*
G01*
X124125493Y-71012793D01*
X124125493Y-71018827D01*
X123618781Y-72917400D01*
X123613337Y-72924510D01*
X123604817Y-72925777D01*
X123357482Y-72868024D01*
X123118227Y-72839029D01*
X122895373Y-72844063D01*
X122862338Y-72850256D01*
X122686145Y-72883291D01*
X122527512Y-72942872D01*
X122488043Y-72957697D01*
X122488041Y-72957697D01*
X122488041Y-72957698D01*
X122488035Y-72957701D01*
X122299016Y-73069894D01*
X122207839Y-73141174D01*
X122126034Y-73216729D01*
X122117632Y-73219825D01*
X122109823Y-73216407D01*
X121913288Y-73019872D01*
X121909861Y-73011599D01*
X121912662Y-73004003D01*
X122058611Y-72833065D01*
X122123283Y-72733913D01*
X122175916Y-72634355D01*
X122238092Y-72473376D01*
X122275265Y-72314485D01*
X122291514Y-72159632D01*
X122290917Y-72010765D01*
X122277553Y-71869834D01*
X122255500Y-71738787D01*
X122204302Y-71525229D01*
X122205706Y-71516387D01*
X122212660Y-71511200D01*
X124111173Y-71004506D01*
X124120049Y-71005683D01*
G37*
%TD.AperFunction*%
%TD*%
%TA.AperFunction,Conductor*%
%TO.N,GND*%
G36*
X121863947Y-69100957D02*
G01*
X121935673Y-69165222D01*
X121950328Y-69178352D01*
X122046905Y-69246621D01*
X122073849Y-69261207D01*
X122144870Y-69299655D01*
X122144875Y-69299657D01*
X122144879Y-69299659D01*
X122243696Y-69338748D01*
X122243700Y-69338749D01*
X122243705Y-69338751D01*
X122324754Y-69360359D01*
X122342803Y-69365172D01*
X122441649Y-69380214D01*
X122636341Y-69381286D01*
X122636347Y-69381285D01*
X122643247Y-69380213D01*
X122823351Y-69352229D01*
X122998255Y-69303310D01*
X123294060Y-69186951D01*
X123344840Y-69165221D01*
X123353794Y-69165118D01*
X123360200Y-69171376D01*
X123360226Y-69171437D01*
X124122858Y-70982072D01*
X124122911Y-70991027D01*
X124116617Y-70997397D01*
X124110639Y-70998226D01*
X122160604Y-70757149D01*
X122152814Y-70752733D01*
X122150402Y-70744329D01*
X122158567Y-70665653D01*
X122163437Y-70423099D01*
X122135183Y-70187795D01*
X122071879Y-69959248D01*
X121971267Y-69736549D01*
X121830019Y-69518847D01*
X121743266Y-69412271D01*
X121743255Y-69412259D01*
X121651298Y-69313962D01*
X121648148Y-69305579D01*
X121651568Y-69297697D01*
X121847868Y-69101397D01*
X121856140Y-69097971D01*
X121863947Y-69100957D01*
G37*
%TD.AperFunction*%
%TD*%
M02*
